G04 #@! TF.GenerationSoftware,KiCad,Pcbnew,(5.1.5)-3*
G04 #@! TF.CreationDate,2020-11-01T13:07:33-06:00*
G04 #@! TF.ProjectId,Aii-WiFi,4169692d-5769-4466-992e-6b696361645f,rev?*
G04 #@! TF.SameCoordinates,Original*
G04 #@! TF.FileFunction,Legend,Top*
G04 #@! TF.FilePolarity,Positive*
%FSLAX46Y46*%
G04 Gerber Fmt 4.6, Leading zero omitted, Abs format (unit mm)*
G04 Created by KiCad (PCBNEW (5.1.5)-3) date 2020-11-01 13:07:33*
%MOMM*%
%LPD*%
G04 APERTURE LIST*
%ADD10C,0.150000*%
%ADD11C,0.010000*%
%ADD12C,0.120000*%
G04 APERTURE END LIST*
D10*
X194957142Y-78252380D02*
X194957142Y-77252380D01*
X195528571Y-78252380D01*
X195528571Y-77252380D01*
X196195238Y-77252380D02*
X196385714Y-77252380D01*
X196480952Y-77300000D01*
X196576190Y-77395238D01*
X196623809Y-77585714D01*
X196623809Y-77919047D01*
X196576190Y-78109523D01*
X196480952Y-78204761D01*
X196385714Y-78252380D01*
X196195238Y-78252380D01*
X196100000Y-78204761D01*
X196004761Y-78109523D01*
X195957142Y-77919047D01*
X195957142Y-77585714D01*
X196004761Y-77395238D01*
X196100000Y-77300000D01*
X196195238Y-77252380D01*
X197052380Y-78252380D02*
X197052380Y-77252380D01*
X197290476Y-77252380D01*
X197433333Y-77300000D01*
X197528571Y-77395238D01*
X197576190Y-77490476D01*
X197623809Y-77680952D01*
X197623809Y-77823809D01*
X197576190Y-78014285D01*
X197528571Y-78109523D01*
X197433333Y-78204761D01*
X197290476Y-78252380D01*
X197052380Y-78252380D01*
X198052380Y-77728571D02*
X198385714Y-77728571D01*
X198528571Y-78252380D02*
X198052380Y-78252380D01*
X198052380Y-77252380D01*
X198528571Y-77252380D01*
X198957142Y-78252380D02*
X198957142Y-77252380D01*
X199290476Y-77966666D01*
X199623809Y-77252380D01*
X199623809Y-78252380D01*
X200528571Y-78204761D02*
X200433333Y-78252380D01*
X200242857Y-78252380D01*
X200147619Y-78204761D01*
X200100000Y-78157142D01*
X200052380Y-78061904D01*
X200052380Y-77776190D01*
X200100000Y-77680952D01*
X200147619Y-77633333D01*
X200242857Y-77585714D01*
X200433333Y-77585714D01*
X200528571Y-77633333D01*
X201385714Y-77585714D02*
X201385714Y-78252380D01*
X200957142Y-77585714D02*
X200957142Y-78109523D01*
X201004761Y-78204761D01*
X201100000Y-78252380D01*
X201242857Y-78252380D01*
X201338095Y-78204761D01*
X201385714Y-78157142D01*
X202623809Y-77728571D02*
X202957142Y-77728571D01*
X203100000Y-78252380D02*
X202623809Y-78252380D01*
X202623809Y-77252380D01*
X203100000Y-77252380D01*
X203480952Y-78204761D02*
X203623809Y-78252380D01*
X203861904Y-78252380D01*
X203957142Y-78204761D01*
X204004761Y-78157142D01*
X204052380Y-78061904D01*
X204052380Y-77966666D01*
X204004761Y-77871428D01*
X203957142Y-77823809D01*
X203861904Y-77776190D01*
X203671428Y-77728571D01*
X203576190Y-77680952D01*
X203528571Y-77633333D01*
X203480952Y-77538095D01*
X203480952Y-77442857D01*
X203528571Y-77347619D01*
X203576190Y-77300000D01*
X203671428Y-77252380D01*
X203909523Y-77252380D01*
X204052380Y-77300000D01*
X204480952Y-78252380D02*
X204480952Y-77252380D01*
X204861904Y-77252380D01*
X204957142Y-77300000D01*
X205004761Y-77347619D01*
X205052380Y-77442857D01*
X205052380Y-77585714D01*
X205004761Y-77680952D01*
X204957142Y-77728571D01*
X204861904Y-77776190D01*
X204480952Y-77776190D01*
X205623809Y-77680952D02*
X205528571Y-77633333D01*
X205480952Y-77585714D01*
X205433333Y-77490476D01*
X205433333Y-77442857D01*
X205480952Y-77347619D01*
X205528571Y-77300000D01*
X205623809Y-77252380D01*
X205814285Y-77252380D01*
X205909523Y-77300000D01*
X205957142Y-77347619D01*
X206004761Y-77442857D01*
X206004761Y-77490476D01*
X205957142Y-77585714D01*
X205909523Y-77633333D01*
X205814285Y-77680952D01*
X205623809Y-77680952D01*
X205528571Y-77728571D01*
X205480952Y-77776190D01*
X205433333Y-77871428D01*
X205433333Y-78061904D01*
X205480952Y-78157142D01*
X205528571Y-78204761D01*
X205623809Y-78252380D01*
X205814285Y-78252380D01*
X205909523Y-78204761D01*
X205957142Y-78157142D01*
X206004761Y-78061904D01*
X206004761Y-77871428D01*
X205957142Y-77776190D01*
X205909523Y-77728571D01*
X205814285Y-77680952D01*
X206385714Y-77347619D02*
X206433333Y-77300000D01*
X206528571Y-77252380D01*
X206766666Y-77252380D01*
X206861904Y-77300000D01*
X206909523Y-77347619D01*
X206957142Y-77442857D01*
X206957142Y-77538095D01*
X206909523Y-77680952D01*
X206338095Y-78252380D01*
X206957142Y-78252380D01*
X207814285Y-77252380D02*
X207623809Y-77252380D01*
X207528571Y-77300000D01*
X207480952Y-77347619D01*
X207385714Y-77490476D01*
X207338095Y-77680952D01*
X207338095Y-78061904D01*
X207385714Y-78157142D01*
X207433333Y-78204761D01*
X207528571Y-78252380D01*
X207719047Y-78252380D01*
X207814285Y-78204761D01*
X207861904Y-78157142D01*
X207909523Y-78061904D01*
X207909523Y-77823809D01*
X207861904Y-77728571D01*
X207814285Y-77680952D01*
X207719047Y-77633333D01*
X207528571Y-77633333D01*
X207433333Y-77680952D01*
X207385714Y-77728571D01*
X207338095Y-77823809D01*
X208766666Y-77252380D02*
X208576190Y-77252380D01*
X208480952Y-77300000D01*
X208433333Y-77347619D01*
X208338095Y-77490476D01*
X208290476Y-77680952D01*
X208290476Y-78061904D01*
X208338095Y-78157142D01*
X208385714Y-78204761D01*
X208480952Y-78252380D01*
X208671428Y-78252380D01*
X208766666Y-78204761D01*
X208814285Y-78157142D01*
X208861904Y-78061904D01*
X208861904Y-77823809D01*
X208814285Y-77728571D01*
X208766666Y-77680952D01*
X208671428Y-77633333D01*
X208480952Y-77633333D01*
X208385714Y-77680952D01*
X208338095Y-77728571D01*
X208290476Y-77823809D01*
X209957142Y-77252380D02*
X210195238Y-78252380D01*
X210385714Y-77538095D01*
X210576190Y-78252380D01*
X210814285Y-77252380D01*
X211195238Y-78252380D02*
X211195238Y-77585714D01*
X211195238Y-77252380D02*
X211147619Y-77300000D01*
X211195238Y-77347619D01*
X211242857Y-77300000D01*
X211195238Y-77252380D01*
X211195238Y-77347619D01*
X211528571Y-77585714D02*
X211909523Y-77585714D01*
X211671428Y-78252380D02*
X211671428Y-77395238D01*
X211719047Y-77300000D01*
X211814285Y-77252380D01*
X211909523Y-77252380D01*
X212242857Y-78252380D02*
X212242857Y-77585714D01*
X212242857Y-77252380D02*
X212195238Y-77300000D01*
X212242857Y-77347619D01*
X212290476Y-77300000D01*
X212242857Y-77252380D01*
X212242857Y-77347619D01*
X109180380Y-105313714D02*
X109180380Y-104742285D01*
X110180380Y-105028000D02*
X109180380Y-105028000D01*
X110180380Y-104408952D02*
X109180380Y-104408952D01*
X110180380Y-103980380D02*
X109656571Y-103980380D01*
X109561333Y-104028000D01*
X109513714Y-104123238D01*
X109513714Y-104266095D01*
X109561333Y-104361333D01*
X109608952Y-104408952D01*
X110180380Y-103504190D02*
X109513714Y-103504190D01*
X109180380Y-103504190D02*
X109228000Y-103551809D01*
X109275619Y-103504190D01*
X109228000Y-103456571D01*
X109180380Y-103504190D01*
X109275619Y-103504190D01*
X110132761Y-103075619D02*
X110180380Y-102980380D01*
X110180380Y-102789904D01*
X110132761Y-102694666D01*
X110037523Y-102647047D01*
X109989904Y-102647047D01*
X109894666Y-102694666D01*
X109847047Y-102789904D01*
X109847047Y-102932761D01*
X109799428Y-103028000D01*
X109704190Y-103075619D01*
X109656571Y-103075619D01*
X109561333Y-103028000D01*
X109513714Y-102932761D01*
X109513714Y-102789904D01*
X109561333Y-102694666D01*
X110132761Y-101504190D02*
X110180380Y-101361333D01*
X110180380Y-101123238D01*
X110132761Y-101028000D01*
X110085142Y-100980380D01*
X109989904Y-100932761D01*
X109894666Y-100932761D01*
X109799428Y-100980380D01*
X109751809Y-101028000D01*
X109704190Y-101123238D01*
X109656571Y-101313714D01*
X109608952Y-101408952D01*
X109561333Y-101456571D01*
X109466095Y-101504190D01*
X109370857Y-101504190D01*
X109275619Y-101456571D01*
X109228000Y-101408952D01*
X109180380Y-101313714D01*
X109180380Y-101075619D01*
X109228000Y-100932761D01*
X110180380Y-100504190D02*
X109513714Y-100504190D01*
X109180380Y-100504190D02*
X109228000Y-100551809D01*
X109275619Y-100504190D01*
X109228000Y-100456571D01*
X109180380Y-100504190D01*
X109275619Y-100504190D01*
X110180380Y-99599428D02*
X109180380Y-99599428D01*
X110132761Y-99599428D02*
X110180380Y-99694666D01*
X110180380Y-99885142D01*
X110132761Y-99980380D01*
X110085142Y-100028000D01*
X109989904Y-100075619D01*
X109704190Y-100075619D01*
X109608952Y-100028000D01*
X109561333Y-99980380D01*
X109513714Y-99885142D01*
X109513714Y-99694666D01*
X109561333Y-99599428D01*
X110132761Y-98742285D02*
X110180380Y-98837523D01*
X110180380Y-99028000D01*
X110132761Y-99123238D01*
X110037523Y-99170857D01*
X109656571Y-99170857D01*
X109561333Y-99123238D01*
X109513714Y-99028000D01*
X109513714Y-98837523D01*
X109561333Y-98742285D01*
X109656571Y-98694666D01*
X109751809Y-98694666D01*
X109847047Y-99170857D01*
X109513714Y-97647047D02*
X109513714Y-97266095D01*
X109180380Y-97504190D02*
X110037523Y-97504190D01*
X110132761Y-97456571D01*
X110180380Y-97361333D01*
X110180380Y-97266095D01*
X110180380Y-96789904D02*
X110132761Y-96885142D01*
X110085142Y-96932761D01*
X109989904Y-96980380D01*
X109704190Y-96980380D01*
X109608952Y-96932761D01*
X109561333Y-96885142D01*
X109513714Y-96789904D01*
X109513714Y-96647047D01*
X109561333Y-96551809D01*
X109608952Y-96504190D01*
X109704190Y-96456571D01*
X109989904Y-96456571D01*
X110085142Y-96504190D01*
X110132761Y-96551809D01*
X110180380Y-96647047D01*
X110180380Y-96789904D01*
X110180380Y-95266095D02*
X109180380Y-95266095D01*
X110180380Y-94694666D02*
X109608952Y-95123238D01*
X109180380Y-94694666D02*
X109751809Y-95266095D01*
X110132761Y-93885142D02*
X110180380Y-93980380D01*
X110180380Y-94170857D01*
X110132761Y-94266095D01*
X110037523Y-94313714D01*
X109656571Y-94313714D01*
X109561333Y-94266095D01*
X109513714Y-94170857D01*
X109513714Y-93980380D01*
X109561333Y-93885142D01*
X109656571Y-93837523D01*
X109751809Y-93837523D01*
X109847047Y-94313714D01*
X109513714Y-93504190D02*
X110180380Y-93266095D01*
X109513714Y-93028000D02*
X110180380Y-93266095D01*
X110418476Y-93361333D01*
X110466095Y-93408952D01*
X110513714Y-93504190D01*
X110180380Y-92647047D02*
X109180380Y-92647047D01*
X109561333Y-92647047D02*
X109513714Y-92551809D01*
X109513714Y-92361333D01*
X109561333Y-92266095D01*
X109608952Y-92218476D01*
X109704190Y-92170857D01*
X109989904Y-92170857D01*
X110085142Y-92218476D01*
X110132761Y-92266095D01*
X110180380Y-92361333D01*
X110180380Y-92551809D01*
X110132761Y-92647047D01*
X110180380Y-91599428D02*
X110132761Y-91694666D01*
X110085142Y-91742285D01*
X109989904Y-91789904D01*
X109704190Y-91789904D01*
X109608952Y-91742285D01*
X109561333Y-91694666D01*
X109513714Y-91599428D01*
X109513714Y-91456571D01*
X109561333Y-91361333D01*
X109608952Y-91313714D01*
X109704190Y-91266095D01*
X109989904Y-91266095D01*
X110085142Y-91313714D01*
X110132761Y-91361333D01*
X110180380Y-91456571D01*
X110180380Y-91599428D01*
X110180380Y-90408952D02*
X109656571Y-90408952D01*
X109561333Y-90456571D01*
X109513714Y-90551809D01*
X109513714Y-90742285D01*
X109561333Y-90837523D01*
X110132761Y-90408952D02*
X110180380Y-90504190D01*
X110180380Y-90742285D01*
X110132761Y-90837523D01*
X110037523Y-90885142D01*
X109942285Y-90885142D01*
X109847047Y-90837523D01*
X109799428Y-90742285D01*
X109799428Y-90504190D01*
X109751809Y-90408952D01*
X110180380Y-89932761D02*
X109513714Y-89932761D01*
X109704190Y-89932761D02*
X109608952Y-89885142D01*
X109561333Y-89837523D01*
X109513714Y-89742285D01*
X109513714Y-89647047D01*
X110180380Y-88885142D02*
X109180380Y-88885142D01*
X110132761Y-88885142D02*
X110180380Y-88980380D01*
X110180380Y-89170857D01*
X110132761Y-89266095D01*
X110085142Y-89313714D01*
X109989904Y-89361333D01*
X109704190Y-89361333D01*
X109608952Y-89313714D01*
X109561333Y-89266095D01*
X109513714Y-89170857D01*
X109513714Y-88980380D01*
X109561333Y-88885142D01*
X222828571Y-126441666D02*
X223304761Y-126441666D01*
X222733333Y-126727380D02*
X223066666Y-125727380D01*
X223400000Y-126727380D01*
X223733333Y-126727380D02*
X223733333Y-125727380D01*
X224114285Y-125727380D01*
X224209523Y-125775000D01*
X224257142Y-125822619D01*
X224304761Y-125917857D01*
X224304761Y-126060714D01*
X224257142Y-126155952D01*
X224209523Y-126203571D01*
X224114285Y-126251190D01*
X223733333Y-126251190D01*
X224733333Y-126727380D02*
X224733333Y-125727380D01*
X225114285Y-125727380D01*
X225209523Y-125775000D01*
X225257142Y-125822619D01*
X225304761Y-125917857D01*
X225304761Y-126060714D01*
X225257142Y-126155952D01*
X225209523Y-126203571D01*
X225114285Y-126251190D01*
X224733333Y-126251190D01*
X226209523Y-126727380D02*
X225733333Y-126727380D01*
X225733333Y-125727380D01*
X226542857Y-126203571D02*
X226876190Y-126203571D01*
X227019047Y-126727380D02*
X226542857Y-126727380D01*
X226542857Y-125727380D01*
X227019047Y-125727380D01*
X228114285Y-127060714D02*
X228352380Y-127060714D01*
X228352380Y-125632142D01*
X228114285Y-125632142D01*
X229161904Y-127060714D02*
X228923809Y-127060714D01*
X228923809Y-125632142D01*
X229161904Y-125632142D01*
X230209523Y-125727380D02*
X230447619Y-126727380D01*
X230638095Y-126013095D01*
X230828571Y-126727380D01*
X231066666Y-125727380D01*
X231447619Y-126727380D02*
X231447619Y-126060714D01*
X231447619Y-125727380D02*
X231400000Y-125775000D01*
X231447619Y-125822619D01*
X231495238Y-125775000D01*
X231447619Y-125727380D01*
X231447619Y-125822619D01*
X232257142Y-126203571D02*
X231923809Y-126203571D01*
X231923809Y-126727380D02*
X231923809Y-125727380D01*
X232400000Y-125727380D01*
X232780952Y-126727380D02*
X232780952Y-126060714D01*
X232780952Y-125727380D02*
X232733333Y-125775000D01*
X232780952Y-125822619D01*
X232828571Y-125775000D01*
X232780952Y-125727380D01*
X232780952Y-125822619D01*
X233971428Y-125679761D02*
X233114285Y-126965476D01*
X234638095Y-126203571D02*
X234304761Y-126203571D01*
X234304761Y-126727380D02*
X234304761Y-125727380D01*
X234780952Y-125727380D01*
X235019047Y-125727380D02*
X235590476Y-125727380D01*
X235304761Y-126727380D02*
X235304761Y-125727380D01*
X235923809Y-126727380D02*
X235923809Y-125727380D01*
X236161904Y-125727380D01*
X236304761Y-125775000D01*
X236399999Y-125870238D01*
X236447619Y-125965476D01*
X236495238Y-126155952D01*
X236495238Y-126298809D01*
X236447619Y-126489285D01*
X236399999Y-126584523D01*
X236304761Y-126679761D01*
X236161904Y-126727380D01*
X235923809Y-126727380D01*
X236923809Y-126727380D02*
X236923809Y-125727380D01*
X219090476Y-128377380D02*
X219090476Y-127377380D01*
X219328571Y-127377380D01*
X219471428Y-127425000D01*
X219566666Y-127520238D01*
X219614285Y-127615476D01*
X219661904Y-127805952D01*
X219661904Y-127948809D01*
X219614285Y-128139285D01*
X219566666Y-128234523D01*
X219471428Y-128329761D01*
X219328571Y-128377380D01*
X219090476Y-128377380D01*
X220519047Y-128377380D02*
X220519047Y-127853571D01*
X220471428Y-127758333D01*
X220376190Y-127710714D01*
X220185714Y-127710714D01*
X220090476Y-127758333D01*
X220519047Y-128329761D02*
X220423809Y-128377380D01*
X220185714Y-128377380D01*
X220090476Y-128329761D01*
X220042857Y-128234523D01*
X220042857Y-128139285D01*
X220090476Y-128044047D01*
X220185714Y-127996428D01*
X220423809Y-127996428D01*
X220519047Y-127948809D01*
X220995238Y-127710714D02*
X220995238Y-128377380D01*
X220995238Y-127805952D02*
X221042857Y-127758333D01*
X221138095Y-127710714D01*
X221280952Y-127710714D01*
X221376190Y-127758333D01*
X221423809Y-127853571D01*
X221423809Y-128377380D01*
X222566666Y-127377380D02*
X222804761Y-128377380D01*
X222995238Y-127663095D01*
X223185714Y-128377380D01*
X223423809Y-127377380D01*
X224185714Y-128329761D02*
X224090476Y-128377380D01*
X223900000Y-128377380D01*
X223804761Y-128329761D01*
X223757142Y-128234523D01*
X223757142Y-127853571D01*
X223804761Y-127758333D01*
X223900000Y-127710714D01*
X224090476Y-127710714D01*
X224185714Y-127758333D01*
X224233333Y-127853571D01*
X224233333Y-127948809D01*
X223757142Y-128044047D01*
X224661904Y-128377380D02*
X224661904Y-127710714D01*
X224661904Y-127901190D02*
X224709523Y-127805952D01*
X224757142Y-127758333D01*
X224852380Y-127710714D01*
X224947619Y-127710714D01*
X225280952Y-127710714D02*
X225280952Y-128377380D01*
X225280952Y-127805952D02*
X225328571Y-127758333D01*
X225423809Y-127710714D01*
X225566666Y-127710714D01*
X225661904Y-127758333D01*
X225709523Y-127853571D01*
X225709523Y-128377380D01*
X226566666Y-128329761D02*
X226471428Y-128377380D01*
X226280952Y-128377380D01*
X226185714Y-128329761D01*
X226138095Y-128234523D01*
X226138095Y-127853571D01*
X226185714Y-127758333D01*
X226280952Y-127710714D01*
X226471428Y-127710714D01*
X226566666Y-127758333D01*
X226614285Y-127853571D01*
X226614285Y-127948809D01*
X226138095Y-128044047D01*
X227042857Y-128377380D02*
X227042857Y-127710714D01*
X227042857Y-127901190D02*
X227090476Y-127805952D01*
X227138095Y-127758333D01*
X227233333Y-127710714D01*
X227328571Y-127710714D01*
X228471428Y-128377380D02*
X228661904Y-128377380D01*
X228757142Y-128329761D01*
X228804761Y-128282142D01*
X228900000Y-128139285D01*
X228947619Y-127948809D01*
X228947619Y-127567857D01*
X228900000Y-127472619D01*
X228852380Y-127425000D01*
X228757142Y-127377380D01*
X228566666Y-127377380D01*
X228471428Y-127425000D01*
X228423809Y-127472619D01*
X228376190Y-127567857D01*
X228376190Y-127805952D01*
X228423809Y-127901190D01*
X228471428Y-127948809D01*
X228566666Y-127996428D01*
X228757142Y-127996428D01*
X228852380Y-127948809D01*
X228900000Y-127901190D01*
X228947619Y-127805952D01*
X230090476Y-127329761D02*
X229233333Y-128615476D01*
X230852380Y-127710714D02*
X230852380Y-128377380D01*
X230614285Y-127329761D02*
X230376190Y-128044047D01*
X230995238Y-128044047D01*
X232090476Y-127329761D02*
X231233333Y-128615476D01*
X232376190Y-127472619D02*
X232423809Y-127425000D01*
X232519047Y-127377380D01*
X232757142Y-127377380D01*
X232852380Y-127425000D01*
X232900000Y-127472619D01*
X232947619Y-127567857D01*
X232947619Y-127663095D01*
X232900000Y-127805952D01*
X232328571Y-128377380D01*
X232947619Y-128377380D01*
X233566666Y-127377380D02*
X233661904Y-127377380D01*
X233757142Y-127425000D01*
X233804761Y-127472619D01*
X233852380Y-127567857D01*
X233900000Y-127758333D01*
X233900000Y-127996428D01*
X233852380Y-128186904D01*
X233804761Y-128282142D01*
X233757142Y-128329761D01*
X233661904Y-128377380D01*
X233566666Y-128377380D01*
X233471428Y-128329761D01*
X233423809Y-128282142D01*
X233376190Y-128186904D01*
X233328571Y-127996428D01*
X233328571Y-127758333D01*
X233376190Y-127567857D01*
X233423809Y-127472619D01*
X233471428Y-127425000D01*
X233566666Y-127377380D01*
X234280952Y-127472619D02*
X234328571Y-127425000D01*
X234423809Y-127377380D01*
X234661904Y-127377380D01*
X234757142Y-127425000D01*
X234804761Y-127472619D01*
X234852380Y-127567857D01*
X234852380Y-127663095D01*
X234804761Y-127805952D01*
X234233333Y-128377380D01*
X234852380Y-128377380D01*
X235471428Y-127377380D02*
X235566666Y-127377380D01*
X235661904Y-127425000D01*
X235709523Y-127472619D01*
X235757142Y-127567857D01*
X235804761Y-127758333D01*
X235804761Y-127996428D01*
X235757142Y-128186904D01*
X235709523Y-128282142D01*
X235661904Y-128329761D01*
X235566666Y-128377380D01*
X235471428Y-128377380D01*
X235376190Y-128329761D01*
X235328571Y-128282142D01*
X235280952Y-128186904D01*
X235233333Y-127996428D01*
X235233333Y-127758333D01*
X235280952Y-127567857D01*
X235328571Y-127472619D01*
X235376190Y-127425000D01*
X235471428Y-127377380D01*
X236852380Y-127377380D02*
X237185714Y-128377380D01*
X237519047Y-127377380D01*
X238376190Y-128377380D02*
X237804761Y-128377380D01*
X238090476Y-128377380D02*
X238090476Y-127377380D01*
X237995238Y-127520238D01*
X237900000Y-127615476D01*
X237804761Y-127663095D01*
X238804761Y-128282142D02*
X238852380Y-128329761D01*
X238804761Y-128377380D01*
X238757142Y-128329761D01*
X238804761Y-128282142D01*
X238804761Y-128377380D01*
X239471428Y-127377380D02*
X239566666Y-127377380D01*
X239661904Y-127425000D01*
X239709523Y-127472619D01*
X239757142Y-127567857D01*
X239804761Y-127758333D01*
X239804761Y-127996428D01*
X239757142Y-128186904D01*
X239709523Y-128282142D01*
X239661904Y-128329761D01*
X239566666Y-128377380D01*
X239471428Y-128377380D01*
X239376190Y-128329761D01*
X239328571Y-128282142D01*
X239280952Y-128186904D01*
X239233333Y-127996428D01*
X239233333Y-127758333D01*
X239280952Y-127567857D01*
X239328571Y-127472619D01*
X239376190Y-127425000D01*
X239471428Y-127377380D01*
X240423809Y-127377380D02*
X240519047Y-127377380D01*
X240614285Y-127425000D01*
X240661904Y-127472619D01*
X240709523Y-127567857D01*
X240757142Y-127758333D01*
X240757142Y-127996428D01*
X240709523Y-128186904D01*
X240661904Y-128282142D01*
X240614285Y-128329761D01*
X240519047Y-128377380D01*
X240423809Y-128377380D01*
X240328571Y-128329761D01*
X240280952Y-128282142D01*
X240233333Y-128186904D01*
X240185714Y-127996428D01*
X240185714Y-127758333D01*
X240233333Y-127567857D01*
X240280952Y-127472619D01*
X240328571Y-127425000D01*
X240423809Y-127377380D01*
D11*
G36*
X226184388Y-77496257D02*
G01*
X226234144Y-77319066D01*
X226311612Y-77236520D01*
X226415670Y-77250044D01*
X226510876Y-77324477D01*
X226571412Y-77406885D01*
X226603700Y-77520323D01*
X226615130Y-77695480D01*
X226615600Y-77759400D01*
X226615600Y-78089600D01*
X226467354Y-78089600D01*
X226298608Y-78077961D01*
X226205654Y-78028396D01*
X226167818Y-77918934D01*
X226163463Y-77766665D01*
X226184388Y-77496257D01*
G37*
X226184388Y-77496257D02*
X226234144Y-77319066D01*
X226311612Y-77236520D01*
X226415670Y-77250044D01*
X226510876Y-77324477D01*
X226571412Y-77406885D01*
X226603700Y-77520323D01*
X226615130Y-77695480D01*
X226615600Y-77759400D01*
X226615600Y-78089600D01*
X226467354Y-78089600D01*
X226298608Y-78077961D01*
X226205654Y-78028396D01*
X226167818Y-77918934D01*
X226163463Y-77766665D01*
X226184388Y-77496257D01*
G36*
X226184388Y-92533057D02*
G01*
X226234144Y-92355866D01*
X226311612Y-92273320D01*
X226415670Y-92286844D01*
X226510876Y-92361277D01*
X226571412Y-92443685D01*
X226603700Y-92557123D01*
X226615130Y-92732280D01*
X226615600Y-92796200D01*
X226615600Y-93126400D01*
X226467354Y-93126400D01*
X226298608Y-93114761D01*
X226205654Y-93065196D01*
X226167818Y-92955734D01*
X226163463Y-92803465D01*
X226184388Y-92533057D01*
G37*
X226184388Y-92533057D02*
X226234144Y-92355866D01*
X226311612Y-92273320D01*
X226415670Y-92286844D01*
X226510876Y-92361277D01*
X226571412Y-92443685D01*
X226603700Y-92557123D01*
X226615130Y-92732280D01*
X226615600Y-92796200D01*
X226615600Y-93126400D01*
X226467354Y-93126400D01*
X226298608Y-93114761D01*
X226205654Y-93065196D01*
X226167818Y-92955734D01*
X226163463Y-92803465D01*
X226184388Y-92533057D01*
G36*
X229579025Y-84917142D02*
G01*
X229623718Y-84809331D01*
X229634800Y-84798022D01*
X229722141Y-84777429D01*
X229810732Y-84834733D01*
X229881814Y-84948218D01*
X229916631Y-85096172D01*
X229917600Y-85125400D01*
X229909736Y-85244568D01*
X229865368Y-85293439D01*
X229753333Y-85303178D01*
X229739800Y-85303200D01*
X229629485Y-85298040D01*
X229577990Y-85263872D01*
X229562901Y-85172665D01*
X229562000Y-85080821D01*
X229579025Y-84917142D01*
G37*
X229579025Y-84917142D02*
X229623718Y-84809331D01*
X229634800Y-84798022D01*
X229722141Y-84777429D01*
X229810732Y-84834733D01*
X229881814Y-84948218D01*
X229916631Y-85096172D01*
X229917600Y-85125400D01*
X229909736Y-85244568D01*
X229865368Y-85293439D01*
X229753333Y-85303178D01*
X229739800Y-85303200D01*
X229629485Y-85298040D01*
X229577990Y-85263872D01*
X229562901Y-85172665D01*
X229562000Y-85080821D01*
X229579025Y-84917142D01*
G36*
X230552600Y-83556772D02*
G01*
X230835983Y-83570283D01*
X231088508Y-83585705D01*
X231290479Y-83601574D01*
X231422201Y-83616429D01*
X231458958Y-83624112D01*
X231476995Y-83650839D01*
X231426064Y-83698498D01*
X231298181Y-83772313D01*
X231085363Y-83877506D01*
X231035916Y-83900884D01*
X230519316Y-84143878D01*
X230335593Y-83929239D01*
X230188204Y-83784862D01*
X230021760Y-83661047D01*
X229945835Y-83618905D01*
X229739800Y-83523210D01*
X230552600Y-83556772D01*
G37*
X230552600Y-83556772D02*
X230835983Y-83570283D01*
X231088508Y-83585705D01*
X231290479Y-83601574D01*
X231422201Y-83616429D01*
X231458958Y-83624112D01*
X231476995Y-83650839D01*
X231426064Y-83698498D01*
X231298181Y-83772313D01*
X231085363Y-83877506D01*
X231035916Y-83900884D01*
X230519316Y-84143878D01*
X230335593Y-83929239D01*
X230188204Y-83784862D01*
X230021760Y-83661047D01*
X229945835Y-83618905D01*
X229739800Y-83523210D01*
X230552600Y-83556772D01*
G36*
X230031900Y-100812983D02*
G01*
X230160740Y-100805082D01*
X230209700Y-100812983D01*
X230225510Y-100827707D01*
X230155266Y-100835723D01*
X230120800Y-100836215D01*
X230028378Y-100830918D01*
X230017486Y-100817732D01*
X230031900Y-100812983D01*
G37*
X230031900Y-100812983D02*
X230160740Y-100805082D01*
X230209700Y-100812983D01*
X230225510Y-100827707D01*
X230155266Y-100835723D01*
X230120800Y-100836215D01*
X230028378Y-100830918D01*
X230017486Y-100817732D01*
X230031900Y-100812983D01*
G36*
X233676800Y-74330400D02*
G01*
X233676800Y-121269600D01*
X228763531Y-121269600D01*
X228763531Y-120506485D01*
X229501978Y-120506397D01*
X230145175Y-120505598D01*
X230699469Y-120503981D01*
X231171208Y-120501437D01*
X231566740Y-120497859D01*
X231892412Y-120493138D01*
X232154572Y-120487166D01*
X232359568Y-120479836D01*
X232513747Y-120471040D01*
X232623458Y-120460670D01*
X232695048Y-120448617D01*
X232725931Y-120439099D01*
X233016322Y-120264418D01*
X233245505Y-120017185D01*
X233397975Y-119715573D01*
X233426098Y-119618600D01*
X233461970Y-119421573D01*
X233457572Y-119248513D01*
X233410717Y-119045285D01*
X233401682Y-119014784D01*
X233259854Y-118699506D01*
X233047667Y-118448439D01*
X232848357Y-118310032D01*
X232635400Y-118196200D01*
X228850800Y-118181867D01*
X228133144Y-118179319D01*
X227932929Y-118178757D01*
X227932929Y-117764521D01*
X228647818Y-117764405D01*
X228774600Y-117764400D01*
X229505155Y-117764442D01*
X230141196Y-117764243D01*
X230689808Y-117763319D01*
X231158076Y-117761185D01*
X231553085Y-117757356D01*
X231881921Y-117751349D01*
X232151669Y-117742678D01*
X232369413Y-117730859D01*
X232542240Y-117715407D01*
X232677234Y-117695838D01*
X232781481Y-117671666D01*
X232862067Y-117642408D01*
X232926075Y-117607578D01*
X232980592Y-117566692D01*
X233032702Y-117519266D01*
X233084435Y-117469606D01*
X233295641Y-117203285D01*
X233418089Y-116898118D01*
X233449417Y-116568714D01*
X233387268Y-116229684D01*
X233314024Y-116047777D01*
X233156453Y-115822800D01*
X232931015Y-115630443D01*
X232671290Y-115497730D01*
X232604736Y-115476983D01*
X232510523Y-115466043D01*
X232316546Y-115456782D01*
X232024629Y-115449217D01*
X231636594Y-115443366D01*
X231154263Y-115439247D01*
X230579461Y-115436876D01*
X229914010Y-115436272D01*
X229159732Y-115437453D01*
X228662865Y-115439033D01*
X227954287Y-115441779D01*
X227932929Y-115441873D01*
X227932929Y-115021321D01*
X228647818Y-115021205D01*
X228774600Y-115021200D01*
X229496054Y-115020997D01*
X230122851Y-115020296D01*
X230661936Y-115018958D01*
X231120250Y-115016847D01*
X231504737Y-115013824D01*
X231822339Y-115009752D01*
X232080000Y-115004493D01*
X232284663Y-114997909D01*
X232443270Y-114989863D01*
X232562765Y-114980216D01*
X232650091Y-114968832D01*
X232712190Y-114955572D01*
X232751331Y-114942306D01*
X233028357Y-114773537D01*
X233248880Y-114530244D01*
X233397631Y-114230759D01*
X233426098Y-114132200D01*
X233460592Y-113948615D01*
X233459994Y-113787067D01*
X233421917Y-113599899D01*
X233394600Y-113503621D01*
X233255888Y-113207201D01*
X233039606Y-112968487D01*
X232759905Y-112801486D01*
X232644352Y-112761018D01*
X232582110Y-112745744D01*
X232503303Y-112732617D01*
X232400727Y-112721517D01*
X232267174Y-112712327D01*
X232116331Y-112705829D01*
X232116331Y-112378485D01*
X232494455Y-112346334D01*
X232802749Y-112244391D01*
X233049406Y-112067942D01*
X233242617Y-111812273D01*
X233302562Y-111695876D01*
X233338468Y-111615224D01*
X233366339Y-111537084D01*
X233387194Y-111447790D01*
X233402051Y-111333676D01*
X233411929Y-111181075D01*
X233417848Y-110976322D01*
X233420827Y-110705749D01*
X233421883Y-110355690D01*
X233422020Y-110093600D01*
X233419987Y-109680785D01*
X233414046Y-109312395D01*
X233404637Y-109001053D01*
X233392198Y-108759380D01*
X233377171Y-108599997D01*
X233368336Y-108553305D01*
X233272231Y-108347882D01*
X233109289Y-108137195D01*
X232907379Y-107952759D01*
X232746682Y-107850382D01*
X232435379Y-107744243D01*
X232092578Y-107715454D01*
X231748630Y-107761603D01*
X231527566Y-107844955D01*
X231527566Y-107151954D01*
X231635525Y-107148166D01*
X231700133Y-107128738D01*
X231727740Y-107107802D01*
X231750424Y-107035691D01*
X231769114Y-106880147D01*
X231783772Y-106658357D01*
X231794358Y-106387507D01*
X231800832Y-106084782D01*
X231803155Y-105767368D01*
X231801287Y-105452452D01*
X231795188Y-105157218D01*
X231784820Y-104898854D01*
X231770142Y-104694544D01*
X231751116Y-104561475D01*
X231733700Y-104518544D01*
X231654753Y-104490069D01*
X231504674Y-104461139D01*
X231499004Y-104460435D01*
X231499004Y-104275579D01*
X231631992Y-104269692D01*
X231707244Y-104256645D01*
X231726734Y-104246841D01*
X231760484Y-104168812D01*
X231784087Y-104017760D01*
X231797301Y-103821778D01*
X231799884Y-103608959D01*
X231791595Y-103407396D01*
X231772190Y-103245182D01*
X231741428Y-103150410D01*
X231736239Y-103144160D01*
X231651075Y-103106982D01*
X231508489Y-103085185D01*
X231444139Y-103082839D01*
X231266652Y-103077562D01*
X231043228Y-103064252D01*
X230868251Y-103049921D01*
X230523502Y-103017363D01*
X231046051Y-102741393D01*
X231318854Y-102599115D01*
X231516808Y-102492852D01*
X231651778Y-102405674D01*
X231735632Y-102320653D01*
X231780235Y-102220861D01*
X231797453Y-102089369D01*
X231799153Y-101909248D01*
X231797200Y-101669789D01*
X231792265Y-101344223D01*
X231777347Y-101117750D01*
X231752269Y-100988337D01*
X231736240Y-100959761D01*
X231655221Y-100927304D01*
X231502108Y-100903387D01*
X231317140Y-100892863D01*
X231069193Y-100884338D01*
X230801267Y-100868492D01*
X230628800Y-100854134D01*
X230298600Y-100821343D01*
X230567124Y-100786049D01*
X230934862Y-100693672D01*
X231239746Y-100521503D01*
X231481751Y-100269590D01*
X231660856Y-99937984D01*
X231777037Y-99526733D01*
X231830271Y-99035889D01*
X231820534Y-98465500D01*
X231793797Y-98166298D01*
X231764036Y-97947237D01*
X231728502Y-97763028D01*
X231692706Y-97639489D01*
X231674244Y-97606061D01*
X231598523Y-97576975D01*
X231442752Y-97549061D01*
X231395737Y-97543471D01*
X231395737Y-97371976D01*
X231570482Y-97370138D01*
X231678049Y-97357932D01*
X231726590Y-97338161D01*
X231758909Y-97261547D01*
X231782254Y-97110015D01*
X231796477Y-96909511D01*
X231801430Y-96685981D01*
X231796968Y-96465372D01*
X231782942Y-96273630D01*
X231759206Y-96136700D01*
X231733700Y-96084510D01*
X231664488Y-96068823D01*
X231581230Y-96061322D01*
X231581230Y-95892879D01*
X231694994Y-95878820D01*
X231729921Y-95862196D01*
X231766893Y-95780266D01*
X231790703Y-95625544D01*
X231801661Y-95425943D01*
X231800077Y-95209373D01*
X231786260Y-95003747D01*
X231760519Y-94836976D01*
X231723165Y-94736971D01*
X231717371Y-94730229D01*
X231655518Y-94692016D01*
X231549411Y-94667599D01*
X231380459Y-94654545D01*
X231130072Y-94650418D01*
X231107771Y-94650400D01*
X230889713Y-94647001D01*
X230715382Y-94637811D01*
X230605796Y-94624345D01*
X230578738Y-94612300D01*
X230621487Y-94575514D01*
X230737347Y-94503483D01*
X230908656Y-94406596D01*
X231117750Y-94295241D01*
X231118599Y-94294800D01*
X231336098Y-94179575D01*
X231524154Y-94075298D01*
X231661993Y-93993794D01*
X231727461Y-93948272D01*
X231760352Y-93865641D01*
X231783788Y-93706877D01*
X231797806Y-93497000D01*
X231802444Y-93261033D01*
X231797742Y-93023998D01*
X231783736Y-92810915D01*
X231760466Y-92646808D01*
X231727968Y-92556697D01*
X231725336Y-92553794D01*
X231671365Y-92526018D01*
X231595584Y-92509845D01*
X231595584Y-92342155D01*
X231692074Y-92327685D01*
X231726445Y-92309081D01*
X231749412Y-92271696D01*
X231767075Y-92195004D01*
X231780040Y-92067912D01*
X231788914Y-91879324D01*
X231794305Y-91618147D01*
X231796819Y-91273286D01*
X231797200Y-91015609D01*
X231796438Y-90622409D01*
X231793644Y-90318479D01*
X231788051Y-90091499D01*
X231778895Y-89929147D01*
X231765409Y-89819103D01*
X231746828Y-89749044D01*
X231722387Y-89706649D01*
X231715407Y-89699065D01*
X231649281Y-89656703D01*
X231542304Y-89634164D01*
X231498815Y-89632684D01*
X231498815Y-89498383D01*
X231648693Y-89486401D01*
X231714715Y-89442428D01*
X231740906Y-89405075D01*
X231761002Y-89343769D01*
X231775777Y-89246149D01*
X231786005Y-89099853D01*
X231792460Y-88892521D01*
X231795916Y-88611793D01*
X231797148Y-88245306D01*
X231797200Y-88125192D01*
X231795801Y-87709992D01*
X231791309Y-87387288D01*
X231783273Y-87148008D01*
X231771245Y-86983083D01*
X231754778Y-86883442D01*
X231733700Y-86840231D01*
X231654868Y-86812647D01*
X231504610Y-86785685D01*
X231474822Y-86782396D01*
X231474822Y-86605646D01*
X231611512Y-86600786D01*
X231697401Y-86590319D01*
X231742620Y-86574202D01*
X231753353Y-86563689D01*
X231777907Y-86473688D01*
X231792796Y-86314826D01*
X231798549Y-86113950D01*
X231795698Y-85897910D01*
X231784772Y-85693555D01*
X231766304Y-85527735D01*
X231740823Y-85427299D01*
X231730607Y-85412774D01*
X231654993Y-85389308D01*
X231500722Y-85368091D01*
X231290736Y-85351591D01*
X231082907Y-85343054D01*
X230501800Y-85328600D01*
X231082987Y-85136280D01*
X231315317Y-85056749D01*
X231515270Y-84983367D01*
X231661176Y-84924417D01*
X231730687Y-84888760D01*
X231764902Y-84809671D01*
X231787997Y-84656344D01*
X231800157Y-84455510D01*
X231801563Y-84233900D01*
X231792399Y-84018247D01*
X231772848Y-83835282D01*
X231743091Y-83711735D01*
X231722416Y-83678776D01*
X231673461Y-83619877D01*
X231705724Y-83559116D01*
X231722416Y-83541927D01*
X231756808Y-83457799D01*
X231781657Y-83301148D01*
X231796721Y-83098328D01*
X231801755Y-82875690D01*
X231796518Y-82659589D01*
X231780767Y-82476376D01*
X231754257Y-82352405D01*
X231733700Y-82317903D01*
X231666685Y-82302178D01*
X231625280Y-82297758D01*
X231625280Y-82130459D01*
X231709626Y-82084656D01*
X231762306Y-81976232D01*
X231789452Y-81792511D01*
X231797199Y-81520818D01*
X231797200Y-81518600D01*
X231793369Y-81255560D01*
X231770977Y-81077490D01*
X231713678Y-80967785D01*
X231605122Y-80909842D01*
X231428963Y-80887055D01*
X231171271Y-80882823D01*
X230958717Y-80878468D01*
X230782287Y-80867466D01*
X230668495Y-80851799D01*
X230644220Y-80843406D01*
X230660020Y-80804657D01*
X230761009Y-80728852D01*
X230939841Y-80620886D01*
X231152220Y-80505028D01*
X231371308Y-80386938D01*
X231557449Y-80281655D01*
X231692062Y-80200040D01*
X231756565Y-80152954D01*
X231758322Y-80150745D01*
X231772824Y-80081174D01*
X231784831Y-79931854D01*
X231793107Y-79724628D01*
X231796416Y-79481340D01*
X231796422Y-79477529D01*
X231795424Y-79181377D01*
X231782772Y-78971837D01*
X231745271Y-78833935D01*
X231669730Y-78752695D01*
X231542956Y-78713141D01*
X231351758Y-78700298D01*
X231110769Y-78699200D01*
X230882956Y-78694542D01*
X230699940Y-78681864D01*
X230583080Y-78663109D01*
X230552600Y-78648400D01*
X230569770Y-78609958D01*
X230641227Y-78597600D01*
X230791687Y-78566442D01*
X230982783Y-78485370D01*
X231180136Y-78372987D01*
X231349362Y-78247899D01*
X231423042Y-78174551D01*
X231602004Y-77910107D01*
X231729343Y-77596242D01*
X231806667Y-77223544D01*
X231835583Y-76782602D01*
X231817698Y-76264003D01*
X231794474Y-75999483D01*
X231766557Y-75774539D01*
X231733735Y-75585364D01*
X231700756Y-75456245D01*
X231680174Y-75414652D01*
X231608540Y-75390583D01*
X231456562Y-75366364D01*
X231245483Y-75343277D01*
X230996549Y-75322605D01*
X230731005Y-75305630D01*
X230470096Y-75293633D01*
X230235067Y-75287898D01*
X230047162Y-75289706D01*
X229927627Y-75300340D01*
X229903556Y-75307428D01*
X229868447Y-75333407D01*
X229844390Y-75381910D01*
X229829840Y-75468960D01*
X229823255Y-75610577D01*
X229823089Y-75822783D01*
X229827356Y-76098207D01*
X229841400Y-76845000D01*
X230214206Y-76885581D01*
X230452196Y-76902171D01*
X230607194Y-76886148D01*
X230694205Y-76831721D01*
X230728231Y-76733102D01*
X230730400Y-76686380D01*
X230749168Y-76593938D01*
X230782794Y-76565600D01*
X230850303Y-76606867D01*
X230876827Y-76713016D01*
X230865835Y-76857571D01*
X230820795Y-77014054D01*
X230745176Y-77155991D01*
X230698092Y-77212126D01*
X230613868Y-77284010D01*
X230524220Y-77318529D01*
X230393108Y-77324569D01*
X230270355Y-77317559D01*
X230004861Y-77266727D01*
X229809137Y-77151036D01*
X229666699Y-76959312D01*
X229631652Y-76884732D01*
X229580836Y-76682330D01*
X229564928Y-76418408D01*
X229583750Y-76126797D01*
X229637124Y-75841325D01*
X229637170Y-75841146D01*
X229682117Y-75620335D01*
X229678818Y-75477141D01*
X229626159Y-75399175D01*
X229596172Y-75385108D01*
X229495325Y-75373997D01*
X229333500Y-75378484D01*
X229141768Y-75395026D01*
X228951204Y-75420080D01*
X228792878Y-75450103D01*
X228697865Y-75481552D01*
X228688208Y-75488641D01*
X228662094Y-75544475D01*
X228643204Y-75659256D01*
X228630771Y-75843880D01*
X228624031Y-76109245D01*
X228622200Y-76428441D01*
X228622771Y-76747186D01*
X228626094Y-76983848D01*
X228634583Y-77157941D01*
X228650650Y-77288982D01*
X228676710Y-77396486D01*
X228715176Y-77499968D01*
X228768461Y-77618945D01*
X228769783Y-77621808D01*
X228976006Y-77960894D01*
X229248766Y-78244868D01*
X229569144Y-78456495D01*
X229781028Y-78543065D01*
X229915018Y-78587950D01*
X229982603Y-78618483D01*
X229977435Y-78635425D01*
X229893165Y-78639538D01*
X229723444Y-78631582D01*
X229461924Y-78612318D01*
X229308000Y-78599783D01*
X229012310Y-78581270D01*
X228815227Y-78582956D01*
X228715785Y-78604854D01*
X228711100Y-78608217D01*
X228680781Y-78683231D01*
X228659744Y-78832235D01*
X228648051Y-79028036D01*
X228645761Y-79243444D01*
X228652934Y-79451267D01*
X228669631Y-79624315D01*
X228695911Y-79735396D01*
X228708560Y-79755840D01*
X228795561Y-79788244D01*
X228974720Y-79808872D01*
X229237172Y-79816750D01*
X229263205Y-79816800D01*
X229485180Y-79819990D01*
X229674592Y-79828553D01*
X229804406Y-79840985D01*
X229840734Y-79848974D01*
X229845004Y-79880924D01*
X229768028Y-79945135D01*
X229605836Y-80044311D01*
X229354463Y-80181158D01*
X229349588Y-80183724D01*
X229126475Y-80302568D01*
X228933184Y-80408200D01*
X228789205Y-80489785D01*
X228714024Y-80536485D01*
X228711100Y-80538770D01*
X228683409Y-80611325D01*
X228663103Y-80761028D01*
X228650224Y-80963691D01*
X228644816Y-81195127D01*
X228646923Y-81431150D01*
X228656589Y-81647571D01*
X228673857Y-81820204D01*
X228698773Y-81924863D01*
X228708559Y-81940240D01*
X228795487Y-81972707D01*
X228973845Y-81993372D01*
X229234035Y-82001165D01*
X229255526Y-82001200D01*
X229468068Y-82004366D01*
X229739571Y-82013082D01*
X230049025Y-82026179D01*
X230375421Y-82042488D01*
X230697751Y-82060840D01*
X230995006Y-82080064D01*
X231246176Y-82098992D01*
X231430254Y-82116453D01*
X231503134Y-82126316D01*
X231625280Y-82130459D01*
X231625280Y-82297758D01*
X231513996Y-82285876D01*
X231291549Y-82269532D01*
X231015264Y-82253683D01*
X230701059Y-82238865D01*
X230364852Y-82225614D01*
X230022562Y-82214467D01*
X229690107Y-82205961D01*
X229383407Y-82200631D01*
X229118378Y-82199015D01*
X228910940Y-82201648D01*
X228777012Y-82209068D01*
X228736500Y-82216903D01*
X228697305Y-82247686D01*
X228671461Y-82308167D01*
X228656325Y-82416599D01*
X228649254Y-82591238D01*
X228647600Y-82831028D01*
X228653535Y-83134698D01*
X228671182Y-83342859D01*
X228700306Y-83453054D01*
X228708560Y-83464240D01*
X228790346Y-83497434D01*
X228938863Y-83519470D01*
X229074923Y-83525200D01*
X229380327Y-83525200D01*
X229153663Y-83639500D01*
X229001087Y-83734686D01*
X228887218Y-83859398D01*
X228785033Y-84037521D01*
X228643067Y-84321241D01*
X228645329Y-85381176D01*
X228647754Y-85699567D01*
X228653236Y-85982973D01*
X228661202Y-86215862D01*
X228671079Y-86382698D01*
X228682294Y-86467949D01*
X228685695Y-86475177D01*
X228744307Y-86485799D01*
X228891494Y-86499244D01*
X229114296Y-86514710D01*
X229399751Y-86531398D01*
X229734900Y-86548506D01*
X230106781Y-86565234D01*
X230217431Y-86569809D01*
X230658635Y-86586979D01*
X231008514Y-86598702D01*
X231277200Y-86604938D01*
X231474822Y-86605646D01*
X231474822Y-86782396D01*
X231312996Y-86764527D01*
X231279293Y-86761939D01*
X231064854Y-86751340D01*
X230929410Y-86758484D01*
X230851561Y-86785519D01*
X230827446Y-86807288D01*
X230801154Y-86874574D01*
X230788313Y-87004843D01*
X230788466Y-87210606D01*
X230801158Y-87504375D01*
X230801710Y-87514359D01*
X230815071Y-87779974D01*
X230819580Y-87960176D01*
X230814145Y-88070854D01*
X230797678Y-88127898D01*
X230769088Y-88147196D01*
X230758258Y-88148000D01*
X230723043Y-88133465D01*
X230699933Y-88078849D01*
X230686576Y-87967641D01*
X230680622Y-87783326D01*
X230679600Y-87595421D01*
X230674362Y-87308034D01*
X230658197Y-87115282D01*
X230630426Y-87010715D01*
X230616100Y-86992281D01*
X230527970Y-86959204D01*
X230376094Y-86933700D01*
X230192545Y-86917521D01*
X230009397Y-86912419D01*
X229858724Y-86920146D01*
X229772601Y-86942455D01*
X229768351Y-86945969D01*
X229744576Y-87019586D01*
X229726630Y-87175220D01*
X229716260Y-87393372D01*
X229714400Y-87548560D01*
X229709907Y-87797524D01*
X229697248Y-87979290D01*
X229677654Y-88080571D01*
X229663600Y-88097200D01*
X229641806Y-88048223D01*
X229625539Y-87908360D01*
X229615622Y-87688217D01*
X229612800Y-87443021D01*
X229609000Y-87136111D01*
X229597078Y-86921826D01*
X229576248Y-86791454D01*
X229549300Y-86738717D01*
X229458256Y-86703500D01*
X229304460Y-86676356D01*
X229120163Y-86659203D01*
X228937615Y-86653961D01*
X228789066Y-86662550D01*
X228706765Y-86686888D01*
X228705047Y-86688473D01*
X228685162Y-86757851D01*
X228669199Y-86910803D01*
X228657118Y-87130131D01*
X228648878Y-87398641D01*
X228644438Y-87699136D01*
X228643758Y-88014419D01*
X228646797Y-88327295D01*
X228653514Y-88620569D01*
X228663870Y-88877042D01*
X228677823Y-89079521D01*
X228695332Y-89210807D01*
X228711100Y-89252477D01*
X228781483Y-89271545D01*
X228934618Y-89291664D01*
X229151697Y-89311036D01*
X229413912Y-89327869D01*
X229587400Y-89336099D01*
X229994793Y-89356145D01*
X230396385Y-89381866D01*
X230771866Y-89411538D01*
X231100931Y-89443436D01*
X231363272Y-89475837D01*
X231498815Y-89498383D01*
X231498815Y-89632684D01*
X231371672Y-89628356D01*
X231220107Y-89631936D01*
X230806600Y-89646600D01*
X230806600Y-90307000D01*
X230801760Y-90608209D01*
X230788790Y-90822306D01*
X230770009Y-90946997D01*
X230747739Y-90979989D01*
X230724301Y-90918988D01*
X230702016Y-90761701D01*
X230683205Y-90505835D01*
X230679600Y-90432491D01*
X230663743Y-90164322D01*
X230643186Y-89983020D01*
X230615480Y-89873875D01*
X230578178Y-89822178D01*
X230578000Y-89822063D01*
X230492231Y-89799787D01*
X230336883Y-89786688D01*
X230143756Y-89785279D01*
X230120800Y-89785972D01*
X229739800Y-89799000D01*
X229725436Y-90370500D01*
X229713250Y-90655377D01*
X229695320Y-90840962D01*
X229674317Y-90929215D01*
X229652911Y-90922098D01*
X229633771Y-90821570D01*
X229619568Y-90629591D01*
X229612973Y-90348121D01*
X229612800Y-90287821D01*
X229609984Y-89997500D01*
X229600575Y-89794231D01*
X229583131Y-89663597D01*
X229556209Y-89591181D01*
X229541415Y-89574397D01*
X229445617Y-89542629D01*
X229264702Y-89528228D01*
X229071515Y-89530077D01*
X228673000Y-89545000D01*
X228673000Y-92135800D01*
X229699291Y-92195256D01*
X230049735Y-92217100D01*
X230400500Y-92241707D01*
X230725855Y-92267074D01*
X231000066Y-92291201D01*
X231190637Y-92311257D01*
X231434236Y-92336655D01*
X231595584Y-92342155D01*
X231595584Y-92509845D01*
X231563148Y-92502922D01*
X231389750Y-92483382D01*
X231140239Y-92466273D01*
X230803680Y-92450469D01*
X230671236Y-92445333D01*
X230328123Y-92431478D01*
X229985227Y-92415729D01*
X229668895Y-92399431D01*
X229405473Y-92383931D01*
X229243450Y-92372437D01*
X229033802Y-92360597D01*
X228857959Y-92360253D01*
X228744100Y-92371095D01*
X228722750Y-92378193D01*
X228688322Y-92446221D01*
X228663354Y-92588926D01*
X228648175Y-92779794D01*
X228643115Y-92992312D01*
X228648501Y-93199969D01*
X228664663Y-93376251D01*
X228691928Y-93494646D01*
X228708560Y-93522640D01*
X228793322Y-93555717D01*
X228957150Y-93577228D01*
X229153060Y-93584160D01*
X229372327Y-93588821D01*
X229579574Y-93600511D01*
X229730190Y-93616706D01*
X229731011Y-93616841D01*
X229925423Y-93648964D01*
X229299211Y-93984617D01*
X228673000Y-94320271D01*
X228658740Y-94973551D01*
X228656725Y-95256657D01*
X228663575Y-95480961D01*
X228678497Y-95631422D01*
X228696466Y-95689470D01*
X228764924Y-95717369D01*
X228923194Y-95741691D01*
X229174832Y-95762798D01*
X229523393Y-95781050D01*
X229650525Y-95786140D01*
X229995346Y-95800870D01*
X230353923Y-95819145D01*
X230693778Y-95839117D01*
X230982427Y-95858934D01*
X231107621Y-95869102D01*
X231389064Y-95889599D01*
X231581230Y-95892879D01*
X231581230Y-96061322D01*
X231502166Y-96054197D01*
X231255222Y-96041009D01*
X230932143Y-96029640D01*
X230541416Y-96020466D01*
X230171600Y-96014789D01*
X228673000Y-95996600D01*
X228658585Y-96573529D01*
X228656800Y-96883243D01*
X228669238Y-97096034D01*
X228695784Y-97210217D01*
X228702905Y-97221229D01*
X228759326Y-97254226D01*
X228873225Y-97276048D01*
X229058924Y-97288269D01*
X229330746Y-97292460D01*
X229352320Y-97292492D01*
X229618750Y-97296078D01*
X229950741Y-97305605D01*
X230312510Y-97319777D01*
X230668274Y-97337300D01*
X230799490Y-97344872D01*
X231142508Y-97363526D01*
X231395737Y-97371976D01*
X231395737Y-97543471D01*
X231228331Y-97523565D01*
X230976662Y-97501734D01*
X230709146Y-97484816D01*
X230447183Y-97474056D01*
X230212175Y-97470703D01*
X230025523Y-97476003D01*
X229908627Y-97491203D01*
X229884288Y-97501766D01*
X229855269Y-97553795D01*
X229835085Y-97662219D01*
X229822628Y-97839716D01*
X229816790Y-98098961D01*
X229816000Y-98283386D01*
X229815856Y-98581768D01*
X229821792Y-98793438D01*
X229843361Y-98933224D01*
X229890114Y-99015954D01*
X229971605Y-99056458D01*
X230097384Y-99069563D01*
X230277004Y-99070097D01*
X230322719Y-99070000D01*
X230526268Y-99063166D01*
X230648614Y-99034237D01*
X230709713Y-98970578D01*
X230729522Y-98859552D01*
X230730400Y-98811846D01*
X230751411Y-98727671D01*
X230798714Y-98725929D01*
X230848710Y-98800545D01*
X230863094Y-98846003D01*
X230869260Y-98997033D01*
X230834747Y-99175777D01*
X230771883Y-99336647D01*
X230706758Y-99424141D01*
X230573619Y-99485034D01*
X230384677Y-99513798D01*
X230181588Y-99507008D01*
X230049962Y-99478170D01*
X229894945Y-99394600D01*
X229752250Y-99266999D01*
X229732378Y-99242586D01*
X229628710Y-99033313D01*
X229575145Y-98755207D01*
X229573351Y-98428748D01*
X229624996Y-98074414D01*
X229633979Y-98034754D01*
X229678886Y-97818523D01*
X229683427Y-97677408D01*
X229634198Y-97597683D01*
X229517796Y-97565621D01*
X229320817Y-97567495D01*
X229186959Y-97576944D01*
X228969912Y-97601806D01*
X228800420Y-97636512D01*
X228704359Y-97675630D01*
X228700271Y-97679114D01*
X228665359Y-97762056D01*
X228637113Y-97925061D01*
X228616212Y-98146767D01*
X228603333Y-98405811D01*
X228599154Y-98680833D01*
X228604353Y-98950471D01*
X228619607Y-99193364D01*
X228645594Y-99388151D01*
X228645981Y-99390145D01*
X228771782Y-99797025D01*
X228975985Y-100150270D01*
X229250314Y-100439448D01*
X229586498Y-100654128D01*
X229681712Y-100695931D01*
X229943000Y-100800924D01*
X229372418Y-100774904D01*
X229135703Y-100766938D01*
X228932144Y-100765323D01*
X228785793Y-100769925D01*
X228724718Y-100778478D01*
X228689483Y-100810617D01*
X228666463Y-100886001D01*
X228653411Y-101021530D01*
X228648079Y-101234108D01*
X228647600Y-101358437D01*
X228651847Y-101585017D01*
X228663344Y-101772186D01*
X228680228Y-101897753D01*
X228696389Y-101938958D01*
X228763976Y-101953474D01*
X228910848Y-101970204D01*
X229114786Y-101986996D01*
X229333656Y-102000648D01*
X229559680Y-102015928D01*
X229738448Y-102034128D01*
X229851788Y-102052951D01*
X229881767Y-102069887D01*
X229823856Y-102106502D01*
X229693931Y-102180036D01*
X229510093Y-102280484D01*
X229290442Y-102397841D01*
X229244500Y-102422097D01*
X228647600Y-102736606D01*
X228647600Y-103419498D01*
X228650491Y-103719551D01*
X228659808Y-103928806D01*
X228676509Y-104057916D01*
X228701558Y-104117537D01*
X228711100Y-104123552D01*
X228776582Y-104131756D01*
X228930018Y-104144424D01*
X229157906Y-104160648D01*
X229446743Y-104179514D01*
X229783024Y-104200114D01*
X230153247Y-104221537D01*
X230215434Y-104225019D01*
X230666496Y-104249027D01*
X231024969Y-104265372D01*
X231299567Y-104274181D01*
X231499004Y-104275579D01*
X231499004Y-104460435D01*
X231313750Y-104437401D01*
X231283920Y-104434678D01*
X231086472Y-104420002D01*
X230946688Y-104425065D01*
X230855744Y-104463738D01*
X230804816Y-104549893D01*
X230785080Y-104697403D01*
X230787712Y-104920139D01*
X230801710Y-105192759D01*
X230815071Y-105458374D01*
X230819580Y-105638576D01*
X230814145Y-105749254D01*
X230797678Y-105806298D01*
X230769088Y-105825596D01*
X230758258Y-105826400D01*
X230723043Y-105811865D01*
X230699933Y-105757249D01*
X230686576Y-105646041D01*
X230680622Y-105461726D01*
X230679600Y-105273821D01*
X230674380Y-104986693D01*
X230658263Y-104794136D01*
X230630563Y-104689635D01*
X230616100Y-104671041D01*
X230520635Y-104632564D01*
X230362857Y-104602730D01*
X230176314Y-104583945D01*
X229994555Y-104578615D01*
X229851130Y-104589145D01*
X229785446Y-104611478D01*
X229750241Y-104672481D01*
X229727896Y-104795102D01*
X229716636Y-104993882D01*
X229714400Y-105194623D01*
X229709721Y-105421598D01*
X229696993Y-105603962D01*
X229678182Y-105720231D01*
X229663600Y-105750200D01*
X229640695Y-105716313D01*
X229624402Y-105585131D01*
X229615054Y-105360768D01*
X229612800Y-105124419D01*
X229609029Y-104816873D01*
X229597194Y-104601928D01*
X229576510Y-104470844D01*
X229549300Y-104417041D01*
X229453835Y-104378564D01*
X229296057Y-104348730D01*
X229109514Y-104329945D01*
X228927755Y-104324615D01*
X228784330Y-104335145D01*
X228718646Y-104357478D01*
X228695561Y-104426064D01*
X228676485Y-104578706D01*
X228661468Y-104798149D01*
X228650562Y-105067142D01*
X228643816Y-105368433D01*
X228641282Y-105684769D01*
X228643009Y-105998897D01*
X228649049Y-106293566D01*
X228659452Y-106551522D01*
X228674269Y-106755514D01*
X228693550Y-106888288D01*
X228711100Y-106930857D01*
X228780635Y-106949072D01*
X228933903Y-106968384D01*
X229153069Y-106987215D01*
X229420301Y-107003987D01*
X229663600Y-107015130D01*
X230006687Y-107030988D01*
X230363932Y-107052078D01*
X230702393Y-107076158D01*
X230989129Y-107100986D01*
X231105440Y-107113283D01*
X231357217Y-107140270D01*
X231527566Y-107151954D01*
X231527566Y-107844955D01*
X231433886Y-107880277D01*
X231297543Y-107965619D01*
X231132310Y-108124991D01*
X230988177Y-108330253D01*
X230962715Y-108378037D01*
X230832000Y-108640349D01*
X230832000Y-110054406D01*
X230832785Y-110506181D01*
X230836518Y-110869016D01*
X230845261Y-111155570D01*
X230861078Y-111378498D01*
X230886034Y-111550460D01*
X230922191Y-111684110D01*
X230971614Y-111792107D01*
X231036365Y-111887108D01*
X231118510Y-111981770D01*
X231152074Y-112017504D01*
X231364125Y-112198762D01*
X231603163Y-112312774D01*
X231893914Y-112368796D01*
X232116331Y-112378485D01*
X232116331Y-112705829D01*
X232095439Y-112704929D01*
X231878313Y-112699205D01*
X231608592Y-112695037D01*
X231279068Y-112692308D01*
X230882535Y-112690900D01*
X230411787Y-112690695D01*
X229859617Y-112691575D01*
X229218819Y-112693423D01*
X228775956Y-112695019D01*
X228775956Y-112404121D01*
X229150571Y-112371153D01*
X229459725Y-112267200D01*
X229715137Y-112087351D01*
X229830665Y-111962128D01*
X229911970Y-111852763D01*
X229976419Y-111739311D01*
X230025787Y-111608948D01*
X230061845Y-111448849D01*
X230086368Y-111246186D01*
X230101127Y-110988136D01*
X230107897Y-110661872D01*
X230108450Y-110254569D01*
X230106541Y-109966600D01*
X230102713Y-109563473D01*
X230098142Y-109248553D01*
X230091763Y-109008447D01*
X230082515Y-108829762D01*
X230069332Y-108699106D01*
X230051153Y-108603086D01*
X230026915Y-108528310D01*
X229995552Y-108461385D01*
X229985551Y-108442600D01*
X229783134Y-108147957D01*
X229536575Y-107939364D01*
X229236377Y-107811446D01*
X228873045Y-107758823D01*
X228774542Y-107756800D01*
X228394274Y-107795864D01*
X228077209Y-107912487D01*
X227825365Y-108105814D01*
X227755799Y-108187757D01*
X227678312Y-108294966D01*
X227617055Y-108399333D01*
X227570120Y-108514159D01*
X227535601Y-108652745D01*
X227511591Y-108828392D01*
X227496183Y-109054401D01*
X227487469Y-109344073D01*
X227483543Y-109710709D01*
X227482545Y-110093600D01*
X227482697Y-110502799D01*
X227484496Y-110823883D01*
X227488818Y-111070338D01*
X227496539Y-111255646D01*
X227508536Y-111393292D01*
X227525686Y-111496758D01*
X227548864Y-111579528D01*
X227578947Y-111655085D01*
X227584910Y-111668400D01*
X227774018Y-111977420D01*
X228031275Y-112213279D01*
X228165000Y-112294474D01*
X228307615Y-112355753D01*
X228471193Y-112389954D01*
X228690235Y-112403265D01*
X228775956Y-112404121D01*
X228775956Y-112695019D01*
X228637824Y-112695517D01*
X225460994Y-112707675D01*
X225460994Y-112328800D01*
X225841416Y-112287346D01*
X226165692Y-112165368D01*
X226428302Y-111966442D01*
X226623726Y-111694147D01*
X226695520Y-111528804D01*
X226717757Y-111413265D01*
X226736103Y-111213782D01*
X226750496Y-110947937D01*
X226760874Y-110633314D01*
X226767174Y-110287496D01*
X226769335Y-109928065D01*
X226767295Y-109572606D01*
X226760991Y-109238702D01*
X226750361Y-108943934D01*
X226735343Y-108705888D01*
X226715876Y-108542145D01*
X226706221Y-108499294D01*
X226602983Y-108287611D01*
X226431181Y-108073461D01*
X226219299Y-107884446D01*
X225995819Y-107748169D01*
X225890720Y-107709012D01*
X225533621Y-107654776D01*
X225449565Y-107661910D01*
X225449565Y-107212373D01*
X225597066Y-107180433D01*
X225831456Y-107111899D01*
X226155179Y-107006063D01*
X226522299Y-106879257D01*
X226862486Y-106760408D01*
X227195536Y-106645410D01*
X227500883Y-106541264D01*
X227757963Y-106454969D01*
X227946213Y-106393523D01*
X227987200Y-106380670D01*
X228176833Y-106318853D01*
X228332004Y-106262199D01*
X228423877Y-106221369D01*
X228431700Y-106216352D01*
X228455573Y-106169024D01*
X228473186Y-106060677D01*
X228485133Y-105881627D01*
X228492012Y-105622192D01*
X228494419Y-105272689D01*
X228494422Y-105197880D01*
X228492303Y-104891431D01*
X228486870Y-104618527D01*
X228478744Y-104395980D01*
X228468548Y-104240602D01*
X228456904Y-104169205D01*
X228456322Y-104168182D01*
X228396589Y-104125961D01*
X228263437Y-104056175D01*
X228077708Y-103969171D01*
X227898396Y-103891226D01*
X227694222Y-103801308D01*
X227534649Y-103723199D01*
X227436878Y-103665867D01*
X227415796Y-103639564D01*
X227479199Y-103612255D01*
X227616035Y-103567302D01*
X227801415Y-103512665D01*
X227885600Y-103489333D01*
X228087001Y-103436959D01*
X228238992Y-103394715D01*
X228348283Y-103348493D01*
X228421584Y-103284187D01*
X228465605Y-103187692D01*
X228487056Y-103044900D01*
X228492647Y-102841706D01*
X228489088Y-102564003D01*
X228483523Y-102232327D01*
X228469800Y-101182925D01*
X228291533Y-101086274D01*
X228291533Y-99636136D01*
X228352078Y-99632019D01*
X228399338Y-99605096D01*
X228434939Y-99546465D01*
X228460509Y-99447226D01*
X228477675Y-99298476D01*
X228488065Y-99091313D01*
X228493305Y-98816838D01*
X228495023Y-98466148D01*
X228494846Y-98030342D01*
X228494422Y-97585695D01*
X228493253Y-97143576D01*
X228490253Y-96732257D01*
X228485646Y-96363054D01*
X228479658Y-96047283D01*
X228472516Y-95796261D01*
X228464445Y-95621304D01*
X228455670Y-95533727D01*
X228453334Y-95526718D01*
X228378001Y-95489405D01*
X228370660Y-95488227D01*
X228370660Y-95090952D01*
X228425295Y-95086814D01*
X228452270Y-95056219D01*
X228471690Y-94979758D01*
X228484595Y-94844618D01*
X228492022Y-94637985D01*
X228495010Y-94347048D01*
X228495200Y-94224350D01*
X228493391Y-93938296D01*
X228488390Y-93684316D01*
X228480837Y-93481394D01*
X228471371Y-93348516D01*
X228464364Y-93308355D01*
X228423031Y-93263779D01*
X228328116Y-93237716D01*
X228159639Y-93225896D01*
X228070664Y-93224235D01*
X227848905Y-93217211D01*
X227632447Y-93202660D01*
X227486004Y-93186135D01*
X227264209Y-93151800D01*
X227879704Y-92830622D01*
X228495200Y-92509443D01*
X228495200Y-91604942D01*
X228493636Y-91265743D01*
X228488284Y-91014920D01*
X228478146Y-90839287D01*
X228462230Y-90725657D01*
X228439538Y-90660845D01*
X228422387Y-90640012D01*
X228375559Y-90624196D01*
X228344103Y-90631958D01*
X228344103Y-90273693D01*
X228431623Y-90245079D01*
X228449238Y-90224711D01*
X228464275Y-90151707D01*
X228476483Y-89999034D01*
X228485666Y-89788590D01*
X228491629Y-89542273D01*
X228494175Y-89281979D01*
X228493110Y-89029606D01*
X228488237Y-88807052D01*
X228479360Y-88636213D01*
X228466283Y-88538988D01*
X228464364Y-88533155D01*
X228437467Y-88500106D01*
X228376007Y-88477328D01*
X228264196Y-88463047D01*
X228086244Y-88455491D01*
X227826361Y-88452886D01*
X227748931Y-88452800D01*
X227500299Y-88450094D01*
X227294537Y-88442674D01*
X227149563Y-88431587D01*
X227083295Y-88417882D01*
X227081266Y-88413760D01*
X227121875Y-88368076D01*
X227224714Y-88264367D01*
X227377983Y-88114195D01*
X227569881Y-87929117D01*
X227788606Y-87720695D01*
X227794341Y-87715260D01*
X228490483Y-87055800D01*
X228492064Y-86116000D01*
X228490628Y-85815026D01*
X228485680Y-85548039D01*
X228477833Y-85332090D01*
X228467700Y-85184225D01*
X228456322Y-85122053D01*
X228396171Y-85101571D01*
X228291533Y-85083337D01*
X228291533Y-84599336D01*
X228352078Y-84595219D01*
X228399338Y-84568296D01*
X228434939Y-84509665D01*
X228460509Y-84410426D01*
X228477675Y-84261676D01*
X228488065Y-84054513D01*
X228493305Y-83780038D01*
X228495023Y-83429348D01*
X228494846Y-82993542D01*
X228494422Y-82548895D01*
X228493208Y-82106634D01*
X228490079Y-81695050D01*
X228485270Y-81325481D01*
X228479017Y-81009265D01*
X228471556Y-80757741D01*
X228463122Y-80582246D01*
X228453952Y-80494119D01*
X228451523Y-80486986D01*
X228378993Y-80449956D01*
X228378993Y-80054372D01*
X228425143Y-80050073D01*
X228452162Y-80019613D01*
X228471613Y-79943574D01*
X228484541Y-79809105D01*
X228491989Y-79603356D01*
X228495000Y-79313476D01*
X228495200Y-79187550D01*
X228493391Y-78901496D01*
X228488390Y-78647516D01*
X228480837Y-78444594D01*
X228471371Y-78311716D01*
X228464364Y-78271555D01*
X228420206Y-78225215D01*
X228318745Y-78198744D01*
X228139953Y-78187530D01*
X228096064Y-78186750D01*
X227871786Y-78178845D01*
X227645204Y-78163084D01*
X227511170Y-78148650D01*
X227263741Y-78115000D01*
X227879470Y-77793822D01*
X228495200Y-77472643D01*
X228495200Y-76568142D01*
X228493636Y-76228943D01*
X228488284Y-75978120D01*
X228478146Y-75802487D01*
X228462230Y-75688857D01*
X228439538Y-75624045D01*
X228422387Y-75603212D01*
X228375559Y-75587396D01*
X228299864Y-75606076D01*
X228181204Y-75666087D01*
X228005480Y-75774263D01*
X227825487Y-75892634D01*
X227619265Y-76029935D01*
X227440930Y-76147996D01*
X227309071Y-76234559D01*
X227242274Y-76277362D01*
X227241183Y-76278012D01*
X227185130Y-76255346D01*
X227106944Y-76137519D01*
X227043132Y-76006402D01*
X226941739Y-75817218D01*
X226821241Y-75643855D01*
X226733281Y-75548233D01*
X226617452Y-75459473D01*
X226503466Y-75414033D01*
X226348733Y-75398261D01*
X226262129Y-75397200D01*
X226072215Y-75405804D01*
X225941493Y-75439688D01*
X225828412Y-75510963D01*
X225804470Y-75530591D01*
X225671936Y-75670609D01*
X225561222Y-75833216D01*
X225553469Y-75848091D01*
X225490862Y-75982158D01*
X225440453Y-76117493D01*
X225401009Y-76266607D01*
X225371299Y-76442008D01*
X225350089Y-76656205D01*
X225336149Y-76921708D01*
X225328246Y-77251026D01*
X225325149Y-77656667D01*
X225325625Y-78151143D01*
X225325659Y-78161188D01*
X225327706Y-78607071D01*
X225330790Y-78962062D01*
X225335490Y-79236869D01*
X225342386Y-79442197D01*
X225352056Y-79588753D01*
X225365078Y-79687245D01*
X225382032Y-79748380D01*
X225403496Y-79782864D01*
X225413809Y-79791840D01*
X225499996Y-79817775D01*
X225680027Y-79841454D01*
X225946156Y-79862160D01*
X226290639Y-79879174D01*
X226398950Y-79883141D01*
X226740723Y-79898692D01*
X227093230Y-79921424D01*
X227424997Y-79948863D01*
X227704552Y-79978536D01*
X227828243Y-79995466D01*
X228053693Y-80026902D01*
X228245441Y-80047284D01*
X228378993Y-80054372D01*
X228378993Y-80449956D01*
X228370485Y-80445612D01*
X228190557Y-80419635D01*
X228007800Y-80410786D01*
X227606200Y-80401000D01*
X227592499Y-81509303D01*
X227578799Y-82617605D01*
X227465499Y-82601503D01*
X227425149Y-82592551D01*
X227395244Y-82569471D01*
X227373687Y-82518196D01*
X227358380Y-82424662D01*
X227347226Y-82274801D01*
X227338128Y-82054549D01*
X227328987Y-81749839D01*
X227326800Y-81671426D01*
X227301400Y-80757452D01*
X227149000Y-80724936D01*
X226961283Y-80696893D01*
X226771185Y-80687662D01*
X226608623Y-80696584D01*
X226503510Y-80723000D01*
X226483413Y-80739593D01*
X226471756Y-80808264D01*
X226463044Y-80960049D01*
X226457803Y-81176490D01*
X226456555Y-81439129D01*
X226458171Y-81628593D01*
X226469512Y-82458400D01*
X226209200Y-82458400D01*
X226209200Y-80322286D01*
X226078892Y-80272743D01*
X225948001Y-80242091D01*
X225779143Y-80226707D01*
X225605380Y-80226383D01*
X225459772Y-80240907D01*
X225375380Y-80270068D01*
X225368980Y-80277268D01*
X225359678Y-80341752D01*
X225351967Y-80493460D01*
X225345810Y-80718845D01*
X225341173Y-81004365D01*
X225338019Y-81336475D01*
X225336312Y-81701631D01*
X225336016Y-82086288D01*
X225337096Y-82476901D01*
X225339514Y-82859927D01*
X225343235Y-83221821D01*
X225348223Y-83549039D01*
X225354442Y-83828037D01*
X225361855Y-84045270D01*
X225370428Y-84187194D01*
X225379518Y-84239839D01*
X225443501Y-84259123D01*
X225589618Y-84282345D01*
X225798604Y-84307048D01*
X226051196Y-84330771D01*
X226159235Y-84339368D01*
X226478932Y-84366291D01*
X226816042Y-84399322D01*
X227131893Y-84434409D01*
X227387816Y-84467499D01*
X227403000Y-84469711D01*
X227646410Y-84505427D01*
X227876894Y-84539056D01*
X228059666Y-84565532D01*
X228124077Y-84574757D01*
X228216075Y-84589548D01*
X228291533Y-84599336D01*
X228291533Y-85083337D01*
X228249402Y-85075994D01*
X228030756Y-85047212D01*
X227754973Y-85017114D01*
X227436795Y-84987591D01*
X227352200Y-84980509D01*
X227000714Y-84950743D01*
X226653490Y-84919594D01*
X226334243Y-84889317D01*
X226066690Y-84862167D01*
X225874545Y-84840400D01*
X225861542Y-84838754D01*
X225608172Y-84813292D01*
X225449365Y-84814309D01*
X225386151Y-84835929D01*
X225369508Y-84901227D01*
X225355805Y-85046946D01*
X225345256Y-85251940D01*
X225338076Y-85495068D01*
X225334482Y-85755186D01*
X225334687Y-86011151D01*
X225338908Y-86241818D01*
X225347360Y-86426045D01*
X225360257Y-86542688D01*
X225368506Y-86569165D01*
X225432668Y-86596942D01*
X225569827Y-86618672D01*
X225751394Y-86629975D01*
X225767698Y-86630310D01*
X226020041Y-86638790D01*
X226295015Y-86654199D01*
X226477923Y-86668410D01*
X226822846Y-86700200D01*
X226084223Y-87379409D01*
X225856883Y-87592364D01*
X225657612Y-87786484D01*
X225497939Y-87949919D01*
X225389393Y-88070824D01*
X225343501Y-88137351D01*
X225342737Y-88141409D01*
X225338135Y-88344011D01*
X225336124Y-88592779D01*
X225336431Y-88868651D01*
X225338785Y-89152565D01*
X225342913Y-89425460D01*
X225348546Y-89668274D01*
X225355410Y-89861945D01*
X225363234Y-89987411D01*
X225369586Y-90025313D01*
X225434625Y-90054279D01*
X225568233Y-90073565D01*
X225691498Y-90078411D01*
X225841728Y-90082705D01*
X226071820Y-90094530D01*
X226360445Y-90112306D01*
X226686275Y-90134455D01*
X227027980Y-90159397D01*
X227364232Y-90185554D01*
X227673701Y-90211346D01*
X227935059Y-90235196D01*
X228126978Y-90255525D01*
X228183316Y-90262859D01*
X228344103Y-90273693D01*
X228344103Y-90631958D01*
X228299864Y-90642876D01*
X228181204Y-90702887D01*
X228005480Y-90811063D01*
X227825487Y-90929434D01*
X227619265Y-91066735D01*
X227440930Y-91184796D01*
X227309071Y-91271359D01*
X227242274Y-91314162D01*
X227241183Y-91314812D01*
X227185130Y-91292146D01*
X227106944Y-91174319D01*
X227043132Y-91043202D01*
X226941739Y-90854018D01*
X226821241Y-90680655D01*
X226733281Y-90585033D01*
X226617452Y-90496273D01*
X226503466Y-90450833D01*
X226348733Y-90435061D01*
X226262129Y-90434000D01*
X226072123Y-90442622D01*
X225941352Y-90476539D01*
X225828317Y-90547825D01*
X225804873Y-90567052D01*
X225650892Y-90729434D01*
X225527383Y-90940449D01*
X225420343Y-91224837D01*
X225405789Y-91272200D01*
X225382845Y-91369411D01*
X225364532Y-91499433D01*
X225350353Y-91673502D01*
X225339809Y-91902854D01*
X225332401Y-92198724D01*
X225327631Y-92572349D01*
X225325000Y-93034964D01*
X225324802Y-93097640D01*
X225325142Y-93575949D01*
X225329035Y-93983727D01*
X225336297Y-94314460D01*
X225346741Y-94561635D01*
X225360184Y-94718737D01*
X225372368Y-94774040D01*
X225397036Y-94811729D01*
X225437962Y-94840067D01*
X225509744Y-94861149D01*
X225626978Y-94877072D01*
X225804260Y-94889931D01*
X226056189Y-94901823D01*
X226337568Y-94912650D01*
X226683407Y-94929235D01*
X227042204Y-94953054D01*
X227381993Y-94981548D01*
X227670808Y-95012159D01*
X227802995Y-95029969D01*
X228033756Y-95061668D01*
X228230896Y-95082719D01*
X228370660Y-95090952D01*
X228370660Y-95488227D01*
X228213384Y-95462976D01*
X228009612Y-95450518D01*
X227606200Y-95437800D01*
X227592499Y-96546103D01*
X227578799Y-97654405D01*
X227465499Y-97638303D01*
X227425149Y-97629351D01*
X227395244Y-97606271D01*
X227373687Y-97554996D01*
X227358380Y-97461462D01*
X227347226Y-97311601D01*
X227338128Y-97091349D01*
X227328987Y-96786639D01*
X227326800Y-96708226D01*
X227301400Y-95794252D01*
X227149000Y-95761736D01*
X226961283Y-95733693D01*
X226771185Y-95724462D01*
X226608623Y-95733384D01*
X226503510Y-95759800D01*
X226483413Y-95776393D01*
X226471756Y-95845064D01*
X226463044Y-95996849D01*
X226457803Y-96213290D01*
X226456555Y-96475929D01*
X226458171Y-96665393D01*
X226469512Y-97495200D01*
X226209200Y-97495200D01*
X226209200Y-95359086D01*
X226078892Y-95309543D01*
X225948001Y-95278891D01*
X225779143Y-95263507D01*
X225605380Y-95263183D01*
X225459772Y-95277707D01*
X225375380Y-95306868D01*
X225368980Y-95314068D01*
X225359678Y-95378552D01*
X225351967Y-95530260D01*
X225345810Y-95755645D01*
X225341173Y-96041165D01*
X225338019Y-96373275D01*
X225336312Y-96738431D01*
X225336016Y-97123088D01*
X225337096Y-97513701D01*
X225339514Y-97896727D01*
X225343235Y-98258621D01*
X225348223Y-98585839D01*
X225354442Y-98864837D01*
X225361855Y-99082070D01*
X225370428Y-99223994D01*
X225379518Y-99276639D01*
X225443501Y-99295923D01*
X225589618Y-99319145D01*
X225798604Y-99343848D01*
X226051196Y-99367571D01*
X226159235Y-99376168D01*
X226478932Y-99403091D01*
X226816042Y-99436122D01*
X227131893Y-99471209D01*
X227387816Y-99504299D01*
X227403000Y-99506511D01*
X227646410Y-99542227D01*
X227876894Y-99575856D01*
X228059666Y-99602332D01*
X228124077Y-99611557D01*
X228216075Y-99626348D01*
X228291533Y-99636136D01*
X228291533Y-101086274D01*
X226996600Y-100384200D01*
X226640780Y-100192206D01*
X226312003Y-100016566D01*
X226021263Y-99863018D01*
X225779558Y-99737299D01*
X225597881Y-99645145D01*
X225487229Y-99592294D01*
X225458642Y-99581737D01*
X225394622Y-99621028D01*
X225356293Y-99692300D01*
X225345425Y-99775780D01*
X225336881Y-99938811D01*
X225330879Y-100159364D01*
X225327635Y-100415413D01*
X225327368Y-100684929D01*
X225330292Y-100945885D01*
X225336626Y-101176254D01*
X225340792Y-101266761D01*
X225381460Y-101324248D01*
X225501743Y-101410844D01*
X225706198Y-101529377D01*
X225999387Y-101682670D01*
X226066550Y-101716485D01*
X226365449Y-101870237D01*
X226572666Y-101986258D01*
X226690321Y-102065857D01*
X226720532Y-102110343D01*
X226714250Y-102116359D01*
X226638194Y-102142051D01*
X226484966Y-102183527D01*
X226276697Y-102235093D01*
X226035519Y-102291058D01*
X226031400Y-102291983D01*
X225793399Y-102347985D01*
X225591529Y-102400268D01*
X225446612Y-102443108D01*
X225379473Y-102470777D01*
X225378743Y-102471444D01*
X225363866Y-102535155D01*
X225352213Y-102680465D01*
X225343785Y-102887524D01*
X225338582Y-103136484D01*
X225336603Y-103407496D01*
X225337849Y-103680712D01*
X225342320Y-103936283D01*
X225350016Y-104154360D01*
X225360936Y-104315094D01*
X225375081Y-104398636D01*
X225378743Y-104404801D01*
X225440131Y-104437143D01*
X225577782Y-104496603D01*
X225772585Y-104575291D01*
X226005425Y-104665317D01*
X226056800Y-104684712D01*
X226294615Y-104775617D01*
X226497919Y-104856157D01*
X226647775Y-104918621D01*
X226725246Y-104955300D01*
X226730575Y-104959032D01*
X226699194Y-104986160D01*
X226586647Y-105036639D01*
X226408938Y-105104154D01*
X226182074Y-105182391D01*
X226080907Y-105215351D01*
X225831948Y-105297681D01*
X225618888Y-105372890D01*
X225459964Y-105434176D01*
X225373415Y-105474738D01*
X225363540Y-105482871D01*
X225349378Y-105555908D01*
X225339815Y-105707351D01*
X225334570Y-105916055D01*
X225333361Y-106160878D01*
X225335908Y-106420677D01*
X225341928Y-106674310D01*
X225351141Y-106900632D01*
X225363264Y-107078501D01*
X225378017Y-107186774D01*
X225386507Y-107208428D01*
X225449565Y-107212373D01*
X225449565Y-107661910D01*
X225181268Y-107684683D01*
X224853522Y-107792455D01*
X224570245Y-107971815D01*
X224369353Y-108189802D01*
X224294493Y-108313575D01*
X224235715Y-108454679D01*
X224191546Y-108625714D01*
X224160517Y-108839278D01*
X224141155Y-109107971D01*
X224131990Y-109444392D01*
X224131550Y-109861141D01*
X224135429Y-110193185D01*
X224143812Y-110625666D01*
X224156509Y-110970348D01*
X224176722Y-111241026D01*
X224207650Y-111451493D01*
X224252495Y-111615546D01*
X224314457Y-111746977D01*
X224396737Y-111859583D01*
X224502535Y-111967158D01*
X224558732Y-112017655D01*
X224769272Y-112176675D01*
X224981772Y-112273403D01*
X225230945Y-112319813D01*
X225460994Y-112328800D01*
X225460994Y-112707675D01*
X224905744Y-112709800D01*
X224657114Y-112863543D01*
X224401589Y-113074667D01*
X224220038Y-113335297D01*
X224114808Y-113627511D01*
X224088244Y-113933384D01*
X224142693Y-114234993D01*
X224280500Y-114514415D01*
X224419474Y-114679162D01*
X224482336Y-114741605D01*
X224538825Y-114795963D01*
X224596061Y-114842795D01*
X224661165Y-114882661D01*
X224741256Y-114916119D01*
X224843454Y-114943730D01*
X224974881Y-114966051D01*
X225142656Y-114983642D01*
X225353899Y-114997063D01*
X225615731Y-115006872D01*
X225935272Y-115013630D01*
X226319642Y-115017894D01*
X226775962Y-115020225D01*
X227311350Y-115021180D01*
X227932929Y-115021321D01*
X227932929Y-115441873D01*
X227340163Y-115444498D01*
X226813349Y-115447389D01*
X226366700Y-115450649D01*
X225993070Y-115454477D01*
X225685314Y-115459070D01*
X225436287Y-115464627D01*
X225238845Y-115471346D01*
X225085841Y-115479424D01*
X224970131Y-115489059D01*
X224884570Y-115500450D01*
X224822013Y-115513795D01*
X224775314Y-115529291D01*
X224737329Y-115547136D01*
X224736000Y-115547843D01*
X224474268Y-115723283D01*
X224286421Y-115938933D01*
X224220251Y-116053375D01*
X224111135Y-116367202D01*
X224090634Y-116691841D01*
X224155616Y-117005770D01*
X224302948Y-117287471D01*
X224419474Y-117422362D01*
X224482336Y-117484805D01*
X224538825Y-117539163D01*
X224596061Y-117585995D01*
X224661165Y-117625861D01*
X224741256Y-117659319D01*
X224843454Y-117686930D01*
X224974881Y-117709251D01*
X225142656Y-117726842D01*
X225353899Y-117740263D01*
X225615731Y-117750072D01*
X225935272Y-117756830D01*
X226319642Y-117761094D01*
X226775962Y-117763425D01*
X227311350Y-117764380D01*
X227932929Y-117764521D01*
X227932929Y-118178757D01*
X227509985Y-118177568D01*
X226974222Y-118176736D01*
X226518754Y-118176943D01*
X226136481Y-118178313D01*
X225820300Y-118180965D01*
X225563111Y-118185022D01*
X225357814Y-118190604D01*
X225197307Y-118197834D01*
X225074490Y-118206833D01*
X224982260Y-118217722D01*
X224913519Y-118230623D01*
X224861164Y-118245657D01*
X224848293Y-118250334D01*
X224553879Y-118411136D01*
X224327157Y-118634009D01*
X224172458Y-118902220D01*
X224094110Y-119199031D01*
X224096443Y-119507709D01*
X224183787Y-119811517D01*
X224360470Y-120093720D01*
X224368857Y-120103621D01*
X224429717Y-120176569D01*
X224483712Y-120240133D01*
X224537889Y-120294958D01*
X224599299Y-120341690D01*
X224674987Y-120380975D01*
X224772003Y-120413460D01*
X224897394Y-120439791D01*
X225058209Y-120460614D01*
X225261496Y-120476574D01*
X225514303Y-120488318D01*
X225823679Y-120496493D01*
X226196671Y-120501744D01*
X226640327Y-120504717D01*
X227161696Y-120506058D01*
X227767826Y-120506414D01*
X228465765Y-120506431D01*
X228763531Y-120506485D01*
X228763531Y-121269600D01*
X223923200Y-121269600D01*
X223923200Y-74330400D01*
X233676800Y-74330400D01*
G37*
X233676800Y-74330400D02*
X233676800Y-121269600D01*
X228763531Y-121269600D01*
X228763531Y-120506485D01*
X229501978Y-120506397D01*
X230145175Y-120505598D01*
X230699469Y-120503981D01*
X231171208Y-120501437D01*
X231566740Y-120497859D01*
X231892412Y-120493138D01*
X232154572Y-120487166D01*
X232359568Y-120479836D01*
X232513747Y-120471040D01*
X232623458Y-120460670D01*
X232695048Y-120448617D01*
X232725931Y-120439099D01*
X233016322Y-120264418D01*
X233245505Y-120017185D01*
X233397975Y-119715573D01*
X233426098Y-119618600D01*
X233461970Y-119421573D01*
X233457572Y-119248513D01*
X233410717Y-119045285D01*
X233401682Y-119014784D01*
X233259854Y-118699506D01*
X233047667Y-118448439D01*
X232848357Y-118310032D01*
X232635400Y-118196200D01*
X228850800Y-118181867D01*
X228133144Y-118179319D01*
X227932929Y-118178757D01*
X227932929Y-117764521D01*
X228647818Y-117764405D01*
X228774600Y-117764400D01*
X229505155Y-117764442D01*
X230141196Y-117764243D01*
X230689808Y-117763319D01*
X231158076Y-117761185D01*
X231553085Y-117757356D01*
X231881921Y-117751349D01*
X232151669Y-117742678D01*
X232369413Y-117730859D01*
X232542240Y-117715407D01*
X232677234Y-117695838D01*
X232781481Y-117671666D01*
X232862067Y-117642408D01*
X232926075Y-117607578D01*
X232980592Y-117566692D01*
X233032702Y-117519266D01*
X233084435Y-117469606D01*
X233295641Y-117203285D01*
X233418089Y-116898118D01*
X233449417Y-116568714D01*
X233387268Y-116229684D01*
X233314024Y-116047777D01*
X233156453Y-115822800D01*
X232931015Y-115630443D01*
X232671290Y-115497730D01*
X232604736Y-115476983D01*
X232510523Y-115466043D01*
X232316546Y-115456782D01*
X232024629Y-115449217D01*
X231636594Y-115443366D01*
X231154263Y-115439247D01*
X230579461Y-115436876D01*
X229914010Y-115436272D01*
X229159732Y-115437453D01*
X228662865Y-115439033D01*
X227954287Y-115441779D01*
X227932929Y-115441873D01*
X227932929Y-115021321D01*
X228647818Y-115021205D01*
X228774600Y-115021200D01*
X229496054Y-115020997D01*
X230122851Y-115020296D01*
X230661936Y-115018958D01*
X231120250Y-115016847D01*
X231504737Y-115013824D01*
X231822339Y-115009752D01*
X232080000Y-115004493D01*
X232284663Y-114997909D01*
X232443270Y-114989863D01*
X232562765Y-114980216D01*
X232650091Y-114968832D01*
X232712190Y-114955572D01*
X232751331Y-114942306D01*
X233028357Y-114773537D01*
X233248880Y-114530244D01*
X233397631Y-114230759D01*
X233426098Y-114132200D01*
X233460592Y-113948615D01*
X233459994Y-113787067D01*
X233421917Y-113599899D01*
X233394600Y-113503621D01*
X233255888Y-113207201D01*
X233039606Y-112968487D01*
X232759905Y-112801486D01*
X232644352Y-112761018D01*
X232582110Y-112745744D01*
X232503303Y-112732617D01*
X232400727Y-112721517D01*
X232267174Y-112712327D01*
X232116331Y-112705829D01*
X232116331Y-112378485D01*
X232494455Y-112346334D01*
X232802749Y-112244391D01*
X233049406Y-112067942D01*
X233242617Y-111812273D01*
X233302562Y-111695876D01*
X233338468Y-111615224D01*
X233366339Y-111537084D01*
X233387194Y-111447790D01*
X233402051Y-111333676D01*
X233411929Y-111181075D01*
X233417848Y-110976322D01*
X233420827Y-110705749D01*
X233421883Y-110355690D01*
X233422020Y-110093600D01*
X233419987Y-109680785D01*
X233414046Y-109312395D01*
X233404637Y-109001053D01*
X233392198Y-108759380D01*
X233377171Y-108599997D01*
X233368336Y-108553305D01*
X233272231Y-108347882D01*
X233109289Y-108137195D01*
X232907379Y-107952759D01*
X232746682Y-107850382D01*
X232435379Y-107744243D01*
X232092578Y-107715454D01*
X231748630Y-107761603D01*
X231527566Y-107844955D01*
X231527566Y-107151954D01*
X231635525Y-107148166D01*
X231700133Y-107128738D01*
X231727740Y-107107802D01*
X231750424Y-107035691D01*
X231769114Y-106880147D01*
X231783772Y-106658357D01*
X231794358Y-106387507D01*
X231800832Y-106084782D01*
X231803155Y-105767368D01*
X231801287Y-105452452D01*
X231795188Y-105157218D01*
X231784820Y-104898854D01*
X231770142Y-104694544D01*
X231751116Y-104561475D01*
X231733700Y-104518544D01*
X231654753Y-104490069D01*
X231504674Y-104461139D01*
X231499004Y-104460435D01*
X231499004Y-104275579D01*
X231631992Y-104269692D01*
X231707244Y-104256645D01*
X231726734Y-104246841D01*
X231760484Y-104168812D01*
X231784087Y-104017760D01*
X231797301Y-103821778D01*
X231799884Y-103608959D01*
X231791595Y-103407396D01*
X231772190Y-103245182D01*
X231741428Y-103150410D01*
X231736239Y-103144160D01*
X231651075Y-103106982D01*
X231508489Y-103085185D01*
X231444139Y-103082839D01*
X231266652Y-103077562D01*
X231043228Y-103064252D01*
X230868251Y-103049921D01*
X230523502Y-103017363D01*
X231046051Y-102741393D01*
X231318854Y-102599115D01*
X231516808Y-102492852D01*
X231651778Y-102405674D01*
X231735632Y-102320653D01*
X231780235Y-102220861D01*
X231797453Y-102089369D01*
X231799153Y-101909248D01*
X231797200Y-101669789D01*
X231792265Y-101344223D01*
X231777347Y-101117750D01*
X231752269Y-100988337D01*
X231736240Y-100959761D01*
X231655221Y-100927304D01*
X231502108Y-100903387D01*
X231317140Y-100892863D01*
X231069193Y-100884338D01*
X230801267Y-100868492D01*
X230628800Y-100854134D01*
X230298600Y-100821343D01*
X230567124Y-100786049D01*
X230934862Y-100693672D01*
X231239746Y-100521503D01*
X231481751Y-100269590D01*
X231660856Y-99937984D01*
X231777037Y-99526733D01*
X231830271Y-99035889D01*
X231820534Y-98465500D01*
X231793797Y-98166298D01*
X231764036Y-97947237D01*
X231728502Y-97763028D01*
X231692706Y-97639489D01*
X231674244Y-97606061D01*
X231598523Y-97576975D01*
X231442752Y-97549061D01*
X231395737Y-97543471D01*
X231395737Y-97371976D01*
X231570482Y-97370138D01*
X231678049Y-97357932D01*
X231726590Y-97338161D01*
X231758909Y-97261547D01*
X231782254Y-97110015D01*
X231796477Y-96909511D01*
X231801430Y-96685981D01*
X231796968Y-96465372D01*
X231782942Y-96273630D01*
X231759206Y-96136700D01*
X231733700Y-96084510D01*
X231664488Y-96068823D01*
X231581230Y-96061322D01*
X231581230Y-95892879D01*
X231694994Y-95878820D01*
X231729921Y-95862196D01*
X231766893Y-95780266D01*
X231790703Y-95625544D01*
X231801661Y-95425943D01*
X231800077Y-95209373D01*
X231786260Y-95003747D01*
X231760519Y-94836976D01*
X231723165Y-94736971D01*
X231717371Y-94730229D01*
X231655518Y-94692016D01*
X231549411Y-94667599D01*
X231380459Y-94654545D01*
X231130072Y-94650418D01*
X231107771Y-94650400D01*
X230889713Y-94647001D01*
X230715382Y-94637811D01*
X230605796Y-94624345D01*
X230578738Y-94612300D01*
X230621487Y-94575514D01*
X230737347Y-94503483D01*
X230908656Y-94406596D01*
X231117750Y-94295241D01*
X231118599Y-94294800D01*
X231336098Y-94179575D01*
X231524154Y-94075298D01*
X231661993Y-93993794D01*
X231727461Y-93948272D01*
X231760352Y-93865641D01*
X231783788Y-93706877D01*
X231797806Y-93497000D01*
X231802444Y-93261033D01*
X231797742Y-93023998D01*
X231783736Y-92810915D01*
X231760466Y-92646808D01*
X231727968Y-92556697D01*
X231725336Y-92553794D01*
X231671365Y-92526018D01*
X231595584Y-92509845D01*
X231595584Y-92342155D01*
X231692074Y-92327685D01*
X231726445Y-92309081D01*
X231749412Y-92271696D01*
X231767075Y-92195004D01*
X231780040Y-92067912D01*
X231788914Y-91879324D01*
X231794305Y-91618147D01*
X231796819Y-91273286D01*
X231797200Y-91015609D01*
X231796438Y-90622409D01*
X231793644Y-90318479D01*
X231788051Y-90091499D01*
X231778895Y-89929147D01*
X231765409Y-89819103D01*
X231746828Y-89749044D01*
X231722387Y-89706649D01*
X231715407Y-89699065D01*
X231649281Y-89656703D01*
X231542304Y-89634164D01*
X231498815Y-89632684D01*
X231498815Y-89498383D01*
X231648693Y-89486401D01*
X231714715Y-89442428D01*
X231740906Y-89405075D01*
X231761002Y-89343769D01*
X231775777Y-89246149D01*
X231786005Y-89099853D01*
X231792460Y-88892521D01*
X231795916Y-88611793D01*
X231797148Y-88245306D01*
X231797200Y-88125192D01*
X231795801Y-87709992D01*
X231791309Y-87387288D01*
X231783273Y-87148008D01*
X231771245Y-86983083D01*
X231754778Y-86883442D01*
X231733700Y-86840231D01*
X231654868Y-86812647D01*
X231504610Y-86785685D01*
X231474822Y-86782396D01*
X231474822Y-86605646D01*
X231611512Y-86600786D01*
X231697401Y-86590319D01*
X231742620Y-86574202D01*
X231753353Y-86563689D01*
X231777907Y-86473688D01*
X231792796Y-86314826D01*
X231798549Y-86113950D01*
X231795698Y-85897910D01*
X231784772Y-85693555D01*
X231766304Y-85527735D01*
X231740823Y-85427299D01*
X231730607Y-85412774D01*
X231654993Y-85389308D01*
X231500722Y-85368091D01*
X231290736Y-85351591D01*
X231082907Y-85343054D01*
X230501800Y-85328600D01*
X231082987Y-85136280D01*
X231315317Y-85056749D01*
X231515270Y-84983367D01*
X231661176Y-84924417D01*
X231730687Y-84888760D01*
X231764902Y-84809671D01*
X231787997Y-84656344D01*
X231800157Y-84455510D01*
X231801563Y-84233900D01*
X231792399Y-84018247D01*
X231772848Y-83835282D01*
X231743091Y-83711735D01*
X231722416Y-83678776D01*
X231673461Y-83619877D01*
X231705724Y-83559116D01*
X231722416Y-83541927D01*
X231756808Y-83457799D01*
X231781657Y-83301148D01*
X231796721Y-83098328D01*
X231801755Y-82875690D01*
X231796518Y-82659589D01*
X231780767Y-82476376D01*
X231754257Y-82352405D01*
X231733700Y-82317903D01*
X231666685Y-82302178D01*
X231625280Y-82297758D01*
X231625280Y-82130459D01*
X231709626Y-82084656D01*
X231762306Y-81976232D01*
X231789452Y-81792511D01*
X231797199Y-81520818D01*
X231797200Y-81518600D01*
X231793369Y-81255560D01*
X231770977Y-81077490D01*
X231713678Y-80967785D01*
X231605122Y-80909842D01*
X231428963Y-80887055D01*
X231171271Y-80882823D01*
X230958717Y-80878468D01*
X230782287Y-80867466D01*
X230668495Y-80851799D01*
X230644220Y-80843406D01*
X230660020Y-80804657D01*
X230761009Y-80728852D01*
X230939841Y-80620886D01*
X231152220Y-80505028D01*
X231371308Y-80386938D01*
X231557449Y-80281655D01*
X231692062Y-80200040D01*
X231756565Y-80152954D01*
X231758322Y-80150745D01*
X231772824Y-80081174D01*
X231784831Y-79931854D01*
X231793107Y-79724628D01*
X231796416Y-79481340D01*
X231796422Y-79477529D01*
X231795424Y-79181377D01*
X231782772Y-78971837D01*
X231745271Y-78833935D01*
X231669730Y-78752695D01*
X231542956Y-78713141D01*
X231351758Y-78700298D01*
X231110769Y-78699200D01*
X230882956Y-78694542D01*
X230699940Y-78681864D01*
X230583080Y-78663109D01*
X230552600Y-78648400D01*
X230569770Y-78609958D01*
X230641227Y-78597600D01*
X230791687Y-78566442D01*
X230982783Y-78485370D01*
X231180136Y-78372987D01*
X231349362Y-78247899D01*
X231423042Y-78174551D01*
X231602004Y-77910107D01*
X231729343Y-77596242D01*
X231806667Y-77223544D01*
X231835583Y-76782602D01*
X231817698Y-76264003D01*
X231794474Y-75999483D01*
X231766557Y-75774539D01*
X231733735Y-75585364D01*
X231700756Y-75456245D01*
X231680174Y-75414652D01*
X231608540Y-75390583D01*
X231456562Y-75366364D01*
X231245483Y-75343277D01*
X230996549Y-75322605D01*
X230731005Y-75305630D01*
X230470096Y-75293633D01*
X230235067Y-75287898D01*
X230047162Y-75289706D01*
X229927627Y-75300340D01*
X229903556Y-75307428D01*
X229868447Y-75333407D01*
X229844390Y-75381910D01*
X229829840Y-75468960D01*
X229823255Y-75610577D01*
X229823089Y-75822783D01*
X229827356Y-76098207D01*
X229841400Y-76845000D01*
X230214206Y-76885581D01*
X230452196Y-76902171D01*
X230607194Y-76886148D01*
X230694205Y-76831721D01*
X230728231Y-76733102D01*
X230730400Y-76686380D01*
X230749168Y-76593938D01*
X230782794Y-76565600D01*
X230850303Y-76606867D01*
X230876827Y-76713016D01*
X230865835Y-76857571D01*
X230820795Y-77014054D01*
X230745176Y-77155991D01*
X230698092Y-77212126D01*
X230613868Y-77284010D01*
X230524220Y-77318529D01*
X230393108Y-77324569D01*
X230270355Y-77317559D01*
X230004861Y-77266727D01*
X229809137Y-77151036D01*
X229666699Y-76959312D01*
X229631652Y-76884732D01*
X229580836Y-76682330D01*
X229564928Y-76418408D01*
X229583750Y-76126797D01*
X229637124Y-75841325D01*
X229637170Y-75841146D01*
X229682117Y-75620335D01*
X229678818Y-75477141D01*
X229626159Y-75399175D01*
X229596172Y-75385108D01*
X229495325Y-75373997D01*
X229333500Y-75378484D01*
X229141768Y-75395026D01*
X228951204Y-75420080D01*
X228792878Y-75450103D01*
X228697865Y-75481552D01*
X228688208Y-75488641D01*
X228662094Y-75544475D01*
X228643204Y-75659256D01*
X228630771Y-75843880D01*
X228624031Y-76109245D01*
X228622200Y-76428441D01*
X228622771Y-76747186D01*
X228626094Y-76983848D01*
X228634583Y-77157941D01*
X228650650Y-77288982D01*
X228676710Y-77396486D01*
X228715176Y-77499968D01*
X228768461Y-77618945D01*
X228769783Y-77621808D01*
X228976006Y-77960894D01*
X229248766Y-78244868D01*
X229569144Y-78456495D01*
X229781028Y-78543065D01*
X229915018Y-78587950D01*
X229982603Y-78618483D01*
X229977435Y-78635425D01*
X229893165Y-78639538D01*
X229723444Y-78631582D01*
X229461924Y-78612318D01*
X229308000Y-78599783D01*
X229012310Y-78581270D01*
X228815227Y-78582956D01*
X228715785Y-78604854D01*
X228711100Y-78608217D01*
X228680781Y-78683231D01*
X228659744Y-78832235D01*
X228648051Y-79028036D01*
X228645761Y-79243444D01*
X228652934Y-79451267D01*
X228669631Y-79624315D01*
X228695911Y-79735396D01*
X228708560Y-79755840D01*
X228795561Y-79788244D01*
X228974720Y-79808872D01*
X229237172Y-79816750D01*
X229263205Y-79816800D01*
X229485180Y-79819990D01*
X229674592Y-79828553D01*
X229804406Y-79840985D01*
X229840734Y-79848974D01*
X229845004Y-79880924D01*
X229768028Y-79945135D01*
X229605836Y-80044311D01*
X229354463Y-80181158D01*
X229349588Y-80183724D01*
X229126475Y-80302568D01*
X228933184Y-80408200D01*
X228789205Y-80489785D01*
X228714024Y-80536485D01*
X228711100Y-80538770D01*
X228683409Y-80611325D01*
X228663103Y-80761028D01*
X228650224Y-80963691D01*
X228644816Y-81195127D01*
X228646923Y-81431150D01*
X228656589Y-81647571D01*
X228673857Y-81820204D01*
X228698773Y-81924863D01*
X228708559Y-81940240D01*
X228795487Y-81972707D01*
X228973845Y-81993372D01*
X229234035Y-82001165D01*
X229255526Y-82001200D01*
X229468068Y-82004366D01*
X229739571Y-82013082D01*
X230049025Y-82026179D01*
X230375421Y-82042488D01*
X230697751Y-82060840D01*
X230995006Y-82080064D01*
X231246176Y-82098992D01*
X231430254Y-82116453D01*
X231503134Y-82126316D01*
X231625280Y-82130459D01*
X231625280Y-82297758D01*
X231513996Y-82285876D01*
X231291549Y-82269532D01*
X231015264Y-82253683D01*
X230701059Y-82238865D01*
X230364852Y-82225614D01*
X230022562Y-82214467D01*
X229690107Y-82205961D01*
X229383407Y-82200631D01*
X229118378Y-82199015D01*
X228910940Y-82201648D01*
X228777012Y-82209068D01*
X228736500Y-82216903D01*
X228697305Y-82247686D01*
X228671461Y-82308167D01*
X228656325Y-82416599D01*
X228649254Y-82591238D01*
X228647600Y-82831028D01*
X228653535Y-83134698D01*
X228671182Y-83342859D01*
X228700306Y-83453054D01*
X228708560Y-83464240D01*
X228790346Y-83497434D01*
X228938863Y-83519470D01*
X229074923Y-83525200D01*
X229380327Y-83525200D01*
X229153663Y-83639500D01*
X229001087Y-83734686D01*
X228887218Y-83859398D01*
X228785033Y-84037521D01*
X228643067Y-84321241D01*
X228645329Y-85381176D01*
X228647754Y-85699567D01*
X228653236Y-85982973D01*
X228661202Y-86215862D01*
X228671079Y-86382698D01*
X228682294Y-86467949D01*
X228685695Y-86475177D01*
X228744307Y-86485799D01*
X228891494Y-86499244D01*
X229114296Y-86514710D01*
X229399751Y-86531398D01*
X229734900Y-86548506D01*
X230106781Y-86565234D01*
X230217431Y-86569809D01*
X230658635Y-86586979D01*
X231008514Y-86598702D01*
X231277200Y-86604938D01*
X231474822Y-86605646D01*
X231474822Y-86782396D01*
X231312996Y-86764527D01*
X231279293Y-86761939D01*
X231064854Y-86751340D01*
X230929410Y-86758484D01*
X230851561Y-86785519D01*
X230827446Y-86807288D01*
X230801154Y-86874574D01*
X230788313Y-87004843D01*
X230788466Y-87210606D01*
X230801158Y-87504375D01*
X230801710Y-87514359D01*
X230815071Y-87779974D01*
X230819580Y-87960176D01*
X230814145Y-88070854D01*
X230797678Y-88127898D01*
X230769088Y-88147196D01*
X230758258Y-88148000D01*
X230723043Y-88133465D01*
X230699933Y-88078849D01*
X230686576Y-87967641D01*
X230680622Y-87783326D01*
X230679600Y-87595421D01*
X230674362Y-87308034D01*
X230658197Y-87115282D01*
X230630426Y-87010715D01*
X230616100Y-86992281D01*
X230527970Y-86959204D01*
X230376094Y-86933700D01*
X230192545Y-86917521D01*
X230009397Y-86912419D01*
X229858724Y-86920146D01*
X229772601Y-86942455D01*
X229768351Y-86945969D01*
X229744576Y-87019586D01*
X229726630Y-87175220D01*
X229716260Y-87393372D01*
X229714400Y-87548560D01*
X229709907Y-87797524D01*
X229697248Y-87979290D01*
X229677654Y-88080571D01*
X229663600Y-88097200D01*
X229641806Y-88048223D01*
X229625539Y-87908360D01*
X229615622Y-87688217D01*
X229612800Y-87443021D01*
X229609000Y-87136111D01*
X229597078Y-86921826D01*
X229576248Y-86791454D01*
X229549300Y-86738717D01*
X229458256Y-86703500D01*
X229304460Y-86676356D01*
X229120163Y-86659203D01*
X228937615Y-86653961D01*
X228789066Y-86662550D01*
X228706765Y-86686888D01*
X228705047Y-86688473D01*
X228685162Y-86757851D01*
X228669199Y-86910803D01*
X228657118Y-87130131D01*
X228648878Y-87398641D01*
X228644438Y-87699136D01*
X228643758Y-88014419D01*
X228646797Y-88327295D01*
X228653514Y-88620569D01*
X228663870Y-88877042D01*
X228677823Y-89079521D01*
X228695332Y-89210807D01*
X228711100Y-89252477D01*
X228781483Y-89271545D01*
X228934618Y-89291664D01*
X229151697Y-89311036D01*
X229413912Y-89327869D01*
X229587400Y-89336099D01*
X229994793Y-89356145D01*
X230396385Y-89381866D01*
X230771866Y-89411538D01*
X231100931Y-89443436D01*
X231363272Y-89475837D01*
X231498815Y-89498383D01*
X231498815Y-89632684D01*
X231371672Y-89628356D01*
X231220107Y-89631936D01*
X230806600Y-89646600D01*
X230806600Y-90307000D01*
X230801760Y-90608209D01*
X230788790Y-90822306D01*
X230770009Y-90946997D01*
X230747739Y-90979989D01*
X230724301Y-90918988D01*
X230702016Y-90761701D01*
X230683205Y-90505835D01*
X230679600Y-90432491D01*
X230663743Y-90164322D01*
X230643186Y-89983020D01*
X230615480Y-89873875D01*
X230578178Y-89822178D01*
X230578000Y-89822063D01*
X230492231Y-89799787D01*
X230336883Y-89786688D01*
X230143756Y-89785279D01*
X230120800Y-89785972D01*
X229739800Y-89799000D01*
X229725436Y-90370500D01*
X229713250Y-90655377D01*
X229695320Y-90840962D01*
X229674317Y-90929215D01*
X229652911Y-90922098D01*
X229633771Y-90821570D01*
X229619568Y-90629591D01*
X229612973Y-90348121D01*
X229612800Y-90287821D01*
X229609984Y-89997500D01*
X229600575Y-89794231D01*
X229583131Y-89663597D01*
X229556209Y-89591181D01*
X229541415Y-89574397D01*
X229445617Y-89542629D01*
X229264702Y-89528228D01*
X229071515Y-89530077D01*
X228673000Y-89545000D01*
X228673000Y-92135800D01*
X229699291Y-92195256D01*
X230049735Y-92217100D01*
X230400500Y-92241707D01*
X230725855Y-92267074D01*
X231000066Y-92291201D01*
X231190637Y-92311257D01*
X231434236Y-92336655D01*
X231595584Y-92342155D01*
X231595584Y-92509845D01*
X231563148Y-92502922D01*
X231389750Y-92483382D01*
X231140239Y-92466273D01*
X230803680Y-92450469D01*
X230671236Y-92445333D01*
X230328123Y-92431478D01*
X229985227Y-92415729D01*
X229668895Y-92399431D01*
X229405473Y-92383931D01*
X229243450Y-92372437D01*
X229033802Y-92360597D01*
X228857959Y-92360253D01*
X228744100Y-92371095D01*
X228722750Y-92378193D01*
X228688322Y-92446221D01*
X228663354Y-92588926D01*
X228648175Y-92779794D01*
X228643115Y-92992312D01*
X228648501Y-93199969D01*
X228664663Y-93376251D01*
X228691928Y-93494646D01*
X228708560Y-93522640D01*
X228793322Y-93555717D01*
X228957150Y-93577228D01*
X229153060Y-93584160D01*
X229372327Y-93588821D01*
X229579574Y-93600511D01*
X229730190Y-93616706D01*
X229731011Y-93616841D01*
X229925423Y-93648964D01*
X229299211Y-93984617D01*
X228673000Y-94320271D01*
X228658740Y-94973551D01*
X228656725Y-95256657D01*
X228663575Y-95480961D01*
X228678497Y-95631422D01*
X228696466Y-95689470D01*
X228764924Y-95717369D01*
X228923194Y-95741691D01*
X229174832Y-95762798D01*
X229523393Y-95781050D01*
X229650525Y-95786140D01*
X229995346Y-95800870D01*
X230353923Y-95819145D01*
X230693778Y-95839117D01*
X230982427Y-95858934D01*
X231107621Y-95869102D01*
X231389064Y-95889599D01*
X231581230Y-95892879D01*
X231581230Y-96061322D01*
X231502166Y-96054197D01*
X231255222Y-96041009D01*
X230932143Y-96029640D01*
X230541416Y-96020466D01*
X230171600Y-96014789D01*
X228673000Y-95996600D01*
X228658585Y-96573529D01*
X228656800Y-96883243D01*
X228669238Y-97096034D01*
X228695784Y-97210217D01*
X228702905Y-97221229D01*
X228759326Y-97254226D01*
X228873225Y-97276048D01*
X229058924Y-97288269D01*
X229330746Y-97292460D01*
X229352320Y-97292492D01*
X229618750Y-97296078D01*
X229950741Y-97305605D01*
X230312510Y-97319777D01*
X230668274Y-97337300D01*
X230799490Y-97344872D01*
X231142508Y-97363526D01*
X231395737Y-97371976D01*
X231395737Y-97543471D01*
X231228331Y-97523565D01*
X230976662Y-97501734D01*
X230709146Y-97484816D01*
X230447183Y-97474056D01*
X230212175Y-97470703D01*
X230025523Y-97476003D01*
X229908627Y-97491203D01*
X229884288Y-97501766D01*
X229855269Y-97553795D01*
X229835085Y-97662219D01*
X229822628Y-97839716D01*
X229816790Y-98098961D01*
X229816000Y-98283386D01*
X229815856Y-98581768D01*
X229821792Y-98793438D01*
X229843361Y-98933224D01*
X229890114Y-99015954D01*
X229971605Y-99056458D01*
X230097384Y-99069563D01*
X230277004Y-99070097D01*
X230322719Y-99070000D01*
X230526268Y-99063166D01*
X230648614Y-99034237D01*
X230709713Y-98970578D01*
X230729522Y-98859552D01*
X230730400Y-98811846D01*
X230751411Y-98727671D01*
X230798714Y-98725929D01*
X230848710Y-98800545D01*
X230863094Y-98846003D01*
X230869260Y-98997033D01*
X230834747Y-99175777D01*
X230771883Y-99336647D01*
X230706758Y-99424141D01*
X230573619Y-99485034D01*
X230384677Y-99513798D01*
X230181588Y-99507008D01*
X230049962Y-99478170D01*
X229894945Y-99394600D01*
X229752250Y-99266999D01*
X229732378Y-99242586D01*
X229628710Y-99033313D01*
X229575145Y-98755207D01*
X229573351Y-98428748D01*
X229624996Y-98074414D01*
X229633979Y-98034754D01*
X229678886Y-97818523D01*
X229683427Y-97677408D01*
X229634198Y-97597683D01*
X229517796Y-97565621D01*
X229320817Y-97567495D01*
X229186959Y-97576944D01*
X228969912Y-97601806D01*
X228800420Y-97636512D01*
X228704359Y-97675630D01*
X228700271Y-97679114D01*
X228665359Y-97762056D01*
X228637113Y-97925061D01*
X228616212Y-98146767D01*
X228603333Y-98405811D01*
X228599154Y-98680833D01*
X228604353Y-98950471D01*
X228619607Y-99193364D01*
X228645594Y-99388151D01*
X228645981Y-99390145D01*
X228771782Y-99797025D01*
X228975985Y-100150270D01*
X229250314Y-100439448D01*
X229586498Y-100654128D01*
X229681712Y-100695931D01*
X229943000Y-100800924D01*
X229372418Y-100774904D01*
X229135703Y-100766938D01*
X228932144Y-100765323D01*
X228785793Y-100769925D01*
X228724718Y-100778478D01*
X228689483Y-100810617D01*
X228666463Y-100886001D01*
X228653411Y-101021530D01*
X228648079Y-101234108D01*
X228647600Y-101358437D01*
X228651847Y-101585017D01*
X228663344Y-101772186D01*
X228680228Y-101897753D01*
X228696389Y-101938958D01*
X228763976Y-101953474D01*
X228910848Y-101970204D01*
X229114786Y-101986996D01*
X229333656Y-102000648D01*
X229559680Y-102015928D01*
X229738448Y-102034128D01*
X229851788Y-102052951D01*
X229881767Y-102069887D01*
X229823856Y-102106502D01*
X229693931Y-102180036D01*
X229510093Y-102280484D01*
X229290442Y-102397841D01*
X229244500Y-102422097D01*
X228647600Y-102736606D01*
X228647600Y-103419498D01*
X228650491Y-103719551D01*
X228659808Y-103928806D01*
X228676509Y-104057916D01*
X228701558Y-104117537D01*
X228711100Y-104123552D01*
X228776582Y-104131756D01*
X228930018Y-104144424D01*
X229157906Y-104160648D01*
X229446743Y-104179514D01*
X229783024Y-104200114D01*
X230153247Y-104221537D01*
X230215434Y-104225019D01*
X230666496Y-104249027D01*
X231024969Y-104265372D01*
X231299567Y-104274181D01*
X231499004Y-104275579D01*
X231499004Y-104460435D01*
X231313750Y-104437401D01*
X231283920Y-104434678D01*
X231086472Y-104420002D01*
X230946688Y-104425065D01*
X230855744Y-104463738D01*
X230804816Y-104549893D01*
X230785080Y-104697403D01*
X230787712Y-104920139D01*
X230801710Y-105192759D01*
X230815071Y-105458374D01*
X230819580Y-105638576D01*
X230814145Y-105749254D01*
X230797678Y-105806298D01*
X230769088Y-105825596D01*
X230758258Y-105826400D01*
X230723043Y-105811865D01*
X230699933Y-105757249D01*
X230686576Y-105646041D01*
X230680622Y-105461726D01*
X230679600Y-105273821D01*
X230674380Y-104986693D01*
X230658263Y-104794136D01*
X230630563Y-104689635D01*
X230616100Y-104671041D01*
X230520635Y-104632564D01*
X230362857Y-104602730D01*
X230176314Y-104583945D01*
X229994555Y-104578615D01*
X229851130Y-104589145D01*
X229785446Y-104611478D01*
X229750241Y-104672481D01*
X229727896Y-104795102D01*
X229716636Y-104993882D01*
X229714400Y-105194623D01*
X229709721Y-105421598D01*
X229696993Y-105603962D01*
X229678182Y-105720231D01*
X229663600Y-105750200D01*
X229640695Y-105716313D01*
X229624402Y-105585131D01*
X229615054Y-105360768D01*
X229612800Y-105124419D01*
X229609029Y-104816873D01*
X229597194Y-104601928D01*
X229576510Y-104470844D01*
X229549300Y-104417041D01*
X229453835Y-104378564D01*
X229296057Y-104348730D01*
X229109514Y-104329945D01*
X228927755Y-104324615D01*
X228784330Y-104335145D01*
X228718646Y-104357478D01*
X228695561Y-104426064D01*
X228676485Y-104578706D01*
X228661468Y-104798149D01*
X228650562Y-105067142D01*
X228643816Y-105368433D01*
X228641282Y-105684769D01*
X228643009Y-105998897D01*
X228649049Y-106293566D01*
X228659452Y-106551522D01*
X228674269Y-106755514D01*
X228693550Y-106888288D01*
X228711100Y-106930857D01*
X228780635Y-106949072D01*
X228933903Y-106968384D01*
X229153069Y-106987215D01*
X229420301Y-107003987D01*
X229663600Y-107015130D01*
X230006687Y-107030988D01*
X230363932Y-107052078D01*
X230702393Y-107076158D01*
X230989129Y-107100986D01*
X231105440Y-107113283D01*
X231357217Y-107140270D01*
X231527566Y-107151954D01*
X231527566Y-107844955D01*
X231433886Y-107880277D01*
X231297543Y-107965619D01*
X231132310Y-108124991D01*
X230988177Y-108330253D01*
X230962715Y-108378037D01*
X230832000Y-108640349D01*
X230832000Y-110054406D01*
X230832785Y-110506181D01*
X230836518Y-110869016D01*
X230845261Y-111155570D01*
X230861078Y-111378498D01*
X230886034Y-111550460D01*
X230922191Y-111684110D01*
X230971614Y-111792107D01*
X231036365Y-111887108D01*
X231118510Y-111981770D01*
X231152074Y-112017504D01*
X231364125Y-112198762D01*
X231603163Y-112312774D01*
X231893914Y-112368796D01*
X232116331Y-112378485D01*
X232116331Y-112705829D01*
X232095439Y-112704929D01*
X231878313Y-112699205D01*
X231608592Y-112695037D01*
X231279068Y-112692308D01*
X230882535Y-112690900D01*
X230411787Y-112690695D01*
X229859617Y-112691575D01*
X229218819Y-112693423D01*
X228775956Y-112695019D01*
X228775956Y-112404121D01*
X229150571Y-112371153D01*
X229459725Y-112267200D01*
X229715137Y-112087351D01*
X229830665Y-111962128D01*
X229911970Y-111852763D01*
X229976419Y-111739311D01*
X230025787Y-111608948D01*
X230061845Y-111448849D01*
X230086368Y-111246186D01*
X230101127Y-110988136D01*
X230107897Y-110661872D01*
X230108450Y-110254569D01*
X230106541Y-109966600D01*
X230102713Y-109563473D01*
X230098142Y-109248553D01*
X230091763Y-109008447D01*
X230082515Y-108829762D01*
X230069332Y-108699106D01*
X230051153Y-108603086D01*
X230026915Y-108528310D01*
X229995552Y-108461385D01*
X229985551Y-108442600D01*
X229783134Y-108147957D01*
X229536575Y-107939364D01*
X229236377Y-107811446D01*
X228873045Y-107758823D01*
X228774542Y-107756800D01*
X228394274Y-107795864D01*
X228077209Y-107912487D01*
X227825365Y-108105814D01*
X227755799Y-108187757D01*
X227678312Y-108294966D01*
X227617055Y-108399333D01*
X227570120Y-108514159D01*
X227535601Y-108652745D01*
X227511591Y-108828392D01*
X227496183Y-109054401D01*
X227487469Y-109344073D01*
X227483543Y-109710709D01*
X227482545Y-110093600D01*
X227482697Y-110502799D01*
X227484496Y-110823883D01*
X227488818Y-111070338D01*
X227496539Y-111255646D01*
X227508536Y-111393292D01*
X227525686Y-111496758D01*
X227548864Y-111579528D01*
X227578947Y-111655085D01*
X227584910Y-111668400D01*
X227774018Y-111977420D01*
X228031275Y-112213279D01*
X228165000Y-112294474D01*
X228307615Y-112355753D01*
X228471193Y-112389954D01*
X228690235Y-112403265D01*
X228775956Y-112404121D01*
X228775956Y-112695019D01*
X228637824Y-112695517D01*
X225460994Y-112707675D01*
X225460994Y-112328800D01*
X225841416Y-112287346D01*
X226165692Y-112165368D01*
X226428302Y-111966442D01*
X226623726Y-111694147D01*
X226695520Y-111528804D01*
X226717757Y-111413265D01*
X226736103Y-111213782D01*
X226750496Y-110947937D01*
X226760874Y-110633314D01*
X226767174Y-110287496D01*
X226769335Y-109928065D01*
X226767295Y-109572606D01*
X226760991Y-109238702D01*
X226750361Y-108943934D01*
X226735343Y-108705888D01*
X226715876Y-108542145D01*
X226706221Y-108499294D01*
X226602983Y-108287611D01*
X226431181Y-108073461D01*
X226219299Y-107884446D01*
X225995819Y-107748169D01*
X225890720Y-107709012D01*
X225533621Y-107654776D01*
X225449565Y-107661910D01*
X225449565Y-107212373D01*
X225597066Y-107180433D01*
X225831456Y-107111899D01*
X226155179Y-107006063D01*
X226522299Y-106879257D01*
X226862486Y-106760408D01*
X227195536Y-106645410D01*
X227500883Y-106541264D01*
X227757963Y-106454969D01*
X227946213Y-106393523D01*
X227987200Y-106380670D01*
X228176833Y-106318853D01*
X228332004Y-106262199D01*
X228423877Y-106221369D01*
X228431700Y-106216352D01*
X228455573Y-106169024D01*
X228473186Y-106060677D01*
X228485133Y-105881627D01*
X228492012Y-105622192D01*
X228494419Y-105272689D01*
X228494422Y-105197880D01*
X228492303Y-104891431D01*
X228486870Y-104618527D01*
X228478744Y-104395980D01*
X228468548Y-104240602D01*
X228456904Y-104169205D01*
X228456322Y-104168182D01*
X228396589Y-104125961D01*
X228263437Y-104056175D01*
X228077708Y-103969171D01*
X227898396Y-103891226D01*
X227694222Y-103801308D01*
X227534649Y-103723199D01*
X227436878Y-103665867D01*
X227415796Y-103639564D01*
X227479199Y-103612255D01*
X227616035Y-103567302D01*
X227801415Y-103512665D01*
X227885600Y-103489333D01*
X228087001Y-103436959D01*
X228238992Y-103394715D01*
X228348283Y-103348493D01*
X228421584Y-103284187D01*
X228465605Y-103187692D01*
X228487056Y-103044900D01*
X228492647Y-102841706D01*
X228489088Y-102564003D01*
X228483523Y-102232327D01*
X228469800Y-101182925D01*
X228291533Y-101086274D01*
X228291533Y-99636136D01*
X228352078Y-99632019D01*
X228399338Y-99605096D01*
X228434939Y-99546465D01*
X228460509Y-99447226D01*
X228477675Y-99298476D01*
X228488065Y-99091313D01*
X228493305Y-98816838D01*
X228495023Y-98466148D01*
X228494846Y-98030342D01*
X228494422Y-97585695D01*
X228493253Y-97143576D01*
X228490253Y-96732257D01*
X228485646Y-96363054D01*
X228479658Y-96047283D01*
X228472516Y-95796261D01*
X228464445Y-95621304D01*
X228455670Y-95533727D01*
X228453334Y-95526718D01*
X228378001Y-95489405D01*
X228370660Y-95488227D01*
X228370660Y-95090952D01*
X228425295Y-95086814D01*
X228452270Y-95056219D01*
X228471690Y-94979758D01*
X228484595Y-94844618D01*
X228492022Y-94637985D01*
X228495010Y-94347048D01*
X228495200Y-94224350D01*
X228493391Y-93938296D01*
X228488390Y-93684316D01*
X228480837Y-93481394D01*
X228471371Y-93348516D01*
X228464364Y-93308355D01*
X228423031Y-93263779D01*
X228328116Y-93237716D01*
X228159639Y-93225896D01*
X228070664Y-93224235D01*
X227848905Y-93217211D01*
X227632447Y-93202660D01*
X227486004Y-93186135D01*
X227264209Y-93151800D01*
X227879704Y-92830622D01*
X228495200Y-92509443D01*
X228495200Y-91604942D01*
X228493636Y-91265743D01*
X228488284Y-91014920D01*
X228478146Y-90839287D01*
X228462230Y-90725657D01*
X228439538Y-90660845D01*
X228422387Y-90640012D01*
X228375559Y-90624196D01*
X228344103Y-90631958D01*
X228344103Y-90273693D01*
X228431623Y-90245079D01*
X228449238Y-90224711D01*
X228464275Y-90151707D01*
X228476483Y-89999034D01*
X228485666Y-89788590D01*
X228491629Y-89542273D01*
X228494175Y-89281979D01*
X228493110Y-89029606D01*
X228488237Y-88807052D01*
X228479360Y-88636213D01*
X228466283Y-88538988D01*
X228464364Y-88533155D01*
X228437467Y-88500106D01*
X228376007Y-88477328D01*
X228264196Y-88463047D01*
X228086244Y-88455491D01*
X227826361Y-88452886D01*
X227748931Y-88452800D01*
X227500299Y-88450094D01*
X227294537Y-88442674D01*
X227149563Y-88431587D01*
X227083295Y-88417882D01*
X227081266Y-88413760D01*
X227121875Y-88368076D01*
X227224714Y-88264367D01*
X227377983Y-88114195D01*
X227569881Y-87929117D01*
X227788606Y-87720695D01*
X227794341Y-87715260D01*
X228490483Y-87055800D01*
X228492064Y-86116000D01*
X228490628Y-85815026D01*
X228485680Y-85548039D01*
X228477833Y-85332090D01*
X228467700Y-85184225D01*
X228456322Y-85122053D01*
X228396171Y-85101571D01*
X228291533Y-85083337D01*
X228291533Y-84599336D01*
X228352078Y-84595219D01*
X228399338Y-84568296D01*
X228434939Y-84509665D01*
X228460509Y-84410426D01*
X228477675Y-84261676D01*
X228488065Y-84054513D01*
X228493305Y-83780038D01*
X228495023Y-83429348D01*
X228494846Y-82993542D01*
X228494422Y-82548895D01*
X228493208Y-82106634D01*
X228490079Y-81695050D01*
X228485270Y-81325481D01*
X228479017Y-81009265D01*
X228471556Y-80757741D01*
X228463122Y-80582246D01*
X228453952Y-80494119D01*
X228451523Y-80486986D01*
X228378993Y-80449956D01*
X228378993Y-80054372D01*
X228425143Y-80050073D01*
X228452162Y-80019613D01*
X228471613Y-79943574D01*
X228484541Y-79809105D01*
X228491989Y-79603356D01*
X228495000Y-79313476D01*
X228495200Y-79187550D01*
X228493391Y-78901496D01*
X228488390Y-78647516D01*
X228480837Y-78444594D01*
X228471371Y-78311716D01*
X228464364Y-78271555D01*
X228420206Y-78225215D01*
X228318745Y-78198744D01*
X228139953Y-78187530D01*
X228096064Y-78186750D01*
X227871786Y-78178845D01*
X227645204Y-78163084D01*
X227511170Y-78148650D01*
X227263741Y-78115000D01*
X227879470Y-77793822D01*
X228495200Y-77472643D01*
X228495200Y-76568142D01*
X228493636Y-76228943D01*
X228488284Y-75978120D01*
X228478146Y-75802487D01*
X228462230Y-75688857D01*
X228439538Y-75624045D01*
X228422387Y-75603212D01*
X228375559Y-75587396D01*
X228299864Y-75606076D01*
X228181204Y-75666087D01*
X228005480Y-75774263D01*
X227825487Y-75892634D01*
X227619265Y-76029935D01*
X227440930Y-76147996D01*
X227309071Y-76234559D01*
X227242274Y-76277362D01*
X227241183Y-76278012D01*
X227185130Y-76255346D01*
X227106944Y-76137519D01*
X227043132Y-76006402D01*
X226941739Y-75817218D01*
X226821241Y-75643855D01*
X226733281Y-75548233D01*
X226617452Y-75459473D01*
X226503466Y-75414033D01*
X226348733Y-75398261D01*
X226262129Y-75397200D01*
X226072215Y-75405804D01*
X225941493Y-75439688D01*
X225828412Y-75510963D01*
X225804470Y-75530591D01*
X225671936Y-75670609D01*
X225561222Y-75833216D01*
X225553469Y-75848091D01*
X225490862Y-75982158D01*
X225440453Y-76117493D01*
X225401009Y-76266607D01*
X225371299Y-76442008D01*
X225350089Y-76656205D01*
X225336149Y-76921708D01*
X225328246Y-77251026D01*
X225325149Y-77656667D01*
X225325625Y-78151143D01*
X225325659Y-78161188D01*
X225327706Y-78607071D01*
X225330790Y-78962062D01*
X225335490Y-79236869D01*
X225342386Y-79442197D01*
X225352056Y-79588753D01*
X225365078Y-79687245D01*
X225382032Y-79748380D01*
X225403496Y-79782864D01*
X225413809Y-79791840D01*
X225499996Y-79817775D01*
X225680027Y-79841454D01*
X225946156Y-79862160D01*
X226290639Y-79879174D01*
X226398950Y-79883141D01*
X226740723Y-79898692D01*
X227093230Y-79921424D01*
X227424997Y-79948863D01*
X227704552Y-79978536D01*
X227828243Y-79995466D01*
X228053693Y-80026902D01*
X228245441Y-80047284D01*
X228378993Y-80054372D01*
X228378993Y-80449956D01*
X228370485Y-80445612D01*
X228190557Y-80419635D01*
X228007800Y-80410786D01*
X227606200Y-80401000D01*
X227592499Y-81509303D01*
X227578799Y-82617605D01*
X227465499Y-82601503D01*
X227425149Y-82592551D01*
X227395244Y-82569471D01*
X227373687Y-82518196D01*
X227358380Y-82424662D01*
X227347226Y-82274801D01*
X227338128Y-82054549D01*
X227328987Y-81749839D01*
X227326800Y-81671426D01*
X227301400Y-80757452D01*
X227149000Y-80724936D01*
X226961283Y-80696893D01*
X226771185Y-80687662D01*
X226608623Y-80696584D01*
X226503510Y-80723000D01*
X226483413Y-80739593D01*
X226471756Y-80808264D01*
X226463044Y-80960049D01*
X226457803Y-81176490D01*
X226456555Y-81439129D01*
X226458171Y-81628593D01*
X226469512Y-82458400D01*
X226209200Y-82458400D01*
X226209200Y-80322286D01*
X226078892Y-80272743D01*
X225948001Y-80242091D01*
X225779143Y-80226707D01*
X225605380Y-80226383D01*
X225459772Y-80240907D01*
X225375380Y-80270068D01*
X225368980Y-80277268D01*
X225359678Y-80341752D01*
X225351967Y-80493460D01*
X225345810Y-80718845D01*
X225341173Y-81004365D01*
X225338019Y-81336475D01*
X225336312Y-81701631D01*
X225336016Y-82086288D01*
X225337096Y-82476901D01*
X225339514Y-82859927D01*
X225343235Y-83221821D01*
X225348223Y-83549039D01*
X225354442Y-83828037D01*
X225361855Y-84045270D01*
X225370428Y-84187194D01*
X225379518Y-84239839D01*
X225443501Y-84259123D01*
X225589618Y-84282345D01*
X225798604Y-84307048D01*
X226051196Y-84330771D01*
X226159235Y-84339368D01*
X226478932Y-84366291D01*
X226816042Y-84399322D01*
X227131893Y-84434409D01*
X227387816Y-84467499D01*
X227403000Y-84469711D01*
X227646410Y-84505427D01*
X227876894Y-84539056D01*
X228059666Y-84565532D01*
X228124077Y-84574757D01*
X228216075Y-84589548D01*
X228291533Y-84599336D01*
X228291533Y-85083337D01*
X228249402Y-85075994D01*
X228030756Y-85047212D01*
X227754973Y-85017114D01*
X227436795Y-84987591D01*
X227352200Y-84980509D01*
X227000714Y-84950743D01*
X226653490Y-84919594D01*
X226334243Y-84889317D01*
X226066690Y-84862167D01*
X225874545Y-84840400D01*
X225861542Y-84838754D01*
X225608172Y-84813292D01*
X225449365Y-84814309D01*
X225386151Y-84835929D01*
X225369508Y-84901227D01*
X225355805Y-85046946D01*
X225345256Y-85251940D01*
X225338076Y-85495068D01*
X225334482Y-85755186D01*
X225334687Y-86011151D01*
X225338908Y-86241818D01*
X225347360Y-86426045D01*
X225360257Y-86542688D01*
X225368506Y-86569165D01*
X225432668Y-86596942D01*
X225569827Y-86618672D01*
X225751394Y-86629975D01*
X225767698Y-86630310D01*
X226020041Y-86638790D01*
X226295015Y-86654199D01*
X226477923Y-86668410D01*
X226822846Y-86700200D01*
X226084223Y-87379409D01*
X225856883Y-87592364D01*
X225657612Y-87786484D01*
X225497939Y-87949919D01*
X225389393Y-88070824D01*
X225343501Y-88137351D01*
X225342737Y-88141409D01*
X225338135Y-88344011D01*
X225336124Y-88592779D01*
X225336431Y-88868651D01*
X225338785Y-89152565D01*
X225342913Y-89425460D01*
X225348546Y-89668274D01*
X225355410Y-89861945D01*
X225363234Y-89987411D01*
X225369586Y-90025313D01*
X225434625Y-90054279D01*
X225568233Y-90073565D01*
X225691498Y-90078411D01*
X225841728Y-90082705D01*
X226071820Y-90094530D01*
X226360445Y-90112306D01*
X226686275Y-90134455D01*
X227027980Y-90159397D01*
X227364232Y-90185554D01*
X227673701Y-90211346D01*
X227935059Y-90235196D01*
X228126978Y-90255525D01*
X228183316Y-90262859D01*
X228344103Y-90273693D01*
X228344103Y-90631958D01*
X228299864Y-90642876D01*
X228181204Y-90702887D01*
X228005480Y-90811063D01*
X227825487Y-90929434D01*
X227619265Y-91066735D01*
X227440930Y-91184796D01*
X227309071Y-91271359D01*
X227242274Y-91314162D01*
X227241183Y-91314812D01*
X227185130Y-91292146D01*
X227106944Y-91174319D01*
X227043132Y-91043202D01*
X226941739Y-90854018D01*
X226821241Y-90680655D01*
X226733281Y-90585033D01*
X226617452Y-90496273D01*
X226503466Y-90450833D01*
X226348733Y-90435061D01*
X226262129Y-90434000D01*
X226072123Y-90442622D01*
X225941352Y-90476539D01*
X225828317Y-90547825D01*
X225804873Y-90567052D01*
X225650892Y-90729434D01*
X225527383Y-90940449D01*
X225420343Y-91224837D01*
X225405789Y-91272200D01*
X225382845Y-91369411D01*
X225364532Y-91499433D01*
X225350353Y-91673502D01*
X225339809Y-91902854D01*
X225332401Y-92198724D01*
X225327631Y-92572349D01*
X225325000Y-93034964D01*
X225324802Y-93097640D01*
X225325142Y-93575949D01*
X225329035Y-93983727D01*
X225336297Y-94314460D01*
X225346741Y-94561635D01*
X225360184Y-94718737D01*
X225372368Y-94774040D01*
X225397036Y-94811729D01*
X225437962Y-94840067D01*
X225509744Y-94861149D01*
X225626978Y-94877072D01*
X225804260Y-94889931D01*
X226056189Y-94901823D01*
X226337568Y-94912650D01*
X226683407Y-94929235D01*
X227042204Y-94953054D01*
X227381993Y-94981548D01*
X227670808Y-95012159D01*
X227802995Y-95029969D01*
X228033756Y-95061668D01*
X228230896Y-95082719D01*
X228370660Y-95090952D01*
X228370660Y-95488227D01*
X228213384Y-95462976D01*
X228009612Y-95450518D01*
X227606200Y-95437800D01*
X227592499Y-96546103D01*
X227578799Y-97654405D01*
X227465499Y-97638303D01*
X227425149Y-97629351D01*
X227395244Y-97606271D01*
X227373687Y-97554996D01*
X227358380Y-97461462D01*
X227347226Y-97311601D01*
X227338128Y-97091349D01*
X227328987Y-96786639D01*
X227326800Y-96708226D01*
X227301400Y-95794252D01*
X227149000Y-95761736D01*
X226961283Y-95733693D01*
X226771185Y-95724462D01*
X226608623Y-95733384D01*
X226503510Y-95759800D01*
X226483413Y-95776393D01*
X226471756Y-95845064D01*
X226463044Y-95996849D01*
X226457803Y-96213290D01*
X226456555Y-96475929D01*
X226458171Y-96665393D01*
X226469512Y-97495200D01*
X226209200Y-97495200D01*
X226209200Y-95359086D01*
X226078892Y-95309543D01*
X225948001Y-95278891D01*
X225779143Y-95263507D01*
X225605380Y-95263183D01*
X225459772Y-95277707D01*
X225375380Y-95306868D01*
X225368980Y-95314068D01*
X225359678Y-95378552D01*
X225351967Y-95530260D01*
X225345810Y-95755645D01*
X225341173Y-96041165D01*
X225338019Y-96373275D01*
X225336312Y-96738431D01*
X225336016Y-97123088D01*
X225337096Y-97513701D01*
X225339514Y-97896727D01*
X225343235Y-98258621D01*
X225348223Y-98585839D01*
X225354442Y-98864837D01*
X225361855Y-99082070D01*
X225370428Y-99223994D01*
X225379518Y-99276639D01*
X225443501Y-99295923D01*
X225589618Y-99319145D01*
X225798604Y-99343848D01*
X226051196Y-99367571D01*
X226159235Y-99376168D01*
X226478932Y-99403091D01*
X226816042Y-99436122D01*
X227131893Y-99471209D01*
X227387816Y-99504299D01*
X227403000Y-99506511D01*
X227646410Y-99542227D01*
X227876894Y-99575856D01*
X228059666Y-99602332D01*
X228124077Y-99611557D01*
X228216075Y-99626348D01*
X228291533Y-99636136D01*
X228291533Y-101086274D01*
X226996600Y-100384200D01*
X226640780Y-100192206D01*
X226312003Y-100016566D01*
X226021263Y-99863018D01*
X225779558Y-99737299D01*
X225597881Y-99645145D01*
X225487229Y-99592294D01*
X225458642Y-99581737D01*
X225394622Y-99621028D01*
X225356293Y-99692300D01*
X225345425Y-99775780D01*
X225336881Y-99938811D01*
X225330879Y-100159364D01*
X225327635Y-100415413D01*
X225327368Y-100684929D01*
X225330292Y-100945885D01*
X225336626Y-101176254D01*
X225340792Y-101266761D01*
X225381460Y-101324248D01*
X225501743Y-101410844D01*
X225706198Y-101529377D01*
X225999387Y-101682670D01*
X226066550Y-101716485D01*
X226365449Y-101870237D01*
X226572666Y-101986258D01*
X226690321Y-102065857D01*
X226720532Y-102110343D01*
X226714250Y-102116359D01*
X226638194Y-102142051D01*
X226484966Y-102183527D01*
X226276697Y-102235093D01*
X226035519Y-102291058D01*
X226031400Y-102291983D01*
X225793399Y-102347985D01*
X225591529Y-102400268D01*
X225446612Y-102443108D01*
X225379473Y-102470777D01*
X225378743Y-102471444D01*
X225363866Y-102535155D01*
X225352213Y-102680465D01*
X225343785Y-102887524D01*
X225338582Y-103136484D01*
X225336603Y-103407496D01*
X225337849Y-103680712D01*
X225342320Y-103936283D01*
X225350016Y-104154360D01*
X225360936Y-104315094D01*
X225375081Y-104398636D01*
X225378743Y-104404801D01*
X225440131Y-104437143D01*
X225577782Y-104496603D01*
X225772585Y-104575291D01*
X226005425Y-104665317D01*
X226056800Y-104684712D01*
X226294615Y-104775617D01*
X226497919Y-104856157D01*
X226647775Y-104918621D01*
X226725246Y-104955300D01*
X226730575Y-104959032D01*
X226699194Y-104986160D01*
X226586647Y-105036639D01*
X226408938Y-105104154D01*
X226182074Y-105182391D01*
X226080907Y-105215351D01*
X225831948Y-105297681D01*
X225618888Y-105372890D01*
X225459964Y-105434176D01*
X225373415Y-105474738D01*
X225363540Y-105482871D01*
X225349378Y-105555908D01*
X225339815Y-105707351D01*
X225334570Y-105916055D01*
X225333361Y-106160878D01*
X225335908Y-106420677D01*
X225341928Y-106674310D01*
X225351141Y-106900632D01*
X225363264Y-107078501D01*
X225378017Y-107186774D01*
X225386507Y-107208428D01*
X225449565Y-107212373D01*
X225449565Y-107661910D01*
X225181268Y-107684683D01*
X224853522Y-107792455D01*
X224570245Y-107971815D01*
X224369353Y-108189802D01*
X224294493Y-108313575D01*
X224235715Y-108454679D01*
X224191546Y-108625714D01*
X224160517Y-108839278D01*
X224141155Y-109107971D01*
X224131990Y-109444392D01*
X224131550Y-109861141D01*
X224135429Y-110193185D01*
X224143812Y-110625666D01*
X224156509Y-110970348D01*
X224176722Y-111241026D01*
X224207650Y-111451493D01*
X224252495Y-111615546D01*
X224314457Y-111746977D01*
X224396737Y-111859583D01*
X224502535Y-111967158D01*
X224558732Y-112017655D01*
X224769272Y-112176675D01*
X224981772Y-112273403D01*
X225230945Y-112319813D01*
X225460994Y-112328800D01*
X225460994Y-112707675D01*
X224905744Y-112709800D01*
X224657114Y-112863543D01*
X224401589Y-113074667D01*
X224220038Y-113335297D01*
X224114808Y-113627511D01*
X224088244Y-113933384D01*
X224142693Y-114234993D01*
X224280500Y-114514415D01*
X224419474Y-114679162D01*
X224482336Y-114741605D01*
X224538825Y-114795963D01*
X224596061Y-114842795D01*
X224661165Y-114882661D01*
X224741256Y-114916119D01*
X224843454Y-114943730D01*
X224974881Y-114966051D01*
X225142656Y-114983642D01*
X225353899Y-114997063D01*
X225615731Y-115006872D01*
X225935272Y-115013630D01*
X226319642Y-115017894D01*
X226775962Y-115020225D01*
X227311350Y-115021180D01*
X227932929Y-115021321D01*
X227932929Y-115441873D01*
X227340163Y-115444498D01*
X226813349Y-115447389D01*
X226366700Y-115450649D01*
X225993070Y-115454477D01*
X225685314Y-115459070D01*
X225436287Y-115464627D01*
X225238845Y-115471346D01*
X225085841Y-115479424D01*
X224970131Y-115489059D01*
X224884570Y-115500450D01*
X224822013Y-115513795D01*
X224775314Y-115529291D01*
X224737329Y-115547136D01*
X224736000Y-115547843D01*
X224474268Y-115723283D01*
X224286421Y-115938933D01*
X224220251Y-116053375D01*
X224111135Y-116367202D01*
X224090634Y-116691841D01*
X224155616Y-117005770D01*
X224302948Y-117287471D01*
X224419474Y-117422362D01*
X224482336Y-117484805D01*
X224538825Y-117539163D01*
X224596061Y-117585995D01*
X224661165Y-117625861D01*
X224741256Y-117659319D01*
X224843454Y-117686930D01*
X224974881Y-117709251D01*
X225142656Y-117726842D01*
X225353899Y-117740263D01*
X225615731Y-117750072D01*
X225935272Y-117756830D01*
X226319642Y-117761094D01*
X226775962Y-117763425D01*
X227311350Y-117764380D01*
X227932929Y-117764521D01*
X227932929Y-118178757D01*
X227509985Y-118177568D01*
X226974222Y-118176736D01*
X226518754Y-118176943D01*
X226136481Y-118178313D01*
X225820300Y-118180965D01*
X225563111Y-118185022D01*
X225357814Y-118190604D01*
X225197307Y-118197834D01*
X225074490Y-118206833D01*
X224982260Y-118217722D01*
X224913519Y-118230623D01*
X224861164Y-118245657D01*
X224848293Y-118250334D01*
X224553879Y-118411136D01*
X224327157Y-118634009D01*
X224172458Y-118902220D01*
X224094110Y-119199031D01*
X224096443Y-119507709D01*
X224183787Y-119811517D01*
X224360470Y-120093720D01*
X224368857Y-120103621D01*
X224429717Y-120176569D01*
X224483712Y-120240133D01*
X224537889Y-120294958D01*
X224599299Y-120341690D01*
X224674987Y-120380975D01*
X224772003Y-120413460D01*
X224897394Y-120439791D01*
X225058209Y-120460614D01*
X225261496Y-120476574D01*
X225514303Y-120488318D01*
X225823679Y-120496493D01*
X226196671Y-120501744D01*
X226640327Y-120504717D01*
X227161696Y-120506058D01*
X227767826Y-120506414D01*
X228465765Y-120506431D01*
X228763531Y-120506485D01*
X228763531Y-121269600D01*
X223923200Y-121269600D01*
X223923200Y-74330400D01*
X233676800Y-74330400D01*
D12*
X252790000Y-83820000D02*
X252790000Y-85150000D01*
X252790000Y-85150000D02*
X251460000Y-85150000D01*
X250190000Y-85150000D02*
X247590000Y-85150000D01*
X247590000Y-82490000D02*
X247590000Y-85150000D01*
X250190000Y-82490000D02*
X247590000Y-82490000D01*
X250190000Y-82490000D02*
X250190000Y-85150000D01*
X215570000Y-82170000D02*
X216900000Y-82170000D01*
X215570000Y-83500000D02*
X215570000Y-82170000D01*
X215570000Y-84770000D02*
X218230000Y-84770000D01*
X218230000Y-84770000D02*
X218230000Y-120390000D01*
X215570000Y-84770000D02*
X215570000Y-120390000D01*
X215570000Y-120390000D02*
X218230000Y-120390000D01*
X191270000Y-82170000D02*
X192600000Y-82170000D01*
X191270000Y-83500000D02*
X191270000Y-82170000D01*
X191270000Y-84770000D02*
X193930000Y-84770000D01*
X193930000Y-84770000D02*
X193930000Y-120390000D01*
X191270000Y-84770000D02*
X191270000Y-120390000D01*
X191270000Y-120390000D02*
X193930000Y-120390000D01*
X161780000Y-124720000D02*
X161780000Y-122480000D01*
X169020000Y-124720000D02*
X169020000Y-122480000D01*
X169020000Y-122480000D02*
X161780000Y-122480000D01*
X169020000Y-124720000D02*
X161780000Y-124720000D01*
X115510000Y-120770000D02*
X125790000Y-120770000D01*
X115510000Y-102750000D02*
X115510000Y-120770000D01*
X125790000Y-102750000D02*
X115510000Y-102750000D01*
X125790000Y-120770000D02*
X125790000Y-102750000D01*
X118000000Y-120710000D02*
X119650000Y-120710000D01*
X118000000Y-102810000D02*
X118000000Y-120710000D01*
X123300000Y-102810000D02*
X118000000Y-102810000D01*
X123300000Y-120710000D02*
X123300000Y-102810000D01*
X121650000Y-120710000D02*
X123300000Y-120710000D01*
X119650000Y-120710000D02*
G75*
G02X121650000Y-120710000I1000000J0D01*
G01*
X242256000Y-76768000D02*
X242256000Y-75438000D01*
X243586000Y-76768000D02*
X242256000Y-76768000D01*
X244856000Y-76768000D02*
X244856000Y-74108000D01*
X244856000Y-74108000D02*
X252536000Y-74108000D01*
X244856000Y-76768000D02*
X252536000Y-76768000D01*
X252536000Y-76768000D02*
X252536000Y-74108000D01*
X169140000Y-121180000D02*
X169140000Y-103280000D01*
X133340000Y-121180000D02*
X169140000Y-121180000D01*
X133340000Y-103280000D02*
X133340000Y-121180000D01*
X169140000Y-103280000D02*
X133340000Y-103280000D01*
X169080000Y-118690000D02*
X169080000Y-113230000D01*
X133400000Y-118690000D02*
X169080000Y-118690000D01*
X133400000Y-105770000D02*
X133400000Y-118690000D01*
X169080000Y-105770000D02*
X133400000Y-105770000D01*
X169080000Y-111230000D02*
X169080000Y-105770000D01*
X169080000Y-113230000D02*
G75*
G02X169080000Y-111230000I0J1000000D01*
G01*
X153680000Y-97430000D02*
X153680000Y-79530000D01*
X117880000Y-97430000D02*
X153680000Y-97430000D01*
X117880000Y-79530000D02*
X117880000Y-97430000D01*
X153680000Y-79530000D02*
X117880000Y-79530000D01*
X153620000Y-94940000D02*
X153620000Y-89480000D01*
X117940000Y-94940000D02*
X153620000Y-94940000D01*
X117940000Y-82020000D02*
X117940000Y-94940000D01*
X153620000Y-82020000D02*
X117940000Y-82020000D01*
X153620000Y-87480000D02*
X153620000Y-82020000D01*
X153620000Y-89480000D02*
G75*
G02X153620000Y-87480000I0J1000000D01*
G01*
X124120000Y-121880000D02*
X124120000Y-124120000D01*
X116880000Y-121880000D02*
X116880000Y-124120000D01*
X116880000Y-124120000D02*
X124120000Y-124120000D01*
X116880000Y-121880000D02*
X124120000Y-121880000D01*
X153620000Y-76180000D02*
X153620000Y-78420000D01*
X146380000Y-76180000D02*
X146380000Y-78420000D01*
X146380000Y-78420000D02*
X153620000Y-78420000D01*
X146380000Y-76180000D02*
X153620000Y-76180000D01*
X124920000Y-98580000D02*
X124920000Y-100820000D01*
X117680000Y-98580000D02*
X117680000Y-100820000D01*
X117680000Y-100820000D02*
X124920000Y-100820000D01*
X117680000Y-98580000D02*
X124920000Y-98580000D01*
X111450000Y-83450000D02*
G75*
G03X115150000Y-83450000I1850000J0D01*
G01*
X111450000Y-78750000D02*
G75*
G02X115150000Y-78750000I1850000J0D01*
G01*
X111450000Y-78750000D02*
X111450000Y-83450000D01*
X115150000Y-78750000D02*
X115150000Y-83450000D01*
D10*
X247650000Y-129540000D02*
X247650000Y-138430000D01*
X181610000Y-138430000D02*
X181610000Y-129540000D01*
X182880000Y-139700000D02*
X181610000Y-138430000D01*
X246380000Y-139700000D02*
X182880000Y-139700000D01*
X247650000Y-138430000D02*
X246380000Y-139700000D01*
X253682380Y-84153333D02*
X254396666Y-84153333D01*
X254539523Y-84200952D01*
X254634761Y-84296190D01*
X254682380Y-84439047D01*
X254682380Y-84534285D01*
X253682380Y-83772380D02*
X253682380Y-83153333D01*
X254063333Y-83486666D01*
X254063333Y-83343809D01*
X254110952Y-83248571D01*
X254158571Y-83200952D01*
X254253809Y-83153333D01*
X254491904Y-83153333D01*
X254587142Y-83200952D01*
X254634761Y-83248571D01*
X254682380Y-83343809D01*
X254682380Y-83629523D01*
X254634761Y-83724761D01*
X254587142Y-83772380D01*
X246133333Y-81452380D02*
X246133333Y-80452380D01*
X247180952Y-81452380D02*
X246847619Y-80976190D01*
X246609523Y-81452380D02*
X246609523Y-80452380D01*
X246990476Y-80452380D01*
X247085714Y-80500000D01*
X247133333Y-80547619D01*
X247180952Y-80642857D01*
X247180952Y-80785714D01*
X247133333Y-80880952D01*
X247085714Y-80928571D01*
X246990476Y-80976190D01*
X246609523Y-80976190D01*
X248276190Y-81547619D02*
X248180952Y-81500000D01*
X248085714Y-81404761D01*
X247942857Y-81261904D01*
X247847619Y-81214285D01*
X247752380Y-81214285D01*
X247800000Y-81452380D02*
X247704761Y-81404761D01*
X247609523Y-81309523D01*
X247561904Y-81119047D01*
X247561904Y-80785714D01*
X247609523Y-80595238D01*
X247704761Y-80500000D01*
X247800000Y-80452380D01*
X247990476Y-80452380D01*
X248085714Y-80500000D01*
X248180952Y-80595238D01*
X248228571Y-80785714D01*
X248228571Y-81119047D01*
X248180952Y-81309523D01*
X248085714Y-81404761D01*
X247990476Y-81452380D01*
X247800000Y-81452380D01*
X249419047Y-80928571D02*
X249752380Y-80928571D01*
X249895238Y-81452380D02*
X249419047Y-81452380D01*
X249419047Y-80452380D01*
X249895238Y-80452380D01*
X250323809Y-81452380D02*
X250323809Y-80452380D01*
X250895238Y-81452380D01*
X250895238Y-80452380D01*
X251323809Y-81166666D02*
X251800000Y-81166666D01*
X251228571Y-81452380D02*
X251561904Y-80452380D01*
X251895238Y-81452380D01*
X252561904Y-80928571D02*
X252704761Y-80976190D01*
X252752380Y-81023809D01*
X252800000Y-81119047D01*
X252800000Y-81261904D01*
X252752380Y-81357142D01*
X252704761Y-81404761D01*
X252609523Y-81452380D01*
X252228571Y-81452380D01*
X252228571Y-80452380D01*
X252561904Y-80452380D01*
X252657142Y-80500000D01*
X252704761Y-80547619D01*
X252752380Y-80642857D01*
X252752380Y-80738095D01*
X252704761Y-80833333D01*
X252657142Y-80880952D01*
X252561904Y-80928571D01*
X252228571Y-80928571D01*
X253704761Y-81452380D02*
X253228571Y-81452380D01*
X253228571Y-80452380D01*
X254038095Y-80928571D02*
X254371428Y-80928571D01*
X254514285Y-81452380D02*
X254038095Y-81452380D01*
X254038095Y-80452380D01*
X254514285Y-80452380D01*
X216566666Y-80622380D02*
X216566666Y-81336666D01*
X216519047Y-81479523D01*
X216423809Y-81574761D01*
X216280952Y-81622380D01*
X216185714Y-81622380D01*
X217471428Y-80955714D02*
X217471428Y-81622380D01*
X217233333Y-80574761D02*
X216995238Y-81289047D01*
X217614285Y-81289047D01*
X192266666Y-80622380D02*
X192266666Y-81336666D01*
X192219047Y-81479523D01*
X192123809Y-81574761D01*
X191980952Y-81622380D01*
X191885714Y-81622380D01*
X193266666Y-81622380D02*
X192695238Y-81622380D01*
X192980952Y-81622380D02*
X192980952Y-80622380D01*
X192885714Y-80765238D01*
X192790476Y-80860476D01*
X192695238Y-80908095D01*
X165133333Y-124057142D02*
X165085714Y-124104761D01*
X164942857Y-124152380D01*
X164847619Y-124152380D01*
X164704761Y-124104761D01*
X164609523Y-124009523D01*
X164561904Y-123914285D01*
X164514285Y-123723809D01*
X164514285Y-123580952D01*
X164561904Y-123390476D01*
X164609523Y-123295238D01*
X164704761Y-123200000D01*
X164847619Y-123152380D01*
X164942857Y-123152380D01*
X165085714Y-123200000D01*
X165133333Y-123247619D01*
X166085714Y-124152380D02*
X165514285Y-124152380D01*
X165800000Y-124152380D02*
X165800000Y-123152380D01*
X165704761Y-123295238D01*
X165609523Y-123390476D01*
X165514285Y-123438095D01*
X120238095Y-107352380D02*
X120238095Y-108161904D01*
X120285714Y-108257142D01*
X120333333Y-108304761D01*
X120428571Y-108352380D01*
X120619047Y-108352380D01*
X120714285Y-108304761D01*
X120761904Y-108257142D01*
X120809523Y-108161904D01*
X120809523Y-107352380D01*
X121190476Y-107352380D02*
X121809523Y-107352380D01*
X121476190Y-107733333D01*
X121619047Y-107733333D01*
X121714285Y-107780952D01*
X121761904Y-107828571D01*
X121809523Y-107923809D01*
X121809523Y-108161904D01*
X121761904Y-108257142D01*
X121714285Y-108304761D01*
X121619047Y-108352380D01*
X121333333Y-108352380D01*
X121238095Y-108304761D01*
X121190476Y-108257142D01*
X120352380Y-115642857D02*
X120352380Y-114976190D01*
X121352380Y-115404761D01*
X120685714Y-114166666D02*
X121352380Y-114166666D01*
X120304761Y-114404761D02*
X121019047Y-114642857D01*
X121019047Y-114023809D01*
X121352380Y-113166666D02*
X121352380Y-113642857D01*
X120352380Y-113642857D01*
X121304761Y-112880952D02*
X121352380Y-112738095D01*
X121352380Y-112500000D01*
X121304761Y-112404761D01*
X121257142Y-112357142D01*
X121161904Y-112309523D01*
X121066666Y-112309523D01*
X120971428Y-112357142D01*
X120923809Y-112404761D01*
X120876190Y-112500000D01*
X120828571Y-112690476D01*
X120780952Y-112785714D01*
X120733333Y-112833333D01*
X120638095Y-112880952D01*
X120542857Y-112880952D01*
X120447619Y-112833333D01*
X120400000Y-112785714D01*
X120352380Y-112690476D01*
X120352380Y-112452380D01*
X120400000Y-112309523D01*
X120352380Y-111690476D02*
X120352380Y-111595238D01*
X120400000Y-111500000D01*
X120447619Y-111452380D01*
X120542857Y-111404761D01*
X120733333Y-111357142D01*
X120971428Y-111357142D01*
X121161904Y-111404761D01*
X121257142Y-111452380D01*
X121304761Y-111500000D01*
X121352380Y-111595238D01*
X121352380Y-111690476D01*
X121304761Y-111785714D01*
X121257142Y-111833333D01*
X121161904Y-111880952D01*
X120971428Y-111928571D01*
X120733333Y-111928571D01*
X120542857Y-111880952D01*
X120447619Y-111833333D01*
X120400000Y-111785714D01*
X120352380Y-111690476D01*
X120685714Y-110500000D02*
X121352380Y-110500000D01*
X120304761Y-110738095D02*
X121019047Y-110976190D01*
X121019047Y-110357142D01*
X240708380Y-75771333D02*
X241422666Y-75771333D01*
X241565523Y-75818952D01*
X241660761Y-75914190D01*
X241708380Y-76057047D01*
X241708380Y-76152285D01*
X240803619Y-75342761D02*
X240756000Y-75295142D01*
X240708380Y-75199904D01*
X240708380Y-74961809D01*
X240756000Y-74866571D01*
X240803619Y-74818952D01*
X240898857Y-74771333D01*
X240994095Y-74771333D01*
X241136952Y-74818952D01*
X241708380Y-75390380D01*
X241708380Y-74771333D01*
X243971428Y-72628571D02*
X243638095Y-72628571D01*
X243638095Y-73152380D02*
X243638095Y-72152380D01*
X244114285Y-72152380D01*
X244352380Y-72152380D02*
X244923809Y-72152380D01*
X244638095Y-73152380D02*
X244638095Y-72152380D01*
X245257142Y-73152380D02*
X245257142Y-72152380D01*
X245495238Y-72152380D01*
X245638095Y-72200000D01*
X245733333Y-72295238D01*
X245780952Y-72390476D01*
X245828571Y-72580952D01*
X245828571Y-72723809D01*
X245780952Y-72914285D01*
X245733333Y-73009523D01*
X245638095Y-73104761D01*
X245495238Y-73152380D01*
X245257142Y-73152380D01*
X246257142Y-73152380D02*
X246257142Y-72152380D01*
X248066666Y-73057142D02*
X248019047Y-73104761D01*
X247876190Y-73152380D01*
X247780952Y-73152380D01*
X247638095Y-73104761D01*
X247542857Y-73009523D01*
X247495238Y-72914285D01*
X247447619Y-72723809D01*
X247447619Y-72580952D01*
X247495238Y-72390476D01*
X247542857Y-72295238D01*
X247638095Y-72200000D01*
X247780952Y-72152380D01*
X247876190Y-72152380D01*
X248019047Y-72200000D01*
X248066666Y-72247619D01*
X248685714Y-72152380D02*
X248876190Y-72152380D01*
X248971428Y-72200000D01*
X249066666Y-72295238D01*
X249114285Y-72485714D01*
X249114285Y-72819047D01*
X249066666Y-73009523D01*
X248971428Y-73104761D01*
X248876190Y-73152380D01*
X248685714Y-73152380D01*
X248590476Y-73104761D01*
X248495238Y-73009523D01*
X248447619Y-72819047D01*
X248447619Y-72485714D01*
X248495238Y-72295238D01*
X248590476Y-72200000D01*
X248685714Y-72152380D01*
X249542857Y-73152380D02*
X249542857Y-72152380D01*
X250114285Y-73152380D01*
X250114285Y-72152380D01*
X250590476Y-73152380D02*
X250590476Y-72152380D01*
X251161904Y-73152380D01*
X251161904Y-72152380D01*
X165338095Y-107052380D02*
X165338095Y-107861904D01*
X165385714Y-107957142D01*
X165433333Y-108004761D01*
X165528571Y-108052380D01*
X165719047Y-108052380D01*
X165814285Y-108004761D01*
X165861904Y-107957142D01*
X165909523Y-107861904D01*
X165909523Y-107052380D01*
X166909523Y-108052380D02*
X166338095Y-108052380D01*
X166623809Y-108052380D02*
X166623809Y-107052380D01*
X166528571Y-107195238D01*
X166433333Y-107290476D01*
X166338095Y-107338095D01*
X135285714Y-108647619D02*
X135333333Y-108600000D01*
X135428571Y-108552380D01*
X135666666Y-108552380D01*
X135761904Y-108600000D01*
X135809523Y-108647619D01*
X135857142Y-108742857D01*
X135857142Y-108838095D01*
X135809523Y-108980952D01*
X135238095Y-109552380D01*
X135857142Y-109552380D01*
X136190476Y-108552380D02*
X136857142Y-108552380D01*
X136428571Y-109552380D01*
X137809523Y-109457142D02*
X137761904Y-109504761D01*
X137619047Y-109552380D01*
X137523809Y-109552380D01*
X137380952Y-109504761D01*
X137285714Y-109409523D01*
X137238095Y-109314285D01*
X137190476Y-109123809D01*
X137190476Y-108980952D01*
X137238095Y-108790476D01*
X137285714Y-108695238D01*
X137380952Y-108600000D01*
X137523809Y-108552380D01*
X137619047Y-108552380D01*
X137761904Y-108600000D01*
X137809523Y-108647619D01*
X138666666Y-108552380D02*
X138476190Y-108552380D01*
X138380952Y-108600000D01*
X138333333Y-108647619D01*
X138238095Y-108790476D01*
X138190476Y-108980952D01*
X138190476Y-109361904D01*
X138238095Y-109457142D01*
X138285714Y-109504761D01*
X138380952Y-109552380D01*
X138571428Y-109552380D01*
X138666666Y-109504761D01*
X138714285Y-109457142D01*
X138761904Y-109361904D01*
X138761904Y-109123809D01*
X138714285Y-109028571D01*
X138666666Y-108980952D01*
X138571428Y-108933333D01*
X138380952Y-108933333D01*
X138285714Y-108980952D01*
X138238095Y-109028571D01*
X138190476Y-109123809D01*
X139619047Y-108885714D02*
X139619047Y-109552380D01*
X139380952Y-108504761D02*
X139142857Y-109219047D01*
X139761904Y-109219047D01*
X128838095Y-86752380D02*
X128838095Y-87561904D01*
X128885714Y-87657142D01*
X128933333Y-87704761D01*
X129028571Y-87752380D01*
X129219047Y-87752380D01*
X129314285Y-87704761D01*
X129361904Y-87657142D01*
X129409523Y-87561904D01*
X129409523Y-86752380D01*
X129838095Y-86847619D02*
X129885714Y-86800000D01*
X129980952Y-86752380D01*
X130219047Y-86752380D01*
X130314285Y-86800000D01*
X130361904Y-86847619D01*
X130409523Y-86942857D01*
X130409523Y-87038095D01*
X130361904Y-87180952D01*
X129790476Y-87752380D01*
X130409523Y-87752380D01*
X128761904Y-84452380D02*
X128571428Y-84452380D01*
X128476190Y-84500000D01*
X128428571Y-84547619D01*
X128333333Y-84690476D01*
X128285714Y-84880952D01*
X128285714Y-85261904D01*
X128333333Y-85357142D01*
X128380952Y-85404761D01*
X128476190Y-85452380D01*
X128666666Y-85452380D01*
X128761904Y-85404761D01*
X128809523Y-85357142D01*
X128857142Y-85261904D01*
X128857142Y-85023809D01*
X128809523Y-84928571D01*
X128761904Y-84880952D01*
X128666666Y-84833333D01*
X128476190Y-84833333D01*
X128380952Y-84880952D01*
X128333333Y-84928571D01*
X128285714Y-85023809D01*
X129761904Y-84452380D02*
X129285714Y-84452380D01*
X129238095Y-84928571D01*
X129285714Y-84880952D01*
X129380952Y-84833333D01*
X129619047Y-84833333D01*
X129714285Y-84880952D01*
X129761904Y-84928571D01*
X129809523Y-85023809D01*
X129809523Y-85261904D01*
X129761904Y-85357142D01*
X129714285Y-85404761D01*
X129619047Y-85452380D01*
X129380952Y-85452380D01*
X129285714Y-85404761D01*
X129238095Y-85357142D01*
X130714285Y-84452380D02*
X130238095Y-84452380D01*
X130190476Y-84928571D01*
X130238095Y-84880952D01*
X130333333Y-84833333D01*
X130571428Y-84833333D01*
X130666666Y-84880952D01*
X130714285Y-84928571D01*
X130761904Y-85023809D01*
X130761904Y-85261904D01*
X130714285Y-85357142D01*
X130666666Y-85404761D01*
X130571428Y-85452380D01*
X130333333Y-85452380D01*
X130238095Y-85404761D01*
X130190476Y-85357142D01*
X131714285Y-85452380D02*
X131142857Y-85452380D01*
X131428571Y-85452380D02*
X131428571Y-84452380D01*
X131333333Y-84595238D01*
X131238095Y-84690476D01*
X131142857Y-84738095D01*
X120533333Y-123357142D02*
X120485714Y-123404761D01*
X120342857Y-123452380D01*
X120247619Y-123452380D01*
X120104761Y-123404761D01*
X120009523Y-123309523D01*
X119961904Y-123214285D01*
X119914285Y-123023809D01*
X119914285Y-122880952D01*
X119961904Y-122690476D01*
X120009523Y-122595238D01*
X120104761Y-122500000D01*
X120247619Y-122452380D01*
X120342857Y-122452380D01*
X120485714Y-122500000D01*
X120533333Y-122547619D01*
X121390476Y-122785714D02*
X121390476Y-123452380D01*
X121152380Y-122404761D02*
X120914285Y-123119047D01*
X121533333Y-123119047D01*
X149723333Y-77877142D02*
X149675714Y-77924761D01*
X149532857Y-77972380D01*
X149437619Y-77972380D01*
X149294761Y-77924761D01*
X149199523Y-77829523D01*
X149151904Y-77734285D01*
X149104285Y-77543809D01*
X149104285Y-77400952D01*
X149151904Y-77210476D01*
X149199523Y-77115238D01*
X149294761Y-77020000D01*
X149437619Y-76972380D01*
X149532857Y-76972380D01*
X149675714Y-77020000D01*
X149723333Y-77067619D01*
X150056666Y-76972380D02*
X150675714Y-76972380D01*
X150342380Y-77353333D01*
X150485238Y-77353333D01*
X150580476Y-77400952D01*
X150628095Y-77448571D01*
X150675714Y-77543809D01*
X150675714Y-77781904D01*
X150628095Y-77877142D01*
X150580476Y-77924761D01*
X150485238Y-77972380D01*
X150199523Y-77972380D01*
X150104285Y-77924761D01*
X150056666Y-77877142D01*
X121233333Y-100157142D02*
X121185714Y-100204761D01*
X121042857Y-100252380D01*
X120947619Y-100252380D01*
X120804761Y-100204761D01*
X120709523Y-100109523D01*
X120661904Y-100014285D01*
X120614285Y-99823809D01*
X120614285Y-99680952D01*
X120661904Y-99490476D01*
X120709523Y-99395238D01*
X120804761Y-99300000D01*
X120947619Y-99252380D01*
X121042857Y-99252380D01*
X121185714Y-99300000D01*
X121233333Y-99347619D01*
X121614285Y-99347619D02*
X121661904Y-99300000D01*
X121757142Y-99252380D01*
X121995238Y-99252380D01*
X122090476Y-99300000D01*
X122138095Y-99347619D01*
X122185714Y-99442857D01*
X122185714Y-99538095D01*
X122138095Y-99680952D01*
X121566666Y-100252380D01*
X122185714Y-100252380D01*
X116126190Y-81576190D02*
X116602380Y-81576190D01*
X115602380Y-81909523D02*
X116126190Y-81576190D01*
X115602380Y-81242857D01*
X116602380Y-80385714D02*
X116602380Y-80957142D01*
X116602380Y-80671428D02*
X115602380Y-80671428D01*
X115745238Y-80766666D01*
X115840476Y-80861904D01*
X115888095Y-80957142D01*
M02*
