M48
; DRILL file {KiCad (5.1.5)-3} date 11/1/2020 1:07:36 PM
; FORMAT={-:-/ absolute / inch / decimal}
; #@! TF.CreationDate,2020-11-01T13:07:36-06:00
; #@! TF.GenerationSoftware,Kicad,Pcbnew,(5.1.5)-3
; #@! TF.FileFunction,Plated,1,2,PTH
FMAT,2
INCH
T1C0.0157
T2C0.0315
T3C0.0394
%
G90
G05
T1
X4.302Y-3.437
X4.3739Y-3.9091
X4.4566Y-4.0474
X4.5014Y-4.0108
X4.5092Y-2.9495
X4.7313Y-4.0203
X4.7656Y-3.5176
X4.9052Y-3.6664
X4.9913Y-3.58
X5.0714Y-4.0776
X5.1521Y-3.9913
X5.1654Y-4.2319
X5.1827Y-3.9545
X5.23Y-3.9483
X5.2676Y-4.2406
X5.3338Y-3.2976
X5.3626Y-3.9563
X5.3701Y-3.6063
X5.4149Y-3.2536
X5.4999Y-4.0123
X5.5111Y-3.9017
X5.538Y-3.437
X5.6337Y-3.4812
X5.6812Y-4.7934
X5.7119Y-4.426
X5.8043Y-4.2469
X5.8235Y-3.6662
X5.9487Y-3.5017
X6.1025Y-4.3541
X6.1025Y-4.493
X6.1272Y-3.7332
X6.2949Y-3.7825
X6.3424Y-3.7825
X6.5942Y-4.4276
X6.642Y-4.3523
X6.7553Y-3.7933
X6.7614Y-3.473
X6.8571Y-3.7569
X6.9868Y-3.7313
X7.135Y-3.6055
X7.135Y-3.7057
X7.2364Y-3.5813
X7.315Y-3.6692
X7.376Y-3.1201
X7.5507Y-5.1171
X7.6811Y-2.874
X7.8302Y-5.0706
X8.0503Y-3.5361
X9.2868Y-2.8707
X9.2933Y-3.1201
T2
X4.6772Y-3.9252
X4.874Y-3.9252
X5.8071Y-3.0433
X6.0039Y-3.0433
X5.3043Y-4.1185
X5.3043Y-4.7185
X5.4043Y-4.1185
X5.4043Y-4.7185
X5.5043Y-4.1185
X5.5043Y-4.7185
X5.6043Y-4.1185
X5.6043Y-4.7185
X5.7043Y-4.1185
X5.7043Y-4.7185
X5.8043Y-4.1185
X5.8043Y-4.7185
X5.9043Y-4.1185
X5.9043Y-4.7185
X6.0043Y-4.1185
X6.0043Y-4.7185
X6.1043Y-4.1185
X6.1043Y-4.7185
X6.2043Y-4.1185
X6.2043Y-4.7185
X6.3043Y-4.1185
X6.3043Y-4.7185
X6.4043Y-4.1185
X6.4043Y-4.7185
X6.5043Y-4.1185
X6.5043Y-4.7185
X6.6043Y-4.1185
X6.6043Y-4.7185
X6.4134Y-4.8661
X6.6102Y-4.8661
X4.6457Y-4.8425
X4.8425Y-4.8425
X4.6957Y-3.1835
X4.6957Y-3.7835
X4.7957Y-3.1835
X4.7957Y-3.7835
X4.8957Y-3.1835
X4.8957Y-3.7835
X4.9957Y-3.1835
X4.9957Y-3.7835
X5.0957Y-3.1835
X5.0957Y-3.7835
X5.1957Y-3.1835
X5.1957Y-3.7835
X5.2957Y-3.1835
X5.2957Y-3.7835
X5.3957Y-3.1835
X5.3957Y-3.7835
X5.4957Y-3.1835
X5.4957Y-3.7835
X5.5957Y-3.1835
X5.5957Y-3.7835
X5.6957Y-3.1835
X5.6957Y-3.7835
X5.7957Y-3.1835
X5.7957Y-3.7835
X5.8957Y-3.1835
X5.8957Y-3.7835
X5.9957Y-3.1835
X5.9957Y-3.7835
X4.4606Y-3.1181
X4.4606Y-3.2677
X4.6Y-4.1
X4.6Y-4.2
X4.6Y-4.3
X4.6Y-4.4
X4.6Y-4.5
X4.6Y-4.6
X4.6Y-4.7
X4.9Y-4.1
X4.9Y-4.2
X4.9Y-4.3
X4.9Y-4.4
X4.9Y-4.5
X4.9Y-4.6
X4.9Y-4.7
T3
X9.59Y-2.97
X9.69Y-2.97
X9.79Y-2.97
X9.89Y-2.97
X7.5827Y-3.2874
X7.5827Y-3.3874
X7.5827Y-3.4874
X7.5827Y-3.5874
X7.5827Y-3.6874
X7.5827Y-3.7874
X7.5827Y-3.8874
X7.5827Y-3.9874
X7.5827Y-4.0874
X7.5827Y-4.1874
X7.5827Y-4.2874
X7.5827Y-4.3874
X7.5827Y-4.4874
X7.5827Y-4.5874
X7.5827Y-4.6874
X8.5394Y-3.2874
X8.5394Y-3.3874
X8.5394Y-3.4874
X8.5394Y-3.5874
X8.5394Y-3.6874
X8.5394Y-3.7874
X8.5394Y-3.8874
X8.5394Y-3.9874
X8.5394Y-4.0874
X8.5394Y-4.1874
X8.5394Y-4.2874
X8.5394Y-4.3874
X8.5394Y-4.4874
X8.5394Y-4.5874
X8.5394Y-4.6874
X9.8Y-3.3
X9.9Y-3.3
T0
M30
