G04 #@! TF.GenerationSoftware,KiCad,Pcbnew,(5.1.5)-3*
G04 #@! TF.CreationDate,2020-11-01T13:07:33-06:00*
G04 #@! TF.ProjectId,Aii-WiFi,4169692d-5769-4466-992e-6b696361645f,rev?*
G04 #@! TF.SameCoordinates,Original*
G04 #@! TF.FileFunction,Soldermask,Top*
G04 #@! TF.FilePolarity,Negative*
%FSLAX46Y46*%
G04 Gerber Fmt 4.6, Leading zero omitted, Abs format (unit mm)*
G04 Created by KiCad (PCBNEW (5.1.5)-3) date 2020-11-01 13:07:33*
%MOMM*%
%LPD*%
G04 APERTURE LIST*
%ADD10C,0.100000*%
G04 APERTURE END LIST*
D10*
G36*
X246050000Y-138481000D02*
G01*
X244170000Y-138481000D01*
X244170000Y-130759000D01*
X246050000Y-130759000D01*
X246050000Y-138481000D01*
G37*
G36*
X215570000Y-138481000D02*
G01*
X213690000Y-138481000D01*
X213690000Y-130759000D01*
X215570000Y-130759000D01*
X215570000Y-138481000D01*
G37*
G36*
X185090000Y-138481000D02*
G01*
X183210000Y-138481000D01*
X183210000Y-130759000D01*
X185090000Y-130759000D01*
X185090000Y-138481000D01*
G37*
G36*
X187630000Y-138481000D02*
G01*
X185750000Y-138481000D01*
X185750000Y-130759000D01*
X187630000Y-130759000D01*
X187630000Y-138481000D01*
G37*
G36*
X190170000Y-138481000D02*
G01*
X188290000Y-138481000D01*
X188290000Y-130759000D01*
X190170000Y-130759000D01*
X190170000Y-138481000D01*
G37*
G36*
X192710000Y-138481000D02*
G01*
X190830000Y-138481000D01*
X190830000Y-130759000D01*
X192710000Y-130759000D01*
X192710000Y-138481000D01*
G37*
G36*
X195250000Y-138481000D02*
G01*
X193370000Y-138481000D01*
X193370000Y-130759000D01*
X195250000Y-130759000D01*
X195250000Y-138481000D01*
G37*
G36*
X197790000Y-138481000D02*
G01*
X195910000Y-138481000D01*
X195910000Y-130759000D01*
X197790000Y-130759000D01*
X197790000Y-138481000D01*
G37*
G36*
X200330000Y-138481000D02*
G01*
X198450000Y-138481000D01*
X198450000Y-130759000D01*
X200330000Y-130759000D01*
X200330000Y-138481000D01*
G37*
G36*
X202870000Y-138481000D02*
G01*
X200990000Y-138481000D01*
X200990000Y-130759000D01*
X202870000Y-130759000D01*
X202870000Y-138481000D01*
G37*
G36*
X205410000Y-138481000D02*
G01*
X203530000Y-138481000D01*
X203530000Y-130759000D01*
X205410000Y-130759000D01*
X205410000Y-138481000D01*
G37*
G36*
X207950000Y-138481000D02*
G01*
X206070000Y-138481000D01*
X206070000Y-130759000D01*
X207950000Y-130759000D01*
X207950000Y-138481000D01*
G37*
G36*
X210490000Y-138481000D02*
G01*
X208610000Y-138481000D01*
X208610000Y-130759000D01*
X210490000Y-130759000D01*
X210490000Y-138481000D01*
G37*
G36*
X218110000Y-138481000D02*
G01*
X216230000Y-138481000D01*
X216230000Y-130759000D01*
X218110000Y-130759000D01*
X218110000Y-138481000D01*
G37*
G36*
X243510000Y-138481000D02*
G01*
X241630000Y-138481000D01*
X241630000Y-130759000D01*
X243510000Y-130759000D01*
X243510000Y-138481000D01*
G37*
G36*
X240970000Y-138481000D02*
G01*
X239090000Y-138481000D01*
X239090000Y-130759000D01*
X240970000Y-130759000D01*
X240970000Y-138481000D01*
G37*
G36*
X238430000Y-138481000D02*
G01*
X236550000Y-138481000D01*
X236550000Y-130759000D01*
X238430000Y-130759000D01*
X238430000Y-138481000D01*
G37*
G36*
X235890000Y-138481000D02*
G01*
X234010000Y-138481000D01*
X234010000Y-130759000D01*
X235890000Y-130759000D01*
X235890000Y-138481000D01*
G37*
G36*
X233350000Y-138481000D02*
G01*
X231470000Y-138481000D01*
X231470000Y-130759000D01*
X233350000Y-130759000D01*
X233350000Y-138481000D01*
G37*
G36*
X228270000Y-138481000D02*
G01*
X226390000Y-138481000D01*
X226390000Y-130759000D01*
X228270000Y-130759000D01*
X228270000Y-138481000D01*
G37*
G36*
X225730000Y-138481000D02*
G01*
X223850000Y-138481000D01*
X223850000Y-130759000D01*
X225730000Y-130759000D01*
X225730000Y-138481000D01*
G37*
G36*
X223190000Y-138481000D02*
G01*
X221310000Y-138481000D01*
X221310000Y-130759000D01*
X223190000Y-130759000D01*
X223190000Y-138481000D01*
G37*
G36*
X220650000Y-138481000D02*
G01*
X218770000Y-138481000D01*
X218770000Y-130759000D01*
X220650000Y-130759000D01*
X220650000Y-138481000D01*
G37*
G36*
X213030000Y-138481000D02*
G01*
X211150000Y-138481000D01*
X211150000Y-130759000D01*
X213030000Y-130759000D01*
X213030000Y-138481000D01*
G37*
G36*
X230810000Y-138481000D02*
G01*
X228930000Y-138481000D01*
X228930000Y-130759000D01*
X230810000Y-130759000D01*
X230810000Y-138481000D01*
G37*
G36*
X163148228Y-122781703D02*
G01*
X163303100Y-122845853D01*
X163442481Y-122938985D01*
X163561015Y-123057519D01*
X163654147Y-123196900D01*
X163718297Y-123351772D01*
X163751000Y-123516184D01*
X163751000Y-123683816D01*
X163718297Y-123848228D01*
X163654147Y-124003100D01*
X163561015Y-124142481D01*
X163442481Y-124261015D01*
X163303100Y-124354147D01*
X163148228Y-124418297D01*
X162983816Y-124451000D01*
X162816184Y-124451000D01*
X162651772Y-124418297D01*
X162496900Y-124354147D01*
X162357519Y-124261015D01*
X162238985Y-124142481D01*
X162145853Y-124003100D01*
X162081703Y-123848228D01*
X162049000Y-123683816D01*
X162049000Y-123516184D01*
X162081703Y-123351772D01*
X162145853Y-123196900D01*
X162238985Y-123057519D01*
X162357519Y-122938985D01*
X162496900Y-122845853D01*
X162651772Y-122781703D01*
X162816184Y-122749000D01*
X162983816Y-122749000D01*
X163148228Y-122781703D01*
G37*
G36*
X168148228Y-122781703D02*
G01*
X168303100Y-122845853D01*
X168442481Y-122938985D01*
X168561015Y-123057519D01*
X168654147Y-123196900D01*
X168718297Y-123351772D01*
X168751000Y-123516184D01*
X168751000Y-123683816D01*
X168718297Y-123848228D01*
X168654147Y-124003100D01*
X168561015Y-124142481D01*
X168442481Y-124261015D01*
X168303100Y-124354147D01*
X168148228Y-124418297D01*
X167983816Y-124451000D01*
X167816184Y-124451000D01*
X167651772Y-124418297D01*
X167496900Y-124354147D01*
X167357519Y-124261015D01*
X167238985Y-124142481D01*
X167145853Y-124003100D01*
X167081703Y-123848228D01*
X167049000Y-123683816D01*
X167049000Y-123516184D01*
X167081703Y-123351772D01*
X167145853Y-123196900D01*
X167238985Y-123057519D01*
X167357519Y-122938985D01*
X167496900Y-122845853D01*
X167651772Y-122781703D01*
X167816184Y-122749000D01*
X167983816Y-122749000D01*
X168148228Y-122781703D01*
G37*
G36*
X118248228Y-122181703D02*
G01*
X118403100Y-122245853D01*
X118542481Y-122338985D01*
X118661015Y-122457519D01*
X118754147Y-122596900D01*
X118818297Y-122751772D01*
X118851000Y-122916184D01*
X118851000Y-123083816D01*
X118818297Y-123248228D01*
X118754147Y-123403100D01*
X118661015Y-123542481D01*
X118542481Y-123661015D01*
X118403100Y-123754147D01*
X118248228Y-123818297D01*
X118083816Y-123851000D01*
X117916184Y-123851000D01*
X117751772Y-123818297D01*
X117596900Y-123754147D01*
X117457519Y-123661015D01*
X117338985Y-123542481D01*
X117245853Y-123403100D01*
X117181703Y-123248228D01*
X117149000Y-123083816D01*
X117149000Y-122916184D01*
X117181703Y-122751772D01*
X117245853Y-122596900D01*
X117338985Y-122457519D01*
X117457519Y-122338985D01*
X117596900Y-122245853D01*
X117751772Y-122181703D01*
X117916184Y-122149000D01*
X118083816Y-122149000D01*
X118248228Y-122181703D01*
G37*
G36*
X123248228Y-122181703D02*
G01*
X123403100Y-122245853D01*
X123542481Y-122338985D01*
X123661015Y-122457519D01*
X123754147Y-122596900D01*
X123818297Y-122751772D01*
X123851000Y-122916184D01*
X123851000Y-123083816D01*
X123818297Y-123248228D01*
X123754147Y-123403100D01*
X123661015Y-123542481D01*
X123542481Y-123661015D01*
X123403100Y-123754147D01*
X123248228Y-123818297D01*
X123083816Y-123851000D01*
X122916184Y-123851000D01*
X122751772Y-123818297D01*
X122596900Y-123754147D01*
X122457519Y-123661015D01*
X122338985Y-123542481D01*
X122245853Y-123403100D01*
X122181703Y-123248228D01*
X122149000Y-123083816D01*
X122149000Y-122916184D01*
X122181703Y-122751772D01*
X122245853Y-122596900D01*
X122338985Y-122457519D01*
X122457519Y-122338985D01*
X122596900Y-122245853D01*
X122751772Y-122181703D01*
X122916184Y-122149000D01*
X123083816Y-122149000D01*
X123248228Y-122181703D01*
G37*
G36*
X150218228Y-119031703D02*
G01*
X150373100Y-119095853D01*
X150512481Y-119188985D01*
X150631015Y-119307519D01*
X150724147Y-119446900D01*
X150788297Y-119601772D01*
X150821000Y-119766184D01*
X150821000Y-119933816D01*
X150788297Y-120098228D01*
X150724147Y-120253100D01*
X150631015Y-120392481D01*
X150512481Y-120511015D01*
X150373100Y-120604147D01*
X150218228Y-120668297D01*
X150053816Y-120701000D01*
X149886184Y-120701000D01*
X149721772Y-120668297D01*
X149566900Y-120604147D01*
X149427519Y-120511015D01*
X149308985Y-120392481D01*
X149215853Y-120253100D01*
X149151703Y-120098228D01*
X149119000Y-119933816D01*
X149119000Y-119766184D01*
X149151703Y-119601772D01*
X149215853Y-119446900D01*
X149308985Y-119307519D01*
X149427519Y-119188985D01*
X149566900Y-119095853D01*
X149721772Y-119031703D01*
X149886184Y-118999000D01*
X150053816Y-118999000D01*
X150218228Y-119031703D01*
G37*
G36*
X134978228Y-119031703D02*
G01*
X135133100Y-119095853D01*
X135272481Y-119188985D01*
X135391015Y-119307519D01*
X135484147Y-119446900D01*
X135548297Y-119601772D01*
X135581000Y-119766184D01*
X135581000Y-119933816D01*
X135548297Y-120098228D01*
X135484147Y-120253100D01*
X135391015Y-120392481D01*
X135272481Y-120511015D01*
X135133100Y-120604147D01*
X134978228Y-120668297D01*
X134813816Y-120701000D01*
X134646184Y-120701000D01*
X134481772Y-120668297D01*
X134326900Y-120604147D01*
X134187519Y-120511015D01*
X134068985Y-120392481D01*
X133975853Y-120253100D01*
X133911703Y-120098228D01*
X133879000Y-119933816D01*
X133879000Y-119766184D01*
X133911703Y-119601772D01*
X133975853Y-119446900D01*
X134068985Y-119307519D01*
X134187519Y-119188985D01*
X134326900Y-119095853D01*
X134481772Y-119031703D01*
X134646184Y-118999000D01*
X134813816Y-118999000D01*
X134978228Y-119031703D01*
G37*
G36*
X137518228Y-119031703D02*
G01*
X137673100Y-119095853D01*
X137812481Y-119188985D01*
X137931015Y-119307519D01*
X138024147Y-119446900D01*
X138088297Y-119601772D01*
X138121000Y-119766184D01*
X138121000Y-119933816D01*
X138088297Y-120098228D01*
X138024147Y-120253100D01*
X137931015Y-120392481D01*
X137812481Y-120511015D01*
X137673100Y-120604147D01*
X137518228Y-120668297D01*
X137353816Y-120701000D01*
X137186184Y-120701000D01*
X137021772Y-120668297D01*
X136866900Y-120604147D01*
X136727519Y-120511015D01*
X136608985Y-120392481D01*
X136515853Y-120253100D01*
X136451703Y-120098228D01*
X136419000Y-119933816D01*
X136419000Y-119766184D01*
X136451703Y-119601772D01*
X136515853Y-119446900D01*
X136608985Y-119307519D01*
X136727519Y-119188985D01*
X136866900Y-119095853D01*
X137021772Y-119031703D01*
X137186184Y-118999000D01*
X137353816Y-118999000D01*
X137518228Y-119031703D01*
G37*
G36*
X142598228Y-119031703D02*
G01*
X142753100Y-119095853D01*
X142892481Y-119188985D01*
X143011015Y-119307519D01*
X143104147Y-119446900D01*
X143168297Y-119601772D01*
X143201000Y-119766184D01*
X143201000Y-119933816D01*
X143168297Y-120098228D01*
X143104147Y-120253100D01*
X143011015Y-120392481D01*
X142892481Y-120511015D01*
X142753100Y-120604147D01*
X142598228Y-120668297D01*
X142433816Y-120701000D01*
X142266184Y-120701000D01*
X142101772Y-120668297D01*
X141946900Y-120604147D01*
X141807519Y-120511015D01*
X141688985Y-120392481D01*
X141595853Y-120253100D01*
X141531703Y-120098228D01*
X141499000Y-119933816D01*
X141499000Y-119766184D01*
X141531703Y-119601772D01*
X141595853Y-119446900D01*
X141688985Y-119307519D01*
X141807519Y-119188985D01*
X141946900Y-119095853D01*
X142101772Y-119031703D01*
X142266184Y-118999000D01*
X142433816Y-118999000D01*
X142598228Y-119031703D01*
G37*
G36*
X145138228Y-119031703D02*
G01*
X145293100Y-119095853D01*
X145432481Y-119188985D01*
X145551015Y-119307519D01*
X145644147Y-119446900D01*
X145708297Y-119601772D01*
X145741000Y-119766184D01*
X145741000Y-119933816D01*
X145708297Y-120098228D01*
X145644147Y-120253100D01*
X145551015Y-120392481D01*
X145432481Y-120511015D01*
X145293100Y-120604147D01*
X145138228Y-120668297D01*
X144973816Y-120701000D01*
X144806184Y-120701000D01*
X144641772Y-120668297D01*
X144486900Y-120604147D01*
X144347519Y-120511015D01*
X144228985Y-120392481D01*
X144135853Y-120253100D01*
X144071703Y-120098228D01*
X144039000Y-119933816D01*
X144039000Y-119766184D01*
X144071703Y-119601772D01*
X144135853Y-119446900D01*
X144228985Y-119307519D01*
X144347519Y-119188985D01*
X144486900Y-119095853D01*
X144641772Y-119031703D01*
X144806184Y-118999000D01*
X144973816Y-118999000D01*
X145138228Y-119031703D01*
G37*
G36*
X147678228Y-119031703D02*
G01*
X147833100Y-119095853D01*
X147972481Y-119188985D01*
X148091015Y-119307519D01*
X148184147Y-119446900D01*
X148248297Y-119601772D01*
X148281000Y-119766184D01*
X148281000Y-119933816D01*
X148248297Y-120098228D01*
X148184147Y-120253100D01*
X148091015Y-120392481D01*
X147972481Y-120511015D01*
X147833100Y-120604147D01*
X147678228Y-120668297D01*
X147513816Y-120701000D01*
X147346184Y-120701000D01*
X147181772Y-120668297D01*
X147026900Y-120604147D01*
X146887519Y-120511015D01*
X146768985Y-120392481D01*
X146675853Y-120253100D01*
X146611703Y-120098228D01*
X146579000Y-119933816D01*
X146579000Y-119766184D01*
X146611703Y-119601772D01*
X146675853Y-119446900D01*
X146768985Y-119307519D01*
X146887519Y-119188985D01*
X147026900Y-119095853D01*
X147181772Y-119031703D01*
X147346184Y-118999000D01*
X147513816Y-118999000D01*
X147678228Y-119031703D01*
G37*
G36*
X152758228Y-119031703D02*
G01*
X152913100Y-119095853D01*
X153052481Y-119188985D01*
X153171015Y-119307519D01*
X153264147Y-119446900D01*
X153328297Y-119601772D01*
X153361000Y-119766184D01*
X153361000Y-119933816D01*
X153328297Y-120098228D01*
X153264147Y-120253100D01*
X153171015Y-120392481D01*
X153052481Y-120511015D01*
X152913100Y-120604147D01*
X152758228Y-120668297D01*
X152593816Y-120701000D01*
X152426184Y-120701000D01*
X152261772Y-120668297D01*
X152106900Y-120604147D01*
X151967519Y-120511015D01*
X151848985Y-120392481D01*
X151755853Y-120253100D01*
X151691703Y-120098228D01*
X151659000Y-119933816D01*
X151659000Y-119766184D01*
X151691703Y-119601772D01*
X151755853Y-119446900D01*
X151848985Y-119307519D01*
X151967519Y-119188985D01*
X152106900Y-119095853D01*
X152261772Y-119031703D01*
X152426184Y-118999000D01*
X152593816Y-118999000D01*
X152758228Y-119031703D01*
G37*
G36*
X155298228Y-119031703D02*
G01*
X155453100Y-119095853D01*
X155592481Y-119188985D01*
X155711015Y-119307519D01*
X155804147Y-119446900D01*
X155868297Y-119601772D01*
X155901000Y-119766184D01*
X155901000Y-119933816D01*
X155868297Y-120098228D01*
X155804147Y-120253100D01*
X155711015Y-120392481D01*
X155592481Y-120511015D01*
X155453100Y-120604147D01*
X155298228Y-120668297D01*
X155133816Y-120701000D01*
X154966184Y-120701000D01*
X154801772Y-120668297D01*
X154646900Y-120604147D01*
X154507519Y-120511015D01*
X154388985Y-120392481D01*
X154295853Y-120253100D01*
X154231703Y-120098228D01*
X154199000Y-119933816D01*
X154199000Y-119766184D01*
X154231703Y-119601772D01*
X154295853Y-119446900D01*
X154388985Y-119307519D01*
X154507519Y-119188985D01*
X154646900Y-119095853D01*
X154801772Y-119031703D01*
X154966184Y-118999000D01*
X155133816Y-118999000D01*
X155298228Y-119031703D01*
G37*
G36*
X140058228Y-119031703D02*
G01*
X140213100Y-119095853D01*
X140352481Y-119188985D01*
X140471015Y-119307519D01*
X140564147Y-119446900D01*
X140628297Y-119601772D01*
X140661000Y-119766184D01*
X140661000Y-119933816D01*
X140628297Y-120098228D01*
X140564147Y-120253100D01*
X140471015Y-120392481D01*
X140352481Y-120511015D01*
X140213100Y-120604147D01*
X140058228Y-120668297D01*
X139893816Y-120701000D01*
X139726184Y-120701000D01*
X139561772Y-120668297D01*
X139406900Y-120604147D01*
X139267519Y-120511015D01*
X139148985Y-120392481D01*
X139055853Y-120253100D01*
X138991703Y-120098228D01*
X138959000Y-119933816D01*
X138959000Y-119766184D01*
X138991703Y-119601772D01*
X139055853Y-119446900D01*
X139148985Y-119307519D01*
X139267519Y-119188985D01*
X139406900Y-119095853D01*
X139561772Y-119031703D01*
X139726184Y-118999000D01*
X139893816Y-118999000D01*
X140058228Y-119031703D01*
G37*
G36*
X167998228Y-119031703D02*
G01*
X168153100Y-119095853D01*
X168292481Y-119188985D01*
X168411015Y-119307519D01*
X168504147Y-119446900D01*
X168568297Y-119601772D01*
X168601000Y-119766184D01*
X168601000Y-119933816D01*
X168568297Y-120098228D01*
X168504147Y-120253100D01*
X168411015Y-120392481D01*
X168292481Y-120511015D01*
X168153100Y-120604147D01*
X167998228Y-120668297D01*
X167833816Y-120701000D01*
X167666184Y-120701000D01*
X167501772Y-120668297D01*
X167346900Y-120604147D01*
X167207519Y-120511015D01*
X167088985Y-120392481D01*
X166995853Y-120253100D01*
X166931703Y-120098228D01*
X166899000Y-119933816D01*
X166899000Y-119766184D01*
X166931703Y-119601772D01*
X166995853Y-119446900D01*
X167088985Y-119307519D01*
X167207519Y-119188985D01*
X167346900Y-119095853D01*
X167501772Y-119031703D01*
X167666184Y-118999000D01*
X167833816Y-118999000D01*
X167998228Y-119031703D01*
G37*
G36*
X165458228Y-119031703D02*
G01*
X165613100Y-119095853D01*
X165752481Y-119188985D01*
X165871015Y-119307519D01*
X165964147Y-119446900D01*
X166028297Y-119601772D01*
X166061000Y-119766184D01*
X166061000Y-119933816D01*
X166028297Y-120098228D01*
X165964147Y-120253100D01*
X165871015Y-120392481D01*
X165752481Y-120511015D01*
X165613100Y-120604147D01*
X165458228Y-120668297D01*
X165293816Y-120701000D01*
X165126184Y-120701000D01*
X164961772Y-120668297D01*
X164806900Y-120604147D01*
X164667519Y-120511015D01*
X164548985Y-120392481D01*
X164455853Y-120253100D01*
X164391703Y-120098228D01*
X164359000Y-119933816D01*
X164359000Y-119766184D01*
X164391703Y-119601772D01*
X164455853Y-119446900D01*
X164548985Y-119307519D01*
X164667519Y-119188985D01*
X164806900Y-119095853D01*
X164961772Y-119031703D01*
X165126184Y-118999000D01*
X165293816Y-118999000D01*
X165458228Y-119031703D01*
G37*
G36*
X160378228Y-119031703D02*
G01*
X160533100Y-119095853D01*
X160672481Y-119188985D01*
X160791015Y-119307519D01*
X160884147Y-119446900D01*
X160948297Y-119601772D01*
X160981000Y-119766184D01*
X160981000Y-119933816D01*
X160948297Y-120098228D01*
X160884147Y-120253100D01*
X160791015Y-120392481D01*
X160672481Y-120511015D01*
X160533100Y-120604147D01*
X160378228Y-120668297D01*
X160213816Y-120701000D01*
X160046184Y-120701000D01*
X159881772Y-120668297D01*
X159726900Y-120604147D01*
X159587519Y-120511015D01*
X159468985Y-120392481D01*
X159375853Y-120253100D01*
X159311703Y-120098228D01*
X159279000Y-119933816D01*
X159279000Y-119766184D01*
X159311703Y-119601772D01*
X159375853Y-119446900D01*
X159468985Y-119307519D01*
X159587519Y-119188985D01*
X159726900Y-119095853D01*
X159881772Y-119031703D01*
X160046184Y-118999000D01*
X160213816Y-118999000D01*
X160378228Y-119031703D01*
G37*
G36*
X157838228Y-119031703D02*
G01*
X157993100Y-119095853D01*
X158132481Y-119188985D01*
X158251015Y-119307519D01*
X158344147Y-119446900D01*
X158408297Y-119601772D01*
X158441000Y-119766184D01*
X158441000Y-119933816D01*
X158408297Y-120098228D01*
X158344147Y-120253100D01*
X158251015Y-120392481D01*
X158132481Y-120511015D01*
X157993100Y-120604147D01*
X157838228Y-120668297D01*
X157673816Y-120701000D01*
X157506184Y-120701000D01*
X157341772Y-120668297D01*
X157186900Y-120604147D01*
X157047519Y-120511015D01*
X156928985Y-120392481D01*
X156835853Y-120253100D01*
X156771703Y-120098228D01*
X156739000Y-119933816D01*
X156739000Y-119766184D01*
X156771703Y-119601772D01*
X156835853Y-119446900D01*
X156928985Y-119307519D01*
X157047519Y-119188985D01*
X157186900Y-119095853D01*
X157341772Y-119031703D01*
X157506184Y-118999000D01*
X157673816Y-118999000D01*
X157838228Y-119031703D01*
G37*
G36*
X162918228Y-119031703D02*
G01*
X163073100Y-119095853D01*
X163212481Y-119188985D01*
X163331015Y-119307519D01*
X163424147Y-119446900D01*
X163488297Y-119601772D01*
X163521000Y-119766184D01*
X163521000Y-119933816D01*
X163488297Y-120098228D01*
X163424147Y-120253100D01*
X163331015Y-120392481D01*
X163212481Y-120511015D01*
X163073100Y-120604147D01*
X162918228Y-120668297D01*
X162753816Y-120701000D01*
X162586184Y-120701000D01*
X162421772Y-120668297D01*
X162266900Y-120604147D01*
X162127519Y-120511015D01*
X162008985Y-120392481D01*
X161915853Y-120253100D01*
X161851703Y-120098228D01*
X161819000Y-119933816D01*
X161819000Y-119766184D01*
X161851703Y-119601772D01*
X161915853Y-119446900D01*
X162008985Y-119307519D01*
X162127519Y-119188985D01*
X162266900Y-119095853D01*
X162421772Y-119031703D01*
X162586184Y-118999000D01*
X162753816Y-118999000D01*
X162918228Y-119031703D01*
G37*
G36*
X125311000Y-120231000D02*
G01*
X123609000Y-120231000D01*
X123609000Y-118529000D01*
X125311000Y-118529000D01*
X125311000Y-120231000D01*
G37*
G36*
X117088228Y-118561703D02*
G01*
X117243100Y-118625853D01*
X117382481Y-118718985D01*
X117501015Y-118837519D01*
X117594147Y-118976900D01*
X117658297Y-119131772D01*
X117691000Y-119296184D01*
X117691000Y-119463816D01*
X117658297Y-119628228D01*
X117594147Y-119783100D01*
X117501015Y-119922481D01*
X117382481Y-120041015D01*
X117243100Y-120134147D01*
X117088228Y-120198297D01*
X116923816Y-120231000D01*
X116756184Y-120231000D01*
X116591772Y-120198297D01*
X116436900Y-120134147D01*
X116297519Y-120041015D01*
X116178985Y-119922481D01*
X116085853Y-119783100D01*
X116021703Y-119628228D01*
X115989000Y-119463816D01*
X115989000Y-119296184D01*
X116021703Y-119131772D01*
X116085853Y-118976900D01*
X116178985Y-118837519D01*
X116297519Y-118718985D01*
X116436900Y-118625853D01*
X116591772Y-118561703D01*
X116756184Y-118529000D01*
X116923816Y-118529000D01*
X117088228Y-118561703D01*
G37*
G36*
X217013512Y-118163927D02*
G01*
X217162812Y-118193624D01*
X217326784Y-118261544D01*
X217474354Y-118360147D01*
X217599853Y-118485646D01*
X217698456Y-118633216D01*
X217766376Y-118797188D01*
X217801000Y-118971259D01*
X217801000Y-119148741D01*
X217766376Y-119322812D01*
X217698456Y-119486784D01*
X217599853Y-119634354D01*
X217474354Y-119759853D01*
X217326784Y-119858456D01*
X217162812Y-119926376D01*
X217013512Y-119956073D01*
X216988742Y-119961000D01*
X216811258Y-119961000D01*
X216786488Y-119956073D01*
X216637188Y-119926376D01*
X216473216Y-119858456D01*
X216325646Y-119759853D01*
X216200147Y-119634354D01*
X216101544Y-119486784D01*
X216033624Y-119322812D01*
X215999000Y-119148741D01*
X215999000Y-118971259D01*
X216033624Y-118797188D01*
X216101544Y-118633216D01*
X216200147Y-118485646D01*
X216325646Y-118360147D01*
X216473216Y-118261544D01*
X216637188Y-118193624D01*
X216786488Y-118163927D01*
X216811258Y-118159000D01*
X216988742Y-118159000D01*
X217013512Y-118163927D01*
G37*
G36*
X192713512Y-118163927D02*
G01*
X192862812Y-118193624D01*
X193026784Y-118261544D01*
X193174354Y-118360147D01*
X193299853Y-118485646D01*
X193398456Y-118633216D01*
X193466376Y-118797188D01*
X193501000Y-118971259D01*
X193501000Y-119148741D01*
X193466376Y-119322812D01*
X193398456Y-119486784D01*
X193299853Y-119634354D01*
X193174354Y-119759853D01*
X193026784Y-119858456D01*
X192862812Y-119926376D01*
X192713512Y-119956073D01*
X192688742Y-119961000D01*
X192511258Y-119961000D01*
X192486488Y-119956073D01*
X192337188Y-119926376D01*
X192173216Y-119858456D01*
X192025646Y-119759853D01*
X191900147Y-119634354D01*
X191801544Y-119486784D01*
X191733624Y-119322812D01*
X191699000Y-119148741D01*
X191699000Y-118971259D01*
X191733624Y-118797188D01*
X191801544Y-118633216D01*
X191900147Y-118485646D01*
X192025646Y-118360147D01*
X192173216Y-118261544D01*
X192337188Y-118193624D01*
X192486488Y-118163927D01*
X192511258Y-118159000D01*
X192688742Y-118159000D01*
X192713512Y-118163927D01*
G37*
G36*
X117088228Y-116021703D02*
G01*
X117243100Y-116085853D01*
X117382481Y-116178985D01*
X117501015Y-116297519D01*
X117594147Y-116436900D01*
X117658297Y-116591772D01*
X117691000Y-116756184D01*
X117691000Y-116923816D01*
X117658297Y-117088228D01*
X117594147Y-117243100D01*
X117501015Y-117382481D01*
X117382481Y-117501015D01*
X117243100Y-117594147D01*
X117088228Y-117658297D01*
X116923816Y-117691000D01*
X116756184Y-117691000D01*
X116591772Y-117658297D01*
X116436900Y-117594147D01*
X116297519Y-117501015D01*
X116178985Y-117382481D01*
X116085853Y-117243100D01*
X116021703Y-117088228D01*
X115989000Y-116923816D01*
X115989000Y-116756184D01*
X116021703Y-116591772D01*
X116085853Y-116436900D01*
X116178985Y-116297519D01*
X116297519Y-116178985D01*
X116436900Y-116085853D01*
X116591772Y-116021703D01*
X116756184Y-115989000D01*
X116923816Y-115989000D01*
X117088228Y-116021703D01*
G37*
G36*
X124708228Y-116021703D02*
G01*
X124863100Y-116085853D01*
X125002481Y-116178985D01*
X125121015Y-116297519D01*
X125214147Y-116436900D01*
X125278297Y-116591772D01*
X125311000Y-116756184D01*
X125311000Y-116923816D01*
X125278297Y-117088228D01*
X125214147Y-117243100D01*
X125121015Y-117382481D01*
X125002481Y-117501015D01*
X124863100Y-117594147D01*
X124708228Y-117658297D01*
X124543816Y-117691000D01*
X124376184Y-117691000D01*
X124211772Y-117658297D01*
X124056900Y-117594147D01*
X123917519Y-117501015D01*
X123798985Y-117382481D01*
X123705853Y-117243100D01*
X123641703Y-117088228D01*
X123609000Y-116923816D01*
X123609000Y-116756184D01*
X123641703Y-116591772D01*
X123705853Y-116436900D01*
X123798985Y-116297519D01*
X123917519Y-116178985D01*
X124056900Y-116085853D01*
X124211772Y-116021703D01*
X124376184Y-115989000D01*
X124543816Y-115989000D01*
X124708228Y-116021703D01*
G37*
G36*
X192713512Y-115623927D02*
G01*
X192862812Y-115653624D01*
X193026784Y-115721544D01*
X193174354Y-115820147D01*
X193299853Y-115945646D01*
X193398456Y-116093216D01*
X193466376Y-116257188D01*
X193501000Y-116431259D01*
X193501000Y-116608741D01*
X193466376Y-116782812D01*
X193398456Y-116946784D01*
X193299853Y-117094354D01*
X193174354Y-117219853D01*
X193026784Y-117318456D01*
X192862812Y-117386376D01*
X192713512Y-117416073D01*
X192688742Y-117421000D01*
X192511258Y-117421000D01*
X192486488Y-117416073D01*
X192337188Y-117386376D01*
X192173216Y-117318456D01*
X192025646Y-117219853D01*
X191900147Y-117094354D01*
X191801544Y-116946784D01*
X191733624Y-116782812D01*
X191699000Y-116608741D01*
X191699000Y-116431259D01*
X191733624Y-116257188D01*
X191801544Y-116093216D01*
X191900147Y-115945646D01*
X192025646Y-115820147D01*
X192173216Y-115721544D01*
X192337188Y-115653624D01*
X192486488Y-115623927D01*
X192511258Y-115619000D01*
X192688742Y-115619000D01*
X192713512Y-115623927D01*
G37*
G36*
X217013512Y-115623927D02*
G01*
X217162812Y-115653624D01*
X217326784Y-115721544D01*
X217474354Y-115820147D01*
X217599853Y-115945646D01*
X217698456Y-116093216D01*
X217766376Y-116257188D01*
X217801000Y-116431259D01*
X217801000Y-116608741D01*
X217766376Y-116782812D01*
X217698456Y-116946784D01*
X217599853Y-117094354D01*
X217474354Y-117219853D01*
X217326784Y-117318456D01*
X217162812Y-117386376D01*
X217013512Y-117416073D01*
X216988742Y-117421000D01*
X216811258Y-117421000D01*
X216786488Y-117416073D01*
X216637188Y-117386376D01*
X216473216Y-117318456D01*
X216325646Y-117219853D01*
X216200147Y-117094354D01*
X216101544Y-116946784D01*
X216033624Y-116782812D01*
X215999000Y-116608741D01*
X215999000Y-116431259D01*
X216033624Y-116257188D01*
X216101544Y-116093216D01*
X216200147Y-115945646D01*
X216325646Y-115820147D01*
X216473216Y-115721544D01*
X216637188Y-115653624D01*
X216786488Y-115623927D01*
X216811258Y-115619000D01*
X216988742Y-115619000D01*
X217013512Y-115623927D01*
G37*
G36*
X124708228Y-113481703D02*
G01*
X124863100Y-113545853D01*
X125002481Y-113638985D01*
X125121015Y-113757519D01*
X125214147Y-113896900D01*
X125278297Y-114051772D01*
X125311000Y-114216184D01*
X125311000Y-114383816D01*
X125278297Y-114548228D01*
X125214147Y-114703100D01*
X125121015Y-114842481D01*
X125002481Y-114961015D01*
X124863100Y-115054147D01*
X124708228Y-115118297D01*
X124543816Y-115151000D01*
X124376184Y-115151000D01*
X124211772Y-115118297D01*
X124056900Y-115054147D01*
X123917519Y-114961015D01*
X123798985Y-114842481D01*
X123705853Y-114703100D01*
X123641703Y-114548228D01*
X123609000Y-114383816D01*
X123609000Y-114216184D01*
X123641703Y-114051772D01*
X123705853Y-113896900D01*
X123798985Y-113757519D01*
X123917519Y-113638985D01*
X124056900Y-113545853D01*
X124211772Y-113481703D01*
X124376184Y-113449000D01*
X124543816Y-113449000D01*
X124708228Y-113481703D01*
G37*
G36*
X117088228Y-113481703D02*
G01*
X117243100Y-113545853D01*
X117382481Y-113638985D01*
X117501015Y-113757519D01*
X117594147Y-113896900D01*
X117658297Y-114051772D01*
X117691000Y-114216184D01*
X117691000Y-114383816D01*
X117658297Y-114548228D01*
X117594147Y-114703100D01*
X117501015Y-114842481D01*
X117382481Y-114961015D01*
X117243100Y-115054147D01*
X117088228Y-115118297D01*
X116923816Y-115151000D01*
X116756184Y-115151000D01*
X116591772Y-115118297D01*
X116436900Y-115054147D01*
X116297519Y-114961015D01*
X116178985Y-114842481D01*
X116085853Y-114703100D01*
X116021703Y-114548228D01*
X115989000Y-114383816D01*
X115989000Y-114216184D01*
X116021703Y-114051772D01*
X116085853Y-113896900D01*
X116178985Y-113757519D01*
X116297519Y-113638985D01*
X116436900Y-113545853D01*
X116591772Y-113481703D01*
X116756184Y-113449000D01*
X116923816Y-113449000D01*
X117088228Y-113481703D01*
G37*
G36*
X217013512Y-113083927D02*
G01*
X217162812Y-113113624D01*
X217326784Y-113181544D01*
X217474354Y-113280147D01*
X217599853Y-113405646D01*
X217698456Y-113553216D01*
X217766376Y-113717188D01*
X217801000Y-113891259D01*
X217801000Y-114068741D01*
X217766376Y-114242812D01*
X217698456Y-114406784D01*
X217599853Y-114554354D01*
X217474354Y-114679853D01*
X217326784Y-114778456D01*
X217162812Y-114846376D01*
X217013512Y-114876073D01*
X216988742Y-114881000D01*
X216811258Y-114881000D01*
X216786488Y-114876073D01*
X216637188Y-114846376D01*
X216473216Y-114778456D01*
X216325646Y-114679853D01*
X216200147Y-114554354D01*
X216101544Y-114406784D01*
X216033624Y-114242812D01*
X215999000Y-114068741D01*
X215999000Y-113891259D01*
X216033624Y-113717188D01*
X216101544Y-113553216D01*
X216200147Y-113405646D01*
X216325646Y-113280147D01*
X216473216Y-113181544D01*
X216637188Y-113113624D01*
X216786488Y-113083927D01*
X216811258Y-113079000D01*
X216988742Y-113079000D01*
X217013512Y-113083927D01*
G37*
G36*
X192713512Y-113083927D02*
G01*
X192862812Y-113113624D01*
X193026784Y-113181544D01*
X193174354Y-113280147D01*
X193299853Y-113405646D01*
X193398456Y-113553216D01*
X193466376Y-113717188D01*
X193501000Y-113891259D01*
X193501000Y-114068741D01*
X193466376Y-114242812D01*
X193398456Y-114406784D01*
X193299853Y-114554354D01*
X193174354Y-114679853D01*
X193026784Y-114778456D01*
X192862812Y-114846376D01*
X192713512Y-114876073D01*
X192688742Y-114881000D01*
X192511258Y-114881000D01*
X192486488Y-114876073D01*
X192337188Y-114846376D01*
X192173216Y-114778456D01*
X192025646Y-114679853D01*
X191900147Y-114554354D01*
X191801544Y-114406784D01*
X191733624Y-114242812D01*
X191699000Y-114068741D01*
X191699000Y-113891259D01*
X191733624Y-113717188D01*
X191801544Y-113553216D01*
X191900147Y-113405646D01*
X192025646Y-113280147D01*
X192173216Y-113181544D01*
X192337188Y-113113624D01*
X192486488Y-113083927D01*
X192511258Y-113079000D01*
X192688742Y-113079000D01*
X192713512Y-113083927D01*
G37*
G36*
X117088228Y-110941703D02*
G01*
X117243100Y-111005853D01*
X117382481Y-111098985D01*
X117501015Y-111217519D01*
X117594147Y-111356900D01*
X117658297Y-111511772D01*
X117691000Y-111676184D01*
X117691000Y-111843816D01*
X117658297Y-112008228D01*
X117594147Y-112163100D01*
X117501015Y-112302481D01*
X117382481Y-112421015D01*
X117243100Y-112514147D01*
X117088228Y-112578297D01*
X116923816Y-112611000D01*
X116756184Y-112611000D01*
X116591772Y-112578297D01*
X116436900Y-112514147D01*
X116297519Y-112421015D01*
X116178985Y-112302481D01*
X116085853Y-112163100D01*
X116021703Y-112008228D01*
X115989000Y-111843816D01*
X115989000Y-111676184D01*
X116021703Y-111511772D01*
X116085853Y-111356900D01*
X116178985Y-111217519D01*
X116297519Y-111098985D01*
X116436900Y-111005853D01*
X116591772Y-110941703D01*
X116756184Y-110909000D01*
X116923816Y-110909000D01*
X117088228Y-110941703D01*
G37*
G36*
X124708228Y-110941703D02*
G01*
X124863100Y-111005853D01*
X125002481Y-111098985D01*
X125121015Y-111217519D01*
X125214147Y-111356900D01*
X125278297Y-111511772D01*
X125311000Y-111676184D01*
X125311000Y-111843816D01*
X125278297Y-112008228D01*
X125214147Y-112163100D01*
X125121015Y-112302481D01*
X125002481Y-112421015D01*
X124863100Y-112514147D01*
X124708228Y-112578297D01*
X124543816Y-112611000D01*
X124376184Y-112611000D01*
X124211772Y-112578297D01*
X124056900Y-112514147D01*
X123917519Y-112421015D01*
X123798985Y-112302481D01*
X123705853Y-112163100D01*
X123641703Y-112008228D01*
X123609000Y-111843816D01*
X123609000Y-111676184D01*
X123641703Y-111511772D01*
X123705853Y-111356900D01*
X123798985Y-111217519D01*
X123917519Y-111098985D01*
X124056900Y-111005853D01*
X124211772Y-110941703D01*
X124376184Y-110909000D01*
X124543816Y-110909000D01*
X124708228Y-110941703D01*
G37*
G36*
X192713512Y-110543927D02*
G01*
X192862812Y-110573624D01*
X193026784Y-110641544D01*
X193174354Y-110740147D01*
X193299853Y-110865646D01*
X193398456Y-111013216D01*
X193466376Y-111177188D01*
X193501000Y-111351259D01*
X193501000Y-111528741D01*
X193466376Y-111702812D01*
X193398456Y-111866784D01*
X193299853Y-112014354D01*
X193174354Y-112139853D01*
X193026784Y-112238456D01*
X192862812Y-112306376D01*
X192713512Y-112336073D01*
X192688742Y-112341000D01*
X192511258Y-112341000D01*
X192486488Y-112336073D01*
X192337188Y-112306376D01*
X192173216Y-112238456D01*
X192025646Y-112139853D01*
X191900147Y-112014354D01*
X191801544Y-111866784D01*
X191733624Y-111702812D01*
X191699000Y-111528741D01*
X191699000Y-111351259D01*
X191733624Y-111177188D01*
X191801544Y-111013216D01*
X191900147Y-110865646D01*
X192025646Y-110740147D01*
X192173216Y-110641544D01*
X192337188Y-110573624D01*
X192486488Y-110543927D01*
X192511258Y-110539000D01*
X192688742Y-110539000D01*
X192713512Y-110543927D01*
G37*
G36*
X217013512Y-110543927D02*
G01*
X217162812Y-110573624D01*
X217326784Y-110641544D01*
X217474354Y-110740147D01*
X217599853Y-110865646D01*
X217698456Y-111013216D01*
X217766376Y-111177188D01*
X217801000Y-111351259D01*
X217801000Y-111528741D01*
X217766376Y-111702812D01*
X217698456Y-111866784D01*
X217599853Y-112014354D01*
X217474354Y-112139853D01*
X217326784Y-112238456D01*
X217162812Y-112306376D01*
X217013512Y-112336073D01*
X216988742Y-112341000D01*
X216811258Y-112341000D01*
X216786488Y-112336073D01*
X216637188Y-112306376D01*
X216473216Y-112238456D01*
X216325646Y-112139853D01*
X216200147Y-112014354D01*
X216101544Y-111866784D01*
X216033624Y-111702812D01*
X215999000Y-111528741D01*
X215999000Y-111351259D01*
X216033624Y-111177188D01*
X216101544Y-111013216D01*
X216200147Y-110865646D01*
X216325646Y-110740147D01*
X216473216Y-110641544D01*
X216637188Y-110573624D01*
X216786488Y-110543927D01*
X216811258Y-110539000D01*
X216988742Y-110539000D01*
X217013512Y-110543927D01*
G37*
G36*
X124708228Y-108401703D02*
G01*
X124863100Y-108465853D01*
X125002481Y-108558985D01*
X125121015Y-108677519D01*
X125214147Y-108816900D01*
X125278297Y-108971772D01*
X125311000Y-109136184D01*
X125311000Y-109303816D01*
X125278297Y-109468228D01*
X125214147Y-109623100D01*
X125121015Y-109762481D01*
X125002481Y-109881015D01*
X124863100Y-109974147D01*
X124708228Y-110038297D01*
X124543816Y-110071000D01*
X124376184Y-110071000D01*
X124211772Y-110038297D01*
X124056900Y-109974147D01*
X123917519Y-109881015D01*
X123798985Y-109762481D01*
X123705853Y-109623100D01*
X123641703Y-109468228D01*
X123609000Y-109303816D01*
X123609000Y-109136184D01*
X123641703Y-108971772D01*
X123705853Y-108816900D01*
X123798985Y-108677519D01*
X123917519Y-108558985D01*
X124056900Y-108465853D01*
X124211772Y-108401703D01*
X124376184Y-108369000D01*
X124543816Y-108369000D01*
X124708228Y-108401703D01*
G37*
G36*
X117088228Y-108401703D02*
G01*
X117243100Y-108465853D01*
X117382481Y-108558985D01*
X117501015Y-108677519D01*
X117594147Y-108816900D01*
X117658297Y-108971772D01*
X117691000Y-109136184D01*
X117691000Y-109303816D01*
X117658297Y-109468228D01*
X117594147Y-109623100D01*
X117501015Y-109762481D01*
X117382481Y-109881015D01*
X117243100Y-109974147D01*
X117088228Y-110038297D01*
X116923816Y-110071000D01*
X116756184Y-110071000D01*
X116591772Y-110038297D01*
X116436900Y-109974147D01*
X116297519Y-109881015D01*
X116178985Y-109762481D01*
X116085853Y-109623100D01*
X116021703Y-109468228D01*
X115989000Y-109303816D01*
X115989000Y-109136184D01*
X116021703Y-108971772D01*
X116085853Y-108816900D01*
X116178985Y-108677519D01*
X116297519Y-108558985D01*
X116436900Y-108465853D01*
X116591772Y-108401703D01*
X116756184Y-108369000D01*
X116923816Y-108369000D01*
X117088228Y-108401703D01*
G37*
G36*
X217013512Y-108003927D02*
G01*
X217162812Y-108033624D01*
X217326784Y-108101544D01*
X217474354Y-108200147D01*
X217599853Y-108325646D01*
X217698456Y-108473216D01*
X217766376Y-108637188D01*
X217801000Y-108811259D01*
X217801000Y-108988741D01*
X217766376Y-109162812D01*
X217698456Y-109326784D01*
X217599853Y-109474354D01*
X217474354Y-109599853D01*
X217326784Y-109698456D01*
X217162812Y-109766376D01*
X217013512Y-109796073D01*
X216988742Y-109801000D01*
X216811258Y-109801000D01*
X216786488Y-109796073D01*
X216637188Y-109766376D01*
X216473216Y-109698456D01*
X216325646Y-109599853D01*
X216200147Y-109474354D01*
X216101544Y-109326784D01*
X216033624Y-109162812D01*
X215999000Y-108988741D01*
X215999000Y-108811259D01*
X216033624Y-108637188D01*
X216101544Y-108473216D01*
X216200147Y-108325646D01*
X216325646Y-108200147D01*
X216473216Y-108101544D01*
X216637188Y-108033624D01*
X216786488Y-108003927D01*
X216811258Y-107999000D01*
X216988742Y-107999000D01*
X217013512Y-108003927D01*
G37*
G36*
X192713512Y-108003927D02*
G01*
X192862812Y-108033624D01*
X193026784Y-108101544D01*
X193174354Y-108200147D01*
X193299853Y-108325646D01*
X193398456Y-108473216D01*
X193466376Y-108637188D01*
X193501000Y-108811259D01*
X193501000Y-108988741D01*
X193466376Y-109162812D01*
X193398456Y-109326784D01*
X193299853Y-109474354D01*
X193174354Y-109599853D01*
X193026784Y-109698456D01*
X192862812Y-109766376D01*
X192713512Y-109796073D01*
X192688742Y-109801000D01*
X192511258Y-109801000D01*
X192486488Y-109796073D01*
X192337188Y-109766376D01*
X192173216Y-109698456D01*
X192025646Y-109599853D01*
X191900147Y-109474354D01*
X191801544Y-109326784D01*
X191733624Y-109162812D01*
X191699000Y-108988741D01*
X191699000Y-108811259D01*
X191733624Y-108637188D01*
X191801544Y-108473216D01*
X191900147Y-108325646D01*
X192025646Y-108200147D01*
X192173216Y-108101544D01*
X192337188Y-108033624D01*
X192486488Y-108003927D01*
X192511258Y-107999000D01*
X192688742Y-107999000D01*
X192713512Y-108003927D01*
G37*
G36*
X117088228Y-105861703D02*
G01*
X117243100Y-105925853D01*
X117382481Y-106018985D01*
X117501015Y-106137519D01*
X117594147Y-106276900D01*
X117658297Y-106431772D01*
X117691000Y-106596184D01*
X117691000Y-106763816D01*
X117658297Y-106928228D01*
X117594147Y-107083100D01*
X117501015Y-107222481D01*
X117382481Y-107341015D01*
X117243100Y-107434147D01*
X117088228Y-107498297D01*
X116923816Y-107531000D01*
X116756184Y-107531000D01*
X116591772Y-107498297D01*
X116436900Y-107434147D01*
X116297519Y-107341015D01*
X116178985Y-107222481D01*
X116085853Y-107083100D01*
X116021703Y-106928228D01*
X115989000Y-106763816D01*
X115989000Y-106596184D01*
X116021703Y-106431772D01*
X116085853Y-106276900D01*
X116178985Y-106137519D01*
X116297519Y-106018985D01*
X116436900Y-105925853D01*
X116591772Y-105861703D01*
X116756184Y-105829000D01*
X116923816Y-105829000D01*
X117088228Y-105861703D01*
G37*
G36*
X124708228Y-105861703D02*
G01*
X124863100Y-105925853D01*
X125002481Y-106018985D01*
X125121015Y-106137519D01*
X125214147Y-106276900D01*
X125278297Y-106431772D01*
X125311000Y-106596184D01*
X125311000Y-106763816D01*
X125278297Y-106928228D01*
X125214147Y-107083100D01*
X125121015Y-107222481D01*
X125002481Y-107341015D01*
X124863100Y-107434147D01*
X124708228Y-107498297D01*
X124543816Y-107531000D01*
X124376184Y-107531000D01*
X124211772Y-107498297D01*
X124056900Y-107434147D01*
X123917519Y-107341015D01*
X123798985Y-107222481D01*
X123705853Y-107083100D01*
X123641703Y-106928228D01*
X123609000Y-106763816D01*
X123609000Y-106596184D01*
X123641703Y-106431772D01*
X123705853Y-106276900D01*
X123798985Y-106137519D01*
X123917519Y-106018985D01*
X124056900Y-105925853D01*
X124211772Y-105861703D01*
X124376184Y-105829000D01*
X124543816Y-105829000D01*
X124708228Y-105861703D01*
G37*
G36*
X217013512Y-105463927D02*
G01*
X217162812Y-105493624D01*
X217326784Y-105561544D01*
X217474354Y-105660147D01*
X217599853Y-105785646D01*
X217698456Y-105933216D01*
X217766376Y-106097188D01*
X217801000Y-106271259D01*
X217801000Y-106448741D01*
X217766376Y-106622812D01*
X217698456Y-106786784D01*
X217599853Y-106934354D01*
X217474354Y-107059853D01*
X217326784Y-107158456D01*
X217162812Y-107226376D01*
X217013512Y-107256073D01*
X216988742Y-107261000D01*
X216811258Y-107261000D01*
X216786488Y-107256073D01*
X216637188Y-107226376D01*
X216473216Y-107158456D01*
X216325646Y-107059853D01*
X216200147Y-106934354D01*
X216101544Y-106786784D01*
X216033624Y-106622812D01*
X215999000Y-106448741D01*
X215999000Y-106271259D01*
X216033624Y-106097188D01*
X216101544Y-105933216D01*
X216200147Y-105785646D01*
X216325646Y-105660147D01*
X216473216Y-105561544D01*
X216637188Y-105493624D01*
X216786488Y-105463927D01*
X216811258Y-105459000D01*
X216988742Y-105459000D01*
X217013512Y-105463927D01*
G37*
G36*
X192713512Y-105463927D02*
G01*
X192862812Y-105493624D01*
X193026784Y-105561544D01*
X193174354Y-105660147D01*
X193299853Y-105785646D01*
X193398456Y-105933216D01*
X193466376Y-106097188D01*
X193501000Y-106271259D01*
X193501000Y-106448741D01*
X193466376Y-106622812D01*
X193398456Y-106786784D01*
X193299853Y-106934354D01*
X193174354Y-107059853D01*
X193026784Y-107158456D01*
X192862812Y-107226376D01*
X192713512Y-107256073D01*
X192688742Y-107261000D01*
X192511258Y-107261000D01*
X192486488Y-107256073D01*
X192337188Y-107226376D01*
X192173216Y-107158456D01*
X192025646Y-107059853D01*
X191900147Y-106934354D01*
X191801544Y-106786784D01*
X191733624Y-106622812D01*
X191699000Y-106448741D01*
X191699000Y-106271259D01*
X191733624Y-106097188D01*
X191801544Y-105933216D01*
X191900147Y-105785646D01*
X192025646Y-105660147D01*
X192173216Y-105561544D01*
X192337188Y-105493624D01*
X192486488Y-105463927D01*
X192511258Y-105459000D01*
X192688742Y-105459000D01*
X192713512Y-105463927D01*
G37*
G36*
X165458228Y-103791703D02*
G01*
X165613100Y-103855853D01*
X165752481Y-103948985D01*
X165871015Y-104067519D01*
X165964147Y-104206900D01*
X166028297Y-104361772D01*
X166061000Y-104526184D01*
X166061000Y-104693816D01*
X166028297Y-104858228D01*
X165964147Y-105013100D01*
X165871015Y-105152481D01*
X165752481Y-105271015D01*
X165613100Y-105364147D01*
X165458228Y-105428297D01*
X165293816Y-105461000D01*
X165126184Y-105461000D01*
X164961772Y-105428297D01*
X164806900Y-105364147D01*
X164667519Y-105271015D01*
X164548985Y-105152481D01*
X164455853Y-105013100D01*
X164391703Y-104858228D01*
X164359000Y-104693816D01*
X164359000Y-104526184D01*
X164391703Y-104361772D01*
X164455853Y-104206900D01*
X164548985Y-104067519D01*
X164667519Y-103948985D01*
X164806900Y-103855853D01*
X164961772Y-103791703D01*
X165126184Y-103759000D01*
X165293816Y-103759000D01*
X165458228Y-103791703D01*
G37*
G36*
X168601000Y-105461000D02*
G01*
X166899000Y-105461000D01*
X166899000Y-103759000D01*
X168601000Y-103759000D01*
X168601000Y-105461000D01*
G37*
G36*
X147678228Y-103791703D02*
G01*
X147833100Y-103855853D01*
X147972481Y-103948985D01*
X148091015Y-104067519D01*
X148184147Y-104206900D01*
X148248297Y-104361772D01*
X148281000Y-104526184D01*
X148281000Y-104693816D01*
X148248297Y-104858228D01*
X148184147Y-105013100D01*
X148091015Y-105152481D01*
X147972481Y-105271015D01*
X147833100Y-105364147D01*
X147678228Y-105428297D01*
X147513816Y-105461000D01*
X147346184Y-105461000D01*
X147181772Y-105428297D01*
X147026900Y-105364147D01*
X146887519Y-105271015D01*
X146768985Y-105152481D01*
X146675853Y-105013100D01*
X146611703Y-104858228D01*
X146579000Y-104693816D01*
X146579000Y-104526184D01*
X146611703Y-104361772D01*
X146675853Y-104206900D01*
X146768985Y-104067519D01*
X146887519Y-103948985D01*
X147026900Y-103855853D01*
X147181772Y-103791703D01*
X147346184Y-103759000D01*
X147513816Y-103759000D01*
X147678228Y-103791703D01*
G37*
G36*
X140058228Y-103791703D02*
G01*
X140213100Y-103855853D01*
X140352481Y-103948985D01*
X140471015Y-104067519D01*
X140564147Y-104206900D01*
X140628297Y-104361772D01*
X140661000Y-104526184D01*
X140661000Y-104693816D01*
X140628297Y-104858228D01*
X140564147Y-105013100D01*
X140471015Y-105152481D01*
X140352481Y-105271015D01*
X140213100Y-105364147D01*
X140058228Y-105428297D01*
X139893816Y-105461000D01*
X139726184Y-105461000D01*
X139561772Y-105428297D01*
X139406900Y-105364147D01*
X139267519Y-105271015D01*
X139148985Y-105152481D01*
X139055853Y-105013100D01*
X138991703Y-104858228D01*
X138959000Y-104693816D01*
X138959000Y-104526184D01*
X138991703Y-104361772D01*
X139055853Y-104206900D01*
X139148985Y-104067519D01*
X139267519Y-103948985D01*
X139406900Y-103855853D01*
X139561772Y-103791703D01*
X139726184Y-103759000D01*
X139893816Y-103759000D01*
X140058228Y-103791703D01*
G37*
G36*
X142598228Y-103791703D02*
G01*
X142753100Y-103855853D01*
X142892481Y-103948985D01*
X143011015Y-104067519D01*
X143104147Y-104206900D01*
X143168297Y-104361772D01*
X143201000Y-104526184D01*
X143201000Y-104693816D01*
X143168297Y-104858228D01*
X143104147Y-105013100D01*
X143011015Y-105152481D01*
X142892481Y-105271015D01*
X142753100Y-105364147D01*
X142598228Y-105428297D01*
X142433816Y-105461000D01*
X142266184Y-105461000D01*
X142101772Y-105428297D01*
X141946900Y-105364147D01*
X141807519Y-105271015D01*
X141688985Y-105152481D01*
X141595853Y-105013100D01*
X141531703Y-104858228D01*
X141499000Y-104693816D01*
X141499000Y-104526184D01*
X141531703Y-104361772D01*
X141595853Y-104206900D01*
X141688985Y-104067519D01*
X141807519Y-103948985D01*
X141946900Y-103855853D01*
X142101772Y-103791703D01*
X142266184Y-103759000D01*
X142433816Y-103759000D01*
X142598228Y-103791703D01*
G37*
G36*
X145138228Y-103791703D02*
G01*
X145293100Y-103855853D01*
X145432481Y-103948985D01*
X145551015Y-104067519D01*
X145644147Y-104206900D01*
X145708297Y-104361772D01*
X145741000Y-104526184D01*
X145741000Y-104693816D01*
X145708297Y-104858228D01*
X145644147Y-105013100D01*
X145551015Y-105152481D01*
X145432481Y-105271015D01*
X145293100Y-105364147D01*
X145138228Y-105428297D01*
X144973816Y-105461000D01*
X144806184Y-105461000D01*
X144641772Y-105428297D01*
X144486900Y-105364147D01*
X144347519Y-105271015D01*
X144228985Y-105152481D01*
X144135853Y-105013100D01*
X144071703Y-104858228D01*
X144039000Y-104693816D01*
X144039000Y-104526184D01*
X144071703Y-104361772D01*
X144135853Y-104206900D01*
X144228985Y-104067519D01*
X144347519Y-103948985D01*
X144486900Y-103855853D01*
X144641772Y-103791703D01*
X144806184Y-103759000D01*
X144973816Y-103759000D01*
X145138228Y-103791703D01*
G37*
G36*
X150218228Y-103791703D02*
G01*
X150373100Y-103855853D01*
X150512481Y-103948985D01*
X150631015Y-104067519D01*
X150724147Y-104206900D01*
X150788297Y-104361772D01*
X150821000Y-104526184D01*
X150821000Y-104693816D01*
X150788297Y-104858228D01*
X150724147Y-105013100D01*
X150631015Y-105152481D01*
X150512481Y-105271015D01*
X150373100Y-105364147D01*
X150218228Y-105428297D01*
X150053816Y-105461000D01*
X149886184Y-105461000D01*
X149721772Y-105428297D01*
X149566900Y-105364147D01*
X149427519Y-105271015D01*
X149308985Y-105152481D01*
X149215853Y-105013100D01*
X149151703Y-104858228D01*
X149119000Y-104693816D01*
X149119000Y-104526184D01*
X149151703Y-104361772D01*
X149215853Y-104206900D01*
X149308985Y-104067519D01*
X149427519Y-103948985D01*
X149566900Y-103855853D01*
X149721772Y-103791703D01*
X149886184Y-103759000D01*
X150053816Y-103759000D01*
X150218228Y-103791703D01*
G37*
G36*
X137518228Y-103791703D02*
G01*
X137673100Y-103855853D01*
X137812481Y-103948985D01*
X137931015Y-104067519D01*
X138024147Y-104206900D01*
X138088297Y-104361772D01*
X138121000Y-104526184D01*
X138121000Y-104693816D01*
X138088297Y-104858228D01*
X138024147Y-105013100D01*
X137931015Y-105152481D01*
X137812481Y-105271015D01*
X137673100Y-105364147D01*
X137518228Y-105428297D01*
X137353816Y-105461000D01*
X137186184Y-105461000D01*
X137021772Y-105428297D01*
X136866900Y-105364147D01*
X136727519Y-105271015D01*
X136608985Y-105152481D01*
X136515853Y-105013100D01*
X136451703Y-104858228D01*
X136419000Y-104693816D01*
X136419000Y-104526184D01*
X136451703Y-104361772D01*
X136515853Y-104206900D01*
X136608985Y-104067519D01*
X136727519Y-103948985D01*
X136866900Y-103855853D01*
X137021772Y-103791703D01*
X137186184Y-103759000D01*
X137353816Y-103759000D01*
X137518228Y-103791703D01*
G37*
G36*
X162918228Y-103791703D02*
G01*
X163073100Y-103855853D01*
X163212481Y-103948985D01*
X163331015Y-104067519D01*
X163424147Y-104206900D01*
X163488297Y-104361772D01*
X163521000Y-104526184D01*
X163521000Y-104693816D01*
X163488297Y-104858228D01*
X163424147Y-105013100D01*
X163331015Y-105152481D01*
X163212481Y-105271015D01*
X163073100Y-105364147D01*
X162918228Y-105428297D01*
X162753816Y-105461000D01*
X162586184Y-105461000D01*
X162421772Y-105428297D01*
X162266900Y-105364147D01*
X162127519Y-105271015D01*
X162008985Y-105152481D01*
X161915853Y-105013100D01*
X161851703Y-104858228D01*
X161819000Y-104693816D01*
X161819000Y-104526184D01*
X161851703Y-104361772D01*
X161915853Y-104206900D01*
X162008985Y-104067519D01*
X162127519Y-103948985D01*
X162266900Y-103855853D01*
X162421772Y-103791703D01*
X162586184Y-103759000D01*
X162753816Y-103759000D01*
X162918228Y-103791703D01*
G37*
G36*
X152758228Y-103791703D02*
G01*
X152913100Y-103855853D01*
X153052481Y-103948985D01*
X153171015Y-104067519D01*
X153264147Y-104206900D01*
X153328297Y-104361772D01*
X153361000Y-104526184D01*
X153361000Y-104693816D01*
X153328297Y-104858228D01*
X153264147Y-105013100D01*
X153171015Y-105152481D01*
X153052481Y-105271015D01*
X152913100Y-105364147D01*
X152758228Y-105428297D01*
X152593816Y-105461000D01*
X152426184Y-105461000D01*
X152261772Y-105428297D01*
X152106900Y-105364147D01*
X151967519Y-105271015D01*
X151848985Y-105152481D01*
X151755853Y-105013100D01*
X151691703Y-104858228D01*
X151659000Y-104693816D01*
X151659000Y-104526184D01*
X151691703Y-104361772D01*
X151755853Y-104206900D01*
X151848985Y-104067519D01*
X151967519Y-103948985D01*
X152106900Y-103855853D01*
X152261772Y-103791703D01*
X152426184Y-103759000D01*
X152593816Y-103759000D01*
X152758228Y-103791703D01*
G37*
G36*
X155298228Y-103791703D02*
G01*
X155453100Y-103855853D01*
X155592481Y-103948985D01*
X155711015Y-104067519D01*
X155804147Y-104206900D01*
X155868297Y-104361772D01*
X155901000Y-104526184D01*
X155901000Y-104693816D01*
X155868297Y-104858228D01*
X155804147Y-105013100D01*
X155711015Y-105152481D01*
X155592481Y-105271015D01*
X155453100Y-105364147D01*
X155298228Y-105428297D01*
X155133816Y-105461000D01*
X154966184Y-105461000D01*
X154801772Y-105428297D01*
X154646900Y-105364147D01*
X154507519Y-105271015D01*
X154388985Y-105152481D01*
X154295853Y-105013100D01*
X154231703Y-104858228D01*
X154199000Y-104693816D01*
X154199000Y-104526184D01*
X154231703Y-104361772D01*
X154295853Y-104206900D01*
X154388985Y-104067519D01*
X154507519Y-103948985D01*
X154646900Y-103855853D01*
X154801772Y-103791703D01*
X154966184Y-103759000D01*
X155133816Y-103759000D01*
X155298228Y-103791703D01*
G37*
G36*
X134978228Y-103791703D02*
G01*
X135133100Y-103855853D01*
X135272481Y-103948985D01*
X135391015Y-104067519D01*
X135484147Y-104206900D01*
X135548297Y-104361772D01*
X135581000Y-104526184D01*
X135581000Y-104693816D01*
X135548297Y-104858228D01*
X135484147Y-105013100D01*
X135391015Y-105152481D01*
X135272481Y-105271015D01*
X135133100Y-105364147D01*
X134978228Y-105428297D01*
X134813816Y-105461000D01*
X134646184Y-105461000D01*
X134481772Y-105428297D01*
X134326900Y-105364147D01*
X134187519Y-105271015D01*
X134068985Y-105152481D01*
X133975853Y-105013100D01*
X133911703Y-104858228D01*
X133879000Y-104693816D01*
X133879000Y-104526184D01*
X133911703Y-104361772D01*
X133975853Y-104206900D01*
X134068985Y-104067519D01*
X134187519Y-103948985D01*
X134326900Y-103855853D01*
X134481772Y-103791703D01*
X134646184Y-103759000D01*
X134813816Y-103759000D01*
X134978228Y-103791703D01*
G37*
G36*
X160378228Y-103791703D02*
G01*
X160533100Y-103855853D01*
X160672481Y-103948985D01*
X160791015Y-104067519D01*
X160884147Y-104206900D01*
X160948297Y-104361772D01*
X160981000Y-104526184D01*
X160981000Y-104693816D01*
X160948297Y-104858228D01*
X160884147Y-105013100D01*
X160791015Y-105152481D01*
X160672481Y-105271015D01*
X160533100Y-105364147D01*
X160378228Y-105428297D01*
X160213816Y-105461000D01*
X160046184Y-105461000D01*
X159881772Y-105428297D01*
X159726900Y-105364147D01*
X159587519Y-105271015D01*
X159468985Y-105152481D01*
X159375853Y-105013100D01*
X159311703Y-104858228D01*
X159279000Y-104693816D01*
X159279000Y-104526184D01*
X159311703Y-104361772D01*
X159375853Y-104206900D01*
X159468985Y-104067519D01*
X159587519Y-103948985D01*
X159726900Y-103855853D01*
X159881772Y-103791703D01*
X160046184Y-103759000D01*
X160213816Y-103759000D01*
X160378228Y-103791703D01*
G37*
G36*
X157838228Y-103791703D02*
G01*
X157993100Y-103855853D01*
X158132481Y-103948985D01*
X158251015Y-104067519D01*
X158344147Y-104206900D01*
X158408297Y-104361772D01*
X158441000Y-104526184D01*
X158441000Y-104693816D01*
X158408297Y-104858228D01*
X158344147Y-105013100D01*
X158251015Y-105152481D01*
X158132481Y-105271015D01*
X157993100Y-105364147D01*
X157838228Y-105428297D01*
X157673816Y-105461000D01*
X157506184Y-105461000D01*
X157341772Y-105428297D01*
X157186900Y-105364147D01*
X157047519Y-105271015D01*
X156928985Y-105152481D01*
X156835853Y-105013100D01*
X156771703Y-104858228D01*
X156739000Y-104693816D01*
X156739000Y-104526184D01*
X156771703Y-104361772D01*
X156835853Y-104206900D01*
X156928985Y-104067519D01*
X157047519Y-103948985D01*
X157186900Y-103855853D01*
X157341772Y-103791703D01*
X157506184Y-103759000D01*
X157673816Y-103759000D01*
X157838228Y-103791703D01*
G37*
G36*
X117088228Y-103321703D02*
G01*
X117243100Y-103385853D01*
X117382481Y-103478985D01*
X117501015Y-103597519D01*
X117594147Y-103736900D01*
X117658297Y-103891772D01*
X117691000Y-104056184D01*
X117691000Y-104223816D01*
X117658297Y-104388228D01*
X117594147Y-104543100D01*
X117501015Y-104682481D01*
X117382481Y-104801015D01*
X117243100Y-104894147D01*
X117088228Y-104958297D01*
X116923816Y-104991000D01*
X116756184Y-104991000D01*
X116591772Y-104958297D01*
X116436900Y-104894147D01*
X116297519Y-104801015D01*
X116178985Y-104682481D01*
X116085853Y-104543100D01*
X116021703Y-104388228D01*
X115989000Y-104223816D01*
X115989000Y-104056184D01*
X116021703Y-103891772D01*
X116085853Y-103736900D01*
X116178985Y-103597519D01*
X116297519Y-103478985D01*
X116436900Y-103385853D01*
X116591772Y-103321703D01*
X116756184Y-103289000D01*
X116923816Y-103289000D01*
X117088228Y-103321703D01*
G37*
G36*
X124708228Y-103321703D02*
G01*
X124863100Y-103385853D01*
X125002481Y-103478985D01*
X125121015Y-103597519D01*
X125214147Y-103736900D01*
X125278297Y-103891772D01*
X125311000Y-104056184D01*
X125311000Y-104223816D01*
X125278297Y-104388228D01*
X125214147Y-104543100D01*
X125121015Y-104682481D01*
X125002481Y-104801015D01*
X124863100Y-104894147D01*
X124708228Y-104958297D01*
X124543816Y-104991000D01*
X124376184Y-104991000D01*
X124211772Y-104958297D01*
X124056900Y-104894147D01*
X123917519Y-104801015D01*
X123798985Y-104682481D01*
X123705853Y-104543100D01*
X123641703Y-104388228D01*
X123609000Y-104223816D01*
X123609000Y-104056184D01*
X123641703Y-103891772D01*
X123705853Y-103736900D01*
X123798985Y-103597519D01*
X123917519Y-103478985D01*
X124056900Y-103385853D01*
X124211772Y-103321703D01*
X124376184Y-103289000D01*
X124543816Y-103289000D01*
X124708228Y-103321703D01*
G37*
G36*
X217013512Y-102923927D02*
G01*
X217162812Y-102953624D01*
X217326784Y-103021544D01*
X217474354Y-103120147D01*
X217599853Y-103245646D01*
X217698456Y-103393216D01*
X217766376Y-103557188D01*
X217801000Y-103731259D01*
X217801000Y-103908741D01*
X217766376Y-104082812D01*
X217698456Y-104246784D01*
X217599853Y-104394354D01*
X217474354Y-104519853D01*
X217326784Y-104618456D01*
X217162812Y-104686376D01*
X217013512Y-104716073D01*
X216988742Y-104721000D01*
X216811258Y-104721000D01*
X216786488Y-104716073D01*
X216637188Y-104686376D01*
X216473216Y-104618456D01*
X216325646Y-104519853D01*
X216200147Y-104394354D01*
X216101544Y-104246784D01*
X216033624Y-104082812D01*
X215999000Y-103908741D01*
X215999000Y-103731259D01*
X216033624Y-103557188D01*
X216101544Y-103393216D01*
X216200147Y-103245646D01*
X216325646Y-103120147D01*
X216473216Y-103021544D01*
X216637188Y-102953624D01*
X216786488Y-102923927D01*
X216811258Y-102919000D01*
X216988742Y-102919000D01*
X217013512Y-102923927D01*
G37*
G36*
X192713512Y-102923927D02*
G01*
X192862812Y-102953624D01*
X193026784Y-103021544D01*
X193174354Y-103120147D01*
X193299853Y-103245646D01*
X193398456Y-103393216D01*
X193466376Y-103557188D01*
X193501000Y-103731259D01*
X193501000Y-103908741D01*
X193466376Y-104082812D01*
X193398456Y-104246784D01*
X193299853Y-104394354D01*
X193174354Y-104519853D01*
X193026784Y-104618456D01*
X192862812Y-104686376D01*
X192713512Y-104716073D01*
X192688742Y-104721000D01*
X192511258Y-104721000D01*
X192486488Y-104716073D01*
X192337188Y-104686376D01*
X192173216Y-104618456D01*
X192025646Y-104519853D01*
X191900147Y-104394354D01*
X191801544Y-104246784D01*
X191733624Y-104082812D01*
X191699000Y-103908741D01*
X191699000Y-103731259D01*
X191733624Y-103557188D01*
X191801544Y-103393216D01*
X191900147Y-103245646D01*
X192025646Y-103120147D01*
X192173216Y-103021544D01*
X192337188Y-102953624D01*
X192486488Y-102923927D01*
X192511258Y-102919000D01*
X192688742Y-102919000D01*
X192713512Y-102923927D01*
G37*
G36*
X217013512Y-100383927D02*
G01*
X217162812Y-100413624D01*
X217326784Y-100481544D01*
X217474354Y-100580147D01*
X217599853Y-100705646D01*
X217698456Y-100853216D01*
X217766376Y-101017188D01*
X217801000Y-101191259D01*
X217801000Y-101368741D01*
X217766376Y-101542812D01*
X217698456Y-101706784D01*
X217599853Y-101854354D01*
X217474354Y-101979853D01*
X217326784Y-102078456D01*
X217162812Y-102146376D01*
X217013512Y-102176073D01*
X216988742Y-102181000D01*
X216811258Y-102181000D01*
X216786488Y-102176073D01*
X216637188Y-102146376D01*
X216473216Y-102078456D01*
X216325646Y-101979853D01*
X216200147Y-101854354D01*
X216101544Y-101706784D01*
X216033624Y-101542812D01*
X215999000Y-101368741D01*
X215999000Y-101191259D01*
X216033624Y-101017188D01*
X216101544Y-100853216D01*
X216200147Y-100705646D01*
X216325646Y-100580147D01*
X216473216Y-100481544D01*
X216637188Y-100413624D01*
X216786488Y-100383927D01*
X216811258Y-100379000D01*
X216988742Y-100379000D01*
X217013512Y-100383927D01*
G37*
G36*
X192713512Y-100383927D02*
G01*
X192862812Y-100413624D01*
X193026784Y-100481544D01*
X193174354Y-100580147D01*
X193299853Y-100705646D01*
X193398456Y-100853216D01*
X193466376Y-101017188D01*
X193501000Y-101191259D01*
X193501000Y-101368741D01*
X193466376Y-101542812D01*
X193398456Y-101706784D01*
X193299853Y-101854354D01*
X193174354Y-101979853D01*
X193026784Y-102078456D01*
X192862812Y-102146376D01*
X192713512Y-102176073D01*
X192688742Y-102181000D01*
X192511258Y-102181000D01*
X192486488Y-102176073D01*
X192337188Y-102146376D01*
X192173216Y-102078456D01*
X192025646Y-101979853D01*
X191900147Y-101854354D01*
X191801544Y-101706784D01*
X191733624Y-101542812D01*
X191699000Y-101368741D01*
X191699000Y-101191259D01*
X191733624Y-101017188D01*
X191801544Y-100853216D01*
X191900147Y-100705646D01*
X192025646Y-100580147D01*
X192173216Y-100481544D01*
X192337188Y-100413624D01*
X192486488Y-100383927D01*
X192511258Y-100379000D01*
X192688742Y-100379000D01*
X192713512Y-100383927D01*
G37*
G36*
X119048228Y-98881703D02*
G01*
X119203100Y-98945853D01*
X119342481Y-99038985D01*
X119461015Y-99157519D01*
X119554147Y-99296900D01*
X119618297Y-99451772D01*
X119651000Y-99616184D01*
X119651000Y-99783816D01*
X119618297Y-99948228D01*
X119554147Y-100103100D01*
X119461015Y-100242481D01*
X119342481Y-100361015D01*
X119203100Y-100454147D01*
X119048228Y-100518297D01*
X118883816Y-100551000D01*
X118716184Y-100551000D01*
X118551772Y-100518297D01*
X118396900Y-100454147D01*
X118257519Y-100361015D01*
X118138985Y-100242481D01*
X118045853Y-100103100D01*
X117981703Y-99948228D01*
X117949000Y-99783816D01*
X117949000Y-99616184D01*
X117981703Y-99451772D01*
X118045853Y-99296900D01*
X118138985Y-99157519D01*
X118257519Y-99038985D01*
X118396900Y-98945853D01*
X118551772Y-98881703D01*
X118716184Y-98849000D01*
X118883816Y-98849000D01*
X119048228Y-98881703D01*
G37*
G36*
X124048228Y-98881703D02*
G01*
X124203100Y-98945853D01*
X124342481Y-99038985D01*
X124461015Y-99157519D01*
X124554147Y-99296900D01*
X124618297Y-99451772D01*
X124651000Y-99616184D01*
X124651000Y-99783816D01*
X124618297Y-99948228D01*
X124554147Y-100103100D01*
X124461015Y-100242481D01*
X124342481Y-100361015D01*
X124203100Y-100454147D01*
X124048228Y-100518297D01*
X123883816Y-100551000D01*
X123716184Y-100551000D01*
X123551772Y-100518297D01*
X123396900Y-100454147D01*
X123257519Y-100361015D01*
X123138985Y-100242481D01*
X123045853Y-100103100D01*
X122981703Y-99948228D01*
X122949000Y-99783816D01*
X122949000Y-99616184D01*
X122981703Y-99451772D01*
X123045853Y-99296900D01*
X123138985Y-99157519D01*
X123257519Y-99038985D01*
X123396900Y-98945853D01*
X123551772Y-98881703D01*
X123716184Y-98849000D01*
X123883816Y-98849000D01*
X124048228Y-98881703D01*
G37*
G36*
X192713512Y-97843927D02*
G01*
X192862812Y-97873624D01*
X193026784Y-97941544D01*
X193174354Y-98040147D01*
X193299853Y-98165646D01*
X193398456Y-98313216D01*
X193466376Y-98477188D01*
X193501000Y-98651259D01*
X193501000Y-98828741D01*
X193466376Y-99002812D01*
X193398456Y-99166784D01*
X193299853Y-99314354D01*
X193174354Y-99439853D01*
X193026784Y-99538456D01*
X192862812Y-99606376D01*
X192713512Y-99636073D01*
X192688742Y-99641000D01*
X192511258Y-99641000D01*
X192486488Y-99636073D01*
X192337188Y-99606376D01*
X192173216Y-99538456D01*
X192025646Y-99439853D01*
X191900147Y-99314354D01*
X191801544Y-99166784D01*
X191733624Y-99002812D01*
X191699000Y-98828741D01*
X191699000Y-98651259D01*
X191733624Y-98477188D01*
X191801544Y-98313216D01*
X191900147Y-98165646D01*
X192025646Y-98040147D01*
X192173216Y-97941544D01*
X192337188Y-97873624D01*
X192486488Y-97843927D01*
X192511258Y-97839000D01*
X192688742Y-97839000D01*
X192713512Y-97843927D01*
G37*
G36*
X217013512Y-97843927D02*
G01*
X217162812Y-97873624D01*
X217326784Y-97941544D01*
X217474354Y-98040147D01*
X217599853Y-98165646D01*
X217698456Y-98313216D01*
X217766376Y-98477188D01*
X217801000Y-98651259D01*
X217801000Y-98828741D01*
X217766376Y-99002812D01*
X217698456Y-99166784D01*
X217599853Y-99314354D01*
X217474354Y-99439853D01*
X217326784Y-99538456D01*
X217162812Y-99606376D01*
X217013512Y-99636073D01*
X216988742Y-99641000D01*
X216811258Y-99641000D01*
X216786488Y-99636073D01*
X216637188Y-99606376D01*
X216473216Y-99538456D01*
X216325646Y-99439853D01*
X216200147Y-99314354D01*
X216101544Y-99166784D01*
X216033624Y-99002812D01*
X215999000Y-98828741D01*
X215999000Y-98651259D01*
X216033624Y-98477188D01*
X216101544Y-98313216D01*
X216200147Y-98165646D01*
X216325646Y-98040147D01*
X216473216Y-97941544D01*
X216637188Y-97873624D01*
X216786488Y-97843927D01*
X216811258Y-97839000D01*
X216988742Y-97839000D01*
X217013512Y-97843927D01*
G37*
G36*
X217013512Y-95303927D02*
G01*
X217162812Y-95333624D01*
X217326784Y-95401544D01*
X217474354Y-95500147D01*
X217599853Y-95625646D01*
X217698456Y-95773216D01*
X217766376Y-95937188D01*
X217801000Y-96111259D01*
X217801000Y-96288741D01*
X217766376Y-96462812D01*
X217698456Y-96626784D01*
X217599853Y-96774354D01*
X217474354Y-96899853D01*
X217326784Y-96998456D01*
X217162812Y-97066376D01*
X217013512Y-97096073D01*
X216988742Y-97101000D01*
X216811258Y-97101000D01*
X216786488Y-97096073D01*
X216637188Y-97066376D01*
X216473216Y-96998456D01*
X216325646Y-96899853D01*
X216200147Y-96774354D01*
X216101544Y-96626784D01*
X216033624Y-96462812D01*
X215999000Y-96288741D01*
X215999000Y-96111259D01*
X216033624Y-95937188D01*
X216101544Y-95773216D01*
X216200147Y-95625646D01*
X216325646Y-95500147D01*
X216473216Y-95401544D01*
X216637188Y-95333624D01*
X216786488Y-95303927D01*
X216811258Y-95299000D01*
X216988742Y-95299000D01*
X217013512Y-95303927D01*
G37*
G36*
X192713512Y-95303927D02*
G01*
X192862812Y-95333624D01*
X193026784Y-95401544D01*
X193174354Y-95500147D01*
X193299853Y-95625646D01*
X193398456Y-95773216D01*
X193466376Y-95937188D01*
X193501000Y-96111259D01*
X193501000Y-96288741D01*
X193466376Y-96462812D01*
X193398456Y-96626784D01*
X193299853Y-96774354D01*
X193174354Y-96899853D01*
X193026784Y-96998456D01*
X192862812Y-97066376D01*
X192713512Y-97096073D01*
X192688742Y-97101000D01*
X192511258Y-97101000D01*
X192486488Y-97096073D01*
X192337188Y-97066376D01*
X192173216Y-96998456D01*
X192025646Y-96899853D01*
X191900147Y-96774354D01*
X191801544Y-96626784D01*
X191733624Y-96462812D01*
X191699000Y-96288741D01*
X191699000Y-96111259D01*
X191733624Y-95937188D01*
X191801544Y-95773216D01*
X191900147Y-95625646D01*
X192025646Y-95500147D01*
X192173216Y-95401544D01*
X192337188Y-95333624D01*
X192486488Y-95303927D01*
X192511258Y-95299000D01*
X192688742Y-95299000D01*
X192713512Y-95303927D01*
G37*
G36*
X152538228Y-95281703D02*
G01*
X152693100Y-95345853D01*
X152832481Y-95438985D01*
X152951015Y-95557519D01*
X153044147Y-95696900D01*
X153108297Y-95851772D01*
X153141000Y-96016184D01*
X153141000Y-96183816D01*
X153108297Y-96348228D01*
X153044147Y-96503100D01*
X152951015Y-96642481D01*
X152832481Y-96761015D01*
X152693100Y-96854147D01*
X152538228Y-96918297D01*
X152373816Y-96951000D01*
X152206184Y-96951000D01*
X152041772Y-96918297D01*
X151886900Y-96854147D01*
X151747519Y-96761015D01*
X151628985Y-96642481D01*
X151535853Y-96503100D01*
X151471703Y-96348228D01*
X151439000Y-96183816D01*
X151439000Y-96016184D01*
X151471703Y-95851772D01*
X151535853Y-95696900D01*
X151628985Y-95557519D01*
X151747519Y-95438985D01*
X151886900Y-95345853D01*
X152041772Y-95281703D01*
X152206184Y-95249000D01*
X152373816Y-95249000D01*
X152538228Y-95281703D01*
G37*
G36*
X142378228Y-95281703D02*
G01*
X142533100Y-95345853D01*
X142672481Y-95438985D01*
X142791015Y-95557519D01*
X142884147Y-95696900D01*
X142948297Y-95851772D01*
X142981000Y-96016184D01*
X142981000Y-96183816D01*
X142948297Y-96348228D01*
X142884147Y-96503100D01*
X142791015Y-96642481D01*
X142672481Y-96761015D01*
X142533100Y-96854147D01*
X142378228Y-96918297D01*
X142213816Y-96951000D01*
X142046184Y-96951000D01*
X141881772Y-96918297D01*
X141726900Y-96854147D01*
X141587519Y-96761015D01*
X141468985Y-96642481D01*
X141375853Y-96503100D01*
X141311703Y-96348228D01*
X141279000Y-96183816D01*
X141279000Y-96016184D01*
X141311703Y-95851772D01*
X141375853Y-95696900D01*
X141468985Y-95557519D01*
X141587519Y-95438985D01*
X141726900Y-95345853D01*
X141881772Y-95281703D01*
X142046184Y-95249000D01*
X142213816Y-95249000D01*
X142378228Y-95281703D01*
G37*
G36*
X144918228Y-95281703D02*
G01*
X145073100Y-95345853D01*
X145212481Y-95438985D01*
X145331015Y-95557519D01*
X145424147Y-95696900D01*
X145488297Y-95851772D01*
X145521000Y-96016184D01*
X145521000Y-96183816D01*
X145488297Y-96348228D01*
X145424147Y-96503100D01*
X145331015Y-96642481D01*
X145212481Y-96761015D01*
X145073100Y-96854147D01*
X144918228Y-96918297D01*
X144753816Y-96951000D01*
X144586184Y-96951000D01*
X144421772Y-96918297D01*
X144266900Y-96854147D01*
X144127519Y-96761015D01*
X144008985Y-96642481D01*
X143915853Y-96503100D01*
X143851703Y-96348228D01*
X143819000Y-96183816D01*
X143819000Y-96016184D01*
X143851703Y-95851772D01*
X143915853Y-95696900D01*
X144008985Y-95557519D01*
X144127519Y-95438985D01*
X144266900Y-95345853D01*
X144421772Y-95281703D01*
X144586184Y-95249000D01*
X144753816Y-95249000D01*
X144918228Y-95281703D01*
G37*
G36*
X149998228Y-95281703D02*
G01*
X150153100Y-95345853D01*
X150292481Y-95438985D01*
X150411015Y-95557519D01*
X150504147Y-95696900D01*
X150568297Y-95851772D01*
X150601000Y-96016184D01*
X150601000Y-96183816D01*
X150568297Y-96348228D01*
X150504147Y-96503100D01*
X150411015Y-96642481D01*
X150292481Y-96761015D01*
X150153100Y-96854147D01*
X149998228Y-96918297D01*
X149833816Y-96951000D01*
X149666184Y-96951000D01*
X149501772Y-96918297D01*
X149346900Y-96854147D01*
X149207519Y-96761015D01*
X149088985Y-96642481D01*
X148995853Y-96503100D01*
X148931703Y-96348228D01*
X148899000Y-96183816D01*
X148899000Y-96016184D01*
X148931703Y-95851772D01*
X148995853Y-95696900D01*
X149088985Y-95557519D01*
X149207519Y-95438985D01*
X149346900Y-95345853D01*
X149501772Y-95281703D01*
X149666184Y-95249000D01*
X149833816Y-95249000D01*
X149998228Y-95281703D01*
G37*
G36*
X139838228Y-95281703D02*
G01*
X139993100Y-95345853D01*
X140132481Y-95438985D01*
X140251015Y-95557519D01*
X140344147Y-95696900D01*
X140408297Y-95851772D01*
X140441000Y-96016184D01*
X140441000Y-96183816D01*
X140408297Y-96348228D01*
X140344147Y-96503100D01*
X140251015Y-96642481D01*
X140132481Y-96761015D01*
X139993100Y-96854147D01*
X139838228Y-96918297D01*
X139673816Y-96951000D01*
X139506184Y-96951000D01*
X139341772Y-96918297D01*
X139186900Y-96854147D01*
X139047519Y-96761015D01*
X138928985Y-96642481D01*
X138835853Y-96503100D01*
X138771703Y-96348228D01*
X138739000Y-96183816D01*
X138739000Y-96016184D01*
X138771703Y-95851772D01*
X138835853Y-95696900D01*
X138928985Y-95557519D01*
X139047519Y-95438985D01*
X139186900Y-95345853D01*
X139341772Y-95281703D01*
X139506184Y-95249000D01*
X139673816Y-95249000D01*
X139838228Y-95281703D01*
G37*
G36*
X137298228Y-95281703D02*
G01*
X137453100Y-95345853D01*
X137592481Y-95438985D01*
X137711015Y-95557519D01*
X137804147Y-95696900D01*
X137868297Y-95851772D01*
X137901000Y-96016184D01*
X137901000Y-96183816D01*
X137868297Y-96348228D01*
X137804147Y-96503100D01*
X137711015Y-96642481D01*
X137592481Y-96761015D01*
X137453100Y-96854147D01*
X137298228Y-96918297D01*
X137133816Y-96951000D01*
X136966184Y-96951000D01*
X136801772Y-96918297D01*
X136646900Y-96854147D01*
X136507519Y-96761015D01*
X136388985Y-96642481D01*
X136295853Y-96503100D01*
X136231703Y-96348228D01*
X136199000Y-96183816D01*
X136199000Y-96016184D01*
X136231703Y-95851772D01*
X136295853Y-95696900D01*
X136388985Y-95557519D01*
X136507519Y-95438985D01*
X136646900Y-95345853D01*
X136801772Y-95281703D01*
X136966184Y-95249000D01*
X137133816Y-95249000D01*
X137298228Y-95281703D01*
G37*
G36*
X134758228Y-95281703D02*
G01*
X134913100Y-95345853D01*
X135052481Y-95438985D01*
X135171015Y-95557519D01*
X135264147Y-95696900D01*
X135328297Y-95851772D01*
X135361000Y-96016184D01*
X135361000Y-96183816D01*
X135328297Y-96348228D01*
X135264147Y-96503100D01*
X135171015Y-96642481D01*
X135052481Y-96761015D01*
X134913100Y-96854147D01*
X134758228Y-96918297D01*
X134593816Y-96951000D01*
X134426184Y-96951000D01*
X134261772Y-96918297D01*
X134106900Y-96854147D01*
X133967519Y-96761015D01*
X133848985Y-96642481D01*
X133755853Y-96503100D01*
X133691703Y-96348228D01*
X133659000Y-96183816D01*
X133659000Y-96016184D01*
X133691703Y-95851772D01*
X133755853Y-95696900D01*
X133848985Y-95557519D01*
X133967519Y-95438985D01*
X134106900Y-95345853D01*
X134261772Y-95281703D01*
X134426184Y-95249000D01*
X134593816Y-95249000D01*
X134758228Y-95281703D01*
G37*
G36*
X132218228Y-95281703D02*
G01*
X132373100Y-95345853D01*
X132512481Y-95438985D01*
X132631015Y-95557519D01*
X132724147Y-95696900D01*
X132788297Y-95851772D01*
X132821000Y-96016184D01*
X132821000Y-96183816D01*
X132788297Y-96348228D01*
X132724147Y-96503100D01*
X132631015Y-96642481D01*
X132512481Y-96761015D01*
X132373100Y-96854147D01*
X132218228Y-96918297D01*
X132053816Y-96951000D01*
X131886184Y-96951000D01*
X131721772Y-96918297D01*
X131566900Y-96854147D01*
X131427519Y-96761015D01*
X131308985Y-96642481D01*
X131215853Y-96503100D01*
X131151703Y-96348228D01*
X131119000Y-96183816D01*
X131119000Y-96016184D01*
X131151703Y-95851772D01*
X131215853Y-95696900D01*
X131308985Y-95557519D01*
X131427519Y-95438985D01*
X131566900Y-95345853D01*
X131721772Y-95281703D01*
X131886184Y-95249000D01*
X132053816Y-95249000D01*
X132218228Y-95281703D01*
G37*
G36*
X129678228Y-95281703D02*
G01*
X129833100Y-95345853D01*
X129972481Y-95438985D01*
X130091015Y-95557519D01*
X130184147Y-95696900D01*
X130248297Y-95851772D01*
X130281000Y-96016184D01*
X130281000Y-96183816D01*
X130248297Y-96348228D01*
X130184147Y-96503100D01*
X130091015Y-96642481D01*
X129972481Y-96761015D01*
X129833100Y-96854147D01*
X129678228Y-96918297D01*
X129513816Y-96951000D01*
X129346184Y-96951000D01*
X129181772Y-96918297D01*
X129026900Y-96854147D01*
X128887519Y-96761015D01*
X128768985Y-96642481D01*
X128675853Y-96503100D01*
X128611703Y-96348228D01*
X128579000Y-96183816D01*
X128579000Y-96016184D01*
X128611703Y-95851772D01*
X128675853Y-95696900D01*
X128768985Y-95557519D01*
X128887519Y-95438985D01*
X129026900Y-95345853D01*
X129181772Y-95281703D01*
X129346184Y-95249000D01*
X129513816Y-95249000D01*
X129678228Y-95281703D01*
G37*
G36*
X127138228Y-95281703D02*
G01*
X127293100Y-95345853D01*
X127432481Y-95438985D01*
X127551015Y-95557519D01*
X127644147Y-95696900D01*
X127708297Y-95851772D01*
X127741000Y-96016184D01*
X127741000Y-96183816D01*
X127708297Y-96348228D01*
X127644147Y-96503100D01*
X127551015Y-96642481D01*
X127432481Y-96761015D01*
X127293100Y-96854147D01*
X127138228Y-96918297D01*
X126973816Y-96951000D01*
X126806184Y-96951000D01*
X126641772Y-96918297D01*
X126486900Y-96854147D01*
X126347519Y-96761015D01*
X126228985Y-96642481D01*
X126135853Y-96503100D01*
X126071703Y-96348228D01*
X126039000Y-96183816D01*
X126039000Y-96016184D01*
X126071703Y-95851772D01*
X126135853Y-95696900D01*
X126228985Y-95557519D01*
X126347519Y-95438985D01*
X126486900Y-95345853D01*
X126641772Y-95281703D01*
X126806184Y-95249000D01*
X126973816Y-95249000D01*
X127138228Y-95281703D01*
G37*
G36*
X147458228Y-95281703D02*
G01*
X147613100Y-95345853D01*
X147752481Y-95438985D01*
X147871015Y-95557519D01*
X147964147Y-95696900D01*
X148028297Y-95851772D01*
X148061000Y-96016184D01*
X148061000Y-96183816D01*
X148028297Y-96348228D01*
X147964147Y-96503100D01*
X147871015Y-96642481D01*
X147752481Y-96761015D01*
X147613100Y-96854147D01*
X147458228Y-96918297D01*
X147293816Y-96951000D01*
X147126184Y-96951000D01*
X146961772Y-96918297D01*
X146806900Y-96854147D01*
X146667519Y-96761015D01*
X146548985Y-96642481D01*
X146455853Y-96503100D01*
X146391703Y-96348228D01*
X146359000Y-96183816D01*
X146359000Y-96016184D01*
X146391703Y-95851772D01*
X146455853Y-95696900D01*
X146548985Y-95557519D01*
X146667519Y-95438985D01*
X146806900Y-95345853D01*
X146961772Y-95281703D01*
X147126184Y-95249000D01*
X147293816Y-95249000D01*
X147458228Y-95281703D01*
G37*
G36*
X124598228Y-95281703D02*
G01*
X124753100Y-95345853D01*
X124892481Y-95438985D01*
X125011015Y-95557519D01*
X125104147Y-95696900D01*
X125168297Y-95851772D01*
X125201000Y-96016184D01*
X125201000Y-96183816D01*
X125168297Y-96348228D01*
X125104147Y-96503100D01*
X125011015Y-96642481D01*
X124892481Y-96761015D01*
X124753100Y-96854147D01*
X124598228Y-96918297D01*
X124433816Y-96951000D01*
X124266184Y-96951000D01*
X124101772Y-96918297D01*
X123946900Y-96854147D01*
X123807519Y-96761015D01*
X123688985Y-96642481D01*
X123595853Y-96503100D01*
X123531703Y-96348228D01*
X123499000Y-96183816D01*
X123499000Y-96016184D01*
X123531703Y-95851772D01*
X123595853Y-95696900D01*
X123688985Y-95557519D01*
X123807519Y-95438985D01*
X123946900Y-95345853D01*
X124101772Y-95281703D01*
X124266184Y-95249000D01*
X124433816Y-95249000D01*
X124598228Y-95281703D01*
G37*
G36*
X122058228Y-95281703D02*
G01*
X122213100Y-95345853D01*
X122352481Y-95438985D01*
X122471015Y-95557519D01*
X122564147Y-95696900D01*
X122628297Y-95851772D01*
X122661000Y-96016184D01*
X122661000Y-96183816D01*
X122628297Y-96348228D01*
X122564147Y-96503100D01*
X122471015Y-96642481D01*
X122352481Y-96761015D01*
X122213100Y-96854147D01*
X122058228Y-96918297D01*
X121893816Y-96951000D01*
X121726184Y-96951000D01*
X121561772Y-96918297D01*
X121406900Y-96854147D01*
X121267519Y-96761015D01*
X121148985Y-96642481D01*
X121055853Y-96503100D01*
X120991703Y-96348228D01*
X120959000Y-96183816D01*
X120959000Y-96016184D01*
X120991703Y-95851772D01*
X121055853Y-95696900D01*
X121148985Y-95557519D01*
X121267519Y-95438985D01*
X121406900Y-95345853D01*
X121561772Y-95281703D01*
X121726184Y-95249000D01*
X121893816Y-95249000D01*
X122058228Y-95281703D01*
G37*
G36*
X119518228Y-95281703D02*
G01*
X119673100Y-95345853D01*
X119812481Y-95438985D01*
X119931015Y-95557519D01*
X120024147Y-95696900D01*
X120088297Y-95851772D01*
X120121000Y-96016184D01*
X120121000Y-96183816D01*
X120088297Y-96348228D01*
X120024147Y-96503100D01*
X119931015Y-96642481D01*
X119812481Y-96761015D01*
X119673100Y-96854147D01*
X119518228Y-96918297D01*
X119353816Y-96951000D01*
X119186184Y-96951000D01*
X119021772Y-96918297D01*
X118866900Y-96854147D01*
X118727519Y-96761015D01*
X118608985Y-96642481D01*
X118515853Y-96503100D01*
X118451703Y-96348228D01*
X118419000Y-96183816D01*
X118419000Y-96016184D01*
X118451703Y-95851772D01*
X118515853Y-95696900D01*
X118608985Y-95557519D01*
X118727519Y-95438985D01*
X118866900Y-95345853D01*
X119021772Y-95281703D01*
X119186184Y-95249000D01*
X119353816Y-95249000D01*
X119518228Y-95281703D01*
G37*
G36*
X217013512Y-92763927D02*
G01*
X217162812Y-92793624D01*
X217326784Y-92861544D01*
X217474354Y-92960147D01*
X217599853Y-93085646D01*
X217698456Y-93233216D01*
X217766376Y-93397188D01*
X217801000Y-93571259D01*
X217801000Y-93748741D01*
X217766376Y-93922812D01*
X217698456Y-94086784D01*
X217599853Y-94234354D01*
X217474354Y-94359853D01*
X217326784Y-94458456D01*
X217162812Y-94526376D01*
X217013512Y-94556073D01*
X216988742Y-94561000D01*
X216811258Y-94561000D01*
X216786488Y-94556073D01*
X216637188Y-94526376D01*
X216473216Y-94458456D01*
X216325646Y-94359853D01*
X216200147Y-94234354D01*
X216101544Y-94086784D01*
X216033624Y-93922812D01*
X215999000Y-93748741D01*
X215999000Y-93571259D01*
X216033624Y-93397188D01*
X216101544Y-93233216D01*
X216200147Y-93085646D01*
X216325646Y-92960147D01*
X216473216Y-92861544D01*
X216637188Y-92793624D01*
X216786488Y-92763927D01*
X216811258Y-92759000D01*
X216988742Y-92759000D01*
X217013512Y-92763927D01*
G37*
G36*
X192713512Y-92763927D02*
G01*
X192862812Y-92793624D01*
X193026784Y-92861544D01*
X193174354Y-92960147D01*
X193299853Y-93085646D01*
X193398456Y-93233216D01*
X193466376Y-93397188D01*
X193501000Y-93571259D01*
X193501000Y-93748741D01*
X193466376Y-93922812D01*
X193398456Y-94086784D01*
X193299853Y-94234354D01*
X193174354Y-94359853D01*
X193026784Y-94458456D01*
X192862812Y-94526376D01*
X192713512Y-94556073D01*
X192688742Y-94561000D01*
X192511258Y-94561000D01*
X192486488Y-94556073D01*
X192337188Y-94526376D01*
X192173216Y-94458456D01*
X192025646Y-94359853D01*
X191900147Y-94234354D01*
X191801544Y-94086784D01*
X191733624Y-93922812D01*
X191699000Y-93748741D01*
X191699000Y-93571259D01*
X191733624Y-93397188D01*
X191801544Y-93233216D01*
X191900147Y-93085646D01*
X192025646Y-92960147D01*
X192173216Y-92861544D01*
X192337188Y-92793624D01*
X192486488Y-92763927D01*
X192511258Y-92759000D01*
X192688742Y-92759000D01*
X192713512Y-92763927D01*
G37*
G36*
X192713512Y-90223927D02*
G01*
X192862812Y-90253624D01*
X193026784Y-90321544D01*
X193174354Y-90420147D01*
X193299853Y-90545646D01*
X193398456Y-90693216D01*
X193466376Y-90857188D01*
X193501000Y-91031259D01*
X193501000Y-91208741D01*
X193466376Y-91382812D01*
X193398456Y-91546784D01*
X193299853Y-91694354D01*
X193174354Y-91819853D01*
X193026784Y-91918456D01*
X192862812Y-91986376D01*
X192713512Y-92016073D01*
X192688742Y-92021000D01*
X192511258Y-92021000D01*
X192486488Y-92016073D01*
X192337188Y-91986376D01*
X192173216Y-91918456D01*
X192025646Y-91819853D01*
X191900147Y-91694354D01*
X191801544Y-91546784D01*
X191733624Y-91382812D01*
X191699000Y-91208741D01*
X191699000Y-91031259D01*
X191733624Y-90857188D01*
X191801544Y-90693216D01*
X191900147Y-90545646D01*
X192025646Y-90420147D01*
X192173216Y-90321544D01*
X192337188Y-90253624D01*
X192486488Y-90223927D01*
X192511258Y-90219000D01*
X192688742Y-90219000D01*
X192713512Y-90223927D01*
G37*
G36*
X217013512Y-90223927D02*
G01*
X217162812Y-90253624D01*
X217326784Y-90321544D01*
X217474354Y-90420147D01*
X217599853Y-90545646D01*
X217698456Y-90693216D01*
X217766376Y-90857188D01*
X217801000Y-91031259D01*
X217801000Y-91208741D01*
X217766376Y-91382812D01*
X217698456Y-91546784D01*
X217599853Y-91694354D01*
X217474354Y-91819853D01*
X217326784Y-91918456D01*
X217162812Y-91986376D01*
X217013512Y-92016073D01*
X216988742Y-92021000D01*
X216811258Y-92021000D01*
X216786488Y-92016073D01*
X216637188Y-91986376D01*
X216473216Y-91918456D01*
X216325646Y-91819853D01*
X216200147Y-91694354D01*
X216101544Y-91546784D01*
X216033624Y-91382812D01*
X215999000Y-91208741D01*
X215999000Y-91031259D01*
X216033624Y-90857188D01*
X216101544Y-90693216D01*
X216200147Y-90545646D01*
X216325646Y-90420147D01*
X216473216Y-90321544D01*
X216637188Y-90253624D01*
X216786488Y-90223927D01*
X216811258Y-90219000D01*
X216988742Y-90219000D01*
X217013512Y-90223927D01*
G37*
G36*
X192713512Y-87683927D02*
G01*
X192862812Y-87713624D01*
X193026784Y-87781544D01*
X193174354Y-87880147D01*
X193299853Y-88005646D01*
X193398456Y-88153216D01*
X193466376Y-88317188D01*
X193501000Y-88491259D01*
X193501000Y-88668741D01*
X193466376Y-88842812D01*
X193398456Y-89006784D01*
X193299853Y-89154354D01*
X193174354Y-89279853D01*
X193026784Y-89378456D01*
X192862812Y-89446376D01*
X192713512Y-89476073D01*
X192688742Y-89481000D01*
X192511258Y-89481000D01*
X192486488Y-89476073D01*
X192337188Y-89446376D01*
X192173216Y-89378456D01*
X192025646Y-89279853D01*
X191900147Y-89154354D01*
X191801544Y-89006784D01*
X191733624Y-88842812D01*
X191699000Y-88668741D01*
X191699000Y-88491259D01*
X191733624Y-88317188D01*
X191801544Y-88153216D01*
X191900147Y-88005646D01*
X192025646Y-87880147D01*
X192173216Y-87781544D01*
X192337188Y-87713624D01*
X192486488Y-87683927D01*
X192511258Y-87679000D01*
X192688742Y-87679000D01*
X192713512Y-87683927D01*
G37*
G36*
X217013512Y-87683927D02*
G01*
X217162812Y-87713624D01*
X217326784Y-87781544D01*
X217474354Y-87880147D01*
X217599853Y-88005646D01*
X217698456Y-88153216D01*
X217766376Y-88317188D01*
X217801000Y-88491259D01*
X217801000Y-88668741D01*
X217766376Y-88842812D01*
X217698456Y-89006784D01*
X217599853Y-89154354D01*
X217474354Y-89279853D01*
X217326784Y-89378456D01*
X217162812Y-89446376D01*
X217013512Y-89476073D01*
X216988742Y-89481000D01*
X216811258Y-89481000D01*
X216786488Y-89476073D01*
X216637188Y-89446376D01*
X216473216Y-89378456D01*
X216325646Y-89279853D01*
X216200147Y-89154354D01*
X216101544Y-89006784D01*
X216033624Y-88842812D01*
X215999000Y-88668741D01*
X215999000Y-88491259D01*
X216033624Y-88317188D01*
X216101544Y-88153216D01*
X216200147Y-88005646D01*
X216325646Y-87880147D01*
X216473216Y-87781544D01*
X216637188Y-87713624D01*
X216786488Y-87683927D01*
X216811258Y-87679000D01*
X216988742Y-87679000D01*
X217013512Y-87683927D01*
G37*
G36*
X217013512Y-85143927D02*
G01*
X217162812Y-85173624D01*
X217326784Y-85241544D01*
X217474354Y-85340147D01*
X217599853Y-85465646D01*
X217698456Y-85613216D01*
X217766376Y-85777188D01*
X217801000Y-85951259D01*
X217801000Y-86128741D01*
X217766376Y-86302812D01*
X217698456Y-86466784D01*
X217599853Y-86614354D01*
X217474354Y-86739853D01*
X217326784Y-86838456D01*
X217162812Y-86906376D01*
X217013512Y-86936073D01*
X216988742Y-86941000D01*
X216811258Y-86941000D01*
X216786488Y-86936073D01*
X216637188Y-86906376D01*
X216473216Y-86838456D01*
X216325646Y-86739853D01*
X216200147Y-86614354D01*
X216101544Y-86466784D01*
X216033624Y-86302812D01*
X215999000Y-86128741D01*
X215999000Y-85951259D01*
X216033624Y-85777188D01*
X216101544Y-85613216D01*
X216200147Y-85465646D01*
X216325646Y-85340147D01*
X216473216Y-85241544D01*
X216637188Y-85173624D01*
X216786488Y-85143927D01*
X216811258Y-85139000D01*
X216988742Y-85139000D01*
X217013512Y-85143927D01*
G37*
G36*
X192713512Y-85143927D02*
G01*
X192862812Y-85173624D01*
X193026784Y-85241544D01*
X193174354Y-85340147D01*
X193299853Y-85465646D01*
X193398456Y-85613216D01*
X193466376Y-85777188D01*
X193501000Y-85951259D01*
X193501000Y-86128741D01*
X193466376Y-86302812D01*
X193398456Y-86466784D01*
X193299853Y-86614354D01*
X193174354Y-86739853D01*
X193026784Y-86838456D01*
X192862812Y-86906376D01*
X192713512Y-86936073D01*
X192688742Y-86941000D01*
X192511258Y-86941000D01*
X192486488Y-86936073D01*
X192337188Y-86906376D01*
X192173216Y-86838456D01*
X192025646Y-86739853D01*
X191900147Y-86614354D01*
X191801544Y-86466784D01*
X191733624Y-86302812D01*
X191699000Y-86128741D01*
X191699000Y-85951259D01*
X191733624Y-85777188D01*
X191801544Y-85613216D01*
X191900147Y-85465646D01*
X192025646Y-85340147D01*
X192173216Y-85241544D01*
X192337188Y-85173624D01*
X192486488Y-85143927D01*
X192511258Y-85139000D01*
X192688742Y-85139000D01*
X192713512Y-85143927D01*
G37*
G36*
X249019334Y-82921107D02*
G01*
X249182812Y-82953624D01*
X249346784Y-83021544D01*
X249494354Y-83120147D01*
X249619853Y-83245646D01*
X249718456Y-83393216D01*
X249786376Y-83557188D01*
X249821000Y-83731259D01*
X249821000Y-83908741D01*
X249786376Y-84082812D01*
X249718456Y-84246784D01*
X249619853Y-84394354D01*
X249494354Y-84519853D01*
X249346784Y-84618456D01*
X249182812Y-84686376D01*
X249033512Y-84716073D01*
X249008742Y-84721000D01*
X248831258Y-84721000D01*
X248806488Y-84716073D01*
X248657188Y-84686376D01*
X248493216Y-84618456D01*
X248345646Y-84519853D01*
X248220147Y-84394354D01*
X248121544Y-84246784D01*
X248053624Y-84082812D01*
X248019000Y-83908741D01*
X248019000Y-83731259D01*
X248053624Y-83557188D01*
X248121544Y-83393216D01*
X248220147Y-83245646D01*
X248345646Y-83120147D01*
X248493216Y-83021544D01*
X248657188Y-82953624D01*
X248820666Y-82921107D01*
X248831258Y-82919000D01*
X249008742Y-82919000D01*
X249019334Y-82921107D01*
G37*
G36*
X252361000Y-84721000D02*
G01*
X250559000Y-84721000D01*
X250559000Y-82919000D01*
X252361000Y-82919000D01*
X252361000Y-84721000D01*
G37*
G36*
X193501000Y-84401000D02*
G01*
X191699000Y-84401000D01*
X191699000Y-82599000D01*
X193501000Y-82599000D01*
X193501000Y-84401000D01*
G37*
G36*
X217801000Y-84401000D02*
G01*
X215999000Y-84401000D01*
X215999000Y-82599000D01*
X217801000Y-82599000D01*
X217801000Y-84401000D01*
G37*
G36*
X113533642Y-82229781D02*
G01*
X113679414Y-82290162D01*
X113679416Y-82290163D01*
X113810608Y-82377822D01*
X113922178Y-82489392D01*
X113995415Y-82599000D01*
X114009838Y-82620586D01*
X114070219Y-82766358D01*
X114101000Y-82921107D01*
X114101000Y-83078893D01*
X114070219Y-83233642D01*
X114065246Y-83245647D01*
X114009837Y-83379416D01*
X113922178Y-83510608D01*
X113810608Y-83622178D01*
X113679416Y-83709837D01*
X113679415Y-83709838D01*
X113679414Y-83709838D01*
X113533642Y-83770219D01*
X113378893Y-83801000D01*
X113221107Y-83801000D01*
X113066358Y-83770219D01*
X112920586Y-83709838D01*
X112920585Y-83709838D01*
X112920584Y-83709837D01*
X112789392Y-83622178D01*
X112677822Y-83510608D01*
X112590163Y-83379416D01*
X112534754Y-83245647D01*
X112529781Y-83233642D01*
X112499000Y-83078893D01*
X112499000Y-82921107D01*
X112529781Y-82766358D01*
X112590162Y-82620586D01*
X112604585Y-82599000D01*
X112677822Y-82489392D01*
X112789392Y-82377822D01*
X112920584Y-82290163D01*
X112920586Y-82290162D01*
X113066358Y-82229781D01*
X113221107Y-82199000D01*
X113378893Y-82199000D01*
X113533642Y-82229781D01*
G37*
G36*
X137298228Y-80041703D02*
G01*
X137453100Y-80105853D01*
X137592481Y-80198985D01*
X137711015Y-80317519D01*
X137804147Y-80456900D01*
X137868297Y-80611772D01*
X137901000Y-80776184D01*
X137901000Y-80943816D01*
X137868297Y-81108228D01*
X137804147Y-81263100D01*
X137711015Y-81402481D01*
X137592481Y-81521015D01*
X137453100Y-81614147D01*
X137298228Y-81678297D01*
X137133816Y-81711000D01*
X136966184Y-81711000D01*
X136801772Y-81678297D01*
X136646900Y-81614147D01*
X136507519Y-81521015D01*
X136388985Y-81402481D01*
X136295853Y-81263100D01*
X136231703Y-81108228D01*
X136199000Y-80943816D01*
X136199000Y-80776184D01*
X136231703Y-80611772D01*
X136295853Y-80456900D01*
X136388985Y-80317519D01*
X136507519Y-80198985D01*
X136646900Y-80105853D01*
X136801772Y-80041703D01*
X136966184Y-80009000D01*
X137133816Y-80009000D01*
X137298228Y-80041703D01*
G37*
G36*
X134758228Y-80041703D02*
G01*
X134913100Y-80105853D01*
X135052481Y-80198985D01*
X135171015Y-80317519D01*
X135264147Y-80456900D01*
X135328297Y-80611772D01*
X135361000Y-80776184D01*
X135361000Y-80943816D01*
X135328297Y-81108228D01*
X135264147Y-81263100D01*
X135171015Y-81402481D01*
X135052481Y-81521015D01*
X134913100Y-81614147D01*
X134758228Y-81678297D01*
X134593816Y-81711000D01*
X134426184Y-81711000D01*
X134261772Y-81678297D01*
X134106900Y-81614147D01*
X133967519Y-81521015D01*
X133848985Y-81402481D01*
X133755853Y-81263100D01*
X133691703Y-81108228D01*
X133659000Y-80943816D01*
X133659000Y-80776184D01*
X133691703Y-80611772D01*
X133755853Y-80456900D01*
X133848985Y-80317519D01*
X133967519Y-80198985D01*
X134106900Y-80105853D01*
X134261772Y-80041703D01*
X134426184Y-80009000D01*
X134593816Y-80009000D01*
X134758228Y-80041703D01*
G37*
G36*
X132218228Y-80041703D02*
G01*
X132373100Y-80105853D01*
X132512481Y-80198985D01*
X132631015Y-80317519D01*
X132724147Y-80456900D01*
X132788297Y-80611772D01*
X132821000Y-80776184D01*
X132821000Y-80943816D01*
X132788297Y-81108228D01*
X132724147Y-81263100D01*
X132631015Y-81402481D01*
X132512481Y-81521015D01*
X132373100Y-81614147D01*
X132218228Y-81678297D01*
X132053816Y-81711000D01*
X131886184Y-81711000D01*
X131721772Y-81678297D01*
X131566900Y-81614147D01*
X131427519Y-81521015D01*
X131308985Y-81402481D01*
X131215853Y-81263100D01*
X131151703Y-81108228D01*
X131119000Y-80943816D01*
X131119000Y-80776184D01*
X131151703Y-80611772D01*
X131215853Y-80456900D01*
X131308985Y-80317519D01*
X131427519Y-80198985D01*
X131566900Y-80105853D01*
X131721772Y-80041703D01*
X131886184Y-80009000D01*
X132053816Y-80009000D01*
X132218228Y-80041703D01*
G37*
G36*
X129678228Y-80041703D02*
G01*
X129833100Y-80105853D01*
X129972481Y-80198985D01*
X130091015Y-80317519D01*
X130184147Y-80456900D01*
X130248297Y-80611772D01*
X130281000Y-80776184D01*
X130281000Y-80943816D01*
X130248297Y-81108228D01*
X130184147Y-81263100D01*
X130091015Y-81402481D01*
X129972481Y-81521015D01*
X129833100Y-81614147D01*
X129678228Y-81678297D01*
X129513816Y-81711000D01*
X129346184Y-81711000D01*
X129181772Y-81678297D01*
X129026900Y-81614147D01*
X128887519Y-81521015D01*
X128768985Y-81402481D01*
X128675853Y-81263100D01*
X128611703Y-81108228D01*
X128579000Y-80943816D01*
X128579000Y-80776184D01*
X128611703Y-80611772D01*
X128675853Y-80456900D01*
X128768985Y-80317519D01*
X128887519Y-80198985D01*
X129026900Y-80105853D01*
X129181772Y-80041703D01*
X129346184Y-80009000D01*
X129513816Y-80009000D01*
X129678228Y-80041703D01*
G37*
G36*
X144918228Y-80041703D02*
G01*
X145073100Y-80105853D01*
X145212481Y-80198985D01*
X145331015Y-80317519D01*
X145424147Y-80456900D01*
X145488297Y-80611772D01*
X145521000Y-80776184D01*
X145521000Y-80943816D01*
X145488297Y-81108228D01*
X145424147Y-81263100D01*
X145331015Y-81402481D01*
X145212481Y-81521015D01*
X145073100Y-81614147D01*
X144918228Y-81678297D01*
X144753816Y-81711000D01*
X144586184Y-81711000D01*
X144421772Y-81678297D01*
X144266900Y-81614147D01*
X144127519Y-81521015D01*
X144008985Y-81402481D01*
X143915853Y-81263100D01*
X143851703Y-81108228D01*
X143819000Y-80943816D01*
X143819000Y-80776184D01*
X143851703Y-80611772D01*
X143915853Y-80456900D01*
X144008985Y-80317519D01*
X144127519Y-80198985D01*
X144266900Y-80105853D01*
X144421772Y-80041703D01*
X144586184Y-80009000D01*
X144753816Y-80009000D01*
X144918228Y-80041703D01*
G37*
G36*
X127138228Y-80041703D02*
G01*
X127293100Y-80105853D01*
X127432481Y-80198985D01*
X127551015Y-80317519D01*
X127644147Y-80456900D01*
X127708297Y-80611772D01*
X127741000Y-80776184D01*
X127741000Y-80943816D01*
X127708297Y-81108228D01*
X127644147Y-81263100D01*
X127551015Y-81402481D01*
X127432481Y-81521015D01*
X127293100Y-81614147D01*
X127138228Y-81678297D01*
X126973816Y-81711000D01*
X126806184Y-81711000D01*
X126641772Y-81678297D01*
X126486900Y-81614147D01*
X126347519Y-81521015D01*
X126228985Y-81402481D01*
X126135853Y-81263100D01*
X126071703Y-81108228D01*
X126039000Y-80943816D01*
X126039000Y-80776184D01*
X126071703Y-80611772D01*
X126135853Y-80456900D01*
X126228985Y-80317519D01*
X126347519Y-80198985D01*
X126486900Y-80105853D01*
X126641772Y-80041703D01*
X126806184Y-80009000D01*
X126973816Y-80009000D01*
X127138228Y-80041703D01*
G37*
G36*
X124598228Y-80041703D02*
G01*
X124753100Y-80105853D01*
X124892481Y-80198985D01*
X125011015Y-80317519D01*
X125104147Y-80456900D01*
X125168297Y-80611772D01*
X125201000Y-80776184D01*
X125201000Y-80943816D01*
X125168297Y-81108228D01*
X125104147Y-81263100D01*
X125011015Y-81402481D01*
X124892481Y-81521015D01*
X124753100Y-81614147D01*
X124598228Y-81678297D01*
X124433816Y-81711000D01*
X124266184Y-81711000D01*
X124101772Y-81678297D01*
X123946900Y-81614147D01*
X123807519Y-81521015D01*
X123688985Y-81402481D01*
X123595853Y-81263100D01*
X123531703Y-81108228D01*
X123499000Y-80943816D01*
X123499000Y-80776184D01*
X123531703Y-80611772D01*
X123595853Y-80456900D01*
X123688985Y-80317519D01*
X123807519Y-80198985D01*
X123946900Y-80105853D01*
X124101772Y-80041703D01*
X124266184Y-80009000D01*
X124433816Y-80009000D01*
X124598228Y-80041703D01*
G37*
G36*
X122058228Y-80041703D02*
G01*
X122213100Y-80105853D01*
X122352481Y-80198985D01*
X122471015Y-80317519D01*
X122564147Y-80456900D01*
X122628297Y-80611772D01*
X122661000Y-80776184D01*
X122661000Y-80943816D01*
X122628297Y-81108228D01*
X122564147Y-81263100D01*
X122471015Y-81402481D01*
X122352481Y-81521015D01*
X122213100Y-81614147D01*
X122058228Y-81678297D01*
X121893816Y-81711000D01*
X121726184Y-81711000D01*
X121561772Y-81678297D01*
X121406900Y-81614147D01*
X121267519Y-81521015D01*
X121148985Y-81402481D01*
X121055853Y-81263100D01*
X120991703Y-81108228D01*
X120959000Y-80943816D01*
X120959000Y-80776184D01*
X120991703Y-80611772D01*
X121055853Y-80456900D01*
X121148985Y-80317519D01*
X121267519Y-80198985D01*
X121406900Y-80105853D01*
X121561772Y-80041703D01*
X121726184Y-80009000D01*
X121893816Y-80009000D01*
X122058228Y-80041703D01*
G37*
G36*
X139838228Y-80041703D02*
G01*
X139993100Y-80105853D01*
X140132481Y-80198985D01*
X140251015Y-80317519D01*
X140344147Y-80456900D01*
X140408297Y-80611772D01*
X140441000Y-80776184D01*
X140441000Y-80943816D01*
X140408297Y-81108228D01*
X140344147Y-81263100D01*
X140251015Y-81402481D01*
X140132481Y-81521015D01*
X139993100Y-81614147D01*
X139838228Y-81678297D01*
X139673816Y-81711000D01*
X139506184Y-81711000D01*
X139341772Y-81678297D01*
X139186900Y-81614147D01*
X139047519Y-81521015D01*
X138928985Y-81402481D01*
X138835853Y-81263100D01*
X138771703Y-81108228D01*
X138739000Y-80943816D01*
X138739000Y-80776184D01*
X138771703Y-80611772D01*
X138835853Y-80456900D01*
X138928985Y-80317519D01*
X139047519Y-80198985D01*
X139186900Y-80105853D01*
X139341772Y-80041703D01*
X139506184Y-80009000D01*
X139673816Y-80009000D01*
X139838228Y-80041703D01*
G37*
G36*
X142378228Y-80041703D02*
G01*
X142533100Y-80105853D01*
X142672481Y-80198985D01*
X142791015Y-80317519D01*
X142884147Y-80456900D01*
X142948297Y-80611772D01*
X142981000Y-80776184D01*
X142981000Y-80943816D01*
X142948297Y-81108228D01*
X142884147Y-81263100D01*
X142791015Y-81402481D01*
X142672481Y-81521015D01*
X142533100Y-81614147D01*
X142378228Y-81678297D01*
X142213816Y-81711000D01*
X142046184Y-81711000D01*
X141881772Y-81678297D01*
X141726900Y-81614147D01*
X141587519Y-81521015D01*
X141468985Y-81402481D01*
X141375853Y-81263100D01*
X141311703Y-81108228D01*
X141279000Y-80943816D01*
X141279000Y-80776184D01*
X141311703Y-80611772D01*
X141375853Y-80456900D01*
X141468985Y-80317519D01*
X141587519Y-80198985D01*
X141726900Y-80105853D01*
X141881772Y-80041703D01*
X142046184Y-80009000D01*
X142213816Y-80009000D01*
X142378228Y-80041703D01*
G37*
G36*
X147458228Y-80041703D02*
G01*
X147613100Y-80105853D01*
X147752481Y-80198985D01*
X147871015Y-80317519D01*
X147964147Y-80456900D01*
X148028297Y-80611772D01*
X148061000Y-80776184D01*
X148061000Y-80943816D01*
X148028297Y-81108228D01*
X147964147Y-81263100D01*
X147871015Y-81402481D01*
X147752481Y-81521015D01*
X147613100Y-81614147D01*
X147458228Y-81678297D01*
X147293816Y-81711000D01*
X147126184Y-81711000D01*
X146961772Y-81678297D01*
X146806900Y-81614147D01*
X146667519Y-81521015D01*
X146548985Y-81402481D01*
X146455853Y-81263100D01*
X146391703Y-81108228D01*
X146359000Y-80943816D01*
X146359000Y-80776184D01*
X146391703Y-80611772D01*
X146455853Y-80456900D01*
X146548985Y-80317519D01*
X146667519Y-80198985D01*
X146806900Y-80105853D01*
X146961772Y-80041703D01*
X147126184Y-80009000D01*
X147293816Y-80009000D01*
X147458228Y-80041703D01*
G37*
G36*
X149998228Y-80041703D02*
G01*
X150153100Y-80105853D01*
X150292481Y-80198985D01*
X150411015Y-80317519D01*
X150504147Y-80456900D01*
X150568297Y-80611772D01*
X150601000Y-80776184D01*
X150601000Y-80943816D01*
X150568297Y-81108228D01*
X150504147Y-81263100D01*
X150411015Y-81402481D01*
X150292481Y-81521015D01*
X150153100Y-81614147D01*
X149998228Y-81678297D01*
X149833816Y-81711000D01*
X149666184Y-81711000D01*
X149501772Y-81678297D01*
X149346900Y-81614147D01*
X149207519Y-81521015D01*
X149088985Y-81402481D01*
X148995853Y-81263100D01*
X148931703Y-81108228D01*
X148899000Y-80943816D01*
X148899000Y-80776184D01*
X148931703Y-80611772D01*
X148995853Y-80456900D01*
X149088985Y-80317519D01*
X149207519Y-80198985D01*
X149346900Y-80105853D01*
X149501772Y-80041703D01*
X149666184Y-80009000D01*
X149833816Y-80009000D01*
X149998228Y-80041703D01*
G37*
G36*
X153141000Y-81711000D02*
G01*
X151439000Y-81711000D01*
X151439000Y-80009000D01*
X153141000Y-80009000D01*
X153141000Y-81711000D01*
G37*
G36*
X119518228Y-80041703D02*
G01*
X119673100Y-80105853D01*
X119812481Y-80198985D01*
X119931015Y-80317519D01*
X120024147Y-80456900D01*
X120088297Y-80611772D01*
X120121000Y-80776184D01*
X120121000Y-80943816D01*
X120088297Y-81108228D01*
X120024147Y-81263100D01*
X119931015Y-81402481D01*
X119812481Y-81521015D01*
X119673100Y-81614147D01*
X119518228Y-81678297D01*
X119353816Y-81711000D01*
X119186184Y-81711000D01*
X119021772Y-81678297D01*
X118866900Y-81614147D01*
X118727519Y-81521015D01*
X118608985Y-81402481D01*
X118515853Y-81263100D01*
X118451703Y-81108228D01*
X118419000Y-80943816D01*
X118419000Y-80776184D01*
X118451703Y-80611772D01*
X118515853Y-80456900D01*
X118608985Y-80317519D01*
X118727519Y-80198985D01*
X118866900Y-80105853D01*
X119021772Y-80041703D01*
X119186184Y-80009000D01*
X119353816Y-80009000D01*
X119518228Y-80041703D01*
G37*
G36*
X113533642Y-78429781D02*
G01*
X113679414Y-78490162D01*
X113679416Y-78490163D01*
X113810608Y-78577822D01*
X113922178Y-78689392D01*
X114009837Y-78820584D01*
X114009838Y-78820586D01*
X114070219Y-78966358D01*
X114101000Y-79121107D01*
X114101000Y-79278893D01*
X114070219Y-79433642D01*
X114009838Y-79579414D01*
X114009837Y-79579416D01*
X113922178Y-79710608D01*
X113810608Y-79822178D01*
X113679416Y-79909837D01*
X113679415Y-79909838D01*
X113679414Y-79909838D01*
X113533642Y-79970219D01*
X113378893Y-80001000D01*
X113221107Y-80001000D01*
X113066358Y-79970219D01*
X112920586Y-79909838D01*
X112920585Y-79909838D01*
X112920584Y-79909837D01*
X112789392Y-79822178D01*
X112677822Y-79710608D01*
X112590163Y-79579416D01*
X112590162Y-79579414D01*
X112529781Y-79433642D01*
X112499000Y-79278893D01*
X112499000Y-79121107D01*
X112529781Y-78966358D01*
X112590162Y-78820586D01*
X112590163Y-78820584D01*
X112677822Y-78689392D01*
X112789392Y-78577822D01*
X112920584Y-78490163D01*
X112920586Y-78490162D01*
X113066358Y-78429781D01*
X113221107Y-78399000D01*
X113378893Y-78399000D01*
X113533642Y-78429781D01*
G37*
G36*
X152748228Y-76481703D02*
G01*
X152903100Y-76545853D01*
X153042481Y-76638985D01*
X153161015Y-76757519D01*
X153254147Y-76896900D01*
X153318297Y-77051772D01*
X153351000Y-77216184D01*
X153351000Y-77383816D01*
X153318297Y-77548228D01*
X153254147Y-77703100D01*
X153161015Y-77842481D01*
X153042481Y-77961015D01*
X152903100Y-78054147D01*
X152748228Y-78118297D01*
X152583816Y-78151000D01*
X152416184Y-78151000D01*
X152251772Y-78118297D01*
X152096900Y-78054147D01*
X151957519Y-77961015D01*
X151838985Y-77842481D01*
X151745853Y-77703100D01*
X151681703Y-77548228D01*
X151649000Y-77383816D01*
X151649000Y-77216184D01*
X151681703Y-77051772D01*
X151745853Y-76896900D01*
X151838985Y-76757519D01*
X151957519Y-76638985D01*
X152096900Y-76545853D01*
X152251772Y-76481703D01*
X152416184Y-76449000D01*
X152583816Y-76449000D01*
X152748228Y-76481703D01*
G37*
G36*
X147748228Y-76481703D02*
G01*
X147903100Y-76545853D01*
X148042481Y-76638985D01*
X148161015Y-76757519D01*
X148254147Y-76896900D01*
X148318297Y-77051772D01*
X148351000Y-77216184D01*
X148351000Y-77383816D01*
X148318297Y-77548228D01*
X148254147Y-77703100D01*
X148161015Y-77842481D01*
X148042481Y-77961015D01*
X147903100Y-78054147D01*
X147748228Y-78118297D01*
X147583816Y-78151000D01*
X147416184Y-78151000D01*
X147251772Y-78118297D01*
X147096900Y-78054147D01*
X146957519Y-77961015D01*
X146838985Y-77842481D01*
X146745853Y-77703100D01*
X146681703Y-77548228D01*
X146649000Y-77383816D01*
X146649000Y-77216184D01*
X146681703Y-77051772D01*
X146745853Y-76896900D01*
X146838985Y-76757519D01*
X146957519Y-76638985D01*
X147096900Y-76545853D01*
X147251772Y-76481703D01*
X147416184Y-76449000D01*
X147583816Y-76449000D01*
X147748228Y-76481703D01*
G37*
G36*
X244487000Y-76339000D02*
G01*
X242685000Y-76339000D01*
X242685000Y-74537000D01*
X244487000Y-74537000D01*
X244487000Y-76339000D01*
G37*
G36*
X251319512Y-74541927D02*
G01*
X251468812Y-74571624D01*
X251632784Y-74639544D01*
X251780354Y-74738147D01*
X251905853Y-74863646D01*
X252004456Y-75011216D01*
X252072376Y-75175188D01*
X252107000Y-75349259D01*
X252107000Y-75526741D01*
X252072376Y-75700812D01*
X252004456Y-75864784D01*
X251905853Y-76012354D01*
X251780354Y-76137853D01*
X251632784Y-76236456D01*
X251468812Y-76304376D01*
X251319512Y-76334073D01*
X251294742Y-76339000D01*
X251117258Y-76339000D01*
X251092488Y-76334073D01*
X250943188Y-76304376D01*
X250779216Y-76236456D01*
X250631646Y-76137853D01*
X250506147Y-76012354D01*
X250407544Y-75864784D01*
X250339624Y-75700812D01*
X250305000Y-75526741D01*
X250305000Y-75349259D01*
X250339624Y-75175188D01*
X250407544Y-75011216D01*
X250506147Y-74863646D01*
X250631646Y-74738147D01*
X250779216Y-74639544D01*
X250943188Y-74571624D01*
X251092488Y-74541927D01*
X251117258Y-74537000D01*
X251294742Y-74537000D01*
X251319512Y-74541927D01*
G37*
G36*
X248779512Y-74541927D02*
G01*
X248928812Y-74571624D01*
X249092784Y-74639544D01*
X249240354Y-74738147D01*
X249365853Y-74863646D01*
X249464456Y-75011216D01*
X249532376Y-75175188D01*
X249567000Y-75349259D01*
X249567000Y-75526741D01*
X249532376Y-75700812D01*
X249464456Y-75864784D01*
X249365853Y-76012354D01*
X249240354Y-76137853D01*
X249092784Y-76236456D01*
X248928812Y-76304376D01*
X248779512Y-76334073D01*
X248754742Y-76339000D01*
X248577258Y-76339000D01*
X248552488Y-76334073D01*
X248403188Y-76304376D01*
X248239216Y-76236456D01*
X248091646Y-76137853D01*
X247966147Y-76012354D01*
X247867544Y-75864784D01*
X247799624Y-75700812D01*
X247765000Y-75526741D01*
X247765000Y-75349259D01*
X247799624Y-75175188D01*
X247867544Y-75011216D01*
X247966147Y-74863646D01*
X248091646Y-74738147D01*
X248239216Y-74639544D01*
X248403188Y-74571624D01*
X248552488Y-74541927D01*
X248577258Y-74537000D01*
X248754742Y-74537000D01*
X248779512Y-74541927D01*
G37*
G36*
X246239512Y-74541927D02*
G01*
X246388812Y-74571624D01*
X246552784Y-74639544D01*
X246700354Y-74738147D01*
X246825853Y-74863646D01*
X246924456Y-75011216D01*
X246992376Y-75175188D01*
X247027000Y-75349259D01*
X247027000Y-75526741D01*
X246992376Y-75700812D01*
X246924456Y-75864784D01*
X246825853Y-76012354D01*
X246700354Y-76137853D01*
X246552784Y-76236456D01*
X246388812Y-76304376D01*
X246239512Y-76334073D01*
X246214742Y-76339000D01*
X246037258Y-76339000D01*
X246012488Y-76334073D01*
X245863188Y-76304376D01*
X245699216Y-76236456D01*
X245551646Y-76137853D01*
X245426147Y-76012354D01*
X245327544Y-75864784D01*
X245259624Y-75700812D01*
X245225000Y-75526741D01*
X245225000Y-75349259D01*
X245259624Y-75175188D01*
X245327544Y-75011216D01*
X245426147Y-74863646D01*
X245551646Y-74738147D01*
X245699216Y-74639544D01*
X245863188Y-74571624D01*
X246012488Y-74541927D01*
X246037258Y-74537000D01*
X246214742Y-74537000D01*
X246239512Y-74541927D01*
G37*
M02*
