G04 #@! TF.GenerationSoftware,KiCad,Pcbnew,(5.1.5)-3*
G04 #@! TF.CreationDate,2020-11-01T13:07:33-06:00*
G04 #@! TF.ProjectId,Aii-WiFi,4169692d-5769-4466-992e-6b696361645f,rev?*
G04 #@! TF.SameCoordinates,Original*
G04 #@! TF.FileFunction,Copper,L1,Top*
G04 #@! TF.FilePolarity,Positive*
%FSLAX46Y46*%
G04 Gerber Fmt 4.6, Leading zero omitted, Abs format (unit mm)*
G04 Created by KiCad (PCBNEW (5.1.5)-3) date 2020-11-01 13:07:33*
%MOMM*%
%LPD*%
G04 APERTURE LIST*
%ADD10O,1.700000X1.700000*%
%ADD11R,1.700000X1.700000*%
%ADD12C,1.600000*%
%ADD13O,1.600000X1.600000*%
%ADD14R,1.600000X1.600000*%
%ADD15C,1.500000*%
%ADD16R,1.778000X7.620000*%
%ADD17C,0.800000*%
%ADD18C,0.250000*%
%ADD19C,2.000000*%
%ADD20C,1.700000*%
G04 APERTURE END LIST*
D10*
X248920000Y-83820000D03*
D11*
X251460000Y-83820000D03*
D10*
X216900000Y-119060000D03*
X216900000Y-116520000D03*
X216900000Y-113980000D03*
X216900000Y-111440000D03*
X216900000Y-108900000D03*
X216900000Y-106360000D03*
X216900000Y-103820000D03*
X216900000Y-101280000D03*
X216900000Y-98740000D03*
X216900000Y-96200000D03*
X216900000Y-93660000D03*
X216900000Y-91120000D03*
X216900000Y-88580000D03*
X216900000Y-86040000D03*
D11*
X216900000Y-83500000D03*
D10*
X192600000Y-119060000D03*
X192600000Y-116520000D03*
X192600000Y-113980000D03*
X192600000Y-111440000D03*
X192600000Y-108900000D03*
X192600000Y-106360000D03*
X192600000Y-103820000D03*
X192600000Y-101280000D03*
X192600000Y-98740000D03*
X192600000Y-96200000D03*
X192600000Y-93660000D03*
X192600000Y-91120000D03*
X192600000Y-88580000D03*
X192600000Y-86040000D03*
D11*
X192600000Y-83500000D03*
D12*
X162900000Y-123600000D03*
X167900000Y-123600000D03*
D13*
X116840000Y-119380000D03*
X124460000Y-104140000D03*
X116840000Y-116840000D03*
X124460000Y-106680000D03*
X116840000Y-114300000D03*
X124460000Y-109220000D03*
X116840000Y-111760000D03*
X124460000Y-111760000D03*
X116840000Y-109220000D03*
X124460000Y-114300000D03*
X116840000Y-106680000D03*
X124460000Y-116840000D03*
X116840000Y-104140000D03*
D14*
X124460000Y-119380000D03*
D10*
X251206000Y-75438000D03*
X248666000Y-75438000D03*
X246126000Y-75438000D03*
D11*
X243586000Y-75438000D03*
D13*
X167750000Y-119850000D03*
X134730000Y-104610000D03*
X165210000Y-119850000D03*
X137270000Y-104610000D03*
X162670000Y-119850000D03*
X139810000Y-104610000D03*
X160130000Y-119850000D03*
X142350000Y-104610000D03*
X157590000Y-119850000D03*
X144890000Y-104610000D03*
X155050000Y-119850000D03*
X147430000Y-104610000D03*
X152510000Y-119850000D03*
X149970000Y-104610000D03*
X149970000Y-119850000D03*
X152510000Y-104610000D03*
X147430000Y-119850000D03*
X155050000Y-104610000D03*
X144890000Y-119850000D03*
X157590000Y-104610000D03*
X142350000Y-119850000D03*
X160130000Y-104610000D03*
X139810000Y-119850000D03*
X162670000Y-104610000D03*
X137270000Y-119850000D03*
X165210000Y-104610000D03*
X134730000Y-119850000D03*
D14*
X167750000Y-104610000D03*
D13*
X152290000Y-96100000D03*
X119270000Y-80860000D03*
X149750000Y-96100000D03*
X121810000Y-80860000D03*
X147210000Y-96100000D03*
X124350000Y-80860000D03*
X144670000Y-96100000D03*
X126890000Y-80860000D03*
X142130000Y-96100000D03*
X129430000Y-80860000D03*
X139590000Y-96100000D03*
X131970000Y-80860000D03*
X137050000Y-96100000D03*
X134510000Y-80860000D03*
X134510000Y-96100000D03*
X137050000Y-80860000D03*
X131970000Y-96100000D03*
X139590000Y-80860000D03*
X129430000Y-96100000D03*
X142130000Y-80860000D03*
X126890000Y-96100000D03*
X144670000Y-80860000D03*
X124350000Y-96100000D03*
X147210000Y-80860000D03*
X121810000Y-96100000D03*
X149750000Y-80860000D03*
X119270000Y-96100000D03*
D14*
X152290000Y-80860000D03*
D12*
X123000000Y-123000000D03*
X118000000Y-123000000D03*
X152500000Y-77300000D03*
X147500000Y-77300000D03*
X123800000Y-99700000D03*
X118800000Y-99700000D03*
D15*
X113300000Y-83000000D03*
X113300000Y-79200000D03*
D16*
X245110000Y-134620000D03*
X242570000Y-134620000D03*
X240030000Y-134620000D03*
X237490000Y-134620000D03*
X234950000Y-134620000D03*
X232410000Y-134620000D03*
X229870000Y-134620000D03*
X227330000Y-134620000D03*
X224790000Y-134620000D03*
X222250000Y-134620000D03*
X219710000Y-134620000D03*
X217170000Y-134620000D03*
X214630000Y-134620000D03*
X212090000Y-134620000D03*
X209550000Y-134620000D03*
X207010000Y-134620000D03*
X204470000Y-134620000D03*
X201930000Y-134620000D03*
X199390000Y-134620000D03*
X196850000Y-134620000D03*
X194310000Y-134620000D03*
X191770000Y-134620000D03*
X189230000Y-134620000D03*
X186690000Y-134620000D03*
X184150000Y-134620000D03*
D17*
X139982000Y-99102200D03*
X136210200Y-100489400D03*
X128814500Y-103570100D03*
X183804800Y-90965700D03*
X171738500Y-88213800D03*
X136401700Y-91598800D03*
X204477300Y-89815800D03*
X121046000Y-89346800D03*
X151096700Y-88942200D03*
X155631700Y-94824300D03*
X174169600Y-95424500D03*
X131202400Y-107490000D03*
X143095200Y-88421400D03*
X147916300Y-93121600D03*
X177465300Y-94774200D03*
X126779600Y-90931900D03*
X181229500Y-91579300D03*
X181229500Y-94123900D03*
X133797500Y-107711000D03*
X130864500Y-101377800D03*
X185801500Y-93198500D03*
X155002500Y-114121700D03*
X155002500Y-110595200D03*
X168705900Y-110548300D03*
X124591100Y-93126700D03*
X167493300Y-112461700D03*
X145081100Y-112421100D03*
X132841300Y-100286600D03*
X131639600Y-100445400D03*
X147428500Y-107871900D03*
X139696700Y-101913200D03*
X111097400Y-99290700D03*
X114533100Y-74917300D03*
X198887900Y-128794400D03*
X159891500Y-96074800D03*
X161096500Y-96074800D03*
X191788500Y-129973400D03*
X120175700Y-102115800D03*
X114335300Y-101875500D03*
X113197200Y-102804900D03*
X195100000Y-73000000D03*
X171584200Y-96349700D03*
X187350000Y-79250000D03*
X236050000Y-79250000D03*
X235884990Y-72915010D03*
X144301600Y-121752000D03*
X109271800Y-87299800D03*
X140665000Y-87299800D03*
X135478700Y-83757800D03*
X137538700Y-82640600D03*
D18*
X113300000Y-83000000D02*
X134910000Y-83000000D01*
X134910000Y-83000000D02*
X137050000Y-80860000D01*
X113300000Y-79200000D02*
X137930000Y-79200000D01*
X137930000Y-79200000D02*
X139590000Y-80860000D01*
D19*
X139982000Y-99102200D02*
X143289500Y-102409700D01*
X143289500Y-102409700D02*
X165210000Y-102409700D01*
X165210000Y-104610000D02*
X165210000Y-102409700D01*
X134730000Y-104610000D02*
X134730000Y-101969600D01*
X134730000Y-101969600D02*
X136210200Y-100489400D01*
X124460000Y-104140000D02*
X122259700Y-104140000D01*
X122259700Y-104140000D02*
X122259700Y-122259700D01*
X122259700Y-122259700D02*
X123000000Y-123000000D01*
X123000000Y-123000000D02*
X123600000Y-123600000D01*
X123600000Y-123600000D02*
X162900000Y-123600000D01*
X123800000Y-99700000D02*
X123800000Y-98253300D01*
X123800000Y-98253300D02*
X123800100Y-98253200D01*
X123800100Y-98253200D02*
X124386500Y-98253200D01*
X124386500Y-98253200D02*
X128814500Y-102681200D01*
X128814500Y-102681200D02*
X128814500Y-103570100D01*
X192600000Y-116520000D02*
X214400000Y-116520000D01*
X171738500Y-88213800D02*
X181052900Y-88213800D01*
X181052900Y-88213800D02*
X183804800Y-90965700D01*
X157590000Y-119850000D02*
X160130000Y-119850000D01*
X155050000Y-119850000D02*
X157590000Y-119850000D01*
X152510000Y-119850000D02*
X155050000Y-119850000D01*
X149970000Y-119850000D02*
X152510000Y-119850000D01*
X214400000Y-116520000D02*
X216900000Y-116520000D01*
D18*
X204477300Y-89815800D02*
X196786200Y-82124700D01*
X196786200Y-82124700D02*
X191532400Y-82124700D01*
X191532400Y-82124700D02*
X185733700Y-87923400D01*
X185733700Y-87923400D02*
X185733700Y-91247500D01*
X185733700Y-91247500D02*
X184433000Y-92548200D01*
X184433000Y-92548200D02*
X157464800Y-92548200D01*
X157464800Y-92548200D02*
X156214300Y-91297700D01*
X156214300Y-91297700D02*
X149506100Y-91297700D01*
X149506100Y-91297700D02*
X149101500Y-90893100D01*
X149101500Y-90893100D02*
X146987600Y-90893100D01*
X146987600Y-90893100D02*
X146583000Y-91297700D01*
X146583000Y-91297700D02*
X136702800Y-91297700D01*
X136702800Y-91297700D02*
X136401700Y-91598800D01*
X151096700Y-88942200D02*
X146179400Y-88942200D01*
X146179400Y-88942200D02*
X145774800Y-89346800D01*
X145774800Y-89346800D02*
X121046000Y-89346800D01*
X155631700Y-94824300D02*
X155956800Y-95149400D01*
X155956800Y-95149400D02*
X173894500Y-95149400D01*
X173894500Y-95149400D02*
X174169600Y-95424500D01*
X144670000Y-96100000D02*
X146713100Y-94056900D01*
X146713100Y-94056900D02*
X154864300Y-94056900D01*
X154864300Y-94056900D02*
X155631700Y-94824300D01*
X131202400Y-107490000D02*
X130577300Y-107490000D01*
X130577300Y-107490000D02*
X126635600Y-103548300D01*
X126635600Y-103548300D02*
X126635600Y-103238800D01*
X126635600Y-103238800D02*
X124622100Y-101225300D01*
X124622100Y-101225300D02*
X121806800Y-101225300D01*
X121806800Y-101225300D02*
X121764400Y-101182900D01*
X121764400Y-101182900D02*
X119474200Y-101182900D01*
X119474200Y-101182900D02*
X119417400Y-101239700D01*
X119417400Y-101239700D02*
X118153800Y-101239700D01*
X118153800Y-101239700D02*
X117813400Y-100899300D01*
X117813400Y-100899300D02*
X110468200Y-100899300D01*
X110468200Y-100899300D02*
X109563000Y-99994100D01*
X109563000Y-99994100D02*
X109563000Y-98596500D01*
X109563000Y-98596500D02*
X119738100Y-88421400D01*
X119738100Y-88421400D02*
X143095200Y-88421400D01*
X142130000Y-96100000D02*
X144981400Y-93248600D01*
X144981400Y-93248600D02*
X147916300Y-93248600D01*
X147916300Y-93248600D02*
X155406100Y-93248600D01*
X155406100Y-93248600D02*
X156656600Y-94499100D01*
X156656600Y-94499100D02*
X177190200Y-94499100D01*
X177190200Y-94499100D02*
X177465300Y-94774200D01*
X147916300Y-93248600D02*
X147916300Y-93121600D01*
X181229500Y-91579300D02*
X180297600Y-90647400D01*
X180297600Y-90647400D02*
X149775500Y-90647400D01*
X149775500Y-90647400D02*
X149370900Y-90242800D01*
X149370900Y-90242800D02*
X146718200Y-90242800D01*
X146718200Y-90242800D02*
X146313600Y-90647400D01*
X146313600Y-90647400D02*
X127064100Y-90647400D01*
X127064100Y-90647400D02*
X126779600Y-90931900D01*
X139590000Y-96100000D02*
X143091700Y-92598300D01*
X143091700Y-92598300D02*
X147121800Y-92598300D01*
X147121800Y-92598300D02*
X147526400Y-92193700D01*
X147526400Y-92193700D02*
X148562700Y-92193700D01*
X148562700Y-92193700D02*
X148967300Y-92598300D01*
X148967300Y-92598300D02*
X155675500Y-92598300D01*
X155675500Y-92598300D02*
X156926000Y-93848800D01*
X156926000Y-93848800D02*
X180954400Y-93848800D01*
X180954400Y-93848800D02*
X181229500Y-94123900D01*
X137050000Y-96100000D02*
X141202000Y-91948000D01*
X141202000Y-91948000D02*
X146852400Y-91948000D01*
X146852400Y-91948000D02*
X147257000Y-91543400D01*
X147257000Y-91543400D02*
X148832100Y-91543400D01*
X148832100Y-91543400D02*
X149236700Y-91948000D01*
X149236700Y-91948000D02*
X155944900Y-91948000D01*
X155944900Y-91948000D02*
X157195400Y-93198500D01*
X157195400Y-93198500D02*
X185801500Y-93198500D01*
X133797500Y-107711000D02*
X130864500Y-104778000D01*
X130864500Y-104778000D02*
X130864500Y-101377800D01*
X124591100Y-93126700D02*
X131536700Y-93126700D01*
X131536700Y-93126700D02*
X134510000Y-96100000D01*
X134730000Y-119850000D02*
X140458300Y-114121700D01*
X140458300Y-114121700D02*
X155002500Y-114121700D01*
X168705900Y-110548300D02*
X168659000Y-110595200D01*
X168659000Y-110595200D02*
X155002500Y-110595200D01*
X132841300Y-100286600D02*
X133034100Y-100479400D01*
X133034100Y-100479400D02*
X133034100Y-105071200D01*
X133034100Y-105071200D02*
X134098200Y-106135300D01*
X134098200Y-106135300D02*
X135744700Y-106135300D01*
X135744700Y-106135300D02*
X137270000Y-104610000D01*
X145081100Y-112421100D02*
X167452700Y-112421100D01*
X167452700Y-112421100D02*
X167493300Y-112461700D01*
X131639600Y-100445400D02*
X132383800Y-101189600D01*
X132383800Y-101189600D02*
X132383800Y-105340600D01*
X132383800Y-105340600D02*
X133828800Y-106785600D01*
X133828800Y-106785600D02*
X137634400Y-106785600D01*
X137634400Y-106785600D02*
X139810000Y-104610000D01*
X147428500Y-107871900D02*
X143071900Y-107871900D01*
X143071900Y-107871900D02*
X139810000Y-104610000D01*
X126890000Y-96100000D02*
X128216700Y-97426700D01*
X128216700Y-97426700D02*
X135329200Y-97426700D01*
X135329200Y-97426700D02*
X139696700Y-101794200D01*
X139696700Y-101794200D02*
X139696700Y-101913200D01*
D19*
X147500000Y-77300000D02*
X145117300Y-74917300D01*
X145117300Y-74917300D02*
X114533100Y-74917300D01*
X167900000Y-123600000D02*
X165498700Y-126001300D01*
X165498700Y-126001300D02*
X121001300Y-126001300D01*
X121001300Y-126001300D02*
X118000000Y-123000000D01*
X118800000Y-99700000D02*
X118390700Y-99290700D01*
X118390700Y-99290700D02*
X111097400Y-99290700D01*
X116840000Y-119380000D02*
X116840000Y-121580300D01*
X116840000Y-121580300D02*
X118000000Y-122740300D01*
X118000000Y-122740300D02*
X118000000Y-123000000D01*
X165210000Y-119850000D02*
X167750000Y-119850000D01*
D18*
X245110000Y-88410000D02*
X245110000Y-87510000D01*
D20*
X245110000Y-87510000D02*
X243586000Y-85986000D01*
X145117300Y-74917300D02*
X193217300Y-74917300D01*
D18*
X193217300Y-74917300D02*
X193517300Y-74917300D01*
D20*
X193517300Y-74917300D02*
X194400000Y-75800000D01*
X194400000Y-75800000D02*
X196100000Y-75800000D01*
X196100000Y-75800000D02*
X215900000Y-75800000D01*
X215900000Y-75800000D02*
X238200000Y-75800000D01*
D18*
X238200000Y-75800000D02*
X238562000Y-75438000D01*
D20*
X243600000Y-76400000D02*
X243586000Y-75438000D01*
X238200000Y-75800000D02*
X240900000Y-75800000D01*
X241400000Y-78000000D02*
X243600000Y-78000000D01*
X240900000Y-77500000D02*
X241400000Y-78000000D01*
X243586000Y-85986000D02*
X243600000Y-78000000D01*
X243600000Y-78000000D02*
X243600000Y-76400000D01*
D18*
X240900000Y-77500000D02*
X240900000Y-77400000D01*
D20*
X240900000Y-75800000D02*
X240900000Y-77400000D01*
X203400000Y-122300000D02*
X245200000Y-122300000D01*
X200160000Y-119060000D02*
X203400000Y-122300000D01*
X192600000Y-119060000D02*
X200160000Y-119060000D01*
X245110000Y-134620000D02*
X245200000Y-122300000D01*
X245200000Y-122300000D02*
X245110000Y-88410000D01*
D18*
X153615300Y-96100000D02*
X155165700Y-97650400D01*
X155165700Y-97650400D02*
X169232200Y-97650400D01*
X169232200Y-97650400D02*
X192119500Y-120537700D01*
X152290000Y-96100000D02*
X153615300Y-96100000D01*
X227330000Y-134620000D02*
X227330000Y-130284700D01*
X192119500Y-120537700D02*
X192119500Y-121319500D01*
X192119500Y-121319500D02*
X193100000Y-122300000D01*
X193100000Y-122300000D02*
X199000000Y-122300000D01*
X199000000Y-122300000D02*
X205500000Y-128800000D01*
X205500000Y-128800000D02*
X226000000Y-128800000D01*
X226000000Y-128800000D02*
X227330000Y-130284700D01*
X162670000Y-104610000D02*
X164290200Y-106230200D01*
X164290200Y-106230200D02*
X175291600Y-106230200D01*
X175291600Y-106230200D02*
X192296600Y-123235200D01*
X192296600Y-123235200D02*
X197420500Y-123235200D01*
X197420500Y-123235200D02*
X204470000Y-130284700D01*
X204470000Y-134620000D02*
X204470000Y-130284700D01*
X201930000Y-130284700D02*
X200378200Y-130284700D01*
X200378200Y-130284700D02*
X198887900Y-128794400D01*
X201930000Y-134620000D02*
X201930000Y-130284700D01*
X157590000Y-104610000D02*
X159860500Y-106880500D01*
X159860500Y-106880500D02*
X175022200Y-106880500D01*
X175022200Y-106880500D02*
X198426400Y-130284700D01*
X198426400Y-130284700D02*
X199390000Y-130284700D01*
X199390000Y-134620000D02*
X199390000Y-130284700D01*
X155050000Y-104610000D02*
X157970800Y-107530800D01*
X157970800Y-107530800D02*
X174096100Y-107530800D01*
X174096100Y-107530800D02*
X196850000Y-130284700D01*
X196850000Y-134620000D02*
X196850000Y-130284700D01*
X159891500Y-96074800D02*
X161096500Y-96074800D01*
X152510000Y-104610000D02*
X156081100Y-108181100D01*
X156081100Y-108181100D02*
X172206400Y-108181100D01*
X172206400Y-108181100D02*
X194310000Y-130284700D01*
X194310000Y-134620000D02*
X194310000Y-130284700D01*
X191770000Y-134620000D02*
X191770000Y-130284700D01*
X191770000Y-130284700D02*
X191788500Y-130266200D01*
X191788500Y-130266200D02*
X191788500Y-129973400D01*
X189230000Y-130284700D02*
X189230000Y-129763800D01*
X189230000Y-129763800D02*
X168643700Y-109177500D01*
X168643700Y-109177500D02*
X151997500Y-109177500D01*
X151997500Y-109177500D02*
X147430000Y-104610000D01*
X120175700Y-102115800D02*
X114575600Y-102115800D01*
X114575600Y-102115800D02*
X114335300Y-101875500D01*
X189230000Y-134620000D02*
X189230000Y-130284700D01*
X148425100Y-108565500D02*
X148155800Y-108834800D01*
X148155800Y-108834800D02*
X131002400Y-108834800D01*
X131002400Y-108834800D02*
X125985300Y-103817700D01*
X125985300Y-103817700D02*
X125985300Y-103508200D01*
X125985300Y-103508200D02*
X125091800Y-102614700D01*
X125091800Y-102614700D02*
X121437100Y-102614700D01*
X121437100Y-102614700D02*
X120958100Y-103093700D01*
X120958100Y-103093700D02*
X119845000Y-103093700D01*
X119845000Y-103093700D02*
X119556200Y-102804900D01*
X119556200Y-102804900D02*
X113197200Y-102804900D01*
X148425100Y-108565500D02*
X151380100Y-111520500D01*
X151380100Y-111520500D02*
X167925800Y-111520500D01*
X167925800Y-111520500D02*
X186690000Y-130284700D01*
X148425100Y-108565500D02*
X148425100Y-107559900D01*
X148425100Y-107559900D02*
X145475200Y-104610000D01*
X145475200Y-104610000D02*
X144890000Y-104610000D01*
X186690000Y-134620000D02*
X186690000Y-130284700D01*
X147430000Y-119850000D02*
X149340000Y-121760000D01*
X149340000Y-121760000D02*
X177198000Y-121760000D01*
X177198000Y-121760000D02*
X184150000Y-128712000D01*
X184150000Y-128712000D02*
X184150000Y-134620000D01*
X248666000Y-75438000D02*
X248666000Y-73734000D01*
X248666000Y-73734000D02*
X248559989Y-73840011D01*
X196240989Y-73840011D02*
X195315988Y-72915010D01*
X248559989Y-73840011D02*
X196240989Y-73840011D01*
X195315988Y-72915010D02*
X195084990Y-72915010D01*
X147210000Y-96100000D02*
X148587700Y-94722300D01*
X148587700Y-94722300D02*
X153628900Y-94722300D01*
X153628900Y-94722300D02*
X155906700Y-97000100D01*
X155906700Y-97000100D02*
X161479800Y-97000100D01*
X161479800Y-97000100D02*
X162130100Y-96349800D01*
X162130100Y-96349800D02*
X162130100Y-96349700D01*
X162130100Y-96349700D02*
X171584200Y-96349700D01*
X248920000Y-82617919D02*
X254200000Y-77337919D01*
X248920000Y-83820000D02*
X248920000Y-82617919D01*
X254200000Y-73100000D02*
X254015010Y-72915010D01*
X254200000Y-77337919D02*
X254200000Y-73100000D01*
X254015010Y-72915010D02*
X235884990Y-72915010D01*
X187350000Y-79250000D02*
X236050000Y-79250000D01*
X236050000Y-79250000D02*
X236050000Y-79250000D01*
X109271800Y-87299800D02*
X140665000Y-87299800D01*
X125785300Y-116840000D02*
X130697300Y-121752000D01*
X130697300Y-121752000D02*
X144301600Y-121752000D01*
X124460000Y-116840000D02*
X125785300Y-116840000D01*
X213024700Y-93660000D02*
X214400000Y-93660000D01*
X214400000Y-93660000D02*
X216900000Y-93660000D01*
X200839100Y-81474400D02*
X213024700Y-93660000D01*
X146448800Y-89592500D02*
X149640300Y-89592500D01*
X121810000Y-96100000D02*
X121810000Y-94562400D01*
X146044200Y-89997100D02*
X146448800Y-89592500D01*
X126375300Y-89997100D02*
X146044200Y-89997100D01*
X121810000Y-94562400D02*
X126375300Y-89997100D01*
X149640300Y-89592500D02*
X149943700Y-89895900D01*
X149943700Y-89895900D02*
X161514600Y-89895900D01*
X191263000Y-81474400D02*
X200839100Y-81474400D01*
X161514600Y-89895900D02*
X169285900Y-82124600D01*
X190612800Y-82124600D02*
X191263000Y-81474400D01*
X169285900Y-82124600D02*
X190612800Y-82124600D01*
X213024700Y-88580000D02*
X205268800Y-80824100D01*
X205268800Y-80824100D02*
X190993600Y-80824100D01*
X190993600Y-80824100D02*
X190377500Y-81440200D01*
X190377500Y-81440200D02*
X165859800Y-81440200D01*
X165859800Y-81440200D02*
X163542200Y-83757800D01*
X163542200Y-83757800D02*
X135478700Y-83757800D01*
X214020000Y-88580000D02*
X216900000Y-88580000D01*
X214020000Y-88580000D02*
X213024700Y-88580000D01*
X214400000Y-88580000D02*
X214020000Y-88580000D01*
X213024700Y-86040000D02*
X207158500Y-80173800D01*
X207158500Y-80173800D02*
X190724200Y-80173800D01*
X190724200Y-80173800D02*
X190108100Y-80789900D01*
X190108100Y-80789900D02*
X165590400Y-80789900D01*
X165590400Y-80789900D02*
X163739700Y-82640600D01*
X163739700Y-82640600D02*
X137538700Y-82640600D01*
X214260000Y-86040000D02*
X216900000Y-86040000D01*
X214260000Y-86040000D02*
X213024700Y-86040000D01*
X214400000Y-86040000D02*
X214260000Y-86040000D01*
M02*
