G04 #@! TF.GenerationSoftware,KiCad,Pcbnew,(5.1.5)-3*
G04 #@! TF.CreationDate,2020-11-01T13:07:33-06:00*
G04 #@! TF.ProjectId,Aii-WiFi,4169692d-5769-4466-992e-6b696361645f,rev?*
G04 #@! TF.SameCoordinates,Original*
G04 #@! TF.FileFunction,Copper,L2,Bot*
G04 #@! TF.FilePolarity,Positive*
%FSLAX46Y46*%
G04 Gerber Fmt 4.6, Leading zero omitted, Abs format (unit mm)*
G04 Created by KiCad (PCBNEW (5.1.5)-3) date 2020-11-01 13:07:33*
%MOMM*%
%LPD*%
G04 APERTURE LIST*
%ADD10O,1.700000X1.700000*%
%ADD11R,1.700000X1.700000*%
%ADD12C,1.600000*%
%ADD13O,1.600000X1.600000*%
%ADD14R,1.600000X1.600000*%
%ADD15C,1.500000*%
%ADD16R,1.778000X7.620000*%
%ADD17C,0.800000*%
%ADD18C,2.000000*%
%ADD19C,1.700000*%
%ADD20C,0.250000*%
%ADD21C,0.254000*%
G04 APERTURE END LIST*
D10*
X248920000Y-83820000D03*
D11*
X251460000Y-83820000D03*
D10*
X216900000Y-119060000D03*
X216900000Y-116520000D03*
X216900000Y-113980000D03*
X216900000Y-111440000D03*
X216900000Y-108900000D03*
X216900000Y-106360000D03*
X216900000Y-103820000D03*
X216900000Y-101280000D03*
X216900000Y-98740000D03*
X216900000Y-96200000D03*
X216900000Y-93660000D03*
X216900000Y-91120000D03*
X216900000Y-88580000D03*
X216900000Y-86040000D03*
D11*
X216900000Y-83500000D03*
D10*
X192600000Y-119060000D03*
X192600000Y-116520000D03*
X192600000Y-113980000D03*
X192600000Y-111440000D03*
X192600000Y-108900000D03*
X192600000Y-106360000D03*
X192600000Y-103820000D03*
X192600000Y-101280000D03*
X192600000Y-98740000D03*
X192600000Y-96200000D03*
X192600000Y-93660000D03*
X192600000Y-91120000D03*
X192600000Y-88580000D03*
X192600000Y-86040000D03*
D11*
X192600000Y-83500000D03*
D12*
X162900000Y-123600000D03*
X167900000Y-123600000D03*
D13*
X116840000Y-119380000D03*
X124460000Y-104140000D03*
X116840000Y-116840000D03*
X124460000Y-106680000D03*
X116840000Y-114300000D03*
X124460000Y-109220000D03*
X116840000Y-111760000D03*
X124460000Y-111760000D03*
X116840000Y-109220000D03*
X124460000Y-114300000D03*
X116840000Y-106680000D03*
X124460000Y-116840000D03*
X116840000Y-104140000D03*
D14*
X124460000Y-119380000D03*
D10*
X251206000Y-75438000D03*
X248666000Y-75438000D03*
X246126000Y-75438000D03*
D11*
X243586000Y-75438000D03*
D13*
X167750000Y-119850000D03*
X134730000Y-104610000D03*
X165210000Y-119850000D03*
X137270000Y-104610000D03*
X162670000Y-119850000D03*
X139810000Y-104610000D03*
X160130000Y-119850000D03*
X142350000Y-104610000D03*
X157590000Y-119850000D03*
X144890000Y-104610000D03*
X155050000Y-119850000D03*
X147430000Y-104610000D03*
X152510000Y-119850000D03*
X149970000Y-104610000D03*
X149970000Y-119850000D03*
X152510000Y-104610000D03*
X147430000Y-119850000D03*
X155050000Y-104610000D03*
X144890000Y-119850000D03*
X157590000Y-104610000D03*
X142350000Y-119850000D03*
X160130000Y-104610000D03*
X139810000Y-119850000D03*
X162670000Y-104610000D03*
X137270000Y-119850000D03*
X165210000Y-104610000D03*
X134730000Y-119850000D03*
D14*
X167750000Y-104610000D03*
D13*
X152290000Y-96100000D03*
X119270000Y-80860000D03*
X149750000Y-96100000D03*
X121810000Y-80860000D03*
X147210000Y-96100000D03*
X124350000Y-80860000D03*
X144670000Y-96100000D03*
X126890000Y-80860000D03*
X142130000Y-96100000D03*
X129430000Y-80860000D03*
X139590000Y-96100000D03*
X131970000Y-80860000D03*
X137050000Y-96100000D03*
X134510000Y-80860000D03*
X134510000Y-96100000D03*
X137050000Y-80860000D03*
X131970000Y-96100000D03*
X139590000Y-80860000D03*
X129430000Y-96100000D03*
X142130000Y-80860000D03*
X126890000Y-96100000D03*
X144670000Y-80860000D03*
X124350000Y-96100000D03*
X147210000Y-80860000D03*
X121810000Y-96100000D03*
X149750000Y-80860000D03*
X119270000Y-96100000D03*
D14*
X152290000Y-80860000D03*
D12*
X123000000Y-123000000D03*
X118000000Y-123000000D03*
X152500000Y-77300000D03*
X147500000Y-77300000D03*
X123800000Y-99700000D03*
X118800000Y-99700000D03*
D15*
X113300000Y-83000000D03*
X113300000Y-79200000D03*
D16*
X245110000Y-134620000D03*
X242570000Y-134620000D03*
X240030000Y-134620000D03*
X237490000Y-134620000D03*
X234950000Y-134620000D03*
X232410000Y-134620000D03*
X229870000Y-134620000D03*
X227330000Y-134620000D03*
X224790000Y-134620000D03*
X222250000Y-134620000D03*
X219710000Y-134620000D03*
X217170000Y-134620000D03*
X214630000Y-134620000D03*
X212090000Y-134620000D03*
X209550000Y-134620000D03*
X207010000Y-134620000D03*
X204470000Y-134620000D03*
X201930000Y-134620000D03*
X199390000Y-134620000D03*
X196850000Y-134620000D03*
X194310000Y-134620000D03*
X191770000Y-134620000D03*
X189230000Y-134620000D03*
X186690000Y-134620000D03*
X184150000Y-134620000D03*
D17*
X139982000Y-99102200D03*
X136210200Y-100489400D03*
X128814500Y-103570100D03*
X183804800Y-90965700D03*
X171738500Y-88213800D03*
X136401700Y-91598800D03*
X204477300Y-89815800D03*
X121046000Y-89346800D03*
X151096700Y-88942200D03*
X155631700Y-94824300D03*
X174169600Y-95424500D03*
X131202400Y-107490000D03*
X143095200Y-88421400D03*
X147916300Y-93121600D03*
X177465300Y-94774200D03*
X126779600Y-90931900D03*
X181229500Y-91579300D03*
X181229500Y-94123900D03*
X133797500Y-107711000D03*
X130864500Y-101377800D03*
X185801500Y-93198500D03*
X155002500Y-114121700D03*
X155002500Y-110595200D03*
X168705900Y-110548300D03*
X124591100Y-93126700D03*
X167493300Y-112461700D03*
X145081100Y-112421100D03*
X132841300Y-100286600D03*
X131639600Y-100445400D03*
X147428500Y-107871900D03*
X139696700Y-101913200D03*
X111097400Y-99290700D03*
X114533100Y-74917300D03*
X198887900Y-128794400D03*
X159891500Y-96074800D03*
X161096500Y-96074800D03*
X191788500Y-129973400D03*
X120175700Y-102115800D03*
X114335300Y-101875500D03*
X113197200Y-102804900D03*
X195100000Y-73000000D03*
X171584200Y-96349700D03*
X187350000Y-79250000D03*
X236050000Y-79250000D03*
X235884990Y-72915010D03*
X144301600Y-121752000D03*
X109271800Y-87299800D03*
X140665000Y-87299800D03*
X135478700Y-83757800D03*
X137538700Y-82640600D03*
D18*
X136210200Y-100489400D02*
X137597400Y-99102200D01*
X137597400Y-99102200D02*
X139982000Y-99102200D01*
X128814500Y-103570100D02*
X129854400Y-104610000D01*
X129854400Y-104610000D02*
X134730000Y-104610000D01*
X128814500Y-103570100D02*
X128244600Y-104140000D01*
X128244600Y-104140000D02*
X124460000Y-104140000D01*
X152290000Y-80860000D02*
X164384700Y-80860000D01*
X164384700Y-80860000D02*
X171738500Y-88213800D01*
X190349700Y-106360000D02*
X192600000Y-106360000D01*
X183804800Y-100267100D02*
X189897700Y-106360000D01*
X189897700Y-106360000D02*
X190349700Y-106360000D01*
X190349700Y-106360000D02*
X190349700Y-116520000D01*
X192600000Y-116520000D02*
X190349700Y-116520000D01*
X183804800Y-100267100D02*
X183804800Y-90965700D01*
X165210000Y-102409700D02*
X181662200Y-102409700D01*
X181662200Y-102409700D02*
X183804800Y-100267100D01*
X152290000Y-80860000D02*
X152290000Y-77510000D01*
X152290000Y-77510000D02*
X152500000Y-77300000D01*
X157590000Y-119850000D02*
X157590000Y-122050300D01*
X157590000Y-122050300D02*
X161350300Y-122050300D01*
X161350300Y-122050300D02*
X162900000Y-123600000D01*
X165210000Y-104610000D02*
X165210000Y-102409700D01*
X124350000Y-96100000D02*
X124350000Y-99150000D01*
X124350000Y-99150000D02*
X123800000Y-99700000D01*
D19*
X245110000Y-134620000D02*
X245110000Y-126010000D01*
D20*
X251460000Y-83820000D02*
X251460000Y-85195300D01*
X234950000Y-134620000D02*
X234950000Y-101705300D01*
X234950000Y-101705300D02*
X251460000Y-85195300D01*
X232410000Y-130284700D02*
X223675800Y-130284700D01*
X223675800Y-130284700D02*
X205402600Y-112011500D01*
X205402600Y-112011500D02*
X205402600Y-89432500D01*
X205402600Y-89432500D02*
X191724000Y-75753900D01*
X191724000Y-75753900D02*
X150996400Y-75753900D01*
X150996400Y-75753900D02*
X147932900Y-78817400D01*
X147932900Y-78817400D02*
X146712600Y-78817400D01*
X146712600Y-78817400D02*
X144670000Y-80860000D01*
X232410000Y-134620000D02*
X232410000Y-130284700D01*
X124460000Y-119380000D02*
X123015300Y-117935300D01*
X123015300Y-117935300D02*
X123015300Y-106408900D01*
X123015300Y-106408900D02*
X117270200Y-100663800D01*
X117270200Y-100663800D02*
X117270200Y-95913900D01*
X117270200Y-95913900D02*
X118730600Y-94453500D01*
X118730600Y-94453500D02*
X133547000Y-94453500D01*
X133547000Y-94453500D02*
X136401700Y-91598800D01*
X207010000Y-134620000D02*
X207010000Y-130284600D01*
X207010000Y-130284600D02*
X204477300Y-127751900D01*
X204477300Y-127751900D02*
X204477300Y-89815800D01*
X144890000Y-119850000D02*
X140389100Y-124350900D01*
X140389100Y-124350900D02*
X121508000Y-124350900D01*
X121508000Y-124350900D02*
X117862500Y-120705400D01*
X117862500Y-120705400D02*
X116285200Y-120705400D01*
X116285200Y-120705400D02*
X115319300Y-119739500D01*
X115319300Y-119739500D02*
X115319300Y-95073500D01*
X115319300Y-95073500D02*
X121046000Y-89346800D01*
X155631700Y-94824300D02*
X155631700Y-93477200D01*
X155631700Y-93477200D02*
X151096700Y-88942200D01*
X204470000Y-130284700D02*
X203552000Y-129366700D01*
X203552000Y-129366700D02*
X203552000Y-89150000D01*
X203552000Y-89150000D02*
X194500600Y-80098600D01*
X194500600Y-80098600D02*
X189495500Y-80098600D01*
X189495500Y-80098600D02*
X174169600Y-95424500D01*
X204470000Y-134620000D02*
X204470000Y-130284700D01*
X147916300Y-93121600D02*
X147795400Y-93121600D01*
X147795400Y-93121600D02*
X143095200Y-88421400D01*
X201930000Y-134620000D02*
X201930000Y-88458800D01*
X201930000Y-88458800D02*
X194262000Y-80790800D01*
X194262000Y-80790800D02*
X190673900Y-80790800D01*
X190673900Y-80790800D02*
X177465300Y-93999400D01*
X177465300Y-93999400D02*
X177465300Y-94774200D01*
X142350000Y-119850000D02*
X142350000Y-114891200D01*
X142350000Y-114891200D02*
X134203000Y-106744200D01*
X134203000Y-106744200D02*
X131948200Y-106744200D01*
X131948200Y-106744200D02*
X131202400Y-107490000D01*
X139810000Y-119850000D02*
X138304200Y-121355800D01*
X138304200Y-121355800D02*
X123105900Y-121355800D01*
X123105900Y-121355800D02*
X120542000Y-118791900D01*
X120542000Y-118791900D02*
X120542000Y-105775000D01*
X120542000Y-105775000D02*
X115969600Y-101202600D01*
X115969600Y-101202600D02*
X115969600Y-95375100D01*
X115969600Y-95375100D02*
X120412800Y-90931900D01*
X120412800Y-90931900D02*
X126779600Y-90931900D01*
X181229500Y-91579300D02*
X181229500Y-94123900D01*
X199390000Y-134620000D02*
X200492700Y-133517300D01*
X200492700Y-133517300D02*
X200492700Y-87969400D01*
X200492700Y-87969400D02*
X193966300Y-81443000D01*
X193966300Y-81443000D02*
X191170400Y-81443000D01*
X191170400Y-81443000D02*
X181229500Y-91383900D01*
X181229500Y-91383900D02*
X181229500Y-91579300D01*
X196850000Y-130284700D02*
X198739000Y-130284700D01*
X198739000Y-130284700D02*
X199842300Y-129181400D01*
X199842300Y-129181400D02*
X199842300Y-88265400D01*
X199842300Y-88265400D02*
X193701500Y-82124600D01*
X193701500Y-82124600D02*
X191456800Y-82124600D01*
X191456800Y-82124600D02*
X189818700Y-83762700D01*
X137050000Y-97425300D02*
X133097500Y-101377800D01*
X133097500Y-101377800D02*
X130864500Y-101377800D01*
X137270000Y-119850000D02*
X137270000Y-111183500D01*
X137270000Y-111183500D02*
X133797500Y-107711000D01*
X137050000Y-96100000D02*
X137050000Y-97425300D01*
X196850000Y-134620000D02*
X196850000Y-130284700D01*
X189818700Y-83762700D02*
X189769952Y-83762700D01*
X189769952Y-83762700D02*
X185800000Y-87732652D01*
X185800000Y-87732652D02*
X185800000Y-93200000D01*
X124591100Y-93126700D02*
X119137700Y-93126700D01*
X119137700Y-93126700D02*
X116619900Y-95644500D01*
X116619900Y-95644500D02*
X116619900Y-100933200D01*
X116619900Y-100933200D02*
X121929500Y-106242800D01*
X121929500Y-106242800D02*
X121929500Y-119256300D01*
X121929500Y-119256300D02*
X123378600Y-120705400D01*
X123378600Y-120705400D02*
X132549300Y-120705400D01*
X132549300Y-120705400D02*
X133404700Y-119850000D01*
X194310000Y-134620000D02*
X194310000Y-130284700D01*
X155002500Y-110595200D02*
X155002500Y-114121700D01*
X194310000Y-130284700D02*
X174573600Y-110548300D01*
X174573600Y-110548300D02*
X168705900Y-110548300D01*
X134730000Y-119850000D02*
X133404700Y-119850000D01*
X131970000Y-96100000D02*
X131970000Y-97425300D01*
X131970000Y-97425300D02*
X132841300Y-98296600D01*
X132841300Y-98296600D02*
X132841300Y-100286600D01*
X191770000Y-134620000D02*
X191770000Y-131665900D01*
X191770000Y-131665900D02*
X172565800Y-112461700D01*
X172565800Y-112461700D02*
X167493300Y-112461700D01*
X137270000Y-104610000D02*
X137270000Y-105935300D01*
X137270000Y-105935300D02*
X138595300Y-105935300D01*
X138595300Y-105935300D02*
X145081100Y-112421100D01*
X129430000Y-96100000D02*
X129430000Y-98235800D01*
X129430000Y-98235800D02*
X131639600Y-100445400D01*
X147428500Y-107871900D02*
X155206900Y-115650300D01*
X155206900Y-115650300D02*
X174595600Y-115650300D01*
X174595600Y-115650300D02*
X189230000Y-130284700D01*
X189230000Y-134620000D02*
X189230000Y-130284700D01*
X142350000Y-103284700D02*
X141068200Y-103284700D01*
X141068200Y-103284700D02*
X139696700Y-101913200D01*
X142350000Y-104610000D02*
X142350000Y-103284700D01*
X142350000Y-104610000D02*
X154040600Y-116300600D01*
X154040600Y-116300600D02*
X172705900Y-116300600D01*
X172705900Y-116300600D02*
X186690000Y-130284700D01*
X186690000Y-134620000D02*
X186690000Y-130284700D01*
D18*
X118000000Y-123000000D02*
X116366400Y-123000000D01*
X116366400Y-123000000D02*
X110696500Y-117330100D01*
X110696500Y-117330100D02*
X110696500Y-99691600D01*
X110696500Y-99691600D02*
X111097400Y-99290700D01*
X114533100Y-74917300D02*
X111097400Y-78353000D01*
X111097400Y-78353000D02*
X111097400Y-99290700D01*
X167750000Y-119850000D02*
X167750000Y-122050300D01*
X167750000Y-122050300D02*
X167900000Y-122200300D01*
X167900000Y-122200300D02*
X167900000Y-123600000D01*
X119270000Y-96100000D02*
X119270000Y-98300300D01*
X119270000Y-98300300D02*
X118800000Y-98770300D01*
X118800000Y-98770300D02*
X118800000Y-99700000D01*
D20*
X160130000Y-104610000D02*
X162162700Y-106642700D01*
X162162700Y-106642700D02*
X176736200Y-106642700D01*
X176736200Y-106642700D02*
X198887900Y-128794400D01*
X152510000Y-104610000D02*
X152510000Y-103284700D01*
X149750000Y-82185300D02*
X149750000Y-84728300D01*
X149750000Y-84728300D02*
X161096500Y-96074800D01*
X152510000Y-103284700D02*
X152681600Y-103284700D01*
X152681600Y-103284700D02*
X159891500Y-96074800D01*
X149750000Y-80860000D02*
X149750000Y-82185300D01*
X151175700Y-105660000D02*
X150900400Y-105935300D01*
X150900400Y-105935300D02*
X149970000Y-105935300D01*
X191788500Y-129973400D02*
X173310900Y-111495800D01*
X173310900Y-111495800D02*
X157211700Y-111495800D01*
X157211700Y-111495800D02*
X151375900Y-105660000D01*
X151375900Y-105660000D02*
X151175700Y-105660000D01*
X151175700Y-105660000D02*
X151175700Y-100740200D01*
X151175700Y-100740200D02*
X153619400Y-98296500D01*
X153619400Y-98296500D02*
X153619400Y-95511000D01*
X153619400Y-95511000D02*
X147210000Y-89101600D01*
X147210000Y-89101600D02*
X147210000Y-80860000D01*
X149970000Y-104610000D02*
X149970000Y-105935300D01*
X120175700Y-102115800D02*
X120246700Y-102044800D01*
X120246700Y-102044800D02*
X129446400Y-102044800D01*
X129446400Y-102044800D02*
X129743200Y-102341600D01*
X129743200Y-102341600D02*
X137701600Y-102341600D01*
X137701600Y-102341600D02*
X139072100Y-100971100D01*
X139072100Y-100971100D02*
X143791100Y-100971100D01*
X143791100Y-100971100D02*
X147430000Y-104610000D01*
X114335300Y-101875500D02*
X114335300Y-102975500D01*
X114335300Y-102975500D02*
X113548300Y-103762500D01*
X113548300Y-103762500D02*
X112844700Y-103762500D01*
X112844700Y-103762500D02*
X112271800Y-103189600D01*
X112271800Y-103189600D02*
X112271800Y-100514000D01*
X112271800Y-100514000D02*
X112863200Y-99922600D01*
X112863200Y-99922600D02*
X112863200Y-88592100D01*
X112863200Y-88592100D02*
X119270000Y-82185300D01*
X119270000Y-80860000D02*
X119270000Y-82185300D01*
X113197200Y-102804900D02*
X113197200Y-100508300D01*
X113197200Y-100508300D02*
X113513500Y-100192000D01*
X113513500Y-100192000D02*
X113513500Y-90481800D01*
X113513500Y-90481800D02*
X121810000Y-82185300D01*
X121810000Y-80860000D02*
X121810000Y-82185300D01*
X248666000Y-75438000D02*
X248666000Y-79714000D01*
X124350000Y-79728630D02*
X124400000Y-79678630D01*
X124350000Y-80860000D02*
X124350000Y-79728630D01*
X124400000Y-79678630D02*
X124400000Y-73100000D01*
X135000000Y-73100000D02*
X135100000Y-73000000D01*
X124400000Y-73100000D02*
X135000000Y-73100000D01*
X135100000Y-73000000D02*
X195100000Y-73000000D01*
X195100000Y-73000000D02*
X195200000Y-73000000D01*
X216900000Y-113980000D02*
X221820000Y-113980000D01*
X221820000Y-113980000D02*
X231900000Y-103900000D01*
X231900000Y-103900000D02*
X231900000Y-96400000D01*
X248586000Y-79714000D02*
X248666000Y-79714000D01*
X231900000Y-96400000D02*
X248586000Y-79714000D01*
X246126000Y-79714000D02*
X246126000Y-75438000D01*
X214400000Y-111440000D02*
X212840500Y-109880500D01*
X212840500Y-109880500D02*
X212840500Y-95950700D01*
X212840500Y-95950700D02*
X191993300Y-75103500D01*
X191993300Y-75103500D02*
X135186500Y-75103500D01*
X135186500Y-75103500D02*
X129430000Y-80860000D01*
X214400000Y-111440000D02*
X216900000Y-111440000D01*
X246126000Y-79714000D02*
X246086000Y-79714000D01*
X217749999Y-110590001D02*
X216900000Y-111440000D01*
X223400000Y-104940000D02*
X217749999Y-110590001D01*
X223400000Y-102400000D02*
X223400000Y-104940000D01*
X246086000Y-79714000D02*
X223400000Y-102400000D01*
X171584200Y-96349700D02*
X171584200Y-94986000D01*
X171584200Y-94986000D02*
X186944200Y-79626000D01*
X186944200Y-79626000D02*
X186974000Y-79626000D01*
X186974000Y-79626000D02*
X187300000Y-79300000D01*
X187300000Y-79300000D02*
X187350000Y-79250000D01*
X187350000Y-79250000D02*
X187400000Y-79200000D01*
X235884990Y-79084990D02*
X236050000Y-79250000D01*
X235884990Y-72915010D02*
X235884990Y-79084990D01*
X149750000Y-96100000D02*
X149465200Y-96100000D01*
X149465200Y-96100000D02*
X140665000Y-87299800D01*
X144301600Y-121752000D02*
X141044300Y-125009300D01*
X141044300Y-125009300D02*
X116191200Y-125009300D01*
X116191200Y-125009300D02*
X109147700Y-117965800D01*
X109147700Y-117965800D02*
X109147700Y-87423900D01*
X109147700Y-87423900D02*
X109271800Y-87299800D01*
X131970000Y-80860000D02*
X134867800Y-83757800D01*
X134867800Y-83757800D02*
X135478700Y-83757800D01*
X134510000Y-82185300D02*
X137083400Y-82185300D01*
X137083400Y-82185300D02*
X137538700Y-82640600D01*
X134510000Y-80860000D02*
X134510000Y-82185300D01*
D21*
G36*
X123731829Y-72737831D02*
G01*
X123694454Y-72807753D01*
X123650997Y-72951014D01*
X123636323Y-73100000D01*
X123640001Y-73137343D01*
X123640000Y-79451067D01*
X123620694Y-79514713D01*
X123600998Y-79579644D01*
X123599757Y-79592246D01*
X123595203Y-79638480D01*
X123435241Y-79745363D01*
X123235363Y-79945241D01*
X123080000Y-80177759D01*
X122924637Y-79945241D01*
X122724759Y-79745363D01*
X122489727Y-79588320D01*
X122228574Y-79480147D01*
X121951335Y-79425000D01*
X121668665Y-79425000D01*
X121391426Y-79480147D01*
X121130273Y-79588320D01*
X120895241Y-79745363D01*
X120695363Y-79945241D01*
X120540000Y-80177759D01*
X120384637Y-79945241D01*
X120184759Y-79745363D01*
X119949727Y-79588320D01*
X119688574Y-79480147D01*
X119411335Y-79425000D01*
X119128665Y-79425000D01*
X118851426Y-79480147D01*
X118590273Y-79588320D01*
X118355241Y-79745363D01*
X118155363Y-79945241D01*
X117998320Y-80180273D01*
X117890147Y-80441426D01*
X117835000Y-80718665D01*
X117835000Y-81001335D01*
X117890147Y-81278574D01*
X117998320Y-81539727D01*
X118155363Y-81774759D01*
X118355241Y-81974637D01*
X118385585Y-81994912D01*
X112732400Y-87648099D01*
X112732400Y-84264005D01*
X112896011Y-84331775D01*
X113163589Y-84385000D01*
X113436411Y-84385000D01*
X113703989Y-84331775D01*
X113956043Y-84227371D01*
X114182886Y-84075799D01*
X114375799Y-83882886D01*
X114527371Y-83656043D01*
X114631775Y-83403989D01*
X114685000Y-83136411D01*
X114685000Y-82863589D01*
X114631775Y-82596011D01*
X114527371Y-82343957D01*
X114375799Y-82117114D01*
X114182886Y-81924201D01*
X113956043Y-81772629D01*
X113703989Y-81668225D01*
X113436411Y-81615000D01*
X113163589Y-81615000D01*
X112896011Y-81668225D01*
X112732400Y-81735995D01*
X112732400Y-80464005D01*
X112896011Y-80531775D01*
X113163589Y-80585000D01*
X113436411Y-80585000D01*
X113703989Y-80531775D01*
X113956043Y-80427371D01*
X114182886Y-80275799D01*
X114375799Y-80082886D01*
X114527371Y-79856043D01*
X114631775Y-79603989D01*
X114685000Y-79336411D01*
X114685000Y-79063589D01*
X114631775Y-78796011D01*
X114527371Y-78543957D01*
X114375799Y-78317114D01*
X114182886Y-78124201D01*
X113956043Y-77972629D01*
X113838640Y-77923999D01*
X115746016Y-76016624D01*
X115899130Y-75830053D01*
X116050952Y-75546015D01*
X116144443Y-75237817D01*
X116176012Y-74917300D01*
X116144443Y-74596784D01*
X116050952Y-74288585D01*
X115899130Y-74004548D01*
X115694813Y-73755587D01*
X115445852Y-73551270D01*
X115161815Y-73399448D01*
X114853616Y-73305957D01*
X114533100Y-73274388D01*
X114212583Y-73305957D01*
X113904385Y-73399448D01*
X113620347Y-73551270D01*
X113433776Y-73704384D01*
X109998086Y-77140075D01*
X109935686Y-77191286D01*
X109731369Y-77440249D01*
X109579548Y-77724286D01*
X109486057Y-78032485D01*
X109462400Y-78272678D01*
X109454489Y-78353000D01*
X109462400Y-78433319D01*
X109462400Y-86282436D01*
X109373739Y-86264800D01*
X109169861Y-86264800D01*
X108969902Y-86304574D01*
X108781544Y-86382595D01*
X108612026Y-86495863D01*
X108467863Y-86640026D01*
X108354595Y-86809544D01*
X108276574Y-86997902D01*
X108236800Y-87197861D01*
X108236800Y-87401739D01*
X108276574Y-87601698D01*
X108354595Y-87790056D01*
X108387701Y-87839603D01*
X108387700Y-117928478D01*
X108384024Y-117965800D01*
X108387700Y-118003122D01*
X108387700Y-118003132D01*
X108398697Y-118114785D01*
X108436273Y-118238657D01*
X108442154Y-118258046D01*
X108512726Y-118390076D01*
X108533181Y-118415000D01*
X108607699Y-118505801D01*
X108636703Y-118529604D01*
X115627401Y-125520303D01*
X115651199Y-125549301D01*
X115766924Y-125644274D01*
X115898953Y-125714846D01*
X116042214Y-125758303D01*
X116153867Y-125769300D01*
X116153876Y-125769300D01*
X116191199Y-125772976D01*
X116228522Y-125769300D01*
X141006978Y-125769300D01*
X141044300Y-125772976D01*
X141081622Y-125769300D01*
X141081633Y-125769300D01*
X141193286Y-125758303D01*
X141336547Y-125714846D01*
X141468576Y-125644274D01*
X141584301Y-125549301D01*
X141608104Y-125520297D01*
X142535699Y-124592702D01*
X162086903Y-124592702D01*
X162158486Y-124836671D01*
X162413996Y-124957571D01*
X162688184Y-125026300D01*
X162970512Y-125040217D01*
X163250130Y-124998787D01*
X163516292Y-124903603D01*
X163641514Y-124836671D01*
X163713097Y-124592702D01*
X162900000Y-123779605D01*
X162086903Y-124592702D01*
X142535699Y-124592702D01*
X143457889Y-123670512D01*
X161459783Y-123670512D01*
X161501213Y-123950130D01*
X161596397Y-124216292D01*
X161663329Y-124341514D01*
X161907298Y-124413097D01*
X162720395Y-123600000D01*
X163079605Y-123600000D01*
X163892702Y-124413097D01*
X164136671Y-124341514D01*
X164257571Y-124086004D01*
X164326300Y-123811816D01*
X164340217Y-123529488D01*
X164298787Y-123249870D01*
X164203603Y-122983708D01*
X164136671Y-122858486D01*
X163892702Y-122786903D01*
X163079605Y-123600000D01*
X162720395Y-123600000D01*
X161907298Y-122786903D01*
X161663329Y-122858486D01*
X161542429Y-123113996D01*
X161473700Y-123388184D01*
X161459783Y-123670512D01*
X143457889Y-123670512D01*
X144341402Y-122787000D01*
X144403539Y-122787000D01*
X144603498Y-122747226D01*
X144791856Y-122669205D01*
X144884506Y-122607298D01*
X162086903Y-122607298D01*
X162900000Y-123420395D01*
X163713097Y-122607298D01*
X163641514Y-122363329D01*
X163386004Y-122242429D01*
X163111816Y-122173700D01*
X162829488Y-122159783D01*
X162549870Y-122201213D01*
X162283708Y-122296397D01*
X162158486Y-122363329D01*
X162086903Y-122607298D01*
X144884506Y-122607298D01*
X144961374Y-122555937D01*
X145105537Y-122411774D01*
X145218805Y-122242256D01*
X145296826Y-122053898D01*
X145336600Y-121853939D01*
X145336600Y-121650061D01*
X145296826Y-121450102D01*
X145218805Y-121261744D01*
X145210528Y-121249356D01*
X145308574Y-121229853D01*
X145569727Y-121121680D01*
X145804759Y-120964637D01*
X146004637Y-120764759D01*
X146160000Y-120532241D01*
X146315363Y-120764759D01*
X146515241Y-120964637D01*
X146750273Y-121121680D01*
X147011426Y-121229853D01*
X147288665Y-121285000D01*
X147571335Y-121285000D01*
X147848574Y-121229853D01*
X148109727Y-121121680D01*
X148344759Y-120964637D01*
X148544637Y-120764759D01*
X148701680Y-120529727D01*
X148706067Y-120519135D01*
X148817615Y-120705131D01*
X149006586Y-120913519D01*
X149232580Y-121081037D01*
X149486913Y-121201246D01*
X149620961Y-121241904D01*
X149843000Y-121119915D01*
X149843000Y-119977000D01*
X150097000Y-119977000D01*
X150097000Y-121119915D01*
X150319039Y-121241904D01*
X150453087Y-121201246D01*
X150707420Y-121081037D01*
X150933414Y-120913519D01*
X151122385Y-120705131D01*
X151240000Y-120509018D01*
X151357615Y-120705131D01*
X151546586Y-120913519D01*
X151772580Y-121081037D01*
X152026913Y-121201246D01*
X152160961Y-121241904D01*
X152383000Y-121119915D01*
X152383000Y-119977000D01*
X152637000Y-119977000D01*
X152637000Y-121119915D01*
X152859039Y-121241904D01*
X152993087Y-121201246D01*
X153247420Y-121081037D01*
X153473414Y-120913519D01*
X153662385Y-120705131D01*
X153780000Y-120509018D01*
X153897615Y-120705131D01*
X154086586Y-120913519D01*
X154312580Y-121081037D01*
X154566913Y-121201246D01*
X154700961Y-121241904D01*
X154923000Y-121119915D01*
X154923000Y-119977000D01*
X155177000Y-119977000D01*
X155177000Y-121119915D01*
X155399039Y-121241904D01*
X155533087Y-121201246D01*
X155787420Y-121081037D01*
X156013414Y-120913519D01*
X156202385Y-120705131D01*
X156320000Y-120509018D01*
X156437615Y-120705131D01*
X156626586Y-120913519D01*
X156852580Y-121081037D01*
X157106913Y-121201246D01*
X157240961Y-121241904D01*
X157463000Y-121119915D01*
X157463000Y-119977000D01*
X157717000Y-119977000D01*
X157717000Y-121119915D01*
X157939039Y-121241904D01*
X158073087Y-121201246D01*
X158327420Y-121081037D01*
X158553414Y-120913519D01*
X158742385Y-120705131D01*
X158860000Y-120509018D01*
X158977615Y-120705131D01*
X159166586Y-120913519D01*
X159392580Y-121081037D01*
X159646913Y-121201246D01*
X159780961Y-121241904D01*
X160003000Y-121119915D01*
X160003000Y-119977000D01*
X157717000Y-119977000D01*
X157463000Y-119977000D01*
X155177000Y-119977000D01*
X154923000Y-119977000D01*
X152637000Y-119977000D01*
X152383000Y-119977000D01*
X150097000Y-119977000D01*
X149843000Y-119977000D01*
X149823000Y-119977000D01*
X149823000Y-119723000D01*
X149843000Y-119723000D01*
X149843000Y-118580085D01*
X150097000Y-118580085D01*
X150097000Y-119723000D01*
X152383000Y-119723000D01*
X152383000Y-118580085D01*
X152637000Y-118580085D01*
X152637000Y-119723000D01*
X154923000Y-119723000D01*
X154923000Y-118580085D01*
X155177000Y-118580085D01*
X155177000Y-119723000D01*
X157463000Y-119723000D01*
X157463000Y-118580085D01*
X157717000Y-118580085D01*
X157717000Y-119723000D01*
X160003000Y-119723000D01*
X160003000Y-118580085D01*
X160257000Y-118580085D01*
X160257000Y-119723000D01*
X160277000Y-119723000D01*
X160277000Y-119977000D01*
X160257000Y-119977000D01*
X160257000Y-121119915D01*
X160479039Y-121241904D01*
X160613087Y-121201246D01*
X160867420Y-121081037D01*
X161093414Y-120913519D01*
X161282385Y-120705131D01*
X161393933Y-120519135D01*
X161398320Y-120529727D01*
X161555363Y-120764759D01*
X161755241Y-120964637D01*
X161990273Y-121121680D01*
X162251426Y-121229853D01*
X162528665Y-121285000D01*
X162811335Y-121285000D01*
X163088574Y-121229853D01*
X163349727Y-121121680D01*
X163584759Y-120964637D01*
X163784637Y-120764759D01*
X163940000Y-120532241D01*
X164095363Y-120764759D01*
X164295241Y-120964637D01*
X164530273Y-121121680D01*
X164791426Y-121229853D01*
X165068665Y-121285000D01*
X165351335Y-121285000D01*
X165628574Y-121229853D01*
X165889727Y-121121680D01*
X166115001Y-120971157D01*
X166115001Y-121969971D01*
X166107089Y-122050300D01*
X166138658Y-122370816D01*
X166232148Y-122679014D01*
X166265000Y-122740476D01*
X166265000Y-123680322D01*
X166288657Y-123920516D01*
X166382149Y-124228715D01*
X166533970Y-124512752D01*
X166738287Y-124761714D01*
X166987249Y-124966031D01*
X167271286Y-125117852D01*
X167579485Y-125211343D01*
X167900000Y-125242911D01*
X168220516Y-125211343D01*
X168528715Y-125117852D01*
X168812752Y-124966031D01*
X169061714Y-124761714D01*
X169266031Y-124512752D01*
X169417852Y-124228715D01*
X169511343Y-123920516D01*
X169535000Y-123680322D01*
X169535000Y-122280619D01*
X169542911Y-122200299D01*
X169535000Y-122119978D01*
X169511343Y-121879784D01*
X169417852Y-121571585D01*
X169385000Y-121510123D01*
X169385000Y-119769678D01*
X169361343Y-119529484D01*
X169267852Y-119221285D01*
X169116031Y-118937248D01*
X168911714Y-118688286D01*
X168662751Y-118483969D01*
X168378714Y-118332148D01*
X168070515Y-118238657D01*
X167750000Y-118207089D01*
X167429484Y-118238657D01*
X167121285Y-118332148D01*
X166837248Y-118483969D01*
X166588286Y-118688286D01*
X166383969Y-118937249D01*
X166358196Y-118985466D01*
X166324637Y-118935241D01*
X166124759Y-118735363D01*
X165889727Y-118578320D01*
X165628574Y-118470147D01*
X165351335Y-118415000D01*
X165068665Y-118415000D01*
X164791426Y-118470147D01*
X164530273Y-118578320D01*
X164295241Y-118735363D01*
X164095363Y-118935241D01*
X163940000Y-119167759D01*
X163784637Y-118935241D01*
X163584759Y-118735363D01*
X163349727Y-118578320D01*
X163088574Y-118470147D01*
X162811335Y-118415000D01*
X162528665Y-118415000D01*
X162251426Y-118470147D01*
X161990273Y-118578320D01*
X161755241Y-118735363D01*
X161555363Y-118935241D01*
X161398320Y-119170273D01*
X161393933Y-119180865D01*
X161282385Y-118994869D01*
X161093414Y-118786481D01*
X160867420Y-118618963D01*
X160613087Y-118498754D01*
X160479039Y-118458096D01*
X160257000Y-118580085D01*
X160003000Y-118580085D01*
X159780961Y-118458096D01*
X159646913Y-118498754D01*
X159392580Y-118618963D01*
X159166586Y-118786481D01*
X158977615Y-118994869D01*
X158860000Y-119190982D01*
X158742385Y-118994869D01*
X158553414Y-118786481D01*
X158327420Y-118618963D01*
X158073087Y-118498754D01*
X157939039Y-118458096D01*
X157717000Y-118580085D01*
X157463000Y-118580085D01*
X157240961Y-118458096D01*
X157106913Y-118498754D01*
X156852580Y-118618963D01*
X156626586Y-118786481D01*
X156437615Y-118994869D01*
X156320000Y-119190982D01*
X156202385Y-118994869D01*
X156013414Y-118786481D01*
X155787420Y-118618963D01*
X155533087Y-118498754D01*
X155399039Y-118458096D01*
X155177000Y-118580085D01*
X154923000Y-118580085D01*
X154700961Y-118458096D01*
X154566913Y-118498754D01*
X154312580Y-118618963D01*
X154086586Y-118786481D01*
X153897615Y-118994869D01*
X153780000Y-119190982D01*
X153662385Y-118994869D01*
X153473414Y-118786481D01*
X153247420Y-118618963D01*
X152993087Y-118498754D01*
X152859039Y-118458096D01*
X152637000Y-118580085D01*
X152383000Y-118580085D01*
X152160961Y-118458096D01*
X152026913Y-118498754D01*
X151772580Y-118618963D01*
X151546586Y-118786481D01*
X151357615Y-118994869D01*
X151240000Y-119190982D01*
X151122385Y-118994869D01*
X150933414Y-118786481D01*
X150707420Y-118618963D01*
X150453087Y-118498754D01*
X150319039Y-118458096D01*
X150097000Y-118580085D01*
X149843000Y-118580085D01*
X149620961Y-118458096D01*
X149486913Y-118498754D01*
X149232580Y-118618963D01*
X149006586Y-118786481D01*
X148817615Y-118994869D01*
X148706067Y-119180865D01*
X148701680Y-119170273D01*
X148544637Y-118935241D01*
X148344759Y-118735363D01*
X148109727Y-118578320D01*
X147848574Y-118470147D01*
X147571335Y-118415000D01*
X147288665Y-118415000D01*
X147011426Y-118470147D01*
X146750273Y-118578320D01*
X146515241Y-118735363D01*
X146315363Y-118935241D01*
X146160000Y-119167759D01*
X146004637Y-118935241D01*
X145804759Y-118735363D01*
X145569727Y-118578320D01*
X145308574Y-118470147D01*
X145031335Y-118415000D01*
X144748665Y-118415000D01*
X144471426Y-118470147D01*
X144210273Y-118578320D01*
X143975241Y-118735363D01*
X143775363Y-118935241D01*
X143620000Y-119167759D01*
X143464637Y-118935241D01*
X143264759Y-118735363D01*
X143110000Y-118631957D01*
X143110000Y-114928523D01*
X143113676Y-114891200D01*
X143110000Y-114853877D01*
X143110000Y-114853867D01*
X143099003Y-114742214D01*
X143055546Y-114598953D01*
X143013345Y-114520001D01*
X142984974Y-114466923D01*
X142913799Y-114380197D01*
X142890001Y-114351199D01*
X142861003Y-114327401D01*
X134766804Y-106233203D01*
X134743001Y-106204199D01*
X134627276Y-106109226D01*
X134495247Y-106038654D01*
X134351986Y-105995197D01*
X134240333Y-105984200D01*
X134240322Y-105984200D01*
X134203000Y-105980524D01*
X134165678Y-105984200D01*
X131985522Y-105984200D01*
X131948199Y-105980524D01*
X131910876Y-105984200D01*
X131910867Y-105984200D01*
X131799214Y-105995197D01*
X131655953Y-106038654D01*
X131523924Y-106109226D01*
X131523922Y-106109227D01*
X131523923Y-106109227D01*
X131437196Y-106180401D01*
X131437192Y-106180405D01*
X131408199Y-106204199D01*
X131384405Y-106233192D01*
X131162598Y-106455000D01*
X131100461Y-106455000D01*
X130900502Y-106494774D01*
X130712144Y-106572795D01*
X130542626Y-106686063D01*
X130398463Y-106830226D01*
X130285195Y-106999744D01*
X130207174Y-107188102D01*
X130167400Y-107388061D01*
X130167400Y-107591939D01*
X130207174Y-107791898D01*
X130285195Y-107980256D01*
X130398463Y-108149774D01*
X130542626Y-108293937D01*
X130712144Y-108407205D01*
X130900502Y-108485226D01*
X131100461Y-108525000D01*
X131304339Y-108525000D01*
X131504298Y-108485226D01*
X131692656Y-108407205D01*
X131862174Y-108293937D01*
X132006337Y-108149774D01*
X132119605Y-107980256D01*
X132197626Y-107791898D01*
X132237400Y-107591939D01*
X132237400Y-107529802D01*
X132263002Y-107504200D01*
X132783358Y-107504200D01*
X132762500Y-107609061D01*
X132762500Y-107812939D01*
X132802274Y-108012898D01*
X132880295Y-108201256D01*
X132993563Y-108370774D01*
X133137726Y-108514937D01*
X133307244Y-108628205D01*
X133495602Y-108706226D01*
X133695561Y-108746000D01*
X133757699Y-108746000D01*
X136510001Y-111498303D01*
X136510000Y-118631956D01*
X136355241Y-118735363D01*
X136155363Y-118935241D01*
X136000000Y-119167759D01*
X135844637Y-118935241D01*
X135644759Y-118735363D01*
X135409727Y-118578320D01*
X135148574Y-118470147D01*
X134871335Y-118415000D01*
X134588665Y-118415000D01*
X134311426Y-118470147D01*
X134050273Y-118578320D01*
X133815241Y-118735363D01*
X133615363Y-118935241D01*
X133511957Y-119090000D01*
X133442022Y-119090000D01*
X133404699Y-119086324D01*
X133367376Y-119090000D01*
X133367367Y-119090000D01*
X133255714Y-119100997D01*
X133112453Y-119144454D01*
X132980424Y-119215026D01*
X132864699Y-119309999D01*
X132840901Y-119338997D01*
X132234499Y-119945400D01*
X125898072Y-119945400D01*
X125898072Y-118580000D01*
X125885812Y-118455518D01*
X125849502Y-118335820D01*
X125790537Y-118225506D01*
X125711185Y-118128815D01*
X125614494Y-118049463D01*
X125504180Y-117990498D01*
X125384482Y-117954188D01*
X125376039Y-117953357D01*
X125574637Y-117754759D01*
X125731680Y-117519727D01*
X125839853Y-117258574D01*
X125895000Y-116981335D01*
X125895000Y-116698665D01*
X125839853Y-116421426D01*
X125731680Y-116160273D01*
X125574637Y-115925241D01*
X125374759Y-115725363D01*
X125142241Y-115570000D01*
X125374759Y-115414637D01*
X125574637Y-115214759D01*
X125731680Y-114979727D01*
X125839853Y-114718574D01*
X125895000Y-114441335D01*
X125895000Y-114158665D01*
X125839853Y-113881426D01*
X125731680Y-113620273D01*
X125574637Y-113385241D01*
X125374759Y-113185363D01*
X125142241Y-113030000D01*
X125374759Y-112874637D01*
X125574637Y-112674759D01*
X125731680Y-112439727D01*
X125839853Y-112178574D01*
X125895000Y-111901335D01*
X125895000Y-111618665D01*
X125839853Y-111341426D01*
X125731680Y-111080273D01*
X125574637Y-110845241D01*
X125374759Y-110645363D01*
X125142241Y-110490000D01*
X125374759Y-110334637D01*
X125574637Y-110134759D01*
X125731680Y-109899727D01*
X125839853Y-109638574D01*
X125895000Y-109361335D01*
X125895000Y-109078665D01*
X125839853Y-108801426D01*
X125731680Y-108540273D01*
X125574637Y-108305241D01*
X125374759Y-108105363D01*
X125142241Y-107950000D01*
X125374759Y-107794637D01*
X125574637Y-107594759D01*
X125731680Y-107359727D01*
X125839853Y-107098574D01*
X125895000Y-106821335D01*
X125895000Y-106538665D01*
X125839853Y-106261426D01*
X125731680Y-106000273D01*
X125574637Y-105765241D01*
X125374759Y-105565363D01*
X125139727Y-105408320D01*
X125129135Y-105403933D01*
X125315131Y-105292385D01*
X125523519Y-105103414D01*
X125630536Y-104959040D01*
X133338091Y-104959040D01*
X133432930Y-105223881D01*
X133577615Y-105465131D01*
X133766586Y-105673519D01*
X133992580Y-105841037D01*
X134246913Y-105961246D01*
X134380961Y-106001904D01*
X134603000Y-105879915D01*
X134603000Y-104737000D01*
X133459376Y-104737000D01*
X133338091Y-104959040D01*
X125630536Y-104959040D01*
X125691037Y-104877420D01*
X125811246Y-104623087D01*
X125851904Y-104489039D01*
X125729915Y-104267000D01*
X124587000Y-104267000D01*
X124587000Y-104287000D01*
X124333000Y-104287000D01*
X124333000Y-104267000D01*
X123190085Y-104267000D01*
X123068096Y-104489039D01*
X123108754Y-104623087D01*
X123228963Y-104877420D01*
X123396481Y-105103414D01*
X123604869Y-105292385D01*
X123790865Y-105403933D01*
X123780273Y-105408320D01*
X123545241Y-105565363D01*
X123395903Y-105714701D01*
X121942162Y-104260960D01*
X133338091Y-104260960D01*
X133459376Y-104483000D01*
X134603000Y-104483000D01*
X134603000Y-103340085D01*
X134380961Y-103218096D01*
X134246913Y-103258754D01*
X133992580Y-103378963D01*
X133766586Y-103546481D01*
X133577615Y-103754869D01*
X133432930Y-103996119D01*
X133338091Y-104260960D01*
X121942162Y-104260960D01*
X120694880Y-103013679D01*
X120835474Y-102919737D01*
X120950411Y-102804800D01*
X123952598Y-102804800D01*
X123846119Y-102842930D01*
X123604869Y-102987615D01*
X123396481Y-103176586D01*
X123228963Y-103402580D01*
X123108754Y-103656913D01*
X123068096Y-103790961D01*
X123190085Y-104013000D01*
X124333000Y-104013000D01*
X124333000Y-103993000D01*
X124587000Y-103993000D01*
X124587000Y-104013000D01*
X125729915Y-104013000D01*
X125851904Y-103790961D01*
X125811246Y-103656913D01*
X125691037Y-103402580D01*
X125523519Y-103176586D01*
X125315131Y-102987615D01*
X125073881Y-102842930D01*
X124967402Y-102804800D01*
X129131599Y-102804800D01*
X129179396Y-102852597D01*
X129203199Y-102881601D01*
X129318924Y-102976574D01*
X129428181Y-103034974D01*
X129450953Y-103047146D01*
X129594214Y-103090603D01*
X129743200Y-103105277D01*
X129780533Y-103101600D01*
X137664278Y-103101600D01*
X137701600Y-103105276D01*
X137738922Y-103101600D01*
X137738933Y-103101600D01*
X137850586Y-103090603D01*
X137993847Y-103047146D01*
X138125876Y-102976574D01*
X138241601Y-102881601D01*
X138265404Y-102852597D01*
X138760472Y-102357530D01*
X138779495Y-102403456D01*
X138892763Y-102572974D01*
X139036926Y-102717137D01*
X139206444Y-102830405D01*
X139394802Y-102908426D01*
X139594761Y-102948200D01*
X139656899Y-102948200D01*
X139883698Y-103175000D01*
X139668665Y-103175000D01*
X139391426Y-103230147D01*
X139130273Y-103338320D01*
X138895241Y-103495363D01*
X138695363Y-103695241D01*
X138540000Y-103927759D01*
X138384637Y-103695241D01*
X138184759Y-103495363D01*
X137949727Y-103338320D01*
X137688574Y-103230147D01*
X137411335Y-103175000D01*
X137128665Y-103175000D01*
X136851426Y-103230147D01*
X136590273Y-103338320D01*
X136355241Y-103495363D01*
X136155363Y-103695241D01*
X135998320Y-103930273D01*
X135993933Y-103940865D01*
X135882385Y-103754869D01*
X135693414Y-103546481D01*
X135467420Y-103378963D01*
X135213087Y-103258754D01*
X135079039Y-103218096D01*
X134857000Y-103340085D01*
X134857000Y-104483000D01*
X134877000Y-104483000D01*
X134877000Y-104737000D01*
X134857000Y-104737000D01*
X134857000Y-105879915D01*
X135079039Y-106001904D01*
X135213087Y-105961246D01*
X135467420Y-105841037D01*
X135693414Y-105673519D01*
X135882385Y-105465131D01*
X135993933Y-105279135D01*
X135998320Y-105289727D01*
X136155363Y-105524759D01*
X136355241Y-105724637D01*
X136510001Y-105828044D01*
X136510001Y-105897958D01*
X136506323Y-105935300D01*
X136520997Y-106084286D01*
X136564454Y-106227547D01*
X136635026Y-106359576D01*
X136729999Y-106475301D01*
X136845724Y-106570274D01*
X136977753Y-106640846D01*
X137121014Y-106684303D01*
X137232667Y-106695300D01*
X137270000Y-106698977D01*
X137307333Y-106695300D01*
X138280499Y-106695300D01*
X144046100Y-112460902D01*
X144046100Y-112523039D01*
X144085874Y-112722998D01*
X144163895Y-112911356D01*
X144277163Y-113080874D01*
X144421326Y-113225037D01*
X144590844Y-113338305D01*
X144779202Y-113416326D01*
X144979161Y-113456100D01*
X145183039Y-113456100D01*
X145382998Y-113416326D01*
X145571356Y-113338305D01*
X145740874Y-113225037D01*
X145885037Y-113080874D01*
X145998305Y-112911356D01*
X146076326Y-112722998D01*
X146116100Y-112523039D01*
X146116100Y-112319161D01*
X146076326Y-112119202D01*
X145998305Y-111930844D01*
X145885037Y-111761326D01*
X145740874Y-111617163D01*
X145571356Y-111503895D01*
X145382998Y-111425874D01*
X145183039Y-111386100D01*
X145120902Y-111386100D01*
X139779801Y-106045000D01*
X139951335Y-106045000D01*
X140228574Y-105989853D01*
X140489727Y-105881680D01*
X140724759Y-105724637D01*
X140924637Y-105524759D01*
X141080000Y-105292241D01*
X141235363Y-105524759D01*
X141435241Y-105724637D01*
X141670273Y-105881680D01*
X141931426Y-105989853D01*
X142208665Y-106045000D01*
X142491335Y-106045000D01*
X142673887Y-106008688D01*
X153476800Y-116811602D01*
X153500599Y-116840601D01*
X153529597Y-116864399D01*
X153616323Y-116935574D01*
X153748353Y-117006146D01*
X153891614Y-117049603D01*
X154003267Y-117060600D01*
X154003276Y-117060600D01*
X154040599Y-117064276D01*
X154077922Y-117060600D01*
X172391099Y-117060600D01*
X183152341Y-127821843D01*
X108026771Y-127872914D01*
X107927230Y-72727087D01*
X123731829Y-72737831D01*
G37*
X123731829Y-72737831D02*
X123694454Y-72807753D01*
X123650997Y-72951014D01*
X123636323Y-73100000D01*
X123640001Y-73137343D01*
X123640000Y-79451067D01*
X123620694Y-79514713D01*
X123600998Y-79579644D01*
X123599757Y-79592246D01*
X123595203Y-79638480D01*
X123435241Y-79745363D01*
X123235363Y-79945241D01*
X123080000Y-80177759D01*
X122924637Y-79945241D01*
X122724759Y-79745363D01*
X122489727Y-79588320D01*
X122228574Y-79480147D01*
X121951335Y-79425000D01*
X121668665Y-79425000D01*
X121391426Y-79480147D01*
X121130273Y-79588320D01*
X120895241Y-79745363D01*
X120695363Y-79945241D01*
X120540000Y-80177759D01*
X120384637Y-79945241D01*
X120184759Y-79745363D01*
X119949727Y-79588320D01*
X119688574Y-79480147D01*
X119411335Y-79425000D01*
X119128665Y-79425000D01*
X118851426Y-79480147D01*
X118590273Y-79588320D01*
X118355241Y-79745363D01*
X118155363Y-79945241D01*
X117998320Y-80180273D01*
X117890147Y-80441426D01*
X117835000Y-80718665D01*
X117835000Y-81001335D01*
X117890147Y-81278574D01*
X117998320Y-81539727D01*
X118155363Y-81774759D01*
X118355241Y-81974637D01*
X118385585Y-81994912D01*
X112732400Y-87648099D01*
X112732400Y-84264005D01*
X112896011Y-84331775D01*
X113163589Y-84385000D01*
X113436411Y-84385000D01*
X113703989Y-84331775D01*
X113956043Y-84227371D01*
X114182886Y-84075799D01*
X114375799Y-83882886D01*
X114527371Y-83656043D01*
X114631775Y-83403989D01*
X114685000Y-83136411D01*
X114685000Y-82863589D01*
X114631775Y-82596011D01*
X114527371Y-82343957D01*
X114375799Y-82117114D01*
X114182886Y-81924201D01*
X113956043Y-81772629D01*
X113703989Y-81668225D01*
X113436411Y-81615000D01*
X113163589Y-81615000D01*
X112896011Y-81668225D01*
X112732400Y-81735995D01*
X112732400Y-80464005D01*
X112896011Y-80531775D01*
X113163589Y-80585000D01*
X113436411Y-80585000D01*
X113703989Y-80531775D01*
X113956043Y-80427371D01*
X114182886Y-80275799D01*
X114375799Y-80082886D01*
X114527371Y-79856043D01*
X114631775Y-79603989D01*
X114685000Y-79336411D01*
X114685000Y-79063589D01*
X114631775Y-78796011D01*
X114527371Y-78543957D01*
X114375799Y-78317114D01*
X114182886Y-78124201D01*
X113956043Y-77972629D01*
X113838640Y-77923999D01*
X115746016Y-76016624D01*
X115899130Y-75830053D01*
X116050952Y-75546015D01*
X116144443Y-75237817D01*
X116176012Y-74917300D01*
X116144443Y-74596784D01*
X116050952Y-74288585D01*
X115899130Y-74004548D01*
X115694813Y-73755587D01*
X115445852Y-73551270D01*
X115161815Y-73399448D01*
X114853616Y-73305957D01*
X114533100Y-73274388D01*
X114212583Y-73305957D01*
X113904385Y-73399448D01*
X113620347Y-73551270D01*
X113433776Y-73704384D01*
X109998086Y-77140075D01*
X109935686Y-77191286D01*
X109731369Y-77440249D01*
X109579548Y-77724286D01*
X109486057Y-78032485D01*
X109462400Y-78272678D01*
X109454489Y-78353000D01*
X109462400Y-78433319D01*
X109462400Y-86282436D01*
X109373739Y-86264800D01*
X109169861Y-86264800D01*
X108969902Y-86304574D01*
X108781544Y-86382595D01*
X108612026Y-86495863D01*
X108467863Y-86640026D01*
X108354595Y-86809544D01*
X108276574Y-86997902D01*
X108236800Y-87197861D01*
X108236800Y-87401739D01*
X108276574Y-87601698D01*
X108354595Y-87790056D01*
X108387701Y-87839603D01*
X108387700Y-117928478D01*
X108384024Y-117965800D01*
X108387700Y-118003122D01*
X108387700Y-118003132D01*
X108398697Y-118114785D01*
X108436273Y-118238657D01*
X108442154Y-118258046D01*
X108512726Y-118390076D01*
X108533181Y-118415000D01*
X108607699Y-118505801D01*
X108636703Y-118529604D01*
X115627401Y-125520303D01*
X115651199Y-125549301D01*
X115766924Y-125644274D01*
X115898953Y-125714846D01*
X116042214Y-125758303D01*
X116153867Y-125769300D01*
X116153876Y-125769300D01*
X116191199Y-125772976D01*
X116228522Y-125769300D01*
X141006978Y-125769300D01*
X141044300Y-125772976D01*
X141081622Y-125769300D01*
X141081633Y-125769300D01*
X141193286Y-125758303D01*
X141336547Y-125714846D01*
X141468576Y-125644274D01*
X141584301Y-125549301D01*
X141608104Y-125520297D01*
X142535699Y-124592702D01*
X162086903Y-124592702D01*
X162158486Y-124836671D01*
X162413996Y-124957571D01*
X162688184Y-125026300D01*
X162970512Y-125040217D01*
X163250130Y-124998787D01*
X163516292Y-124903603D01*
X163641514Y-124836671D01*
X163713097Y-124592702D01*
X162900000Y-123779605D01*
X162086903Y-124592702D01*
X142535699Y-124592702D01*
X143457889Y-123670512D01*
X161459783Y-123670512D01*
X161501213Y-123950130D01*
X161596397Y-124216292D01*
X161663329Y-124341514D01*
X161907298Y-124413097D01*
X162720395Y-123600000D01*
X163079605Y-123600000D01*
X163892702Y-124413097D01*
X164136671Y-124341514D01*
X164257571Y-124086004D01*
X164326300Y-123811816D01*
X164340217Y-123529488D01*
X164298787Y-123249870D01*
X164203603Y-122983708D01*
X164136671Y-122858486D01*
X163892702Y-122786903D01*
X163079605Y-123600000D01*
X162720395Y-123600000D01*
X161907298Y-122786903D01*
X161663329Y-122858486D01*
X161542429Y-123113996D01*
X161473700Y-123388184D01*
X161459783Y-123670512D01*
X143457889Y-123670512D01*
X144341402Y-122787000D01*
X144403539Y-122787000D01*
X144603498Y-122747226D01*
X144791856Y-122669205D01*
X144884506Y-122607298D01*
X162086903Y-122607298D01*
X162900000Y-123420395D01*
X163713097Y-122607298D01*
X163641514Y-122363329D01*
X163386004Y-122242429D01*
X163111816Y-122173700D01*
X162829488Y-122159783D01*
X162549870Y-122201213D01*
X162283708Y-122296397D01*
X162158486Y-122363329D01*
X162086903Y-122607298D01*
X144884506Y-122607298D01*
X144961374Y-122555937D01*
X145105537Y-122411774D01*
X145218805Y-122242256D01*
X145296826Y-122053898D01*
X145336600Y-121853939D01*
X145336600Y-121650061D01*
X145296826Y-121450102D01*
X145218805Y-121261744D01*
X145210528Y-121249356D01*
X145308574Y-121229853D01*
X145569727Y-121121680D01*
X145804759Y-120964637D01*
X146004637Y-120764759D01*
X146160000Y-120532241D01*
X146315363Y-120764759D01*
X146515241Y-120964637D01*
X146750273Y-121121680D01*
X147011426Y-121229853D01*
X147288665Y-121285000D01*
X147571335Y-121285000D01*
X147848574Y-121229853D01*
X148109727Y-121121680D01*
X148344759Y-120964637D01*
X148544637Y-120764759D01*
X148701680Y-120529727D01*
X148706067Y-120519135D01*
X148817615Y-120705131D01*
X149006586Y-120913519D01*
X149232580Y-121081037D01*
X149486913Y-121201246D01*
X149620961Y-121241904D01*
X149843000Y-121119915D01*
X149843000Y-119977000D01*
X150097000Y-119977000D01*
X150097000Y-121119915D01*
X150319039Y-121241904D01*
X150453087Y-121201246D01*
X150707420Y-121081037D01*
X150933414Y-120913519D01*
X151122385Y-120705131D01*
X151240000Y-120509018D01*
X151357615Y-120705131D01*
X151546586Y-120913519D01*
X151772580Y-121081037D01*
X152026913Y-121201246D01*
X152160961Y-121241904D01*
X152383000Y-121119915D01*
X152383000Y-119977000D01*
X152637000Y-119977000D01*
X152637000Y-121119915D01*
X152859039Y-121241904D01*
X152993087Y-121201246D01*
X153247420Y-121081037D01*
X153473414Y-120913519D01*
X153662385Y-120705131D01*
X153780000Y-120509018D01*
X153897615Y-120705131D01*
X154086586Y-120913519D01*
X154312580Y-121081037D01*
X154566913Y-121201246D01*
X154700961Y-121241904D01*
X154923000Y-121119915D01*
X154923000Y-119977000D01*
X155177000Y-119977000D01*
X155177000Y-121119915D01*
X155399039Y-121241904D01*
X155533087Y-121201246D01*
X155787420Y-121081037D01*
X156013414Y-120913519D01*
X156202385Y-120705131D01*
X156320000Y-120509018D01*
X156437615Y-120705131D01*
X156626586Y-120913519D01*
X156852580Y-121081037D01*
X157106913Y-121201246D01*
X157240961Y-121241904D01*
X157463000Y-121119915D01*
X157463000Y-119977000D01*
X157717000Y-119977000D01*
X157717000Y-121119915D01*
X157939039Y-121241904D01*
X158073087Y-121201246D01*
X158327420Y-121081037D01*
X158553414Y-120913519D01*
X158742385Y-120705131D01*
X158860000Y-120509018D01*
X158977615Y-120705131D01*
X159166586Y-120913519D01*
X159392580Y-121081037D01*
X159646913Y-121201246D01*
X159780961Y-121241904D01*
X160003000Y-121119915D01*
X160003000Y-119977000D01*
X157717000Y-119977000D01*
X157463000Y-119977000D01*
X155177000Y-119977000D01*
X154923000Y-119977000D01*
X152637000Y-119977000D01*
X152383000Y-119977000D01*
X150097000Y-119977000D01*
X149843000Y-119977000D01*
X149823000Y-119977000D01*
X149823000Y-119723000D01*
X149843000Y-119723000D01*
X149843000Y-118580085D01*
X150097000Y-118580085D01*
X150097000Y-119723000D01*
X152383000Y-119723000D01*
X152383000Y-118580085D01*
X152637000Y-118580085D01*
X152637000Y-119723000D01*
X154923000Y-119723000D01*
X154923000Y-118580085D01*
X155177000Y-118580085D01*
X155177000Y-119723000D01*
X157463000Y-119723000D01*
X157463000Y-118580085D01*
X157717000Y-118580085D01*
X157717000Y-119723000D01*
X160003000Y-119723000D01*
X160003000Y-118580085D01*
X160257000Y-118580085D01*
X160257000Y-119723000D01*
X160277000Y-119723000D01*
X160277000Y-119977000D01*
X160257000Y-119977000D01*
X160257000Y-121119915D01*
X160479039Y-121241904D01*
X160613087Y-121201246D01*
X160867420Y-121081037D01*
X161093414Y-120913519D01*
X161282385Y-120705131D01*
X161393933Y-120519135D01*
X161398320Y-120529727D01*
X161555363Y-120764759D01*
X161755241Y-120964637D01*
X161990273Y-121121680D01*
X162251426Y-121229853D01*
X162528665Y-121285000D01*
X162811335Y-121285000D01*
X163088574Y-121229853D01*
X163349727Y-121121680D01*
X163584759Y-120964637D01*
X163784637Y-120764759D01*
X163940000Y-120532241D01*
X164095363Y-120764759D01*
X164295241Y-120964637D01*
X164530273Y-121121680D01*
X164791426Y-121229853D01*
X165068665Y-121285000D01*
X165351335Y-121285000D01*
X165628574Y-121229853D01*
X165889727Y-121121680D01*
X166115001Y-120971157D01*
X166115001Y-121969971D01*
X166107089Y-122050300D01*
X166138658Y-122370816D01*
X166232148Y-122679014D01*
X166265000Y-122740476D01*
X166265000Y-123680322D01*
X166288657Y-123920516D01*
X166382149Y-124228715D01*
X166533970Y-124512752D01*
X166738287Y-124761714D01*
X166987249Y-124966031D01*
X167271286Y-125117852D01*
X167579485Y-125211343D01*
X167900000Y-125242911D01*
X168220516Y-125211343D01*
X168528715Y-125117852D01*
X168812752Y-124966031D01*
X169061714Y-124761714D01*
X169266031Y-124512752D01*
X169417852Y-124228715D01*
X169511343Y-123920516D01*
X169535000Y-123680322D01*
X169535000Y-122280619D01*
X169542911Y-122200299D01*
X169535000Y-122119978D01*
X169511343Y-121879784D01*
X169417852Y-121571585D01*
X169385000Y-121510123D01*
X169385000Y-119769678D01*
X169361343Y-119529484D01*
X169267852Y-119221285D01*
X169116031Y-118937248D01*
X168911714Y-118688286D01*
X168662751Y-118483969D01*
X168378714Y-118332148D01*
X168070515Y-118238657D01*
X167750000Y-118207089D01*
X167429484Y-118238657D01*
X167121285Y-118332148D01*
X166837248Y-118483969D01*
X166588286Y-118688286D01*
X166383969Y-118937249D01*
X166358196Y-118985466D01*
X166324637Y-118935241D01*
X166124759Y-118735363D01*
X165889727Y-118578320D01*
X165628574Y-118470147D01*
X165351335Y-118415000D01*
X165068665Y-118415000D01*
X164791426Y-118470147D01*
X164530273Y-118578320D01*
X164295241Y-118735363D01*
X164095363Y-118935241D01*
X163940000Y-119167759D01*
X163784637Y-118935241D01*
X163584759Y-118735363D01*
X163349727Y-118578320D01*
X163088574Y-118470147D01*
X162811335Y-118415000D01*
X162528665Y-118415000D01*
X162251426Y-118470147D01*
X161990273Y-118578320D01*
X161755241Y-118735363D01*
X161555363Y-118935241D01*
X161398320Y-119170273D01*
X161393933Y-119180865D01*
X161282385Y-118994869D01*
X161093414Y-118786481D01*
X160867420Y-118618963D01*
X160613087Y-118498754D01*
X160479039Y-118458096D01*
X160257000Y-118580085D01*
X160003000Y-118580085D01*
X159780961Y-118458096D01*
X159646913Y-118498754D01*
X159392580Y-118618963D01*
X159166586Y-118786481D01*
X158977615Y-118994869D01*
X158860000Y-119190982D01*
X158742385Y-118994869D01*
X158553414Y-118786481D01*
X158327420Y-118618963D01*
X158073087Y-118498754D01*
X157939039Y-118458096D01*
X157717000Y-118580085D01*
X157463000Y-118580085D01*
X157240961Y-118458096D01*
X157106913Y-118498754D01*
X156852580Y-118618963D01*
X156626586Y-118786481D01*
X156437615Y-118994869D01*
X156320000Y-119190982D01*
X156202385Y-118994869D01*
X156013414Y-118786481D01*
X155787420Y-118618963D01*
X155533087Y-118498754D01*
X155399039Y-118458096D01*
X155177000Y-118580085D01*
X154923000Y-118580085D01*
X154700961Y-118458096D01*
X154566913Y-118498754D01*
X154312580Y-118618963D01*
X154086586Y-118786481D01*
X153897615Y-118994869D01*
X153780000Y-119190982D01*
X153662385Y-118994869D01*
X153473414Y-118786481D01*
X153247420Y-118618963D01*
X152993087Y-118498754D01*
X152859039Y-118458096D01*
X152637000Y-118580085D01*
X152383000Y-118580085D01*
X152160961Y-118458096D01*
X152026913Y-118498754D01*
X151772580Y-118618963D01*
X151546586Y-118786481D01*
X151357615Y-118994869D01*
X151240000Y-119190982D01*
X151122385Y-118994869D01*
X150933414Y-118786481D01*
X150707420Y-118618963D01*
X150453087Y-118498754D01*
X150319039Y-118458096D01*
X150097000Y-118580085D01*
X149843000Y-118580085D01*
X149620961Y-118458096D01*
X149486913Y-118498754D01*
X149232580Y-118618963D01*
X149006586Y-118786481D01*
X148817615Y-118994869D01*
X148706067Y-119180865D01*
X148701680Y-119170273D01*
X148544637Y-118935241D01*
X148344759Y-118735363D01*
X148109727Y-118578320D01*
X147848574Y-118470147D01*
X147571335Y-118415000D01*
X147288665Y-118415000D01*
X147011426Y-118470147D01*
X146750273Y-118578320D01*
X146515241Y-118735363D01*
X146315363Y-118935241D01*
X146160000Y-119167759D01*
X146004637Y-118935241D01*
X145804759Y-118735363D01*
X145569727Y-118578320D01*
X145308574Y-118470147D01*
X145031335Y-118415000D01*
X144748665Y-118415000D01*
X144471426Y-118470147D01*
X144210273Y-118578320D01*
X143975241Y-118735363D01*
X143775363Y-118935241D01*
X143620000Y-119167759D01*
X143464637Y-118935241D01*
X143264759Y-118735363D01*
X143110000Y-118631957D01*
X143110000Y-114928523D01*
X143113676Y-114891200D01*
X143110000Y-114853877D01*
X143110000Y-114853867D01*
X143099003Y-114742214D01*
X143055546Y-114598953D01*
X143013345Y-114520001D01*
X142984974Y-114466923D01*
X142913799Y-114380197D01*
X142890001Y-114351199D01*
X142861003Y-114327401D01*
X134766804Y-106233203D01*
X134743001Y-106204199D01*
X134627276Y-106109226D01*
X134495247Y-106038654D01*
X134351986Y-105995197D01*
X134240333Y-105984200D01*
X134240322Y-105984200D01*
X134203000Y-105980524D01*
X134165678Y-105984200D01*
X131985522Y-105984200D01*
X131948199Y-105980524D01*
X131910876Y-105984200D01*
X131910867Y-105984200D01*
X131799214Y-105995197D01*
X131655953Y-106038654D01*
X131523924Y-106109226D01*
X131523922Y-106109227D01*
X131523923Y-106109227D01*
X131437196Y-106180401D01*
X131437192Y-106180405D01*
X131408199Y-106204199D01*
X131384405Y-106233192D01*
X131162598Y-106455000D01*
X131100461Y-106455000D01*
X130900502Y-106494774D01*
X130712144Y-106572795D01*
X130542626Y-106686063D01*
X130398463Y-106830226D01*
X130285195Y-106999744D01*
X130207174Y-107188102D01*
X130167400Y-107388061D01*
X130167400Y-107591939D01*
X130207174Y-107791898D01*
X130285195Y-107980256D01*
X130398463Y-108149774D01*
X130542626Y-108293937D01*
X130712144Y-108407205D01*
X130900502Y-108485226D01*
X131100461Y-108525000D01*
X131304339Y-108525000D01*
X131504298Y-108485226D01*
X131692656Y-108407205D01*
X131862174Y-108293937D01*
X132006337Y-108149774D01*
X132119605Y-107980256D01*
X132197626Y-107791898D01*
X132237400Y-107591939D01*
X132237400Y-107529802D01*
X132263002Y-107504200D01*
X132783358Y-107504200D01*
X132762500Y-107609061D01*
X132762500Y-107812939D01*
X132802274Y-108012898D01*
X132880295Y-108201256D01*
X132993563Y-108370774D01*
X133137726Y-108514937D01*
X133307244Y-108628205D01*
X133495602Y-108706226D01*
X133695561Y-108746000D01*
X133757699Y-108746000D01*
X136510001Y-111498303D01*
X136510000Y-118631956D01*
X136355241Y-118735363D01*
X136155363Y-118935241D01*
X136000000Y-119167759D01*
X135844637Y-118935241D01*
X135644759Y-118735363D01*
X135409727Y-118578320D01*
X135148574Y-118470147D01*
X134871335Y-118415000D01*
X134588665Y-118415000D01*
X134311426Y-118470147D01*
X134050273Y-118578320D01*
X133815241Y-118735363D01*
X133615363Y-118935241D01*
X133511957Y-119090000D01*
X133442022Y-119090000D01*
X133404699Y-119086324D01*
X133367376Y-119090000D01*
X133367367Y-119090000D01*
X133255714Y-119100997D01*
X133112453Y-119144454D01*
X132980424Y-119215026D01*
X132864699Y-119309999D01*
X132840901Y-119338997D01*
X132234499Y-119945400D01*
X125898072Y-119945400D01*
X125898072Y-118580000D01*
X125885812Y-118455518D01*
X125849502Y-118335820D01*
X125790537Y-118225506D01*
X125711185Y-118128815D01*
X125614494Y-118049463D01*
X125504180Y-117990498D01*
X125384482Y-117954188D01*
X125376039Y-117953357D01*
X125574637Y-117754759D01*
X125731680Y-117519727D01*
X125839853Y-117258574D01*
X125895000Y-116981335D01*
X125895000Y-116698665D01*
X125839853Y-116421426D01*
X125731680Y-116160273D01*
X125574637Y-115925241D01*
X125374759Y-115725363D01*
X125142241Y-115570000D01*
X125374759Y-115414637D01*
X125574637Y-115214759D01*
X125731680Y-114979727D01*
X125839853Y-114718574D01*
X125895000Y-114441335D01*
X125895000Y-114158665D01*
X125839853Y-113881426D01*
X125731680Y-113620273D01*
X125574637Y-113385241D01*
X125374759Y-113185363D01*
X125142241Y-113030000D01*
X125374759Y-112874637D01*
X125574637Y-112674759D01*
X125731680Y-112439727D01*
X125839853Y-112178574D01*
X125895000Y-111901335D01*
X125895000Y-111618665D01*
X125839853Y-111341426D01*
X125731680Y-111080273D01*
X125574637Y-110845241D01*
X125374759Y-110645363D01*
X125142241Y-110490000D01*
X125374759Y-110334637D01*
X125574637Y-110134759D01*
X125731680Y-109899727D01*
X125839853Y-109638574D01*
X125895000Y-109361335D01*
X125895000Y-109078665D01*
X125839853Y-108801426D01*
X125731680Y-108540273D01*
X125574637Y-108305241D01*
X125374759Y-108105363D01*
X125142241Y-107950000D01*
X125374759Y-107794637D01*
X125574637Y-107594759D01*
X125731680Y-107359727D01*
X125839853Y-107098574D01*
X125895000Y-106821335D01*
X125895000Y-106538665D01*
X125839853Y-106261426D01*
X125731680Y-106000273D01*
X125574637Y-105765241D01*
X125374759Y-105565363D01*
X125139727Y-105408320D01*
X125129135Y-105403933D01*
X125315131Y-105292385D01*
X125523519Y-105103414D01*
X125630536Y-104959040D01*
X133338091Y-104959040D01*
X133432930Y-105223881D01*
X133577615Y-105465131D01*
X133766586Y-105673519D01*
X133992580Y-105841037D01*
X134246913Y-105961246D01*
X134380961Y-106001904D01*
X134603000Y-105879915D01*
X134603000Y-104737000D01*
X133459376Y-104737000D01*
X133338091Y-104959040D01*
X125630536Y-104959040D01*
X125691037Y-104877420D01*
X125811246Y-104623087D01*
X125851904Y-104489039D01*
X125729915Y-104267000D01*
X124587000Y-104267000D01*
X124587000Y-104287000D01*
X124333000Y-104287000D01*
X124333000Y-104267000D01*
X123190085Y-104267000D01*
X123068096Y-104489039D01*
X123108754Y-104623087D01*
X123228963Y-104877420D01*
X123396481Y-105103414D01*
X123604869Y-105292385D01*
X123790865Y-105403933D01*
X123780273Y-105408320D01*
X123545241Y-105565363D01*
X123395903Y-105714701D01*
X121942162Y-104260960D01*
X133338091Y-104260960D01*
X133459376Y-104483000D01*
X134603000Y-104483000D01*
X134603000Y-103340085D01*
X134380961Y-103218096D01*
X134246913Y-103258754D01*
X133992580Y-103378963D01*
X133766586Y-103546481D01*
X133577615Y-103754869D01*
X133432930Y-103996119D01*
X133338091Y-104260960D01*
X121942162Y-104260960D01*
X120694880Y-103013679D01*
X120835474Y-102919737D01*
X120950411Y-102804800D01*
X123952598Y-102804800D01*
X123846119Y-102842930D01*
X123604869Y-102987615D01*
X123396481Y-103176586D01*
X123228963Y-103402580D01*
X123108754Y-103656913D01*
X123068096Y-103790961D01*
X123190085Y-104013000D01*
X124333000Y-104013000D01*
X124333000Y-103993000D01*
X124587000Y-103993000D01*
X124587000Y-104013000D01*
X125729915Y-104013000D01*
X125851904Y-103790961D01*
X125811246Y-103656913D01*
X125691037Y-103402580D01*
X125523519Y-103176586D01*
X125315131Y-102987615D01*
X125073881Y-102842930D01*
X124967402Y-102804800D01*
X129131599Y-102804800D01*
X129179396Y-102852597D01*
X129203199Y-102881601D01*
X129318924Y-102976574D01*
X129428181Y-103034974D01*
X129450953Y-103047146D01*
X129594214Y-103090603D01*
X129743200Y-103105277D01*
X129780533Y-103101600D01*
X137664278Y-103101600D01*
X137701600Y-103105276D01*
X137738922Y-103101600D01*
X137738933Y-103101600D01*
X137850586Y-103090603D01*
X137993847Y-103047146D01*
X138125876Y-102976574D01*
X138241601Y-102881601D01*
X138265404Y-102852597D01*
X138760472Y-102357530D01*
X138779495Y-102403456D01*
X138892763Y-102572974D01*
X139036926Y-102717137D01*
X139206444Y-102830405D01*
X139394802Y-102908426D01*
X139594761Y-102948200D01*
X139656899Y-102948200D01*
X139883698Y-103175000D01*
X139668665Y-103175000D01*
X139391426Y-103230147D01*
X139130273Y-103338320D01*
X138895241Y-103495363D01*
X138695363Y-103695241D01*
X138540000Y-103927759D01*
X138384637Y-103695241D01*
X138184759Y-103495363D01*
X137949727Y-103338320D01*
X137688574Y-103230147D01*
X137411335Y-103175000D01*
X137128665Y-103175000D01*
X136851426Y-103230147D01*
X136590273Y-103338320D01*
X136355241Y-103495363D01*
X136155363Y-103695241D01*
X135998320Y-103930273D01*
X135993933Y-103940865D01*
X135882385Y-103754869D01*
X135693414Y-103546481D01*
X135467420Y-103378963D01*
X135213087Y-103258754D01*
X135079039Y-103218096D01*
X134857000Y-103340085D01*
X134857000Y-104483000D01*
X134877000Y-104483000D01*
X134877000Y-104737000D01*
X134857000Y-104737000D01*
X134857000Y-105879915D01*
X135079039Y-106001904D01*
X135213087Y-105961246D01*
X135467420Y-105841037D01*
X135693414Y-105673519D01*
X135882385Y-105465131D01*
X135993933Y-105279135D01*
X135998320Y-105289727D01*
X136155363Y-105524759D01*
X136355241Y-105724637D01*
X136510001Y-105828044D01*
X136510001Y-105897958D01*
X136506323Y-105935300D01*
X136520997Y-106084286D01*
X136564454Y-106227547D01*
X136635026Y-106359576D01*
X136729999Y-106475301D01*
X136845724Y-106570274D01*
X136977753Y-106640846D01*
X137121014Y-106684303D01*
X137232667Y-106695300D01*
X137270000Y-106698977D01*
X137307333Y-106695300D01*
X138280499Y-106695300D01*
X144046100Y-112460902D01*
X144046100Y-112523039D01*
X144085874Y-112722998D01*
X144163895Y-112911356D01*
X144277163Y-113080874D01*
X144421326Y-113225037D01*
X144590844Y-113338305D01*
X144779202Y-113416326D01*
X144979161Y-113456100D01*
X145183039Y-113456100D01*
X145382998Y-113416326D01*
X145571356Y-113338305D01*
X145740874Y-113225037D01*
X145885037Y-113080874D01*
X145998305Y-112911356D01*
X146076326Y-112722998D01*
X146116100Y-112523039D01*
X146116100Y-112319161D01*
X146076326Y-112119202D01*
X145998305Y-111930844D01*
X145885037Y-111761326D01*
X145740874Y-111617163D01*
X145571356Y-111503895D01*
X145382998Y-111425874D01*
X145183039Y-111386100D01*
X145120902Y-111386100D01*
X139779801Y-106045000D01*
X139951335Y-106045000D01*
X140228574Y-105989853D01*
X140489727Y-105881680D01*
X140724759Y-105724637D01*
X140924637Y-105524759D01*
X141080000Y-105292241D01*
X141235363Y-105524759D01*
X141435241Y-105724637D01*
X141670273Y-105881680D01*
X141931426Y-105989853D01*
X142208665Y-106045000D01*
X142491335Y-106045000D01*
X142673887Y-106008688D01*
X153476800Y-116811602D01*
X153500599Y-116840601D01*
X153529597Y-116864399D01*
X153616323Y-116935574D01*
X153748353Y-117006146D01*
X153891614Y-117049603D01*
X154003267Y-117060600D01*
X154003276Y-117060600D01*
X154040599Y-117064276D01*
X154077922Y-117060600D01*
X172391099Y-117060600D01*
X183152341Y-127821843D01*
X108026771Y-127872914D01*
X107927230Y-72727087D01*
X123731829Y-72737831D01*
G36*
X234849990Y-72813370D02*
G01*
X234849990Y-73016949D01*
X234889764Y-73216908D01*
X234967785Y-73405266D01*
X235081053Y-73574784D01*
X235124990Y-73618721D01*
X235124991Y-78778585D01*
X235054774Y-78948102D01*
X235015000Y-79148061D01*
X235015000Y-79351939D01*
X235054774Y-79551898D01*
X235132795Y-79740256D01*
X235246063Y-79909774D01*
X235390226Y-80053937D01*
X235559744Y-80167205D01*
X235748102Y-80245226D01*
X235948061Y-80285000D01*
X236151939Y-80285000D01*
X236351898Y-80245226D01*
X236540256Y-80167205D01*
X236709774Y-80053937D01*
X236853937Y-79909774D01*
X236967205Y-79740256D01*
X237045226Y-79551898D01*
X237085000Y-79351939D01*
X237085000Y-79148061D01*
X237045226Y-78948102D01*
X236967205Y-78759744D01*
X236853937Y-78590226D01*
X236709774Y-78446063D01*
X236644990Y-78402776D01*
X236644990Y-73618721D01*
X236688927Y-73574784D01*
X236802195Y-73405266D01*
X236880216Y-73216908D01*
X236919990Y-73016949D01*
X236919990Y-72814777D01*
X254773229Y-72826914D01*
X254872770Y-127773086D01*
X235710000Y-127786113D01*
X235710000Y-102020101D01*
X251971003Y-85759099D01*
X252000001Y-85735301D01*
X252026332Y-85703217D01*
X252094974Y-85619577D01*
X252165546Y-85487547D01*
X252168653Y-85477303D01*
X252209003Y-85344286D01*
X252212570Y-85308072D01*
X252310000Y-85308072D01*
X252434482Y-85295812D01*
X252554180Y-85259502D01*
X252664494Y-85200537D01*
X252761185Y-85121185D01*
X252840537Y-85024494D01*
X252899502Y-84914180D01*
X252935812Y-84794482D01*
X252948072Y-84670000D01*
X252948072Y-82970000D01*
X252935812Y-82845518D01*
X252899502Y-82725820D01*
X252840537Y-82615506D01*
X252761185Y-82518815D01*
X252664494Y-82439463D01*
X252554180Y-82380498D01*
X252434482Y-82344188D01*
X252310000Y-82331928D01*
X250610000Y-82331928D01*
X250485518Y-82344188D01*
X250365820Y-82380498D01*
X250255506Y-82439463D01*
X250158815Y-82518815D01*
X250079463Y-82615506D01*
X250020498Y-82725820D01*
X249998487Y-82798380D01*
X249866632Y-82666525D01*
X249623411Y-82504010D01*
X249353158Y-82392068D01*
X249066260Y-82335000D01*
X248773740Y-82335000D01*
X248486842Y-82392068D01*
X248216589Y-82504010D01*
X247973368Y-82666525D01*
X247766525Y-82873368D01*
X247604010Y-83116589D01*
X247492068Y-83386842D01*
X247435000Y-83673740D01*
X247435000Y-83966260D01*
X247492068Y-84253158D01*
X247604010Y-84523411D01*
X247766525Y-84766632D01*
X247973368Y-84973475D01*
X248216589Y-85135990D01*
X248486842Y-85247932D01*
X248773740Y-85305000D01*
X249066260Y-85305000D01*
X249353158Y-85247932D01*
X249623411Y-85135990D01*
X249866632Y-84973475D01*
X249998487Y-84841620D01*
X250020498Y-84914180D01*
X250079463Y-85024494D01*
X250158815Y-85121185D01*
X250255506Y-85200537D01*
X250336610Y-85243888D01*
X234438998Y-101141501D01*
X234410000Y-101165299D01*
X234386202Y-101194297D01*
X234386201Y-101194298D01*
X234315026Y-101281024D01*
X234244454Y-101413054D01*
X234223509Y-101482103D01*
X234200998Y-101556314D01*
X234194179Y-101625544D01*
X234186324Y-101705300D01*
X234190001Y-101742633D01*
X234190000Y-127787146D01*
X222261158Y-127795256D01*
X213379642Y-118913740D01*
X215415000Y-118913740D01*
X215415000Y-119206260D01*
X215472068Y-119493158D01*
X215584010Y-119763411D01*
X215746525Y-120006632D01*
X215953368Y-120213475D01*
X216196589Y-120375990D01*
X216466842Y-120487932D01*
X216753740Y-120545000D01*
X217046260Y-120545000D01*
X217333158Y-120487932D01*
X217603411Y-120375990D01*
X217846632Y-120213475D01*
X218053475Y-120006632D01*
X218215990Y-119763411D01*
X218327932Y-119493158D01*
X218385000Y-119206260D01*
X218385000Y-118913740D01*
X218327932Y-118626842D01*
X218215990Y-118356589D01*
X218053475Y-118113368D01*
X217846632Y-117906525D01*
X217664466Y-117784805D01*
X217781355Y-117715178D01*
X217997588Y-117520269D01*
X218171641Y-117286920D01*
X218296825Y-117024099D01*
X218341476Y-116876890D01*
X218220155Y-116647000D01*
X217027000Y-116647000D01*
X217027000Y-116667000D01*
X216773000Y-116667000D01*
X216773000Y-116647000D01*
X215579845Y-116647000D01*
X215458524Y-116876890D01*
X215503175Y-117024099D01*
X215628359Y-117286920D01*
X215802412Y-117520269D01*
X216018645Y-117715178D01*
X216135534Y-117784805D01*
X215953368Y-117906525D01*
X215746525Y-118113368D01*
X215584010Y-118356589D01*
X215472068Y-118626842D01*
X215415000Y-118913740D01*
X213379642Y-118913740D01*
X206162600Y-111696699D01*
X206162600Y-90347602D01*
X212080501Y-96265503D01*
X212080500Y-109843178D01*
X212076824Y-109880500D01*
X212080500Y-109917822D01*
X212080500Y-109917832D01*
X212091497Y-110029485D01*
X212120175Y-110124024D01*
X212134954Y-110172746D01*
X212205526Y-110304776D01*
X212222124Y-110325000D01*
X212300499Y-110420501D01*
X212329503Y-110444304D01*
X213836201Y-111951003D01*
X213859999Y-111980001D01*
X213888997Y-112003799D01*
X213975723Y-112074974D01*
X214076523Y-112128853D01*
X214107753Y-112145546D01*
X214251014Y-112189003D01*
X214362667Y-112200000D01*
X214362676Y-112200000D01*
X214399999Y-112203676D01*
X214437322Y-112200000D01*
X215621822Y-112200000D01*
X215746525Y-112386632D01*
X215953368Y-112593475D01*
X216127760Y-112710000D01*
X215953368Y-112826525D01*
X215746525Y-113033368D01*
X215584010Y-113276589D01*
X215472068Y-113546842D01*
X215415000Y-113833740D01*
X215415000Y-114126260D01*
X215472068Y-114413158D01*
X215584010Y-114683411D01*
X215746525Y-114926632D01*
X215953368Y-115133475D01*
X216135534Y-115255195D01*
X216018645Y-115324822D01*
X215802412Y-115519731D01*
X215628359Y-115753080D01*
X215503175Y-116015901D01*
X215458524Y-116163110D01*
X215579845Y-116393000D01*
X216773000Y-116393000D01*
X216773000Y-116373000D01*
X217027000Y-116373000D01*
X217027000Y-116393000D01*
X218220155Y-116393000D01*
X218341476Y-116163110D01*
X218296825Y-116015901D01*
X218171641Y-115753080D01*
X217997588Y-115519731D01*
X217781355Y-115324822D01*
X217664466Y-115255195D01*
X217846632Y-115133475D01*
X218053475Y-114926632D01*
X218178178Y-114740000D01*
X221782678Y-114740000D01*
X221820000Y-114743676D01*
X221857322Y-114740000D01*
X221857333Y-114740000D01*
X221968986Y-114729003D01*
X222112247Y-114685546D01*
X222244276Y-114614974D01*
X222360001Y-114520001D01*
X222383804Y-114490997D01*
X232411004Y-104463798D01*
X232440001Y-104440001D01*
X232534974Y-104324276D01*
X232605546Y-104192247D01*
X232649003Y-104048986D01*
X232660000Y-103937333D01*
X232660000Y-103937325D01*
X232663676Y-103900000D01*
X232660000Y-103862675D01*
X232660000Y-96714801D01*
X248953954Y-80420848D01*
X248958247Y-80419546D01*
X249090276Y-80348974D01*
X249206001Y-80254001D01*
X249300974Y-80138276D01*
X249371546Y-80006247D01*
X249415003Y-79862986D01*
X249426000Y-79751333D01*
X249426000Y-79751332D01*
X249429677Y-79714000D01*
X249426000Y-79676667D01*
X249426000Y-76716178D01*
X249612632Y-76591475D01*
X249819475Y-76384632D01*
X249941195Y-76202466D01*
X250010822Y-76319355D01*
X250205731Y-76535588D01*
X250439080Y-76709641D01*
X250701901Y-76834825D01*
X250849110Y-76879476D01*
X251079000Y-76758155D01*
X251079000Y-75565000D01*
X251333000Y-75565000D01*
X251333000Y-76758155D01*
X251562890Y-76879476D01*
X251710099Y-76834825D01*
X251972920Y-76709641D01*
X252206269Y-76535588D01*
X252401178Y-76319355D01*
X252550157Y-76069252D01*
X252647481Y-75794891D01*
X252526814Y-75565000D01*
X251333000Y-75565000D01*
X251079000Y-75565000D01*
X251059000Y-75565000D01*
X251059000Y-75311000D01*
X251079000Y-75311000D01*
X251079000Y-74117845D01*
X251333000Y-74117845D01*
X251333000Y-75311000D01*
X252526814Y-75311000D01*
X252647481Y-75081109D01*
X252550157Y-74806748D01*
X252401178Y-74556645D01*
X252206269Y-74340412D01*
X251972920Y-74166359D01*
X251710099Y-74041175D01*
X251562890Y-73996524D01*
X251333000Y-74117845D01*
X251079000Y-74117845D01*
X250849110Y-73996524D01*
X250701901Y-74041175D01*
X250439080Y-74166359D01*
X250205731Y-74340412D01*
X250010822Y-74556645D01*
X249941195Y-74673534D01*
X249819475Y-74491368D01*
X249612632Y-74284525D01*
X249369411Y-74122010D01*
X249099158Y-74010068D01*
X248812260Y-73953000D01*
X248519740Y-73953000D01*
X248232842Y-74010068D01*
X247962589Y-74122010D01*
X247719368Y-74284525D01*
X247512525Y-74491368D01*
X247396000Y-74665760D01*
X247279475Y-74491368D01*
X247072632Y-74284525D01*
X246829411Y-74122010D01*
X246559158Y-74010068D01*
X246272260Y-73953000D01*
X245979740Y-73953000D01*
X245692842Y-74010068D01*
X245422589Y-74122010D01*
X245179368Y-74284525D01*
X245047513Y-74416380D01*
X245025502Y-74343820D01*
X244966537Y-74233506D01*
X244887185Y-74136815D01*
X244790494Y-74057463D01*
X244680180Y-73998498D01*
X244560482Y-73962188D01*
X244436000Y-73949928D01*
X242736000Y-73949928D01*
X242611518Y-73962188D01*
X242491820Y-73998498D01*
X242381506Y-74057463D01*
X242284815Y-74136815D01*
X242205463Y-74233506D01*
X242146498Y-74343820D01*
X242110188Y-74463518D01*
X242097928Y-74588000D01*
X242097928Y-76288000D01*
X242110188Y-76412482D01*
X242146498Y-76532180D01*
X242205463Y-76642494D01*
X242284815Y-76739185D01*
X242381506Y-76818537D01*
X242491820Y-76877502D01*
X242611518Y-76913812D01*
X242736000Y-76926072D01*
X244436000Y-76926072D01*
X244560482Y-76913812D01*
X244680180Y-76877502D01*
X244790494Y-76818537D01*
X244887185Y-76739185D01*
X244966537Y-76642494D01*
X245025502Y-76532180D01*
X245047513Y-76459620D01*
X245179368Y-76591475D01*
X245366001Y-76716179D01*
X245366000Y-79359198D01*
X222889003Y-101836196D01*
X222859999Y-101859999D01*
X222812954Y-101917324D01*
X222765026Y-101975724D01*
X222694455Y-102107753D01*
X222694454Y-102107754D01*
X222650997Y-102251015D01*
X222640000Y-102362668D01*
X222640000Y-102362678D01*
X222636324Y-102400000D01*
X222640000Y-102437323D01*
X222640001Y-104625197D01*
X218385000Y-108880199D01*
X218385000Y-108753740D01*
X218327932Y-108466842D01*
X218215990Y-108196589D01*
X218053475Y-107953368D01*
X217846632Y-107746525D01*
X217672240Y-107630000D01*
X217846632Y-107513475D01*
X218053475Y-107306632D01*
X218215990Y-107063411D01*
X218327932Y-106793158D01*
X218385000Y-106506260D01*
X218385000Y-106213740D01*
X218327932Y-105926842D01*
X218215990Y-105656589D01*
X218053475Y-105413368D01*
X217846632Y-105206525D01*
X217672240Y-105090000D01*
X217846632Y-104973475D01*
X218053475Y-104766632D01*
X218215990Y-104523411D01*
X218327932Y-104253158D01*
X218385000Y-103966260D01*
X218385000Y-103673740D01*
X218327932Y-103386842D01*
X218215990Y-103116589D01*
X218053475Y-102873368D01*
X217846632Y-102666525D01*
X217672240Y-102550000D01*
X217846632Y-102433475D01*
X218053475Y-102226632D01*
X218215990Y-101983411D01*
X218327932Y-101713158D01*
X218385000Y-101426260D01*
X218385000Y-101133740D01*
X218327932Y-100846842D01*
X218215990Y-100576589D01*
X218053475Y-100333368D01*
X217846632Y-100126525D01*
X217664466Y-100004805D01*
X217781355Y-99935178D01*
X217997588Y-99740269D01*
X218171641Y-99506920D01*
X218296825Y-99244099D01*
X218341476Y-99096890D01*
X218220155Y-98867000D01*
X217027000Y-98867000D01*
X217027000Y-98887000D01*
X216773000Y-98887000D01*
X216773000Y-98867000D01*
X215579845Y-98867000D01*
X215458524Y-99096890D01*
X215503175Y-99244099D01*
X215628359Y-99506920D01*
X215802412Y-99740269D01*
X216018645Y-99935178D01*
X216135534Y-100004805D01*
X215953368Y-100126525D01*
X215746525Y-100333368D01*
X215584010Y-100576589D01*
X215472068Y-100846842D01*
X215415000Y-101133740D01*
X215415000Y-101426260D01*
X215472068Y-101713158D01*
X215584010Y-101983411D01*
X215746525Y-102226632D01*
X215953368Y-102433475D01*
X216127760Y-102550000D01*
X215953368Y-102666525D01*
X215746525Y-102873368D01*
X215584010Y-103116589D01*
X215472068Y-103386842D01*
X215415000Y-103673740D01*
X215415000Y-103966260D01*
X215472068Y-104253158D01*
X215584010Y-104523411D01*
X215746525Y-104766632D01*
X215953368Y-104973475D01*
X216127760Y-105090000D01*
X215953368Y-105206525D01*
X215746525Y-105413368D01*
X215584010Y-105656589D01*
X215472068Y-105926842D01*
X215415000Y-106213740D01*
X215415000Y-106506260D01*
X215472068Y-106793158D01*
X215584010Y-107063411D01*
X215746525Y-107306632D01*
X215953368Y-107513475D01*
X216127760Y-107630000D01*
X215953368Y-107746525D01*
X215746525Y-107953368D01*
X215584010Y-108196589D01*
X215472068Y-108466842D01*
X215415000Y-108753740D01*
X215415000Y-109046260D01*
X215472068Y-109333158D01*
X215584010Y-109603411D01*
X215746525Y-109846632D01*
X215953368Y-110053475D01*
X216127760Y-110170000D01*
X215953368Y-110286525D01*
X215746525Y-110493368D01*
X215621822Y-110680000D01*
X214714802Y-110680000D01*
X213600500Y-109565699D01*
X213600500Y-95988023D01*
X213604176Y-95950700D01*
X213600500Y-95913377D01*
X213600500Y-95913367D01*
X213589503Y-95801714D01*
X213546046Y-95658453D01*
X213518633Y-95607167D01*
X213475474Y-95526423D01*
X213404299Y-95439697D01*
X213380501Y-95410699D01*
X213351503Y-95386901D01*
X200614602Y-82650000D01*
X215411928Y-82650000D01*
X215411928Y-84350000D01*
X215424188Y-84474482D01*
X215460498Y-84594180D01*
X215519463Y-84704494D01*
X215598815Y-84801185D01*
X215695506Y-84880537D01*
X215805820Y-84939502D01*
X215878380Y-84961513D01*
X215746525Y-85093368D01*
X215584010Y-85336589D01*
X215472068Y-85606842D01*
X215415000Y-85893740D01*
X215415000Y-86186260D01*
X215472068Y-86473158D01*
X215584010Y-86743411D01*
X215746525Y-86986632D01*
X215953368Y-87193475D01*
X216127760Y-87310000D01*
X215953368Y-87426525D01*
X215746525Y-87633368D01*
X215584010Y-87876589D01*
X215472068Y-88146842D01*
X215415000Y-88433740D01*
X215415000Y-88726260D01*
X215472068Y-89013158D01*
X215584010Y-89283411D01*
X215746525Y-89526632D01*
X215953368Y-89733475D01*
X216127760Y-89850000D01*
X215953368Y-89966525D01*
X215746525Y-90173368D01*
X215584010Y-90416589D01*
X215472068Y-90686842D01*
X215415000Y-90973740D01*
X215415000Y-91266260D01*
X215472068Y-91553158D01*
X215584010Y-91823411D01*
X215746525Y-92066632D01*
X215953368Y-92273475D01*
X216127760Y-92390000D01*
X215953368Y-92506525D01*
X215746525Y-92713368D01*
X215584010Y-92956589D01*
X215472068Y-93226842D01*
X215415000Y-93513740D01*
X215415000Y-93806260D01*
X215472068Y-94093158D01*
X215584010Y-94363411D01*
X215746525Y-94606632D01*
X215953368Y-94813475D01*
X216127760Y-94930000D01*
X215953368Y-95046525D01*
X215746525Y-95253368D01*
X215584010Y-95496589D01*
X215472068Y-95766842D01*
X215415000Y-96053740D01*
X215415000Y-96346260D01*
X215472068Y-96633158D01*
X215584010Y-96903411D01*
X215746525Y-97146632D01*
X215953368Y-97353475D01*
X216135534Y-97475195D01*
X216018645Y-97544822D01*
X215802412Y-97739731D01*
X215628359Y-97973080D01*
X215503175Y-98235901D01*
X215458524Y-98383110D01*
X215579845Y-98613000D01*
X216773000Y-98613000D01*
X216773000Y-98593000D01*
X217027000Y-98593000D01*
X217027000Y-98613000D01*
X218220155Y-98613000D01*
X218341476Y-98383110D01*
X218296825Y-98235901D01*
X218171641Y-97973080D01*
X217997588Y-97739731D01*
X217781355Y-97544822D01*
X217664466Y-97475195D01*
X217846632Y-97353475D01*
X218053475Y-97146632D01*
X218215990Y-96903411D01*
X218327932Y-96633158D01*
X218385000Y-96346260D01*
X218385000Y-96053740D01*
X218327932Y-95766842D01*
X218215990Y-95496589D01*
X218053475Y-95253368D01*
X217846632Y-95046525D01*
X217672240Y-94930000D01*
X217846632Y-94813475D01*
X218053475Y-94606632D01*
X218215990Y-94363411D01*
X218327932Y-94093158D01*
X218385000Y-93806260D01*
X218385000Y-93513740D01*
X218327932Y-93226842D01*
X218215990Y-92956589D01*
X218053475Y-92713368D01*
X217846632Y-92506525D01*
X217672240Y-92390000D01*
X217846632Y-92273475D01*
X218053475Y-92066632D01*
X218215990Y-91823411D01*
X218327932Y-91553158D01*
X218385000Y-91266260D01*
X218385000Y-90973740D01*
X218327932Y-90686842D01*
X218215990Y-90416589D01*
X218053475Y-90173368D01*
X217846632Y-89966525D01*
X217672240Y-89850000D01*
X217846632Y-89733475D01*
X218053475Y-89526632D01*
X218215990Y-89283411D01*
X218327932Y-89013158D01*
X218385000Y-88726260D01*
X218385000Y-88433740D01*
X218327932Y-88146842D01*
X218215990Y-87876589D01*
X218053475Y-87633368D01*
X217846632Y-87426525D01*
X217672240Y-87310000D01*
X217846632Y-87193475D01*
X218053475Y-86986632D01*
X218215990Y-86743411D01*
X218327932Y-86473158D01*
X218385000Y-86186260D01*
X218385000Y-85893740D01*
X218327932Y-85606842D01*
X218215990Y-85336589D01*
X218053475Y-85093368D01*
X217921620Y-84961513D01*
X217994180Y-84939502D01*
X218104494Y-84880537D01*
X218201185Y-84801185D01*
X218280537Y-84704494D01*
X218339502Y-84594180D01*
X218375812Y-84474482D01*
X218388072Y-84350000D01*
X218388072Y-82650000D01*
X218375812Y-82525518D01*
X218339502Y-82405820D01*
X218280537Y-82295506D01*
X218201185Y-82198815D01*
X218104494Y-82119463D01*
X217994180Y-82060498D01*
X217874482Y-82024188D01*
X217750000Y-82011928D01*
X216050000Y-82011928D01*
X215925518Y-82024188D01*
X215805820Y-82060498D01*
X215695506Y-82119463D01*
X215598815Y-82198815D01*
X215519463Y-82295506D01*
X215460498Y-82405820D01*
X215424188Y-82525518D01*
X215411928Y-82650000D01*
X200614602Y-82650000D01*
X192557104Y-74592503D01*
X192533301Y-74563499D01*
X192417576Y-74468526D01*
X192285547Y-74397954D01*
X192142286Y-74354497D01*
X192030633Y-74343500D01*
X192030622Y-74343500D01*
X191993300Y-74339824D01*
X191955978Y-74343500D01*
X135223822Y-74343500D01*
X135186499Y-74339824D01*
X135149176Y-74343500D01*
X135149167Y-74343500D01*
X135037514Y-74354497D01*
X134894253Y-74397954D01*
X134762224Y-74468526D01*
X134646499Y-74563499D01*
X134622701Y-74592497D01*
X129753887Y-79461312D01*
X129571335Y-79425000D01*
X129288665Y-79425000D01*
X129011426Y-79480147D01*
X128750273Y-79588320D01*
X128515241Y-79745363D01*
X128315363Y-79945241D01*
X128160000Y-80177759D01*
X128004637Y-79945241D01*
X127804759Y-79745363D01*
X127569727Y-79588320D01*
X127308574Y-79480147D01*
X127031335Y-79425000D01*
X126748665Y-79425000D01*
X126471426Y-79480147D01*
X126210273Y-79588320D01*
X125975241Y-79745363D01*
X125775363Y-79945241D01*
X125620000Y-80177759D01*
X125464637Y-79945241D01*
X125264759Y-79745363D01*
X125163591Y-79677765D01*
X125160000Y-79641305D01*
X125160000Y-73860000D01*
X134962678Y-73860000D01*
X135000000Y-73863676D01*
X135037322Y-73860000D01*
X135037333Y-73860000D01*
X135148986Y-73849003D01*
X135292247Y-73805546D01*
X135377456Y-73760000D01*
X194396289Y-73760000D01*
X194440226Y-73803937D01*
X194609744Y-73917205D01*
X194798102Y-73995226D01*
X194998061Y-74035000D01*
X195201939Y-74035000D01*
X195401898Y-73995226D01*
X195590256Y-73917205D01*
X195759774Y-73803937D01*
X195903937Y-73659774D01*
X196017205Y-73490256D01*
X196095226Y-73301898D01*
X196135000Y-73101939D01*
X196135000Y-72898061D01*
X196112916Y-72787036D01*
X234849990Y-72813370D01*
G37*
X234849990Y-72813370D02*
X234849990Y-73016949D01*
X234889764Y-73216908D01*
X234967785Y-73405266D01*
X235081053Y-73574784D01*
X235124990Y-73618721D01*
X235124991Y-78778585D01*
X235054774Y-78948102D01*
X235015000Y-79148061D01*
X235015000Y-79351939D01*
X235054774Y-79551898D01*
X235132795Y-79740256D01*
X235246063Y-79909774D01*
X235390226Y-80053937D01*
X235559744Y-80167205D01*
X235748102Y-80245226D01*
X235948061Y-80285000D01*
X236151939Y-80285000D01*
X236351898Y-80245226D01*
X236540256Y-80167205D01*
X236709774Y-80053937D01*
X236853937Y-79909774D01*
X236967205Y-79740256D01*
X237045226Y-79551898D01*
X237085000Y-79351939D01*
X237085000Y-79148061D01*
X237045226Y-78948102D01*
X236967205Y-78759744D01*
X236853937Y-78590226D01*
X236709774Y-78446063D01*
X236644990Y-78402776D01*
X236644990Y-73618721D01*
X236688927Y-73574784D01*
X236802195Y-73405266D01*
X236880216Y-73216908D01*
X236919990Y-73016949D01*
X236919990Y-72814777D01*
X254773229Y-72826914D01*
X254872770Y-127773086D01*
X235710000Y-127786113D01*
X235710000Y-102020101D01*
X251971003Y-85759099D01*
X252000001Y-85735301D01*
X252026332Y-85703217D01*
X252094974Y-85619577D01*
X252165546Y-85487547D01*
X252168653Y-85477303D01*
X252209003Y-85344286D01*
X252212570Y-85308072D01*
X252310000Y-85308072D01*
X252434482Y-85295812D01*
X252554180Y-85259502D01*
X252664494Y-85200537D01*
X252761185Y-85121185D01*
X252840537Y-85024494D01*
X252899502Y-84914180D01*
X252935812Y-84794482D01*
X252948072Y-84670000D01*
X252948072Y-82970000D01*
X252935812Y-82845518D01*
X252899502Y-82725820D01*
X252840537Y-82615506D01*
X252761185Y-82518815D01*
X252664494Y-82439463D01*
X252554180Y-82380498D01*
X252434482Y-82344188D01*
X252310000Y-82331928D01*
X250610000Y-82331928D01*
X250485518Y-82344188D01*
X250365820Y-82380498D01*
X250255506Y-82439463D01*
X250158815Y-82518815D01*
X250079463Y-82615506D01*
X250020498Y-82725820D01*
X249998487Y-82798380D01*
X249866632Y-82666525D01*
X249623411Y-82504010D01*
X249353158Y-82392068D01*
X249066260Y-82335000D01*
X248773740Y-82335000D01*
X248486842Y-82392068D01*
X248216589Y-82504010D01*
X247973368Y-82666525D01*
X247766525Y-82873368D01*
X247604010Y-83116589D01*
X247492068Y-83386842D01*
X247435000Y-83673740D01*
X247435000Y-83966260D01*
X247492068Y-84253158D01*
X247604010Y-84523411D01*
X247766525Y-84766632D01*
X247973368Y-84973475D01*
X248216589Y-85135990D01*
X248486842Y-85247932D01*
X248773740Y-85305000D01*
X249066260Y-85305000D01*
X249353158Y-85247932D01*
X249623411Y-85135990D01*
X249866632Y-84973475D01*
X249998487Y-84841620D01*
X250020498Y-84914180D01*
X250079463Y-85024494D01*
X250158815Y-85121185D01*
X250255506Y-85200537D01*
X250336610Y-85243888D01*
X234438998Y-101141501D01*
X234410000Y-101165299D01*
X234386202Y-101194297D01*
X234386201Y-101194298D01*
X234315026Y-101281024D01*
X234244454Y-101413054D01*
X234223509Y-101482103D01*
X234200998Y-101556314D01*
X234194179Y-101625544D01*
X234186324Y-101705300D01*
X234190001Y-101742633D01*
X234190000Y-127787146D01*
X222261158Y-127795256D01*
X213379642Y-118913740D01*
X215415000Y-118913740D01*
X215415000Y-119206260D01*
X215472068Y-119493158D01*
X215584010Y-119763411D01*
X215746525Y-120006632D01*
X215953368Y-120213475D01*
X216196589Y-120375990D01*
X216466842Y-120487932D01*
X216753740Y-120545000D01*
X217046260Y-120545000D01*
X217333158Y-120487932D01*
X217603411Y-120375990D01*
X217846632Y-120213475D01*
X218053475Y-120006632D01*
X218215990Y-119763411D01*
X218327932Y-119493158D01*
X218385000Y-119206260D01*
X218385000Y-118913740D01*
X218327932Y-118626842D01*
X218215990Y-118356589D01*
X218053475Y-118113368D01*
X217846632Y-117906525D01*
X217664466Y-117784805D01*
X217781355Y-117715178D01*
X217997588Y-117520269D01*
X218171641Y-117286920D01*
X218296825Y-117024099D01*
X218341476Y-116876890D01*
X218220155Y-116647000D01*
X217027000Y-116647000D01*
X217027000Y-116667000D01*
X216773000Y-116667000D01*
X216773000Y-116647000D01*
X215579845Y-116647000D01*
X215458524Y-116876890D01*
X215503175Y-117024099D01*
X215628359Y-117286920D01*
X215802412Y-117520269D01*
X216018645Y-117715178D01*
X216135534Y-117784805D01*
X215953368Y-117906525D01*
X215746525Y-118113368D01*
X215584010Y-118356589D01*
X215472068Y-118626842D01*
X215415000Y-118913740D01*
X213379642Y-118913740D01*
X206162600Y-111696699D01*
X206162600Y-90347602D01*
X212080501Y-96265503D01*
X212080500Y-109843178D01*
X212076824Y-109880500D01*
X212080500Y-109917822D01*
X212080500Y-109917832D01*
X212091497Y-110029485D01*
X212120175Y-110124024D01*
X212134954Y-110172746D01*
X212205526Y-110304776D01*
X212222124Y-110325000D01*
X212300499Y-110420501D01*
X212329503Y-110444304D01*
X213836201Y-111951003D01*
X213859999Y-111980001D01*
X213888997Y-112003799D01*
X213975723Y-112074974D01*
X214076523Y-112128853D01*
X214107753Y-112145546D01*
X214251014Y-112189003D01*
X214362667Y-112200000D01*
X214362676Y-112200000D01*
X214399999Y-112203676D01*
X214437322Y-112200000D01*
X215621822Y-112200000D01*
X215746525Y-112386632D01*
X215953368Y-112593475D01*
X216127760Y-112710000D01*
X215953368Y-112826525D01*
X215746525Y-113033368D01*
X215584010Y-113276589D01*
X215472068Y-113546842D01*
X215415000Y-113833740D01*
X215415000Y-114126260D01*
X215472068Y-114413158D01*
X215584010Y-114683411D01*
X215746525Y-114926632D01*
X215953368Y-115133475D01*
X216135534Y-115255195D01*
X216018645Y-115324822D01*
X215802412Y-115519731D01*
X215628359Y-115753080D01*
X215503175Y-116015901D01*
X215458524Y-116163110D01*
X215579845Y-116393000D01*
X216773000Y-116393000D01*
X216773000Y-116373000D01*
X217027000Y-116373000D01*
X217027000Y-116393000D01*
X218220155Y-116393000D01*
X218341476Y-116163110D01*
X218296825Y-116015901D01*
X218171641Y-115753080D01*
X217997588Y-115519731D01*
X217781355Y-115324822D01*
X217664466Y-115255195D01*
X217846632Y-115133475D01*
X218053475Y-114926632D01*
X218178178Y-114740000D01*
X221782678Y-114740000D01*
X221820000Y-114743676D01*
X221857322Y-114740000D01*
X221857333Y-114740000D01*
X221968986Y-114729003D01*
X222112247Y-114685546D01*
X222244276Y-114614974D01*
X222360001Y-114520001D01*
X222383804Y-114490997D01*
X232411004Y-104463798D01*
X232440001Y-104440001D01*
X232534974Y-104324276D01*
X232605546Y-104192247D01*
X232649003Y-104048986D01*
X232660000Y-103937333D01*
X232660000Y-103937325D01*
X232663676Y-103900000D01*
X232660000Y-103862675D01*
X232660000Y-96714801D01*
X248953954Y-80420848D01*
X248958247Y-80419546D01*
X249090276Y-80348974D01*
X249206001Y-80254001D01*
X249300974Y-80138276D01*
X249371546Y-80006247D01*
X249415003Y-79862986D01*
X249426000Y-79751333D01*
X249426000Y-79751332D01*
X249429677Y-79714000D01*
X249426000Y-79676667D01*
X249426000Y-76716178D01*
X249612632Y-76591475D01*
X249819475Y-76384632D01*
X249941195Y-76202466D01*
X250010822Y-76319355D01*
X250205731Y-76535588D01*
X250439080Y-76709641D01*
X250701901Y-76834825D01*
X250849110Y-76879476D01*
X251079000Y-76758155D01*
X251079000Y-75565000D01*
X251333000Y-75565000D01*
X251333000Y-76758155D01*
X251562890Y-76879476D01*
X251710099Y-76834825D01*
X251972920Y-76709641D01*
X252206269Y-76535588D01*
X252401178Y-76319355D01*
X252550157Y-76069252D01*
X252647481Y-75794891D01*
X252526814Y-75565000D01*
X251333000Y-75565000D01*
X251079000Y-75565000D01*
X251059000Y-75565000D01*
X251059000Y-75311000D01*
X251079000Y-75311000D01*
X251079000Y-74117845D01*
X251333000Y-74117845D01*
X251333000Y-75311000D01*
X252526814Y-75311000D01*
X252647481Y-75081109D01*
X252550157Y-74806748D01*
X252401178Y-74556645D01*
X252206269Y-74340412D01*
X251972920Y-74166359D01*
X251710099Y-74041175D01*
X251562890Y-73996524D01*
X251333000Y-74117845D01*
X251079000Y-74117845D01*
X250849110Y-73996524D01*
X250701901Y-74041175D01*
X250439080Y-74166359D01*
X250205731Y-74340412D01*
X250010822Y-74556645D01*
X249941195Y-74673534D01*
X249819475Y-74491368D01*
X249612632Y-74284525D01*
X249369411Y-74122010D01*
X249099158Y-74010068D01*
X248812260Y-73953000D01*
X248519740Y-73953000D01*
X248232842Y-74010068D01*
X247962589Y-74122010D01*
X247719368Y-74284525D01*
X247512525Y-74491368D01*
X247396000Y-74665760D01*
X247279475Y-74491368D01*
X247072632Y-74284525D01*
X246829411Y-74122010D01*
X246559158Y-74010068D01*
X246272260Y-73953000D01*
X245979740Y-73953000D01*
X245692842Y-74010068D01*
X245422589Y-74122010D01*
X245179368Y-74284525D01*
X245047513Y-74416380D01*
X245025502Y-74343820D01*
X244966537Y-74233506D01*
X244887185Y-74136815D01*
X244790494Y-74057463D01*
X244680180Y-73998498D01*
X244560482Y-73962188D01*
X244436000Y-73949928D01*
X242736000Y-73949928D01*
X242611518Y-73962188D01*
X242491820Y-73998498D01*
X242381506Y-74057463D01*
X242284815Y-74136815D01*
X242205463Y-74233506D01*
X242146498Y-74343820D01*
X242110188Y-74463518D01*
X242097928Y-74588000D01*
X242097928Y-76288000D01*
X242110188Y-76412482D01*
X242146498Y-76532180D01*
X242205463Y-76642494D01*
X242284815Y-76739185D01*
X242381506Y-76818537D01*
X242491820Y-76877502D01*
X242611518Y-76913812D01*
X242736000Y-76926072D01*
X244436000Y-76926072D01*
X244560482Y-76913812D01*
X244680180Y-76877502D01*
X244790494Y-76818537D01*
X244887185Y-76739185D01*
X244966537Y-76642494D01*
X245025502Y-76532180D01*
X245047513Y-76459620D01*
X245179368Y-76591475D01*
X245366001Y-76716179D01*
X245366000Y-79359198D01*
X222889003Y-101836196D01*
X222859999Y-101859999D01*
X222812954Y-101917324D01*
X222765026Y-101975724D01*
X222694455Y-102107753D01*
X222694454Y-102107754D01*
X222650997Y-102251015D01*
X222640000Y-102362668D01*
X222640000Y-102362678D01*
X222636324Y-102400000D01*
X222640000Y-102437323D01*
X222640001Y-104625197D01*
X218385000Y-108880199D01*
X218385000Y-108753740D01*
X218327932Y-108466842D01*
X218215990Y-108196589D01*
X218053475Y-107953368D01*
X217846632Y-107746525D01*
X217672240Y-107630000D01*
X217846632Y-107513475D01*
X218053475Y-107306632D01*
X218215990Y-107063411D01*
X218327932Y-106793158D01*
X218385000Y-106506260D01*
X218385000Y-106213740D01*
X218327932Y-105926842D01*
X218215990Y-105656589D01*
X218053475Y-105413368D01*
X217846632Y-105206525D01*
X217672240Y-105090000D01*
X217846632Y-104973475D01*
X218053475Y-104766632D01*
X218215990Y-104523411D01*
X218327932Y-104253158D01*
X218385000Y-103966260D01*
X218385000Y-103673740D01*
X218327932Y-103386842D01*
X218215990Y-103116589D01*
X218053475Y-102873368D01*
X217846632Y-102666525D01*
X217672240Y-102550000D01*
X217846632Y-102433475D01*
X218053475Y-102226632D01*
X218215990Y-101983411D01*
X218327932Y-101713158D01*
X218385000Y-101426260D01*
X218385000Y-101133740D01*
X218327932Y-100846842D01*
X218215990Y-100576589D01*
X218053475Y-100333368D01*
X217846632Y-100126525D01*
X217664466Y-100004805D01*
X217781355Y-99935178D01*
X217997588Y-99740269D01*
X218171641Y-99506920D01*
X218296825Y-99244099D01*
X218341476Y-99096890D01*
X218220155Y-98867000D01*
X217027000Y-98867000D01*
X217027000Y-98887000D01*
X216773000Y-98887000D01*
X216773000Y-98867000D01*
X215579845Y-98867000D01*
X215458524Y-99096890D01*
X215503175Y-99244099D01*
X215628359Y-99506920D01*
X215802412Y-99740269D01*
X216018645Y-99935178D01*
X216135534Y-100004805D01*
X215953368Y-100126525D01*
X215746525Y-100333368D01*
X215584010Y-100576589D01*
X215472068Y-100846842D01*
X215415000Y-101133740D01*
X215415000Y-101426260D01*
X215472068Y-101713158D01*
X215584010Y-101983411D01*
X215746525Y-102226632D01*
X215953368Y-102433475D01*
X216127760Y-102550000D01*
X215953368Y-102666525D01*
X215746525Y-102873368D01*
X215584010Y-103116589D01*
X215472068Y-103386842D01*
X215415000Y-103673740D01*
X215415000Y-103966260D01*
X215472068Y-104253158D01*
X215584010Y-104523411D01*
X215746525Y-104766632D01*
X215953368Y-104973475D01*
X216127760Y-105090000D01*
X215953368Y-105206525D01*
X215746525Y-105413368D01*
X215584010Y-105656589D01*
X215472068Y-105926842D01*
X215415000Y-106213740D01*
X215415000Y-106506260D01*
X215472068Y-106793158D01*
X215584010Y-107063411D01*
X215746525Y-107306632D01*
X215953368Y-107513475D01*
X216127760Y-107630000D01*
X215953368Y-107746525D01*
X215746525Y-107953368D01*
X215584010Y-108196589D01*
X215472068Y-108466842D01*
X215415000Y-108753740D01*
X215415000Y-109046260D01*
X215472068Y-109333158D01*
X215584010Y-109603411D01*
X215746525Y-109846632D01*
X215953368Y-110053475D01*
X216127760Y-110170000D01*
X215953368Y-110286525D01*
X215746525Y-110493368D01*
X215621822Y-110680000D01*
X214714802Y-110680000D01*
X213600500Y-109565699D01*
X213600500Y-95988023D01*
X213604176Y-95950700D01*
X213600500Y-95913377D01*
X213600500Y-95913367D01*
X213589503Y-95801714D01*
X213546046Y-95658453D01*
X213518633Y-95607167D01*
X213475474Y-95526423D01*
X213404299Y-95439697D01*
X213380501Y-95410699D01*
X213351503Y-95386901D01*
X200614602Y-82650000D01*
X215411928Y-82650000D01*
X215411928Y-84350000D01*
X215424188Y-84474482D01*
X215460498Y-84594180D01*
X215519463Y-84704494D01*
X215598815Y-84801185D01*
X215695506Y-84880537D01*
X215805820Y-84939502D01*
X215878380Y-84961513D01*
X215746525Y-85093368D01*
X215584010Y-85336589D01*
X215472068Y-85606842D01*
X215415000Y-85893740D01*
X215415000Y-86186260D01*
X215472068Y-86473158D01*
X215584010Y-86743411D01*
X215746525Y-86986632D01*
X215953368Y-87193475D01*
X216127760Y-87310000D01*
X215953368Y-87426525D01*
X215746525Y-87633368D01*
X215584010Y-87876589D01*
X215472068Y-88146842D01*
X215415000Y-88433740D01*
X215415000Y-88726260D01*
X215472068Y-89013158D01*
X215584010Y-89283411D01*
X215746525Y-89526632D01*
X215953368Y-89733475D01*
X216127760Y-89850000D01*
X215953368Y-89966525D01*
X215746525Y-90173368D01*
X215584010Y-90416589D01*
X215472068Y-90686842D01*
X215415000Y-90973740D01*
X215415000Y-91266260D01*
X215472068Y-91553158D01*
X215584010Y-91823411D01*
X215746525Y-92066632D01*
X215953368Y-92273475D01*
X216127760Y-92390000D01*
X215953368Y-92506525D01*
X215746525Y-92713368D01*
X215584010Y-92956589D01*
X215472068Y-93226842D01*
X215415000Y-93513740D01*
X215415000Y-93806260D01*
X215472068Y-94093158D01*
X215584010Y-94363411D01*
X215746525Y-94606632D01*
X215953368Y-94813475D01*
X216127760Y-94930000D01*
X215953368Y-95046525D01*
X215746525Y-95253368D01*
X215584010Y-95496589D01*
X215472068Y-95766842D01*
X215415000Y-96053740D01*
X215415000Y-96346260D01*
X215472068Y-96633158D01*
X215584010Y-96903411D01*
X215746525Y-97146632D01*
X215953368Y-97353475D01*
X216135534Y-97475195D01*
X216018645Y-97544822D01*
X215802412Y-97739731D01*
X215628359Y-97973080D01*
X215503175Y-98235901D01*
X215458524Y-98383110D01*
X215579845Y-98613000D01*
X216773000Y-98613000D01*
X216773000Y-98593000D01*
X217027000Y-98593000D01*
X217027000Y-98613000D01*
X218220155Y-98613000D01*
X218341476Y-98383110D01*
X218296825Y-98235901D01*
X218171641Y-97973080D01*
X217997588Y-97739731D01*
X217781355Y-97544822D01*
X217664466Y-97475195D01*
X217846632Y-97353475D01*
X218053475Y-97146632D01*
X218215990Y-96903411D01*
X218327932Y-96633158D01*
X218385000Y-96346260D01*
X218385000Y-96053740D01*
X218327932Y-95766842D01*
X218215990Y-95496589D01*
X218053475Y-95253368D01*
X217846632Y-95046525D01*
X217672240Y-94930000D01*
X217846632Y-94813475D01*
X218053475Y-94606632D01*
X218215990Y-94363411D01*
X218327932Y-94093158D01*
X218385000Y-93806260D01*
X218385000Y-93513740D01*
X218327932Y-93226842D01*
X218215990Y-92956589D01*
X218053475Y-92713368D01*
X217846632Y-92506525D01*
X217672240Y-92390000D01*
X217846632Y-92273475D01*
X218053475Y-92066632D01*
X218215990Y-91823411D01*
X218327932Y-91553158D01*
X218385000Y-91266260D01*
X218385000Y-90973740D01*
X218327932Y-90686842D01*
X218215990Y-90416589D01*
X218053475Y-90173368D01*
X217846632Y-89966525D01*
X217672240Y-89850000D01*
X217846632Y-89733475D01*
X218053475Y-89526632D01*
X218215990Y-89283411D01*
X218327932Y-89013158D01*
X218385000Y-88726260D01*
X218385000Y-88433740D01*
X218327932Y-88146842D01*
X218215990Y-87876589D01*
X218053475Y-87633368D01*
X217846632Y-87426525D01*
X217672240Y-87310000D01*
X217846632Y-87193475D01*
X218053475Y-86986632D01*
X218215990Y-86743411D01*
X218327932Y-86473158D01*
X218385000Y-86186260D01*
X218385000Y-85893740D01*
X218327932Y-85606842D01*
X218215990Y-85336589D01*
X218053475Y-85093368D01*
X217921620Y-84961513D01*
X217994180Y-84939502D01*
X218104494Y-84880537D01*
X218201185Y-84801185D01*
X218280537Y-84704494D01*
X218339502Y-84594180D01*
X218375812Y-84474482D01*
X218388072Y-84350000D01*
X218388072Y-82650000D01*
X218375812Y-82525518D01*
X218339502Y-82405820D01*
X218280537Y-82295506D01*
X218201185Y-82198815D01*
X218104494Y-82119463D01*
X217994180Y-82060498D01*
X217874482Y-82024188D01*
X217750000Y-82011928D01*
X216050000Y-82011928D01*
X215925518Y-82024188D01*
X215805820Y-82060498D01*
X215695506Y-82119463D01*
X215598815Y-82198815D01*
X215519463Y-82295506D01*
X215460498Y-82405820D01*
X215424188Y-82525518D01*
X215411928Y-82650000D01*
X200614602Y-82650000D01*
X192557104Y-74592503D01*
X192533301Y-74563499D01*
X192417576Y-74468526D01*
X192285547Y-74397954D01*
X192142286Y-74354497D01*
X192030633Y-74343500D01*
X192030622Y-74343500D01*
X191993300Y-74339824D01*
X191955978Y-74343500D01*
X135223822Y-74343500D01*
X135186499Y-74339824D01*
X135149176Y-74343500D01*
X135149167Y-74343500D01*
X135037514Y-74354497D01*
X134894253Y-74397954D01*
X134762224Y-74468526D01*
X134646499Y-74563499D01*
X134622701Y-74592497D01*
X129753887Y-79461312D01*
X129571335Y-79425000D01*
X129288665Y-79425000D01*
X129011426Y-79480147D01*
X128750273Y-79588320D01*
X128515241Y-79745363D01*
X128315363Y-79945241D01*
X128160000Y-80177759D01*
X128004637Y-79945241D01*
X127804759Y-79745363D01*
X127569727Y-79588320D01*
X127308574Y-79480147D01*
X127031335Y-79425000D01*
X126748665Y-79425000D01*
X126471426Y-79480147D01*
X126210273Y-79588320D01*
X125975241Y-79745363D01*
X125775363Y-79945241D01*
X125620000Y-80177759D01*
X125464637Y-79945241D01*
X125264759Y-79745363D01*
X125163591Y-79677765D01*
X125160000Y-79641305D01*
X125160000Y-73860000D01*
X134962678Y-73860000D01*
X135000000Y-73863676D01*
X135037322Y-73860000D01*
X135037333Y-73860000D01*
X135148986Y-73849003D01*
X135292247Y-73805546D01*
X135377456Y-73760000D01*
X194396289Y-73760000D01*
X194440226Y-73803937D01*
X194609744Y-73917205D01*
X194798102Y-73995226D01*
X194998061Y-74035000D01*
X195201939Y-74035000D01*
X195401898Y-73995226D01*
X195590256Y-73917205D01*
X195759774Y-73803937D01*
X195903937Y-73659774D01*
X196017205Y-73490256D01*
X196095226Y-73301898D01*
X196135000Y-73101939D01*
X196135000Y-72898061D01*
X196112916Y-72787036D01*
X234849990Y-72813370D01*
G36*
X194233899Y-79338600D02*
G01*
X189532825Y-79338600D01*
X189495500Y-79334924D01*
X189458175Y-79338600D01*
X189458167Y-79338600D01*
X189346514Y-79349597D01*
X189203253Y-79393054D01*
X189071224Y-79463626D01*
X188955499Y-79558599D01*
X188931701Y-79587597D01*
X174129799Y-94389500D01*
X174067661Y-94389500D01*
X173867702Y-94429274D01*
X173679344Y-94507295D01*
X173509826Y-94620563D01*
X173365663Y-94764726D01*
X173252395Y-94934244D01*
X173174374Y-95122602D01*
X173134600Y-95322561D01*
X173134600Y-95526439D01*
X173174374Y-95726398D01*
X173252395Y-95914756D01*
X173365663Y-96084274D01*
X173509826Y-96228437D01*
X173679344Y-96341705D01*
X173867702Y-96419726D01*
X174067661Y-96459500D01*
X174271539Y-96459500D01*
X174471498Y-96419726D01*
X174659856Y-96341705D01*
X174829374Y-96228437D01*
X174973537Y-96084274D01*
X175086805Y-95914756D01*
X175164826Y-95726398D01*
X175204600Y-95526439D01*
X175204600Y-95464301D01*
X176705134Y-93963768D01*
X176701624Y-93999400D01*
X176705300Y-94036722D01*
X176705300Y-94070489D01*
X176661363Y-94114426D01*
X176548095Y-94283944D01*
X176470074Y-94472302D01*
X176430300Y-94672261D01*
X176430300Y-94876139D01*
X176470074Y-95076098D01*
X176548095Y-95264456D01*
X176661363Y-95433974D01*
X176805526Y-95578137D01*
X176975044Y-95691405D01*
X177163402Y-95769426D01*
X177363361Y-95809200D01*
X177567239Y-95809200D01*
X177767198Y-95769426D01*
X177955556Y-95691405D01*
X178125074Y-95578137D01*
X178269237Y-95433974D01*
X178382505Y-95264456D01*
X178460526Y-95076098D01*
X178500300Y-94876139D01*
X178500300Y-94672261D01*
X178460526Y-94472302D01*
X178382505Y-94283944D01*
X178331657Y-94207844D01*
X180375441Y-92164060D01*
X180425563Y-92239074D01*
X180469500Y-92283011D01*
X180469501Y-93420188D01*
X180425563Y-93464126D01*
X180312295Y-93633644D01*
X180234274Y-93822002D01*
X180194500Y-94021961D01*
X180194500Y-94225839D01*
X180234274Y-94425798D01*
X180312295Y-94614156D01*
X180425563Y-94783674D01*
X180569726Y-94927837D01*
X180739244Y-95041105D01*
X180927602Y-95119126D01*
X181127561Y-95158900D01*
X181331439Y-95158900D01*
X181531398Y-95119126D01*
X181719756Y-95041105D01*
X181889274Y-94927837D01*
X182033437Y-94783674D01*
X182146705Y-94614156D01*
X182224726Y-94425798D01*
X182264500Y-94225839D01*
X182264500Y-94021961D01*
X182224726Y-93822002D01*
X182146705Y-93633644D01*
X182033437Y-93464126D01*
X181989500Y-93420189D01*
X181989500Y-92283011D01*
X182033437Y-92239074D01*
X182146705Y-92069556D01*
X182224726Y-91881198D01*
X182264500Y-91681239D01*
X182264500Y-91477361D01*
X182255597Y-91432604D01*
X185040000Y-88648201D01*
X185040001Y-92496288D01*
X184997563Y-92538726D01*
X184884295Y-92708244D01*
X184806274Y-92896602D01*
X184766500Y-93096561D01*
X184766500Y-93300439D01*
X184806274Y-93500398D01*
X184884295Y-93688756D01*
X184997563Y-93858274D01*
X185141726Y-94002437D01*
X185311244Y-94115705D01*
X185499602Y-94193726D01*
X185699561Y-94233500D01*
X185903439Y-94233500D01*
X186103398Y-94193726D01*
X186291756Y-94115705D01*
X186461274Y-94002437D01*
X186605437Y-93858274D01*
X186718705Y-93688756D01*
X186796726Y-93500398D01*
X186836500Y-93300439D01*
X186836500Y-93096561D01*
X186796726Y-92896602D01*
X186718705Y-92708244D01*
X186605437Y-92538726D01*
X186560000Y-92493289D01*
X186560000Y-88047453D01*
X190171660Y-84435794D01*
X190242976Y-84397674D01*
X190358701Y-84302701D01*
X190382504Y-84273697D01*
X191111928Y-83544273D01*
X191111928Y-84350000D01*
X191124188Y-84474482D01*
X191160498Y-84594180D01*
X191219463Y-84704494D01*
X191298815Y-84801185D01*
X191395506Y-84880537D01*
X191505820Y-84939502D01*
X191578380Y-84961513D01*
X191446525Y-85093368D01*
X191284010Y-85336589D01*
X191172068Y-85606842D01*
X191115000Y-85893740D01*
X191115000Y-86186260D01*
X191172068Y-86473158D01*
X191284010Y-86743411D01*
X191446525Y-86986632D01*
X191653368Y-87193475D01*
X191827760Y-87310000D01*
X191653368Y-87426525D01*
X191446525Y-87633368D01*
X191284010Y-87876589D01*
X191172068Y-88146842D01*
X191115000Y-88433740D01*
X191115000Y-88726260D01*
X191172068Y-89013158D01*
X191284010Y-89283411D01*
X191446525Y-89526632D01*
X191653368Y-89733475D01*
X191827760Y-89850000D01*
X191653368Y-89966525D01*
X191446525Y-90173368D01*
X191284010Y-90416589D01*
X191172068Y-90686842D01*
X191115000Y-90973740D01*
X191115000Y-91266260D01*
X191172068Y-91553158D01*
X191284010Y-91823411D01*
X191446525Y-92066632D01*
X191653368Y-92273475D01*
X191827760Y-92390000D01*
X191653368Y-92506525D01*
X191446525Y-92713368D01*
X191284010Y-92956589D01*
X191172068Y-93226842D01*
X191115000Y-93513740D01*
X191115000Y-93806260D01*
X191172068Y-94093158D01*
X191284010Y-94363411D01*
X191446525Y-94606632D01*
X191653368Y-94813475D01*
X191827760Y-94930000D01*
X191653368Y-95046525D01*
X191446525Y-95253368D01*
X191284010Y-95496589D01*
X191172068Y-95766842D01*
X191115000Y-96053740D01*
X191115000Y-96346260D01*
X191172068Y-96633158D01*
X191284010Y-96903411D01*
X191446525Y-97146632D01*
X191653368Y-97353475D01*
X191827760Y-97470000D01*
X191653368Y-97586525D01*
X191446525Y-97793368D01*
X191284010Y-98036589D01*
X191172068Y-98306842D01*
X191115000Y-98593740D01*
X191115000Y-98886260D01*
X191172068Y-99173158D01*
X191284010Y-99443411D01*
X191446525Y-99686632D01*
X191653368Y-99893475D01*
X191827760Y-100010000D01*
X191653368Y-100126525D01*
X191446525Y-100333368D01*
X191284010Y-100576589D01*
X191172068Y-100846842D01*
X191115000Y-101133740D01*
X191115000Y-101426260D01*
X191172068Y-101713158D01*
X191284010Y-101983411D01*
X191446525Y-102226632D01*
X191653368Y-102433475D01*
X191827760Y-102550000D01*
X191653368Y-102666525D01*
X191446525Y-102873368D01*
X191284010Y-103116589D01*
X191172068Y-103386842D01*
X191115000Y-103673740D01*
X191115000Y-103966260D01*
X191172068Y-104253158D01*
X191284010Y-104523411D01*
X191446525Y-104766632D01*
X191653368Y-104973475D01*
X191835534Y-105095195D01*
X191718645Y-105164822D01*
X191502412Y-105359731D01*
X191328359Y-105593080D01*
X191203175Y-105855901D01*
X191158524Y-106003110D01*
X191279845Y-106233000D01*
X192473000Y-106233000D01*
X192473000Y-106213000D01*
X192727000Y-106213000D01*
X192727000Y-106233000D01*
X193920155Y-106233000D01*
X194041476Y-106003110D01*
X193996825Y-105855901D01*
X193871641Y-105593080D01*
X193697588Y-105359731D01*
X193481355Y-105164822D01*
X193364466Y-105095195D01*
X193546632Y-104973475D01*
X193753475Y-104766632D01*
X193915990Y-104523411D01*
X194027932Y-104253158D01*
X194085000Y-103966260D01*
X194085000Y-103673740D01*
X194027932Y-103386842D01*
X193915990Y-103116589D01*
X193753475Y-102873368D01*
X193546632Y-102666525D01*
X193372240Y-102550000D01*
X193546632Y-102433475D01*
X193753475Y-102226632D01*
X193915990Y-101983411D01*
X194027932Y-101713158D01*
X194085000Y-101426260D01*
X194085000Y-101133740D01*
X194027932Y-100846842D01*
X193915990Y-100576589D01*
X193753475Y-100333368D01*
X193546632Y-100126525D01*
X193372240Y-100010000D01*
X193546632Y-99893475D01*
X193753475Y-99686632D01*
X193915990Y-99443411D01*
X194027932Y-99173158D01*
X194085000Y-98886260D01*
X194085000Y-98593740D01*
X194027932Y-98306842D01*
X193915990Y-98036589D01*
X193753475Y-97793368D01*
X193546632Y-97586525D01*
X193372240Y-97470000D01*
X193546632Y-97353475D01*
X193753475Y-97146632D01*
X193915990Y-96903411D01*
X194027932Y-96633158D01*
X194085000Y-96346260D01*
X194085000Y-96053740D01*
X194027932Y-95766842D01*
X193915990Y-95496589D01*
X193753475Y-95253368D01*
X193546632Y-95046525D01*
X193372240Y-94930000D01*
X193546632Y-94813475D01*
X193753475Y-94606632D01*
X193915990Y-94363411D01*
X194027932Y-94093158D01*
X194085000Y-93806260D01*
X194085000Y-93513740D01*
X194027932Y-93226842D01*
X193915990Y-92956589D01*
X193753475Y-92713368D01*
X193546632Y-92506525D01*
X193372240Y-92390000D01*
X193546632Y-92273475D01*
X193753475Y-92066632D01*
X193915990Y-91823411D01*
X194027932Y-91553158D01*
X194085000Y-91266260D01*
X194085000Y-90973740D01*
X194027932Y-90686842D01*
X193915990Y-90416589D01*
X193753475Y-90173368D01*
X193546632Y-89966525D01*
X193372240Y-89850000D01*
X193546632Y-89733475D01*
X193753475Y-89526632D01*
X193915990Y-89283411D01*
X194027932Y-89013158D01*
X194085000Y-88726260D01*
X194085000Y-88433740D01*
X194027932Y-88146842D01*
X193915990Y-87876589D01*
X193753475Y-87633368D01*
X193546632Y-87426525D01*
X193372240Y-87310000D01*
X193546632Y-87193475D01*
X193753475Y-86986632D01*
X193915990Y-86743411D01*
X194027932Y-86473158D01*
X194085000Y-86186260D01*
X194085000Y-85893740D01*
X194027932Y-85606842D01*
X193915990Y-85336589D01*
X193753475Y-85093368D01*
X193621620Y-84961513D01*
X193694180Y-84939502D01*
X193804494Y-84880537D01*
X193901185Y-84801185D01*
X193980537Y-84704494D01*
X194039502Y-84594180D01*
X194075812Y-84474482D01*
X194088072Y-84350000D01*
X194088072Y-83585973D01*
X199082301Y-88580203D01*
X199082300Y-127777791D01*
X198989839Y-127759400D01*
X198927702Y-127759400D01*
X190082042Y-118913740D01*
X191115000Y-118913740D01*
X191115000Y-119206260D01*
X191172068Y-119493158D01*
X191284010Y-119763411D01*
X191446525Y-120006632D01*
X191653368Y-120213475D01*
X191896589Y-120375990D01*
X192166842Y-120487932D01*
X192453740Y-120545000D01*
X192746260Y-120545000D01*
X193033158Y-120487932D01*
X193303411Y-120375990D01*
X193546632Y-120213475D01*
X193753475Y-120006632D01*
X193915990Y-119763411D01*
X194027932Y-119493158D01*
X194085000Y-119206260D01*
X194085000Y-118913740D01*
X194027932Y-118626842D01*
X193915990Y-118356589D01*
X193753475Y-118113368D01*
X193546632Y-117906525D01*
X193364466Y-117784805D01*
X193481355Y-117715178D01*
X193697588Y-117520269D01*
X193871641Y-117286920D01*
X193996825Y-117024099D01*
X194041476Y-116876890D01*
X193920155Y-116647000D01*
X192727000Y-116647000D01*
X192727000Y-116667000D01*
X192473000Y-116667000D01*
X192473000Y-116647000D01*
X191279845Y-116647000D01*
X191158524Y-116876890D01*
X191203175Y-117024099D01*
X191328359Y-117286920D01*
X191502412Y-117520269D01*
X191718645Y-117715178D01*
X191835534Y-117784805D01*
X191653368Y-117906525D01*
X191446525Y-118113368D01*
X191284010Y-118356589D01*
X191172068Y-118626842D01*
X191115000Y-118913740D01*
X190082042Y-118913740D01*
X179922042Y-108753740D01*
X191115000Y-108753740D01*
X191115000Y-109046260D01*
X191172068Y-109333158D01*
X191284010Y-109603411D01*
X191446525Y-109846632D01*
X191653368Y-110053475D01*
X191827760Y-110170000D01*
X191653368Y-110286525D01*
X191446525Y-110493368D01*
X191284010Y-110736589D01*
X191172068Y-111006842D01*
X191115000Y-111293740D01*
X191115000Y-111586260D01*
X191172068Y-111873158D01*
X191284010Y-112143411D01*
X191446525Y-112386632D01*
X191653368Y-112593475D01*
X191827760Y-112710000D01*
X191653368Y-112826525D01*
X191446525Y-113033368D01*
X191284010Y-113276589D01*
X191172068Y-113546842D01*
X191115000Y-113833740D01*
X191115000Y-114126260D01*
X191172068Y-114413158D01*
X191284010Y-114683411D01*
X191446525Y-114926632D01*
X191653368Y-115133475D01*
X191835534Y-115255195D01*
X191718645Y-115324822D01*
X191502412Y-115519731D01*
X191328359Y-115753080D01*
X191203175Y-116015901D01*
X191158524Y-116163110D01*
X191279845Y-116393000D01*
X192473000Y-116393000D01*
X192473000Y-116373000D01*
X192727000Y-116373000D01*
X192727000Y-116393000D01*
X193920155Y-116393000D01*
X194041476Y-116163110D01*
X193996825Y-116015901D01*
X193871641Y-115753080D01*
X193697588Y-115519731D01*
X193481355Y-115324822D01*
X193364466Y-115255195D01*
X193546632Y-115133475D01*
X193753475Y-114926632D01*
X193915990Y-114683411D01*
X194027932Y-114413158D01*
X194085000Y-114126260D01*
X194085000Y-113833740D01*
X194027932Y-113546842D01*
X193915990Y-113276589D01*
X193753475Y-113033368D01*
X193546632Y-112826525D01*
X193372240Y-112710000D01*
X193546632Y-112593475D01*
X193753475Y-112386632D01*
X193915990Y-112143411D01*
X194027932Y-111873158D01*
X194085000Y-111586260D01*
X194085000Y-111293740D01*
X194027932Y-111006842D01*
X193915990Y-110736589D01*
X193753475Y-110493368D01*
X193546632Y-110286525D01*
X193372240Y-110170000D01*
X193546632Y-110053475D01*
X193753475Y-109846632D01*
X193915990Y-109603411D01*
X194027932Y-109333158D01*
X194085000Y-109046260D01*
X194085000Y-108753740D01*
X194027932Y-108466842D01*
X193915990Y-108196589D01*
X193753475Y-107953368D01*
X193546632Y-107746525D01*
X193364466Y-107624805D01*
X193481355Y-107555178D01*
X193697588Y-107360269D01*
X193871641Y-107126920D01*
X193996825Y-106864099D01*
X194041476Y-106716890D01*
X193920155Y-106487000D01*
X192727000Y-106487000D01*
X192727000Y-106507000D01*
X192473000Y-106507000D01*
X192473000Y-106487000D01*
X191279845Y-106487000D01*
X191158524Y-106716890D01*
X191203175Y-106864099D01*
X191328359Y-107126920D01*
X191502412Y-107360269D01*
X191718645Y-107555178D01*
X191835534Y-107624805D01*
X191653368Y-107746525D01*
X191446525Y-107953368D01*
X191284010Y-108196589D01*
X191172068Y-108466842D01*
X191115000Y-108753740D01*
X179922042Y-108753740D01*
X177300004Y-106131703D01*
X177276201Y-106102699D01*
X177160476Y-106007726D01*
X177028447Y-105937154D01*
X176885186Y-105893697D01*
X176773533Y-105882700D01*
X176773522Y-105882700D01*
X176736200Y-105879024D01*
X176698878Y-105882700D01*
X168974969Y-105882700D01*
X169001185Y-105861185D01*
X169080537Y-105764494D01*
X169139502Y-105654180D01*
X169175812Y-105534482D01*
X169188072Y-105410000D01*
X169188072Y-103810000D01*
X169175812Y-103685518D01*
X169139502Y-103565820D01*
X169080537Y-103455506D01*
X169001185Y-103358815D01*
X168904494Y-103279463D01*
X168794180Y-103220498D01*
X168674482Y-103184188D01*
X168550000Y-103171928D01*
X166950000Y-103171928D01*
X166825518Y-103184188D01*
X166705820Y-103220498D01*
X166595506Y-103279463D01*
X166498815Y-103358815D01*
X166419463Y-103455506D01*
X166360498Y-103565820D01*
X166324188Y-103685518D01*
X166321769Y-103710080D01*
X166173414Y-103546481D01*
X165947420Y-103378963D01*
X165693087Y-103258754D01*
X165559039Y-103218096D01*
X165337000Y-103340085D01*
X165337000Y-104483000D01*
X165357000Y-104483000D01*
X165357000Y-104737000D01*
X165337000Y-104737000D01*
X165337000Y-104757000D01*
X165083000Y-104757000D01*
X165083000Y-104737000D01*
X165063000Y-104737000D01*
X165063000Y-104483000D01*
X165083000Y-104483000D01*
X165083000Y-103340085D01*
X164860961Y-103218096D01*
X164726913Y-103258754D01*
X164472580Y-103378963D01*
X164246586Y-103546481D01*
X164057615Y-103754869D01*
X163946067Y-103940865D01*
X163941680Y-103930273D01*
X163784637Y-103695241D01*
X163584759Y-103495363D01*
X163349727Y-103338320D01*
X163088574Y-103230147D01*
X162811335Y-103175000D01*
X162528665Y-103175000D01*
X162251426Y-103230147D01*
X161990273Y-103338320D01*
X161755241Y-103495363D01*
X161555363Y-103695241D01*
X161400000Y-103927759D01*
X161244637Y-103695241D01*
X161044759Y-103495363D01*
X160809727Y-103338320D01*
X160548574Y-103230147D01*
X160271335Y-103175000D01*
X159988665Y-103175000D01*
X159711426Y-103230147D01*
X159450273Y-103338320D01*
X159215241Y-103495363D01*
X159015363Y-103695241D01*
X158860000Y-103927759D01*
X158704637Y-103695241D01*
X158504759Y-103495363D01*
X158269727Y-103338320D01*
X158008574Y-103230147D01*
X157731335Y-103175000D01*
X157448665Y-103175000D01*
X157171426Y-103230147D01*
X156910273Y-103338320D01*
X156675241Y-103495363D01*
X156475363Y-103695241D01*
X156320000Y-103927759D01*
X156164637Y-103695241D01*
X155964759Y-103495363D01*
X155729727Y-103338320D01*
X155468574Y-103230147D01*
X155191335Y-103175000D01*
X154908665Y-103175000D01*
X154631426Y-103230147D01*
X154370273Y-103338320D01*
X154135241Y-103495363D01*
X153935363Y-103695241D01*
X153780000Y-103927759D01*
X153624637Y-103695241D01*
X153485249Y-103555853D01*
X159931302Y-97109800D01*
X159993439Y-97109800D01*
X160193398Y-97070026D01*
X160381756Y-96992005D01*
X160494000Y-96917006D01*
X160606244Y-96992005D01*
X160794602Y-97070026D01*
X160994561Y-97109800D01*
X161198439Y-97109800D01*
X161398398Y-97070026D01*
X161586756Y-96992005D01*
X161756274Y-96878737D01*
X161900437Y-96734574D01*
X162013705Y-96565056D01*
X162091726Y-96376698D01*
X162117372Y-96247761D01*
X170549200Y-96247761D01*
X170549200Y-96451639D01*
X170588974Y-96651598D01*
X170666995Y-96839956D01*
X170780263Y-97009474D01*
X170924426Y-97153637D01*
X171093944Y-97266905D01*
X171282302Y-97344926D01*
X171482261Y-97384700D01*
X171686139Y-97384700D01*
X171886098Y-97344926D01*
X172074456Y-97266905D01*
X172243974Y-97153637D01*
X172388137Y-97009474D01*
X172501405Y-96839956D01*
X172579426Y-96651598D01*
X172619200Y-96451639D01*
X172619200Y-96247761D01*
X172579426Y-96047802D01*
X172501405Y-95859444D01*
X172388137Y-95689926D01*
X172344200Y-95645989D01*
X172344200Y-95300801D01*
X187360002Y-80285000D01*
X187451939Y-80285000D01*
X187651898Y-80245226D01*
X187840256Y-80167205D01*
X188009774Y-80053937D01*
X188153937Y-79909774D01*
X188267205Y-79740256D01*
X188345226Y-79551898D01*
X188385000Y-79351939D01*
X188385000Y-79148061D01*
X188345226Y-78948102D01*
X188267205Y-78759744D01*
X188153937Y-78590226D01*
X188009774Y-78446063D01*
X187840256Y-78332795D01*
X187651898Y-78254774D01*
X187451939Y-78215000D01*
X187248061Y-78215000D01*
X187048102Y-78254774D01*
X186859744Y-78332795D01*
X186690226Y-78446063D01*
X186546063Y-78590226D01*
X186432795Y-78759744D01*
X186354774Y-78948102D01*
X186315000Y-79148061D01*
X186315000Y-79180398D01*
X171073198Y-94422201D01*
X171044200Y-94445999D01*
X171020402Y-94474997D01*
X171020401Y-94474998D01*
X170949226Y-94561724D01*
X170878654Y-94693754D01*
X170861971Y-94748754D01*
X170835198Y-94837014D01*
X170825158Y-94938954D01*
X170820524Y-94986000D01*
X170824201Y-95023332D01*
X170824201Y-95645988D01*
X170780263Y-95689926D01*
X170666995Y-95859444D01*
X170588974Y-96047802D01*
X170549200Y-96247761D01*
X162117372Y-96247761D01*
X162131500Y-96176739D01*
X162131500Y-95972861D01*
X162091726Y-95772902D01*
X162013705Y-95584544D01*
X161900437Y-95415026D01*
X161756274Y-95270863D01*
X161586756Y-95157595D01*
X161398398Y-95079574D01*
X161198439Y-95039800D01*
X161136302Y-95039800D01*
X150510000Y-84413499D01*
X150510000Y-82078043D01*
X150664759Y-81974637D01*
X150863357Y-81776039D01*
X150864188Y-81784482D01*
X150900498Y-81904180D01*
X150959463Y-82014494D01*
X151038815Y-82111185D01*
X151135506Y-82190537D01*
X151245820Y-82249502D01*
X151365518Y-82285812D01*
X151490000Y-82298072D01*
X152004250Y-82295000D01*
X152163000Y-82136250D01*
X152163000Y-80987000D01*
X152417000Y-80987000D01*
X152417000Y-82136250D01*
X152575750Y-82295000D01*
X153090000Y-82298072D01*
X153214482Y-82285812D01*
X153334180Y-82249502D01*
X153444494Y-82190537D01*
X153541185Y-82111185D01*
X153620537Y-82014494D01*
X153679502Y-81904180D01*
X153715812Y-81784482D01*
X153728072Y-81660000D01*
X153725000Y-81145750D01*
X153566250Y-80987000D01*
X152417000Y-80987000D01*
X152163000Y-80987000D01*
X152143000Y-80987000D01*
X152143000Y-80733000D01*
X152163000Y-80733000D01*
X152163000Y-79583750D01*
X152417000Y-79583750D01*
X152417000Y-80733000D01*
X153566250Y-80733000D01*
X153725000Y-80574250D01*
X153728072Y-80060000D01*
X153715812Y-79935518D01*
X153679502Y-79815820D01*
X153620537Y-79705506D01*
X153541185Y-79608815D01*
X153444494Y-79529463D01*
X153334180Y-79470498D01*
X153214482Y-79434188D01*
X153090000Y-79421928D01*
X152575750Y-79425000D01*
X152417000Y-79583750D01*
X152163000Y-79583750D01*
X152004250Y-79425000D01*
X151490000Y-79421928D01*
X151365518Y-79434188D01*
X151245820Y-79470498D01*
X151135506Y-79529463D01*
X151038815Y-79608815D01*
X150959463Y-79705506D01*
X150900498Y-79815820D01*
X150864188Y-79935518D01*
X150863357Y-79943961D01*
X150664759Y-79745363D01*
X150429727Y-79588320D01*
X150168574Y-79480147D01*
X149891335Y-79425000D01*
X149608665Y-79425000D01*
X149331426Y-79480147D01*
X149070273Y-79588320D01*
X148835241Y-79745363D01*
X148635363Y-79945241D01*
X148480000Y-80177759D01*
X148324637Y-79945241D01*
X148124759Y-79745363D01*
X147889727Y-79588320D01*
X147863364Y-79577400D01*
X147895578Y-79577400D01*
X147932900Y-79581076D01*
X147970222Y-79577400D01*
X147970233Y-79577400D01*
X148081886Y-79566403D01*
X148225147Y-79522946D01*
X148357176Y-79452374D01*
X148472901Y-79357401D01*
X148496704Y-79328397D01*
X149532399Y-78292702D01*
X151686903Y-78292702D01*
X151758486Y-78536671D01*
X152013996Y-78657571D01*
X152288184Y-78726300D01*
X152570512Y-78740217D01*
X152850130Y-78698787D01*
X153116292Y-78603603D01*
X153241514Y-78536671D01*
X153313097Y-78292702D01*
X152500000Y-77479605D01*
X151686903Y-78292702D01*
X149532399Y-78292702D01*
X151260377Y-76564725D01*
X151142429Y-76813996D01*
X151073700Y-77088184D01*
X151059783Y-77370512D01*
X151101213Y-77650130D01*
X151196397Y-77916292D01*
X151263329Y-78041514D01*
X151507298Y-78113097D01*
X152320395Y-77300000D01*
X152306253Y-77285858D01*
X152485858Y-77106253D01*
X152500000Y-77120395D01*
X152514143Y-77106253D01*
X152693748Y-77285858D01*
X152679605Y-77300000D01*
X153492702Y-78113097D01*
X153736671Y-78041514D01*
X153857571Y-77786004D01*
X153926300Y-77511816D01*
X153940217Y-77229488D01*
X153898787Y-76949870D01*
X153803603Y-76683708D01*
X153736671Y-76558486D01*
X153584713Y-76513900D01*
X191409199Y-76513900D01*
X194233899Y-79338600D01*
G37*
X194233899Y-79338600D02*
X189532825Y-79338600D01*
X189495500Y-79334924D01*
X189458175Y-79338600D01*
X189458167Y-79338600D01*
X189346514Y-79349597D01*
X189203253Y-79393054D01*
X189071224Y-79463626D01*
X188955499Y-79558599D01*
X188931701Y-79587597D01*
X174129799Y-94389500D01*
X174067661Y-94389500D01*
X173867702Y-94429274D01*
X173679344Y-94507295D01*
X173509826Y-94620563D01*
X173365663Y-94764726D01*
X173252395Y-94934244D01*
X173174374Y-95122602D01*
X173134600Y-95322561D01*
X173134600Y-95526439D01*
X173174374Y-95726398D01*
X173252395Y-95914756D01*
X173365663Y-96084274D01*
X173509826Y-96228437D01*
X173679344Y-96341705D01*
X173867702Y-96419726D01*
X174067661Y-96459500D01*
X174271539Y-96459500D01*
X174471498Y-96419726D01*
X174659856Y-96341705D01*
X174829374Y-96228437D01*
X174973537Y-96084274D01*
X175086805Y-95914756D01*
X175164826Y-95726398D01*
X175204600Y-95526439D01*
X175204600Y-95464301D01*
X176705134Y-93963768D01*
X176701624Y-93999400D01*
X176705300Y-94036722D01*
X176705300Y-94070489D01*
X176661363Y-94114426D01*
X176548095Y-94283944D01*
X176470074Y-94472302D01*
X176430300Y-94672261D01*
X176430300Y-94876139D01*
X176470074Y-95076098D01*
X176548095Y-95264456D01*
X176661363Y-95433974D01*
X176805526Y-95578137D01*
X176975044Y-95691405D01*
X177163402Y-95769426D01*
X177363361Y-95809200D01*
X177567239Y-95809200D01*
X177767198Y-95769426D01*
X177955556Y-95691405D01*
X178125074Y-95578137D01*
X178269237Y-95433974D01*
X178382505Y-95264456D01*
X178460526Y-95076098D01*
X178500300Y-94876139D01*
X178500300Y-94672261D01*
X178460526Y-94472302D01*
X178382505Y-94283944D01*
X178331657Y-94207844D01*
X180375441Y-92164060D01*
X180425563Y-92239074D01*
X180469500Y-92283011D01*
X180469501Y-93420188D01*
X180425563Y-93464126D01*
X180312295Y-93633644D01*
X180234274Y-93822002D01*
X180194500Y-94021961D01*
X180194500Y-94225839D01*
X180234274Y-94425798D01*
X180312295Y-94614156D01*
X180425563Y-94783674D01*
X180569726Y-94927837D01*
X180739244Y-95041105D01*
X180927602Y-95119126D01*
X181127561Y-95158900D01*
X181331439Y-95158900D01*
X181531398Y-95119126D01*
X181719756Y-95041105D01*
X181889274Y-94927837D01*
X182033437Y-94783674D01*
X182146705Y-94614156D01*
X182224726Y-94425798D01*
X182264500Y-94225839D01*
X182264500Y-94021961D01*
X182224726Y-93822002D01*
X182146705Y-93633644D01*
X182033437Y-93464126D01*
X181989500Y-93420189D01*
X181989500Y-92283011D01*
X182033437Y-92239074D01*
X182146705Y-92069556D01*
X182224726Y-91881198D01*
X182264500Y-91681239D01*
X182264500Y-91477361D01*
X182255597Y-91432604D01*
X185040000Y-88648201D01*
X185040001Y-92496288D01*
X184997563Y-92538726D01*
X184884295Y-92708244D01*
X184806274Y-92896602D01*
X184766500Y-93096561D01*
X184766500Y-93300439D01*
X184806274Y-93500398D01*
X184884295Y-93688756D01*
X184997563Y-93858274D01*
X185141726Y-94002437D01*
X185311244Y-94115705D01*
X185499602Y-94193726D01*
X185699561Y-94233500D01*
X185903439Y-94233500D01*
X186103398Y-94193726D01*
X186291756Y-94115705D01*
X186461274Y-94002437D01*
X186605437Y-93858274D01*
X186718705Y-93688756D01*
X186796726Y-93500398D01*
X186836500Y-93300439D01*
X186836500Y-93096561D01*
X186796726Y-92896602D01*
X186718705Y-92708244D01*
X186605437Y-92538726D01*
X186560000Y-92493289D01*
X186560000Y-88047453D01*
X190171660Y-84435794D01*
X190242976Y-84397674D01*
X190358701Y-84302701D01*
X190382504Y-84273697D01*
X191111928Y-83544273D01*
X191111928Y-84350000D01*
X191124188Y-84474482D01*
X191160498Y-84594180D01*
X191219463Y-84704494D01*
X191298815Y-84801185D01*
X191395506Y-84880537D01*
X191505820Y-84939502D01*
X191578380Y-84961513D01*
X191446525Y-85093368D01*
X191284010Y-85336589D01*
X191172068Y-85606842D01*
X191115000Y-85893740D01*
X191115000Y-86186260D01*
X191172068Y-86473158D01*
X191284010Y-86743411D01*
X191446525Y-86986632D01*
X191653368Y-87193475D01*
X191827760Y-87310000D01*
X191653368Y-87426525D01*
X191446525Y-87633368D01*
X191284010Y-87876589D01*
X191172068Y-88146842D01*
X191115000Y-88433740D01*
X191115000Y-88726260D01*
X191172068Y-89013158D01*
X191284010Y-89283411D01*
X191446525Y-89526632D01*
X191653368Y-89733475D01*
X191827760Y-89850000D01*
X191653368Y-89966525D01*
X191446525Y-90173368D01*
X191284010Y-90416589D01*
X191172068Y-90686842D01*
X191115000Y-90973740D01*
X191115000Y-91266260D01*
X191172068Y-91553158D01*
X191284010Y-91823411D01*
X191446525Y-92066632D01*
X191653368Y-92273475D01*
X191827760Y-92390000D01*
X191653368Y-92506525D01*
X191446525Y-92713368D01*
X191284010Y-92956589D01*
X191172068Y-93226842D01*
X191115000Y-93513740D01*
X191115000Y-93806260D01*
X191172068Y-94093158D01*
X191284010Y-94363411D01*
X191446525Y-94606632D01*
X191653368Y-94813475D01*
X191827760Y-94930000D01*
X191653368Y-95046525D01*
X191446525Y-95253368D01*
X191284010Y-95496589D01*
X191172068Y-95766842D01*
X191115000Y-96053740D01*
X191115000Y-96346260D01*
X191172068Y-96633158D01*
X191284010Y-96903411D01*
X191446525Y-97146632D01*
X191653368Y-97353475D01*
X191827760Y-97470000D01*
X191653368Y-97586525D01*
X191446525Y-97793368D01*
X191284010Y-98036589D01*
X191172068Y-98306842D01*
X191115000Y-98593740D01*
X191115000Y-98886260D01*
X191172068Y-99173158D01*
X191284010Y-99443411D01*
X191446525Y-99686632D01*
X191653368Y-99893475D01*
X191827760Y-100010000D01*
X191653368Y-100126525D01*
X191446525Y-100333368D01*
X191284010Y-100576589D01*
X191172068Y-100846842D01*
X191115000Y-101133740D01*
X191115000Y-101426260D01*
X191172068Y-101713158D01*
X191284010Y-101983411D01*
X191446525Y-102226632D01*
X191653368Y-102433475D01*
X191827760Y-102550000D01*
X191653368Y-102666525D01*
X191446525Y-102873368D01*
X191284010Y-103116589D01*
X191172068Y-103386842D01*
X191115000Y-103673740D01*
X191115000Y-103966260D01*
X191172068Y-104253158D01*
X191284010Y-104523411D01*
X191446525Y-104766632D01*
X191653368Y-104973475D01*
X191835534Y-105095195D01*
X191718645Y-105164822D01*
X191502412Y-105359731D01*
X191328359Y-105593080D01*
X191203175Y-105855901D01*
X191158524Y-106003110D01*
X191279845Y-106233000D01*
X192473000Y-106233000D01*
X192473000Y-106213000D01*
X192727000Y-106213000D01*
X192727000Y-106233000D01*
X193920155Y-106233000D01*
X194041476Y-106003110D01*
X193996825Y-105855901D01*
X193871641Y-105593080D01*
X193697588Y-105359731D01*
X193481355Y-105164822D01*
X193364466Y-105095195D01*
X193546632Y-104973475D01*
X193753475Y-104766632D01*
X193915990Y-104523411D01*
X194027932Y-104253158D01*
X194085000Y-103966260D01*
X194085000Y-103673740D01*
X194027932Y-103386842D01*
X193915990Y-103116589D01*
X193753475Y-102873368D01*
X193546632Y-102666525D01*
X193372240Y-102550000D01*
X193546632Y-102433475D01*
X193753475Y-102226632D01*
X193915990Y-101983411D01*
X194027932Y-101713158D01*
X194085000Y-101426260D01*
X194085000Y-101133740D01*
X194027932Y-100846842D01*
X193915990Y-100576589D01*
X193753475Y-100333368D01*
X193546632Y-100126525D01*
X193372240Y-100010000D01*
X193546632Y-99893475D01*
X193753475Y-99686632D01*
X193915990Y-99443411D01*
X194027932Y-99173158D01*
X194085000Y-98886260D01*
X194085000Y-98593740D01*
X194027932Y-98306842D01*
X193915990Y-98036589D01*
X193753475Y-97793368D01*
X193546632Y-97586525D01*
X193372240Y-97470000D01*
X193546632Y-97353475D01*
X193753475Y-97146632D01*
X193915990Y-96903411D01*
X194027932Y-96633158D01*
X194085000Y-96346260D01*
X194085000Y-96053740D01*
X194027932Y-95766842D01*
X193915990Y-95496589D01*
X193753475Y-95253368D01*
X193546632Y-95046525D01*
X193372240Y-94930000D01*
X193546632Y-94813475D01*
X193753475Y-94606632D01*
X193915990Y-94363411D01*
X194027932Y-94093158D01*
X194085000Y-93806260D01*
X194085000Y-93513740D01*
X194027932Y-93226842D01*
X193915990Y-92956589D01*
X193753475Y-92713368D01*
X193546632Y-92506525D01*
X193372240Y-92390000D01*
X193546632Y-92273475D01*
X193753475Y-92066632D01*
X193915990Y-91823411D01*
X194027932Y-91553158D01*
X194085000Y-91266260D01*
X194085000Y-90973740D01*
X194027932Y-90686842D01*
X193915990Y-90416589D01*
X193753475Y-90173368D01*
X193546632Y-89966525D01*
X193372240Y-89850000D01*
X193546632Y-89733475D01*
X193753475Y-89526632D01*
X193915990Y-89283411D01*
X194027932Y-89013158D01*
X194085000Y-88726260D01*
X194085000Y-88433740D01*
X194027932Y-88146842D01*
X193915990Y-87876589D01*
X193753475Y-87633368D01*
X193546632Y-87426525D01*
X193372240Y-87310000D01*
X193546632Y-87193475D01*
X193753475Y-86986632D01*
X193915990Y-86743411D01*
X194027932Y-86473158D01*
X194085000Y-86186260D01*
X194085000Y-85893740D01*
X194027932Y-85606842D01*
X193915990Y-85336589D01*
X193753475Y-85093368D01*
X193621620Y-84961513D01*
X193694180Y-84939502D01*
X193804494Y-84880537D01*
X193901185Y-84801185D01*
X193980537Y-84704494D01*
X194039502Y-84594180D01*
X194075812Y-84474482D01*
X194088072Y-84350000D01*
X194088072Y-83585973D01*
X199082301Y-88580203D01*
X199082300Y-127777791D01*
X198989839Y-127759400D01*
X198927702Y-127759400D01*
X190082042Y-118913740D01*
X191115000Y-118913740D01*
X191115000Y-119206260D01*
X191172068Y-119493158D01*
X191284010Y-119763411D01*
X191446525Y-120006632D01*
X191653368Y-120213475D01*
X191896589Y-120375990D01*
X192166842Y-120487932D01*
X192453740Y-120545000D01*
X192746260Y-120545000D01*
X193033158Y-120487932D01*
X193303411Y-120375990D01*
X193546632Y-120213475D01*
X193753475Y-120006632D01*
X193915990Y-119763411D01*
X194027932Y-119493158D01*
X194085000Y-119206260D01*
X194085000Y-118913740D01*
X194027932Y-118626842D01*
X193915990Y-118356589D01*
X193753475Y-118113368D01*
X193546632Y-117906525D01*
X193364466Y-117784805D01*
X193481355Y-117715178D01*
X193697588Y-117520269D01*
X193871641Y-117286920D01*
X193996825Y-117024099D01*
X194041476Y-116876890D01*
X193920155Y-116647000D01*
X192727000Y-116647000D01*
X192727000Y-116667000D01*
X192473000Y-116667000D01*
X192473000Y-116647000D01*
X191279845Y-116647000D01*
X191158524Y-116876890D01*
X191203175Y-117024099D01*
X191328359Y-117286920D01*
X191502412Y-117520269D01*
X191718645Y-117715178D01*
X191835534Y-117784805D01*
X191653368Y-117906525D01*
X191446525Y-118113368D01*
X191284010Y-118356589D01*
X191172068Y-118626842D01*
X191115000Y-118913740D01*
X190082042Y-118913740D01*
X179922042Y-108753740D01*
X191115000Y-108753740D01*
X191115000Y-109046260D01*
X191172068Y-109333158D01*
X191284010Y-109603411D01*
X191446525Y-109846632D01*
X191653368Y-110053475D01*
X191827760Y-110170000D01*
X191653368Y-110286525D01*
X191446525Y-110493368D01*
X191284010Y-110736589D01*
X191172068Y-111006842D01*
X191115000Y-111293740D01*
X191115000Y-111586260D01*
X191172068Y-111873158D01*
X191284010Y-112143411D01*
X191446525Y-112386632D01*
X191653368Y-112593475D01*
X191827760Y-112710000D01*
X191653368Y-112826525D01*
X191446525Y-113033368D01*
X191284010Y-113276589D01*
X191172068Y-113546842D01*
X191115000Y-113833740D01*
X191115000Y-114126260D01*
X191172068Y-114413158D01*
X191284010Y-114683411D01*
X191446525Y-114926632D01*
X191653368Y-115133475D01*
X191835534Y-115255195D01*
X191718645Y-115324822D01*
X191502412Y-115519731D01*
X191328359Y-115753080D01*
X191203175Y-116015901D01*
X191158524Y-116163110D01*
X191279845Y-116393000D01*
X192473000Y-116393000D01*
X192473000Y-116373000D01*
X192727000Y-116373000D01*
X192727000Y-116393000D01*
X193920155Y-116393000D01*
X194041476Y-116163110D01*
X193996825Y-116015901D01*
X193871641Y-115753080D01*
X193697588Y-115519731D01*
X193481355Y-115324822D01*
X193364466Y-115255195D01*
X193546632Y-115133475D01*
X193753475Y-114926632D01*
X193915990Y-114683411D01*
X194027932Y-114413158D01*
X194085000Y-114126260D01*
X194085000Y-113833740D01*
X194027932Y-113546842D01*
X193915990Y-113276589D01*
X193753475Y-113033368D01*
X193546632Y-112826525D01*
X193372240Y-112710000D01*
X193546632Y-112593475D01*
X193753475Y-112386632D01*
X193915990Y-112143411D01*
X194027932Y-111873158D01*
X194085000Y-111586260D01*
X194085000Y-111293740D01*
X194027932Y-111006842D01*
X193915990Y-110736589D01*
X193753475Y-110493368D01*
X193546632Y-110286525D01*
X193372240Y-110170000D01*
X193546632Y-110053475D01*
X193753475Y-109846632D01*
X193915990Y-109603411D01*
X194027932Y-109333158D01*
X194085000Y-109046260D01*
X194085000Y-108753740D01*
X194027932Y-108466842D01*
X193915990Y-108196589D01*
X193753475Y-107953368D01*
X193546632Y-107746525D01*
X193364466Y-107624805D01*
X193481355Y-107555178D01*
X193697588Y-107360269D01*
X193871641Y-107126920D01*
X193996825Y-106864099D01*
X194041476Y-106716890D01*
X193920155Y-106487000D01*
X192727000Y-106487000D01*
X192727000Y-106507000D01*
X192473000Y-106507000D01*
X192473000Y-106487000D01*
X191279845Y-106487000D01*
X191158524Y-106716890D01*
X191203175Y-106864099D01*
X191328359Y-107126920D01*
X191502412Y-107360269D01*
X191718645Y-107555178D01*
X191835534Y-107624805D01*
X191653368Y-107746525D01*
X191446525Y-107953368D01*
X191284010Y-108196589D01*
X191172068Y-108466842D01*
X191115000Y-108753740D01*
X179922042Y-108753740D01*
X177300004Y-106131703D01*
X177276201Y-106102699D01*
X177160476Y-106007726D01*
X177028447Y-105937154D01*
X176885186Y-105893697D01*
X176773533Y-105882700D01*
X176773522Y-105882700D01*
X176736200Y-105879024D01*
X176698878Y-105882700D01*
X168974969Y-105882700D01*
X169001185Y-105861185D01*
X169080537Y-105764494D01*
X169139502Y-105654180D01*
X169175812Y-105534482D01*
X169188072Y-105410000D01*
X169188072Y-103810000D01*
X169175812Y-103685518D01*
X169139502Y-103565820D01*
X169080537Y-103455506D01*
X169001185Y-103358815D01*
X168904494Y-103279463D01*
X168794180Y-103220498D01*
X168674482Y-103184188D01*
X168550000Y-103171928D01*
X166950000Y-103171928D01*
X166825518Y-103184188D01*
X166705820Y-103220498D01*
X166595506Y-103279463D01*
X166498815Y-103358815D01*
X166419463Y-103455506D01*
X166360498Y-103565820D01*
X166324188Y-103685518D01*
X166321769Y-103710080D01*
X166173414Y-103546481D01*
X165947420Y-103378963D01*
X165693087Y-103258754D01*
X165559039Y-103218096D01*
X165337000Y-103340085D01*
X165337000Y-104483000D01*
X165357000Y-104483000D01*
X165357000Y-104737000D01*
X165337000Y-104737000D01*
X165337000Y-104757000D01*
X165083000Y-104757000D01*
X165083000Y-104737000D01*
X165063000Y-104737000D01*
X165063000Y-104483000D01*
X165083000Y-104483000D01*
X165083000Y-103340085D01*
X164860961Y-103218096D01*
X164726913Y-103258754D01*
X164472580Y-103378963D01*
X164246586Y-103546481D01*
X164057615Y-103754869D01*
X163946067Y-103940865D01*
X163941680Y-103930273D01*
X163784637Y-103695241D01*
X163584759Y-103495363D01*
X163349727Y-103338320D01*
X163088574Y-103230147D01*
X162811335Y-103175000D01*
X162528665Y-103175000D01*
X162251426Y-103230147D01*
X161990273Y-103338320D01*
X161755241Y-103495363D01*
X161555363Y-103695241D01*
X161400000Y-103927759D01*
X161244637Y-103695241D01*
X161044759Y-103495363D01*
X160809727Y-103338320D01*
X160548574Y-103230147D01*
X160271335Y-103175000D01*
X159988665Y-103175000D01*
X159711426Y-103230147D01*
X159450273Y-103338320D01*
X159215241Y-103495363D01*
X159015363Y-103695241D01*
X158860000Y-103927759D01*
X158704637Y-103695241D01*
X158504759Y-103495363D01*
X158269727Y-103338320D01*
X158008574Y-103230147D01*
X157731335Y-103175000D01*
X157448665Y-103175000D01*
X157171426Y-103230147D01*
X156910273Y-103338320D01*
X156675241Y-103495363D01*
X156475363Y-103695241D01*
X156320000Y-103927759D01*
X156164637Y-103695241D01*
X155964759Y-103495363D01*
X155729727Y-103338320D01*
X155468574Y-103230147D01*
X155191335Y-103175000D01*
X154908665Y-103175000D01*
X154631426Y-103230147D01*
X154370273Y-103338320D01*
X154135241Y-103495363D01*
X153935363Y-103695241D01*
X153780000Y-103927759D01*
X153624637Y-103695241D01*
X153485249Y-103555853D01*
X159931302Y-97109800D01*
X159993439Y-97109800D01*
X160193398Y-97070026D01*
X160381756Y-96992005D01*
X160494000Y-96917006D01*
X160606244Y-96992005D01*
X160794602Y-97070026D01*
X160994561Y-97109800D01*
X161198439Y-97109800D01*
X161398398Y-97070026D01*
X161586756Y-96992005D01*
X161756274Y-96878737D01*
X161900437Y-96734574D01*
X162013705Y-96565056D01*
X162091726Y-96376698D01*
X162117372Y-96247761D01*
X170549200Y-96247761D01*
X170549200Y-96451639D01*
X170588974Y-96651598D01*
X170666995Y-96839956D01*
X170780263Y-97009474D01*
X170924426Y-97153637D01*
X171093944Y-97266905D01*
X171282302Y-97344926D01*
X171482261Y-97384700D01*
X171686139Y-97384700D01*
X171886098Y-97344926D01*
X172074456Y-97266905D01*
X172243974Y-97153637D01*
X172388137Y-97009474D01*
X172501405Y-96839956D01*
X172579426Y-96651598D01*
X172619200Y-96451639D01*
X172619200Y-96247761D01*
X172579426Y-96047802D01*
X172501405Y-95859444D01*
X172388137Y-95689926D01*
X172344200Y-95645989D01*
X172344200Y-95300801D01*
X187360002Y-80285000D01*
X187451939Y-80285000D01*
X187651898Y-80245226D01*
X187840256Y-80167205D01*
X188009774Y-80053937D01*
X188153937Y-79909774D01*
X188267205Y-79740256D01*
X188345226Y-79551898D01*
X188385000Y-79351939D01*
X188385000Y-79148061D01*
X188345226Y-78948102D01*
X188267205Y-78759744D01*
X188153937Y-78590226D01*
X188009774Y-78446063D01*
X187840256Y-78332795D01*
X187651898Y-78254774D01*
X187451939Y-78215000D01*
X187248061Y-78215000D01*
X187048102Y-78254774D01*
X186859744Y-78332795D01*
X186690226Y-78446063D01*
X186546063Y-78590226D01*
X186432795Y-78759744D01*
X186354774Y-78948102D01*
X186315000Y-79148061D01*
X186315000Y-79180398D01*
X171073198Y-94422201D01*
X171044200Y-94445999D01*
X171020402Y-94474997D01*
X171020401Y-94474998D01*
X170949226Y-94561724D01*
X170878654Y-94693754D01*
X170861971Y-94748754D01*
X170835198Y-94837014D01*
X170825158Y-94938954D01*
X170820524Y-94986000D01*
X170824201Y-95023332D01*
X170824201Y-95645988D01*
X170780263Y-95689926D01*
X170666995Y-95859444D01*
X170588974Y-96047802D01*
X170549200Y-96247761D01*
X162117372Y-96247761D01*
X162131500Y-96176739D01*
X162131500Y-95972861D01*
X162091726Y-95772902D01*
X162013705Y-95584544D01*
X161900437Y-95415026D01*
X161756274Y-95270863D01*
X161586756Y-95157595D01*
X161398398Y-95079574D01*
X161198439Y-95039800D01*
X161136302Y-95039800D01*
X150510000Y-84413499D01*
X150510000Y-82078043D01*
X150664759Y-81974637D01*
X150863357Y-81776039D01*
X150864188Y-81784482D01*
X150900498Y-81904180D01*
X150959463Y-82014494D01*
X151038815Y-82111185D01*
X151135506Y-82190537D01*
X151245820Y-82249502D01*
X151365518Y-82285812D01*
X151490000Y-82298072D01*
X152004250Y-82295000D01*
X152163000Y-82136250D01*
X152163000Y-80987000D01*
X152417000Y-80987000D01*
X152417000Y-82136250D01*
X152575750Y-82295000D01*
X153090000Y-82298072D01*
X153214482Y-82285812D01*
X153334180Y-82249502D01*
X153444494Y-82190537D01*
X153541185Y-82111185D01*
X153620537Y-82014494D01*
X153679502Y-81904180D01*
X153715812Y-81784482D01*
X153728072Y-81660000D01*
X153725000Y-81145750D01*
X153566250Y-80987000D01*
X152417000Y-80987000D01*
X152163000Y-80987000D01*
X152143000Y-80987000D01*
X152143000Y-80733000D01*
X152163000Y-80733000D01*
X152163000Y-79583750D01*
X152417000Y-79583750D01*
X152417000Y-80733000D01*
X153566250Y-80733000D01*
X153725000Y-80574250D01*
X153728072Y-80060000D01*
X153715812Y-79935518D01*
X153679502Y-79815820D01*
X153620537Y-79705506D01*
X153541185Y-79608815D01*
X153444494Y-79529463D01*
X153334180Y-79470498D01*
X153214482Y-79434188D01*
X153090000Y-79421928D01*
X152575750Y-79425000D01*
X152417000Y-79583750D01*
X152163000Y-79583750D01*
X152004250Y-79425000D01*
X151490000Y-79421928D01*
X151365518Y-79434188D01*
X151245820Y-79470498D01*
X151135506Y-79529463D01*
X151038815Y-79608815D01*
X150959463Y-79705506D01*
X150900498Y-79815820D01*
X150864188Y-79935518D01*
X150863357Y-79943961D01*
X150664759Y-79745363D01*
X150429727Y-79588320D01*
X150168574Y-79480147D01*
X149891335Y-79425000D01*
X149608665Y-79425000D01*
X149331426Y-79480147D01*
X149070273Y-79588320D01*
X148835241Y-79745363D01*
X148635363Y-79945241D01*
X148480000Y-80177759D01*
X148324637Y-79945241D01*
X148124759Y-79745363D01*
X147889727Y-79588320D01*
X147863364Y-79577400D01*
X147895578Y-79577400D01*
X147932900Y-79581076D01*
X147970222Y-79577400D01*
X147970233Y-79577400D01*
X148081886Y-79566403D01*
X148225147Y-79522946D01*
X148357176Y-79452374D01*
X148472901Y-79357401D01*
X148496704Y-79328397D01*
X149532399Y-78292702D01*
X151686903Y-78292702D01*
X151758486Y-78536671D01*
X152013996Y-78657571D01*
X152288184Y-78726300D01*
X152570512Y-78740217D01*
X152850130Y-78698787D01*
X153116292Y-78603603D01*
X153241514Y-78536671D01*
X153313097Y-78292702D01*
X152500000Y-77479605D01*
X151686903Y-78292702D01*
X149532399Y-78292702D01*
X151260377Y-76564725D01*
X151142429Y-76813996D01*
X151073700Y-77088184D01*
X151059783Y-77370512D01*
X151101213Y-77650130D01*
X151196397Y-77916292D01*
X151263329Y-78041514D01*
X151507298Y-78113097D01*
X152320395Y-77300000D01*
X152306253Y-77285858D01*
X152485858Y-77106253D01*
X152500000Y-77120395D01*
X152514143Y-77106253D01*
X152693748Y-77285858D01*
X152679605Y-77300000D01*
X153492702Y-78113097D01*
X153736671Y-78041514D01*
X153857571Y-77786004D01*
X153926300Y-77511816D01*
X153940217Y-77229488D01*
X153898787Y-76949870D01*
X153803603Y-76683708D01*
X153736671Y-76558486D01*
X153584713Y-76513900D01*
X191409199Y-76513900D01*
X194233899Y-79338600D01*
G36*
X119782001Y-106089803D02*
G01*
X119782000Y-118754578D01*
X119778324Y-118791900D01*
X119782000Y-118829222D01*
X119782000Y-118829232D01*
X119792997Y-118940885D01*
X119808047Y-118990498D01*
X119836454Y-119084146D01*
X119907026Y-119216176D01*
X119939955Y-119256300D01*
X120001999Y-119331901D01*
X120031003Y-119355704D01*
X122375879Y-121700581D01*
X122258486Y-121763329D01*
X122186903Y-122007298D01*
X123000000Y-122820395D01*
X123014143Y-122806253D01*
X123193748Y-122985858D01*
X123179605Y-123000000D01*
X123193748Y-123014143D01*
X123014143Y-123193748D01*
X123000000Y-123179605D01*
X122985858Y-123193748D01*
X122806253Y-123014143D01*
X122820395Y-123000000D01*
X122007298Y-122186903D01*
X121763329Y-122258486D01*
X121642429Y-122513996D01*
X121573700Y-122788184D01*
X121559783Y-123070512D01*
X121601213Y-123350130D01*
X121611891Y-123379989D01*
X118426304Y-120194403D01*
X118402501Y-120165399D01*
X118286776Y-120070426D01*
X118154747Y-119999854D01*
X118138519Y-119994931D01*
X118219853Y-119798574D01*
X118275000Y-119521335D01*
X118275000Y-119238665D01*
X118219853Y-118961426D01*
X118111680Y-118700273D01*
X117954637Y-118465241D01*
X117754759Y-118265363D01*
X117522241Y-118110000D01*
X117754759Y-117954637D01*
X117954637Y-117754759D01*
X118111680Y-117519727D01*
X118219853Y-117258574D01*
X118275000Y-116981335D01*
X118275000Y-116698665D01*
X118219853Y-116421426D01*
X118111680Y-116160273D01*
X117954637Y-115925241D01*
X117754759Y-115725363D01*
X117522241Y-115570000D01*
X117754759Y-115414637D01*
X117954637Y-115214759D01*
X118111680Y-114979727D01*
X118219853Y-114718574D01*
X118275000Y-114441335D01*
X118275000Y-114158665D01*
X118219853Y-113881426D01*
X118111680Y-113620273D01*
X117954637Y-113385241D01*
X117754759Y-113185363D01*
X117522241Y-113030000D01*
X117754759Y-112874637D01*
X117954637Y-112674759D01*
X118111680Y-112439727D01*
X118219853Y-112178574D01*
X118275000Y-111901335D01*
X118275000Y-111618665D01*
X118219853Y-111341426D01*
X118111680Y-111080273D01*
X117954637Y-110845241D01*
X117754759Y-110645363D01*
X117522241Y-110490000D01*
X117754759Y-110334637D01*
X117954637Y-110134759D01*
X118111680Y-109899727D01*
X118219853Y-109638574D01*
X118275000Y-109361335D01*
X118275000Y-109078665D01*
X118219853Y-108801426D01*
X118111680Y-108540273D01*
X117954637Y-108305241D01*
X117754759Y-108105363D01*
X117522241Y-107950000D01*
X117754759Y-107794637D01*
X117954637Y-107594759D01*
X118111680Y-107359727D01*
X118219853Y-107098574D01*
X118275000Y-106821335D01*
X118275000Y-106538665D01*
X118219853Y-106261426D01*
X118111680Y-106000273D01*
X117954637Y-105765241D01*
X117754759Y-105565363D01*
X117522241Y-105410000D01*
X117754759Y-105254637D01*
X117954637Y-105054759D01*
X118111680Y-104819727D01*
X118219853Y-104558574D01*
X118224983Y-104532785D01*
X119782001Y-106089803D01*
G37*
X119782001Y-106089803D02*
X119782000Y-118754578D01*
X119778324Y-118791900D01*
X119782000Y-118829222D01*
X119782000Y-118829232D01*
X119792997Y-118940885D01*
X119808047Y-118990498D01*
X119836454Y-119084146D01*
X119907026Y-119216176D01*
X119939955Y-119256300D01*
X120001999Y-119331901D01*
X120031003Y-119355704D01*
X122375879Y-121700581D01*
X122258486Y-121763329D01*
X122186903Y-122007298D01*
X123000000Y-122820395D01*
X123014143Y-122806253D01*
X123193748Y-122985858D01*
X123179605Y-123000000D01*
X123193748Y-123014143D01*
X123014143Y-123193748D01*
X123000000Y-123179605D01*
X122985858Y-123193748D01*
X122806253Y-123014143D01*
X122820395Y-123000000D01*
X122007298Y-122186903D01*
X121763329Y-122258486D01*
X121642429Y-122513996D01*
X121573700Y-122788184D01*
X121559783Y-123070512D01*
X121601213Y-123350130D01*
X121611891Y-123379989D01*
X118426304Y-120194403D01*
X118402501Y-120165399D01*
X118286776Y-120070426D01*
X118154747Y-119999854D01*
X118138519Y-119994931D01*
X118219853Y-119798574D01*
X118275000Y-119521335D01*
X118275000Y-119238665D01*
X118219853Y-118961426D01*
X118111680Y-118700273D01*
X117954637Y-118465241D01*
X117754759Y-118265363D01*
X117522241Y-118110000D01*
X117754759Y-117954637D01*
X117954637Y-117754759D01*
X118111680Y-117519727D01*
X118219853Y-117258574D01*
X118275000Y-116981335D01*
X118275000Y-116698665D01*
X118219853Y-116421426D01*
X118111680Y-116160273D01*
X117954637Y-115925241D01*
X117754759Y-115725363D01*
X117522241Y-115570000D01*
X117754759Y-115414637D01*
X117954637Y-115214759D01*
X118111680Y-114979727D01*
X118219853Y-114718574D01*
X118275000Y-114441335D01*
X118275000Y-114158665D01*
X118219853Y-113881426D01*
X118111680Y-113620273D01*
X117954637Y-113385241D01*
X117754759Y-113185363D01*
X117522241Y-113030000D01*
X117754759Y-112874637D01*
X117954637Y-112674759D01*
X118111680Y-112439727D01*
X118219853Y-112178574D01*
X118275000Y-111901335D01*
X118275000Y-111618665D01*
X118219853Y-111341426D01*
X118111680Y-111080273D01*
X117954637Y-110845241D01*
X117754759Y-110645363D01*
X117522241Y-110490000D01*
X117754759Y-110334637D01*
X117954637Y-110134759D01*
X118111680Y-109899727D01*
X118219853Y-109638574D01*
X118275000Y-109361335D01*
X118275000Y-109078665D01*
X118219853Y-108801426D01*
X118111680Y-108540273D01*
X117954637Y-108305241D01*
X117754759Y-108105363D01*
X117522241Y-107950000D01*
X117754759Y-107794637D01*
X117954637Y-107594759D01*
X118111680Y-107359727D01*
X118219853Y-107098574D01*
X118275000Y-106821335D01*
X118275000Y-106538665D01*
X118219853Y-106261426D01*
X118111680Y-106000273D01*
X117954637Y-105765241D01*
X117754759Y-105565363D01*
X117522241Y-105410000D01*
X117754759Y-105254637D01*
X117954637Y-105054759D01*
X118111680Y-104819727D01*
X118219853Y-104558574D01*
X118224983Y-104532785D01*
X119782001Y-106089803D01*
G36*
X151175363Y-97014759D02*
G01*
X151375241Y-97214637D01*
X151610273Y-97371680D01*
X151871426Y-97479853D01*
X152148665Y-97535000D01*
X152431335Y-97535000D01*
X152708574Y-97479853D01*
X152859400Y-97417379D01*
X152859400Y-97981698D01*
X150664698Y-100176401D01*
X150635700Y-100200199D01*
X150611902Y-100229197D01*
X150611901Y-100229198D01*
X150540726Y-100315924D01*
X150470154Y-100447954D01*
X150451849Y-100508300D01*
X150426698Y-100591214D01*
X150419667Y-100662599D01*
X150412024Y-100740200D01*
X150415701Y-100777532D01*
X150415700Y-103241383D01*
X150388574Y-103230147D01*
X150111335Y-103175000D01*
X149828665Y-103175000D01*
X149551426Y-103230147D01*
X149290273Y-103338320D01*
X149055241Y-103495363D01*
X148855363Y-103695241D01*
X148700000Y-103927759D01*
X148544637Y-103695241D01*
X148344759Y-103495363D01*
X148109727Y-103338320D01*
X147848574Y-103230147D01*
X147571335Y-103175000D01*
X147288665Y-103175000D01*
X147106114Y-103211312D01*
X144354904Y-100460103D01*
X144331101Y-100431099D01*
X144215376Y-100336126D01*
X144083347Y-100265554D01*
X143940086Y-100222097D01*
X143828433Y-100211100D01*
X143828422Y-100211100D01*
X143791100Y-100207424D01*
X143753778Y-100211100D01*
X139109425Y-100211100D01*
X139072100Y-100207424D01*
X139034775Y-100211100D01*
X139034767Y-100211100D01*
X138923114Y-100222097D01*
X138779853Y-100265554D01*
X138647824Y-100336126D01*
X138532099Y-100431099D01*
X138508301Y-100460097D01*
X137386799Y-101581600D01*
X133968501Y-101581600D01*
X137561003Y-97989099D01*
X137590001Y-97965301D01*
X137623346Y-97924670D01*
X137684974Y-97849577D01*
X137755546Y-97717547D01*
X137769488Y-97671586D01*
X137799003Y-97574286D01*
X137810000Y-97462633D01*
X137810000Y-97462624D01*
X137813676Y-97425301D01*
X137810000Y-97387978D01*
X137810000Y-97318043D01*
X137964759Y-97214637D01*
X138164637Y-97014759D01*
X138320000Y-96782241D01*
X138475363Y-97014759D01*
X138675241Y-97214637D01*
X138910273Y-97371680D01*
X139171426Y-97479853D01*
X139448665Y-97535000D01*
X139731335Y-97535000D01*
X140008574Y-97479853D01*
X140269727Y-97371680D01*
X140504759Y-97214637D01*
X140704637Y-97014759D01*
X140860000Y-96782241D01*
X141015363Y-97014759D01*
X141215241Y-97214637D01*
X141450273Y-97371680D01*
X141711426Y-97479853D01*
X141988665Y-97535000D01*
X142271335Y-97535000D01*
X142548574Y-97479853D01*
X142809727Y-97371680D01*
X143044759Y-97214637D01*
X143244637Y-97014759D01*
X143400000Y-96782241D01*
X143555363Y-97014759D01*
X143755241Y-97214637D01*
X143990273Y-97371680D01*
X144251426Y-97479853D01*
X144528665Y-97535000D01*
X144811335Y-97535000D01*
X145088574Y-97479853D01*
X145349727Y-97371680D01*
X145584759Y-97214637D01*
X145784637Y-97014759D01*
X145940000Y-96782241D01*
X146095363Y-97014759D01*
X146295241Y-97214637D01*
X146530273Y-97371680D01*
X146791426Y-97479853D01*
X147068665Y-97535000D01*
X147351335Y-97535000D01*
X147628574Y-97479853D01*
X147889727Y-97371680D01*
X148124759Y-97214637D01*
X148324637Y-97014759D01*
X148480000Y-96782241D01*
X148635363Y-97014759D01*
X148835241Y-97214637D01*
X149070273Y-97371680D01*
X149331426Y-97479853D01*
X149608665Y-97535000D01*
X149891335Y-97535000D01*
X150168574Y-97479853D01*
X150429727Y-97371680D01*
X150664759Y-97214637D01*
X150864637Y-97014759D01*
X151020000Y-96782241D01*
X151175363Y-97014759D01*
G37*
X151175363Y-97014759D02*
X151375241Y-97214637D01*
X151610273Y-97371680D01*
X151871426Y-97479853D01*
X152148665Y-97535000D01*
X152431335Y-97535000D01*
X152708574Y-97479853D01*
X152859400Y-97417379D01*
X152859400Y-97981698D01*
X150664698Y-100176401D01*
X150635700Y-100200199D01*
X150611902Y-100229197D01*
X150611901Y-100229198D01*
X150540726Y-100315924D01*
X150470154Y-100447954D01*
X150451849Y-100508300D01*
X150426698Y-100591214D01*
X150419667Y-100662599D01*
X150412024Y-100740200D01*
X150415701Y-100777532D01*
X150415700Y-103241383D01*
X150388574Y-103230147D01*
X150111335Y-103175000D01*
X149828665Y-103175000D01*
X149551426Y-103230147D01*
X149290273Y-103338320D01*
X149055241Y-103495363D01*
X148855363Y-103695241D01*
X148700000Y-103927759D01*
X148544637Y-103695241D01*
X148344759Y-103495363D01*
X148109727Y-103338320D01*
X147848574Y-103230147D01*
X147571335Y-103175000D01*
X147288665Y-103175000D01*
X147106114Y-103211312D01*
X144354904Y-100460103D01*
X144331101Y-100431099D01*
X144215376Y-100336126D01*
X144083347Y-100265554D01*
X143940086Y-100222097D01*
X143828433Y-100211100D01*
X143828422Y-100211100D01*
X143791100Y-100207424D01*
X143753778Y-100211100D01*
X139109425Y-100211100D01*
X139072100Y-100207424D01*
X139034775Y-100211100D01*
X139034767Y-100211100D01*
X138923114Y-100222097D01*
X138779853Y-100265554D01*
X138647824Y-100336126D01*
X138532099Y-100431099D01*
X138508301Y-100460097D01*
X137386799Y-101581600D01*
X133968501Y-101581600D01*
X137561003Y-97989099D01*
X137590001Y-97965301D01*
X137623346Y-97924670D01*
X137684974Y-97849577D01*
X137755546Y-97717547D01*
X137769488Y-97671586D01*
X137799003Y-97574286D01*
X137810000Y-97462633D01*
X137810000Y-97462624D01*
X137813676Y-97425301D01*
X137810000Y-97387978D01*
X137810000Y-97318043D01*
X137964759Y-97214637D01*
X138164637Y-97014759D01*
X138320000Y-96782241D01*
X138475363Y-97014759D01*
X138675241Y-97214637D01*
X138910273Y-97371680D01*
X139171426Y-97479853D01*
X139448665Y-97535000D01*
X139731335Y-97535000D01*
X140008574Y-97479853D01*
X140269727Y-97371680D01*
X140504759Y-97214637D01*
X140704637Y-97014759D01*
X140860000Y-96782241D01*
X141015363Y-97014759D01*
X141215241Y-97214637D01*
X141450273Y-97371680D01*
X141711426Y-97479853D01*
X141988665Y-97535000D01*
X142271335Y-97535000D01*
X142548574Y-97479853D01*
X142809727Y-97371680D01*
X143044759Y-97214637D01*
X143244637Y-97014759D01*
X143400000Y-96782241D01*
X143555363Y-97014759D01*
X143755241Y-97214637D01*
X143990273Y-97371680D01*
X144251426Y-97479853D01*
X144528665Y-97535000D01*
X144811335Y-97535000D01*
X145088574Y-97479853D01*
X145349727Y-97371680D01*
X145584759Y-97214637D01*
X145784637Y-97014759D01*
X145940000Y-96782241D01*
X146095363Y-97014759D01*
X146295241Y-97214637D01*
X146530273Y-97371680D01*
X146791426Y-97479853D01*
X147068665Y-97535000D01*
X147351335Y-97535000D01*
X147628574Y-97479853D01*
X147889727Y-97371680D01*
X148124759Y-97214637D01*
X148324637Y-97014759D01*
X148480000Y-96782241D01*
X148635363Y-97014759D01*
X148835241Y-97214637D01*
X149070273Y-97371680D01*
X149331426Y-97479853D01*
X149608665Y-97535000D01*
X149891335Y-97535000D01*
X150168574Y-97479853D01*
X150429727Y-97371680D01*
X150664759Y-97214637D01*
X150864637Y-97014759D01*
X151020000Y-96782241D01*
X151175363Y-97014759D01*
G36*
X124477000Y-95973000D02*
G01*
X124497000Y-95973000D01*
X124497000Y-96227000D01*
X124477000Y-96227000D01*
X124477000Y-97369915D01*
X124699039Y-97491904D01*
X124833087Y-97451246D01*
X125087420Y-97331037D01*
X125313414Y-97163519D01*
X125502385Y-96955131D01*
X125613933Y-96769135D01*
X125618320Y-96779727D01*
X125775363Y-97014759D01*
X125975241Y-97214637D01*
X126210273Y-97371680D01*
X126471426Y-97479853D01*
X126748665Y-97535000D01*
X127031335Y-97535000D01*
X127308574Y-97479853D01*
X127569727Y-97371680D01*
X127804759Y-97214637D01*
X128004637Y-97014759D01*
X128160000Y-96782241D01*
X128315363Y-97014759D01*
X128515241Y-97214637D01*
X128670001Y-97318044D01*
X128670001Y-98198468D01*
X128666324Y-98235800D01*
X128670001Y-98273133D01*
X128672303Y-98296500D01*
X128680998Y-98384785D01*
X128724454Y-98528046D01*
X128795026Y-98660076D01*
X128833781Y-98707298D01*
X128890000Y-98775801D01*
X128918998Y-98799599D01*
X130519730Y-100400332D01*
X130374244Y-100460595D01*
X130204726Y-100573863D01*
X130060563Y-100718026D01*
X129947295Y-100887544D01*
X129869274Y-101075902D01*
X129829500Y-101275861D01*
X129829500Y-101387817D01*
X129738647Y-101339254D01*
X129595386Y-101295797D01*
X129483733Y-101284800D01*
X129483722Y-101284800D01*
X129446400Y-101281124D01*
X129409078Y-101284800D01*
X120794971Y-101284800D01*
X120665956Y-101198595D01*
X120477598Y-101120574D01*
X120277639Y-101080800D01*
X120073761Y-101080800D01*
X119873802Y-101120574D01*
X119685444Y-101198595D01*
X119515926Y-101311863D01*
X119371763Y-101456026D01*
X119277821Y-101596620D01*
X119004018Y-101322817D01*
X119120516Y-101311343D01*
X119428715Y-101217852D01*
X119712752Y-101066031D01*
X119961714Y-100861714D01*
X120100417Y-100692702D01*
X122986903Y-100692702D01*
X123058486Y-100936671D01*
X123313996Y-101057571D01*
X123588184Y-101126300D01*
X123870512Y-101140217D01*
X124150130Y-101098787D01*
X124416292Y-101003603D01*
X124541514Y-100936671D01*
X124613097Y-100692702D01*
X123800000Y-99879605D01*
X122986903Y-100692702D01*
X120100417Y-100692702D01*
X120166031Y-100612752D01*
X120317852Y-100328715D01*
X120411343Y-100020516D01*
X120435000Y-99780321D01*
X120435000Y-99770512D01*
X122359783Y-99770512D01*
X122401213Y-100050130D01*
X122496397Y-100316292D01*
X122563329Y-100441514D01*
X122807298Y-100513097D01*
X123620395Y-99700000D01*
X123979605Y-99700000D01*
X124792702Y-100513097D01*
X125036671Y-100441514D01*
X125157571Y-100186004D01*
X125226300Y-99911816D01*
X125240217Y-99629488D01*
X125198787Y-99349870D01*
X125103603Y-99083708D01*
X125036671Y-98958486D01*
X124792702Y-98886903D01*
X123979605Y-99700000D01*
X123620395Y-99700000D01*
X122807298Y-98886903D01*
X122563329Y-98958486D01*
X122442429Y-99213996D01*
X122373700Y-99488184D01*
X122359783Y-99770512D01*
X120435000Y-99770512D01*
X120435000Y-99458010D01*
X120636031Y-99213052D01*
X120787852Y-98929015D01*
X120855109Y-98707298D01*
X122986903Y-98707298D01*
X123800000Y-99520395D01*
X124613097Y-98707298D01*
X124541514Y-98463329D01*
X124286004Y-98342429D01*
X124011816Y-98273700D01*
X123729488Y-98259783D01*
X123449870Y-98301213D01*
X123183708Y-98396397D01*
X123058486Y-98463329D01*
X122986903Y-98707298D01*
X120855109Y-98707298D01*
X120881343Y-98620816D01*
X120905000Y-98380622D01*
X120905000Y-98380620D01*
X120912911Y-98300301D01*
X120905000Y-98219981D01*
X120905000Y-97221158D01*
X121130273Y-97371680D01*
X121391426Y-97479853D01*
X121668665Y-97535000D01*
X121951335Y-97535000D01*
X122228574Y-97479853D01*
X122489727Y-97371680D01*
X122724759Y-97214637D01*
X122924637Y-97014759D01*
X123081680Y-96779727D01*
X123086067Y-96769135D01*
X123197615Y-96955131D01*
X123386586Y-97163519D01*
X123612580Y-97331037D01*
X123866913Y-97451246D01*
X124000961Y-97491904D01*
X124223000Y-97369915D01*
X124223000Y-96227000D01*
X124203000Y-96227000D01*
X124203000Y-95973000D01*
X124223000Y-95973000D01*
X124223000Y-95953000D01*
X124477000Y-95953000D01*
X124477000Y-95973000D01*
G37*
X124477000Y-95973000D02*
X124497000Y-95973000D01*
X124497000Y-96227000D01*
X124477000Y-96227000D01*
X124477000Y-97369915D01*
X124699039Y-97491904D01*
X124833087Y-97451246D01*
X125087420Y-97331037D01*
X125313414Y-97163519D01*
X125502385Y-96955131D01*
X125613933Y-96769135D01*
X125618320Y-96779727D01*
X125775363Y-97014759D01*
X125975241Y-97214637D01*
X126210273Y-97371680D01*
X126471426Y-97479853D01*
X126748665Y-97535000D01*
X127031335Y-97535000D01*
X127308574Y-97479853D01*
X127569727Y-97371680D01*
X127804759Y-97214637D01*
X128004637Y-97014759D01*
X128160000Y-96782241D01*
X128315363Y-97014759D01*
X128515241Y-97214637D01*
X128670001Y-97318044D01*
X128670001Y-98198468D01*
X128666324Y-98235800D01*
X128670001Y-98273133D01*
X128672303Y-98296500D01*
X128680998Y-98384785D01*
X128724454Y-98528046D01*
X128795026Y-98660076D01*
X128833781Y-98707298D01*
X128890000Y-98775801D01*
X128918998Y-98799599D01*
X130519730Y-100400332D01*
X130374244Y-100460595D01*
X130204726Y-100573863D01*
X130060563Y-100718026D01*
X129947295Y-100887544D01*
X129869274Y-101075902D01*
X129829500Y-101275861D01*
X129829500Y-101387817D01*
X129738647Y-101339254D01*
X129595386Y-101295797D01*
X129483733Y-101284800D01*
X129483722Y-101284800D01*
X129446400Y-101281124D01*
X129409078Y-101284800D01*
X120794971Y-101284800D01*
X120665956Y-101198595D01*
X120477598Y-101120574D01*
X120277639Y-101080800D01*
X120073761Y-101080800D01*
X119873802Y-101120574D01*
X119685444Y-101198595D01*
X119515926Y-101311863D01*
X119371763Y-101456026D01*
X119277821Y-101596620D01*
X119004018Y-101322817D01*
X119120516Y-101311343D01*
X119428715Y-101217852D01*
X119712752Y-101066031D01*
X119961714Y-100861714D01*
X120100417Y-100692702D01*
X122986903Y-100692702D01*
X123058486Y-100936671D01*
X123313996Y-101057571D01*
X123588184Y-101126300D01*
X123870512Y-101140217D01*
X124150130Y-101098787D01*
X124416292Y-101003603D01*
X124541514Y-100936671D01*
X124613097Y-100692702D01*
X123800000Y-99879605D01*
X122986903Y-100692702D01*
X120100417Y-100692702D01*
X120166031Y-100612752D01*
X120317852Y-100328715D01*
X120411343Y-100020516D01*
X120435000Y-99780321D01*
X120435000Y-99770512D01*
X122359783Y-99770512D01*
X122401213Y-100050130D01*
X122496397Y-100316292D01*
X122563329Y-100441514D01*
X122807298Y-100513097D01*
X123620395Y-99700000D01*
X123979605Y-99700000D01*
X124792702Y-100513097D01*
X125036671Y-100441514D01*
X125157571Y-100186004D01*
X125226300Y-99911816D01*
X125240217Y-99629488D01*
X125198787Y-99349870D01*
X125103603Y-99083708D01*
X125036671Y-98958486D01*
X124792702Y-98886903D01*
X123979605Y-99700000D01*
X123620395Y-99700000D01*
X122807298Y-98886903D01*
X122563329Y-98958486D01*
X122442429Y-99213996D01*
X122373700Y-99488184D01*
X122359783Y-99770512D01*
X120435000Y-99770512D01*
X120435000Y-99458010D01*
X120636031Y-99213052D01*
X120787852Y-98929015D01*
X120855109Y-98707298D01*
X122986903Y-98707298D01*
X123800000Y-99520395D01*
X124613097Y-98707298D01*
X124541514Y-98463329D01*
X124286004Y-98342429D01*
X124011816Y-98273700D01*
X123729488Y-98259783D01*
X123449870Y-98301213D01*
X123183708Y-98396397D01*
X123058486Y-98463329D01*
X122986903Y-98707298D01*
X120855109Y-98707298D01*
X120881343Y-98620816D01*
X120905000Y-98380622D01*
X120905000Y-98380620D01*
X120912911Y-98300301D01*
X120905000Y-98219981D01*
X120905000Y-97221158D01*
X121130273Y-97371680D01*
X121391426Y-97479853D01*
X121668665Y-97535000D01*
X121951335Y-97535000D01*
X122228574Y-97479853D01*
X122489727Y-97371680D01*
X122724759Y-97214637D01*
X122924637Y-97014759D01*
X123081680Y-96779727D01*
X123086067Y-96769135D01*
X123197615Y-96955131D01*
X123386586Y-97163519D01*
X123612580Y-97331037D01*
X123866913Y-97451246D01*
X124000961Y-97491904D01*
X124223000Y-97369915D01*
X124223000Y-96227000D01*
X124203000Y-96227000D01*
X124203000Y-95973000D01*
X124223000Y-95973000D01*
X124223000Y-95953000D01*
X124477000Y-95953000D01*
X124477000Y-95973000D01*
M02*
